<svg width="100" height="100" viewBox="0 0 100 100" fill="none" xmlns="http://www.w3.org/2000/svg">
<g clip-path="url(#clip0_326_65)">
<path d="M49.594 3.81885C61.7511 3.81885 73.5219 6.31942 84.5847 11.248C86.8847 20.6062 88.3334 30.3679 88.3672 36.7642C88.3672 36.8799 88.3685 36.9949 88.3685 37.1106C88.3685 43.4152 87.4618 49.5734 85.6723 55.4241C83.9142 61.1702 81.2968 66.616 77.8932 71.6123C74.5474 76.5236 70.4204 81.0302 65.629 85.0071C60.5423 89.2294 54.5619 93.0261 49.5946 95.192C44.6273 93.0261 38.6468 89.23 33.5596 85.0071C28.7676 81.0302 24.6406 76.523 21.2948 71.6123C17.8918 66.6173 15.2744 61.1702 13.5156 55.4241C11.7256 49.574 10.8188 43.4152 10.8188 37.1099C10.8188 36.9949 10.8188 36.8799 10.8201 36.7648C10.8539 30.3692 12.302 20.6068 14.6026 11.2486C25.6648 6.32003 37.4362 3.81885 49.594 3.81885Z" fill="white"/>
<path d="M49.5939 3.81883C61.7511 3.81883 73.5219 6.3194 84.5847 11.2479C86.8847 20.6062 88.3334 30.3679 88.3672 36.7642C88.3672 36.8799 88.3685 36.9949 88.3685 37.1105C88.3685 43.4152 87.4617 49.5734 85.6723 55.424C83.9142 61.1701 81.2967 66.616 77.8931 71.6122C74.5473 76.5236 70.4203 81.0301 65.629 85.007C60.5423 89.2294 54.5619 93.0261 49.5946 95.192C44.6273 93.0261 38.6468 89.23 33.5595 85.007C28.7676 81.0301 24.6405 76.5229 21.2948 71.6122C17.8918 66.6172 15.2743 61.1701 13.5156 55.424C11.7256 49.574 10.8188 43.4152 10.8188 37.1099C10.8188 36.9949 10.8188 36.8799 10.8201 36.7648C10.8539 30.3691 12.3019 20.6068 14.6026 11.2486C25.6648 6.32001 37.4362 3.81883 49.5939 3.81883ZM49.5939 0C36.901 0 24.6049 2.6113 13.0481 7.76068L11.3405 8.52162L10.8939 10.3375C9.73679 15.044 8.76485 19.9615 8.08327 24.5585C7.39369 29.2102 7.01968 33.4203 7.00123 36.7335C7 36.8589 7 36.9844 7 37.1099C7 43.7935 7.96332 50.3313 9.86412 56.5418C11.736 62.6569 14.5202 68.451 18.1391 73.7628C21.686 78.9688 26.0535 83.7411 31.1211 87.9462C33.7373 90.1183 36.6611 92.2449 39.5751 94.0952C42.5155 95.9622 45.4522 97.5523 48.0684 98.6928L49.5946 99.3584L51.1207 98.6928C53.737 97.5523 56.6737 95.9622 59.6141 94.0946C62.528 92.2442 65.4512 90.1177 68.068 87.9456C73.135 83.7398 77.5025 78.9682 81.0488 73.7622C84.669 68.4485 87.4525 62.6545 89.3238 56.5412C91.224 50.3288 92.1873 43.7916 92.1873 37.1105C92.1873 36.9894 92.1873 36.8688 92.1861 36.7476V36.7439C92.1682 33.4295 91.7942 29.2151 91.1034 24.5566C90.4218 19.9609 89.4505 15.0434 88.2934 10.3363L87.8468 8.52039L86.1385 7.75945C74.5812 2.61068 62.2856 0 49.5939 0Z" fill="white"/>
<path d="M49.5952 39.8208C52.2865 39.8208 54.8233 40.514 57.0157 41.7425H79.607C79.6531 40.1628 79.626 38.3887 79.594 36.7124C79.4618 29.7939 77.4503 18.1165 75.4793 10.0157C67.4664 7.42162 58.8679 5.90405 49.6001 5.90405L49.5952 39.8208Z" fill="#CA0538"/>
<path d="M49.6007 5.93056C40.5396 5.93056 32.1958 7.28265 23.74 10.0041C21.6595 18.399 19.9396 29.5146 19.6818 34.851C19.3035 42.6659 19.8707 48.3135 21.435 54.4963C22.3141 57.9713 23.4816 61.239 24.969 64.5478C26.5752 63.7026 28.2453 62.6452 29.9277 61.3884C31.6969 60.069 33.2335 58.3828 34.4909 56.7816C34.4244 56.2052 34.3894 55.6196 34.3894 55.0254C34.3894 54.11 34.4693 53.2144 34.6244 52.3439C31.4988 52.4528 29.7229 52.494 28.3296 52.494C26.649 52.494 25.1154 51.3234 24.3717 49.5315H23.5849C22.9907 49.5315 21.9856 49.0246 21.9856 47.1232C21.9856 45.2218 22.9913 44.7149 23.5849 44.7149H24.3699C25.1136 42.9174 26.6478 41.7431 28.3302 41.7431H42.1827C44.3763 40.5159 46.9064 39.8159 49.5989 39.8159L49.6013 5.92871V5.92994L49.6007 5.93056Z" fill="#E20613"/>
<path d="M35.8411 82.0309C31.5708 77.7784 28.0442 73.0775 25.2532 68.0603C22.4211 62.9669 20.409 57.2959 19.2223 51.6267C18.0007 45.7939 17.6168 39.9026 18.0265 33.6595C18.4128 27.78 19.9642 18.8757 21.8798 10.6389C20.0448 11.2836 18.2264 11.9929 16.4283 12.7692C14.4125 20.862 12.9977 31.13 12.9681 36.7439C12.9355 43.0005 13.8257 49.0622 15.5696 54.7627C17.3984 60.7395 19.8221 65.6041 23.0695 70.3696C26.3021 75.1142 30.2925 79.4719 34.9301 83.3209C39.2638 86.9177 44.2059 90.082 49.5896 92.7492C44.4692 89.6058 39.831 86.0066 35.8411 82.0315V82.0309Z" fill="#003671"/>
<path d="M63.3399 82.0333C67.6103 77.7808 71.1375 73.0799 73.9278 68.0621C76.7606 62.9687 78.7721 57.2977 79.9587 51.6285C81.1804 45.7957 81.5649 39.9044 81.1546 33.6619C80.7677 27.7824 79.2126 18.8695 77.297 10.6321C79.132 11.2768 80.9596 11.9909 82.7577 12.7673C84.7735 20.8607 86.1828 31.1318 86.2123 36.745C86.2449 43.0017 85.3548 49.064 83.6109 54.7639C81.9155 60.3033 79.3928 65.5548 76.111 70.3714C72.8784 75.1154 68.8879 79.4737 64.2504 83.3227C59.9173 86.9194 54.9746 90.0831 49.5914 92.751C54.7119 89.607 59.3495 86.0078 63.3393 82.0333H63.3399Z" fill="#003671"/>
<path d="M49.5822 40.5801C41.6007 40.5801 35.1306 47.0502 35.1306 55.0311C35.1306 63.012 41.6007 69.4827 49.5822 69.4827C57.5638 69.4827 64.0333 63.0126 64.0333 55.0311C64.0333 47.0496 57.5631 40.5801 49.5822 40.5801Z" fill="#A1853E"/>
<path d="M49.594 70.2375C44.6833 70.2375 40.3077 67.9085 37.5273 64.2964C34.1317 66.2347 30.5663 67.764 27.1528 68.8109C29.8466 73.5457 33.1948 77.9723 37.2191 82.0243C40.8503 85.6801 45.0056 89.0203 49.594 91.994V70.2369V70.2375Z" fill="#E20613"/>
<path d="M28.3154 51.7418C26.7523 51.7418 25.4144 50.5109 24.8841 48.7793H23.5702C23.2306 48.7793 22.7268 48.3683 22.7268 47.1276C22.7268 45.8868 23.2306 45.4759 23.5702 45.4759H24.8829C25.4125 43.7418 26.7505 42.5042 28.3142 42.5042H40.9517C37.884 44.6221 35.6326 47.8387 34.7652 51.5849C31.9657 51.6821 29.8194 51.7418 28.3136 51.7418H28.3148H28.3154Z" fill="#A1853E"/>
<path d="M84.9015 10.947C74.1684 6.13843 62.3558 3.41333 49.594 3.41333C36.8322 3.41333 25.0189 6.13843 14.2852 10.947C11.8099 20.9653 10.4811 30.6828 10.4491 36.7278C10.4153 43.1905 11.3276 49.505 13.1607 55.4953C14.9305 61.2777 17.5633 66.758 20.9878 71.7837C24.3527 76.7234 28.5031 81.2558 33.3215 85.2561C37.8545 89.0189 43.9937 93.1465 49.5934 95.5616C55.1924 93.1465 61.3322 89.0189 65.8646 85.2561C70.6843 81.2558 74.8334 76.7234 78.1983 71.7837C81.6222 66.758 84.2562 61.2777 86.0254 55.4953C87.8585 49.505 88.7714 43.1905 88.7369 36.7278C88.7056 30.6828 87.3762 20.9647 84.9009 10.947H84.9015ZM76.116 70.3646C72.8834 75.1092 68.893 79.4669 64.2548 83.3159C59.9217 86.9127 54.9734 90.0794 49.5897 92.7467C44.2059 90.0788 39.2657 86.9127 34.9314 83.3159C30.2938 79.4669 26.3033 75.1092 23.0707 70.3646C22.8148 69.9894 22.5651 69.6098 22.3178 69.229C27.0396 68.4312 32.2598 66.427 37.0788 63.6804C35.8781 61.9476 35.023 59.9551 34.6262 57.8027C33.4187 59.2858 31.9799 60.7917 30.3368 62.0177C27.672 64.0065 24.4554 65.9805 20.9749 67.0502C18.6983 63.1705 16.8842 59.0521 15.5709 54.7577C13.8275 49.0596 12.9362 42.998 12.9694 36.7407C12.9989 31.1275 14.4132 20.8595 16.429 12.766C26.9234 8.23607 38.0741 5.93358 49.5927 5.93358C61.1114 5.93358 72.2615 8.23669 82.7559 12.7666C84.7717 20.8595 86.1866 31.1275 86.2161 36.7413C86.2265 38.6833 86.1472 40.6069 85.9817 42.5071L58.1993 42.5059C61.6355 44.8773 64.0481 48.626 64.6392 52.9566L69.9369 51.6937C71.1192 51.4279 71.6082 50.6295 71.7312 49.8987L85.0596 48.9969C84.6721 50.9524 84.1916 52.876 83.6152 54.7577C81.9199 60.2971 79.3972 65.548 76.1154 70.3646H76.116Z" fill="#A1853E"/>
<path d="M50.5419 59.027V66.813C54.1755 66.5214 57.346 64.5867 59.3089 61.7515L52.5669 57.8589C52.0274 58.4254 51.3286 58.8388 50.5419 59.0264V59.027Z" fill="white"/>
<path d="M48.6282 43.2478C44.992 43.5388 41.8197 45.4752 39.8568 48.3123L46.5865 52.1951C47.1285 51.6199 47.8334 51.2041 48.6288 51.0153V43.2484L48.6282 43.2478Z" fill="white"/>
<path d="M49.5817 52.926C48.4215 52.926 47.481 53.8666 47.481 55.0261C47.481 56.1857 48.4215 57.1269 49.5817 57.1269C50.7418 57.1269 51.6818 56.1863 51.6818 55.0261C51.6818 53.866 50.7412 52.926 49.5817 52.926Z" fill="white"/>
<path d="M50.5419 43.2484V51.0159C51.3354 51.2053 52.0404 51.6212 52.5817 52.1957L59.3114 48.3129C57.3485 45.4759 54.1774 43.54 50.5413 43.2478L50.5419 43.2484Z" fill="white"/>
<path d="M48.6282 59.0275C47.9878 58.8756 47.4053 58.5736 46.9193 58.1608C46.8079 58.0667 46.7015 57.9658 46.6013 57.8606L39.8593 61.7532C40.0137 61.9759 40.1767 62.1925 40.3452 62.4041C42.3248 64.8813 45.2793 66.5458 48.6282 66.814V59.0281V59.0275Z" fill="white"/>
<path d="M53.5303 56.2052L60.2692 60.0954C61.5967 57.374 61.9664 53.482 60.2717 49.9707L53.537 53.856C53.7523 54.5597 53.7757 55.4037 53.5309 56.2046L53.5303 56.2052Z" fill="white"/>
<path d="M40.9763 48.0934L46.4677 51.2596C46.886 50.9095 47.3609 50.6401 47.8733 50.4525L47.8709 44.1128C45.1532 44.5194 42.6969 45.9379 40.9769 48.094L40.9763 48.0934Z" fill="#A1853E"/>
<path d="M51.3101 44.1176L51.2991 50.4714C51.8115 50.659 52.2692 50.9069 52.6875 51.2563L58.1924 48.0932C56.4731 45.9372 54.0272 44.5242 51.3108 44.1169L51.3101 44.1176Z" fill="#A1853E"/>
<path d="M60.597 53.8838C60.4955 52.9119 60.2649 51.9676 59.9075 51.0603L54.3951 54.2283C54.44 54.491 54.4653 54.7536 54.4653 55.0212C54.4653 55.1289 54.4604 55.2359 54.4524 55.3423C56.0105 54.9173 57.6517 54.5107 59.3126 54.1606C59.7174 54.0758 60.1486 53.9829 60.597 53.8838Z" fill="#A1853E"/>
<path d="M49.594 91.9945C54.183 89.0209 58.3475 85.6702 61.9787 82.0138C66.2343 77.7287 69.7425 73.0001 72.5106 67.9571C75.3206 62.8378 77.3051 57.1453 78.464 51.457C78.5532 51.0172 78.6375 50.5977 78.7162 50.1584L72.3144 50.6161C71.9755 51.5148 71.2096 52.1798 70.1356 52.4216L70.146 52.4191C70.103 52.4296 67.7568 53.0121 64.7303 53.7097C64.7678 54.1446 64.7869 54.585 64.7869 55.0286C64.7869 63.4284 57.9877 70.2368 49.594 70.2368V91.9939V91.9945Z" fill="#CA0538"/>
<path d="M50.9337 55.0267C50.9337 54.2811 50.3265 53.6733 49.581 53.6733C48.8354 53.6733 48.2277 54.2811 48.2277 55.0267C48.2277 55.7722 48.8348 56.3806 49.581 56.3806C50.3272 56.3806 50.9337 55.7734 50.9337 55.0267Z" fill="#A1853E"/>
<path d="M51.296 65.9491C54.0113 65.5425 56.478 64.1283 58.1967 61.974L52.6678 58.7925C52.2532 59.1376 51.8011 59.4076 51.296 59.5934C51.296 59.5934 51.3065 65.9497 51.296 65.9491Z" fill="#CA0538"/>
<path d="M40.9789 61.9742L46.4838 58.7883C46.899 59.1334 47.3678 59.3979 47.8728 59.5831L47.8599 65.9468C45.144 65.5408 42.6988 64.129 40.9789 61.9748V61.9742Z" fill="#E20613"/>
<path d="M60.65 55.0389C60.65 54.8882 60.6463 54.7387 60.6401 54.5898C60.2243 54.6803 59.8244 54.7664 59.4486 54.8457C57.7668 55.2001 56.1416 55.6116 54.6892 56.0078L59.8983 59.0146C60.3953 57.7511 60.65 56.4174 60.65 55.0383V55.0389Z" fill="#CA0538"/>
<path d="M38.8911 49.9819C37.3323 53.2797 37.4313 56.9952 38.9126 60.1115L45.6318 56.2097C45.403 55.4537 45.3931 54.6349 45.6263 53.8512L38.8911 49.9819Z" fill="white"/>
<path d="M39.2804 59.0307L44.7607 55.8461C44.666 55.3084 44.6684 54.7634 44.7607 54.2252L39.2619 51.0688C38.2611 53.6279 38.2666 56.4643 39.2792 59.0301L39.2804 59.0307Z" fill="#A1853E"/>
<path d="M55.0884 30.2811C55.0736 30.5788 54.9973 31.5741 54.9721 31.8719H59.352C59.0954 30.6994 58.9915 29.0772 58.946 27.866C58.946 27.8722 58.8783 25.3384 58.8783 25.3384C58.8697 25.0972 58.938 24.8973 59.0758 24.7522C59.2012 24.6199 59.3747 24.543 59.5525 24.5412C59.7573 24.5387 60.1 24.5338 60.1264 25.248L60.2212 27.9355C60.2667 29.1449 60.2833 30.8415 60.1234 31.8712H64.3931C64.3223 31.504 64.2005 30.6231 64.1722 30.3807C64.708 31.5163 65.8547 32.0976 67.3925 32.0976C68.3017 32.0976 69.0128 31.7697 69.5314 31.4462C69.5492 31.48 69.7516 31.8712 69.7516 31.8712H77.6372C77.2865 30.6846 77.0688 29.0397 76.931 27.8168C76.931 27.8107 75.8533 18.9833 75.8533 18.9833L71.7902 18.3276C72.1181 19.4305 72.3623 21.1222 72.5001 22.3389C72.5001 22.3426 73.1085 27.9829 73.1085 27.9829C73.2247 29.012 73.3299 30.1138 73.3207 31.2216L73.3195 31.3588L73.1571 30.9602C72.8772 30.2725 72.6951 29.3042 72.6004 28.0026C72.6004 27.9946 72.4312 26.191 72.4312 26.191C72.2171 23.3238 70.6393 22.0154 67.2141 22.0154C66.6304 22.0154 65.1768 22.1612 64.2934 22.414L64.5309 25.681L65.4437 25.12C66.1912 24.6605 66.794 24.4649 67.4577 24.4649C68.0009 24.4649 68.3546 24.6691 68.5201 25.0394C67.8471 25.1477 67.1231 25.3273 66.3246 25.6847C65.1146 26.2267 64.3236 27.0079 64.0062 27.9448C64.0049 27.9183 64.0037 27.8925 64.0031 27.8654C64.0031 27.8593 63.8628 24.8715 63.8628 24.8715C63.7902 22.9362 62.5852 21.7299 60.7188 21.7299C59.8576 21.7299 59.0918 21.9766 58.4268 22.454C58.3899 22.3352 58.3493 22.2221 58.305 22.1286L58.1395 21.7816L54.6313 21.6204C54.79 22.251 55.0072 24.0115 55.0539 24.7017C54.8669 23.7495 54.3705 22.7345 53.4275 22.0781C52.7115 21.5798 51.814 21.3166 50.8291 21.3166C49.5268 21.3166 48.2129 21.8634 47.3148 22.7788C46.4271 23.683 45.9387 24.9225 45.8889 26.3792C45.5579 26.0169 45.1193 25.7062 44.5706 25.4516L42.9595 24.6833L42.879 24.6451C42.492 24.4643 42.4791 24.4015 42.4871 24.2976C42.5 24.1321 42.8716 23.9555 43.4024 23.9555C44.0637 23.9555 45.0221 24.2896 45.7984 24.786L45.8636 21.9022C45.2897 21.6426 44.4888 21.431 43.3428 21.431C42.7449 21.431 41.5945 21.5146 40.6035 22.075C40.3304 22.2294 40.0819 22.4078 39.8635 22.6028L39.9084 21.7558C38.9759 21.6506 37.9756 21.6229 36.754 22.7529C36.7441 22.6742 36.6641 22.2811 36.5811 22.0541L32.793 22.286C33.0754 23.2998 33.1092 24.8389 33.0323 26.2107C33.0323 26.2144 32.9597 27.6556 32.9597 27.6556C32.9597 27.6526 32.9505 27.8211 32.9505 27.8211C32.9087 28.5765 32.865 29.3485 32.7887 30.0707C32.4731 29.0914 32.1256 27.7578 31.8629 26.6462L29.9923 18.2273L24.6509 18.9913C24.6965 19.099 24.7727 19.3709 24.8078 19.6378C24.8539 19.9903 24.8398 20.7199 24.3323 22.1999C23.4754 24.6968 22.2402 28.3846 21.0628 30.9307C20.8979 31.2868 20.6168 31.8719 20.6168 31.8719H24.7777C24.8306 31.2198 25.1055 30.1427 25.3737 29.3614C25.9464 29.3461 27.4579 29.3067 28.153 29.2882C28.2822 29.8923 28.4544 30.7492 28.4907 31.2487L28.5362 31.8712H36.9084C36.7109 30.5573 36.7866 28.7395 36.8438 27.7098C36.909 26.5391 37.1544 25.7917 37.6385 25.2873C38.0138 24.8967 38.4622 24.8032 38.7753 24.794C38.7323 26.3601 39.7626 27.0897 40.6786 27.5498L42.3143 28.3827C42.903 28.6903 42.8906 28.8484 42.8833 28.9536C42.8593 29.2686 42.3856 29.3897 41.9507 29.3805C41.0981 29.3621 39.9195 28.7727 38.5889 27.3985L38.5188 31.1275C39.5725 31.7199 40.8496 31.9334 42.0122 31.9334C43.9093 31.9334 45.9455 31.1078 46.4948 29.3393C47.4286 31.1263 49.298 31.9506 51.1398 31.9506C52.7834 31.9506 54.0149 31.4209 55.0902 30.2805H55.0884V30.2811ZM26.3906 26.5465C26.6065 25.9258 26.7787 25.4288 27.1472 24.3695C27.3693 25.4257 27.4855 25.98 27.5963 26.5065C27.1331 26.5219 26.9245 26.5287 26.3906 26.5471V26.5465ZM49.7729 25.6103V25.5795C49.7729 24.3105 50.2478 23.8128 50.6944 23.7716C50.8291 23.7593 51.1871 23.7261 51.3501 24.3215C51.4135 24.5528 51.4406 24.7263 51.4406 24.8592C51.4406 25.2043 51.2548 25.2701 51.037 25.3488L51.0235 25.3538C51.0235 25.3538 50.3751 25.6023 49.7815 25.8305C49.7791 25.7567 49.7735 25.6847 49.7735 25.6109L49.7729 25.6103ZM54.1275 28.2013C53.3389 28.8749 52.7521 29.3227 51.7967 29.303C51.0463 29.2876 50.5818 28.782 50.2964 28.2148C51.1219 27.9048 54.1989 26.7489 55.0798 26.4186C55.0902 27.0633 55.1031 27.93 55.1031 27.93V27.9374C55.1222 28.4479 55.1277 28.9474 55.1191 29.4414V29.4599L54.1281 28.2025L54.1275 28.2013ZM68.3805 29.3983C67.6521 29.4254 67.4953 28.9315 67.4848 28.5728C67.4879 28.1976 67.6121 27.6384 68.7711 27.3253C68.8 27.7221 68.8295 28.1195 68.8295 28.1195L68.8541 28.4787C68.8707 28.734 68.8867 28.9665 68.9126 29.22C68.76 29.3233 68.5847 29.3904 68.3805 29.3977V29.3983Z" fill="#A1853E"/>
<path d="M45.208 22.355C44.8389 22.219 44.2447 22.0874 43.3478 22.0874C42.6096 22.0874 41.6715 22.2277 40.929 22.6478C40.0814 23.1276 39.4853 23.8953 39.4318 24.7079C39.3512 25.9161 40.0198 26.4912 40.9672 26.9667C41.6118 27.2903 42.2251 27.6022 42.6127 27.8046C43.1325 28.0771 43.5822 28.4099 43.536 29.0121C43.4899 29.6236 42.9258 30.0369 41.9576 30.0369C41.156 30.0369 40.0014 29.567 39.2152 28.8497L39.1808 30.7302C39.8661 31.0735 40.9875 31.2783 42.0037 31.2783C43.7661 31.2783 45.9425 30.4712 45.9812 28.4136C46.0083 26.9489 44.9342 26.3424 44.2982 26.0465C43.6627 25.7506 42.9922 25.427 42.6773 25.2739C42.3863 25.133 41.7779 24.906 41.8314 24.2392C41.8819 23.6031 42.6078 23.3011 43.3933 23.3011C44.054 23.3011 44.6931 23.4838 45.1815 23.7489L45.208 22.3544V22.355Z" fill="white"/>
<path d="M29.4861 18.965L25.4519 19.542C25.5516 20.1202 25.3972 21.1241 24.9568 22.4073C24.1072 24.8839 22.7416 28.8651 21.6565 31.2168H24.2007C24.3256 30.4657 24.5409 29.6999 24.8983 28.7181L28.671 28.6191C28.8371 29.3616 29.093 30.5463 29.1416 31.2162H32.5095C32.0955 30.2492 31.5567 28.1946 31.2232 26.7841L29.4861 18.9644V18.965ZM25.4519 27.2356L27.2986 21.9226L28.3948 27.1378L25.4519 27.2362V27.2356Z" fill="white"/>
<path d="M39.2189 22.3691L39.1303 24.1586C38.5367 24.0817 37.7579 24.2127 37.1619 24.8328C36.6107 25.4067 36.2674 26.2421 36.1875 27.6692C36.1223 28.846 36.0798 30.1329 36.1776 31.2168H33.2926C33.4827 30.1483 33.5467 28.8725 33.6125 27.6951L33.6851 26.2538C33.7503 25.0807 33.7552 23.9685 33.5756 22.8969L36.0915 22.7419C36.209 23.1621 36.2662 23.7304 36.2392 24.3573C37.3403 22.7038 38.4155 22.331 39.2183 22.3679L39.2189 22.3691Z" fill="white"/>
<path d="M75.261 19.5536L72.6608 19.1328C72.9161 20.221 73.0188 21.0841 73.1504 22.2553L73.7594 27.9011C73.8923 29.0779 73.9839 30.1476 73.9747 31.2161H76.789C76.538 30.1476 76.4113 29.0785 76.2791 27.9011L75.2598 19.553L75.261 19.5536Z" fill="white"/>
<path d="M63.6236 31.2167C63.4538 30.1482 63.3905 29.0791 63.3462 27.9017L63.2066 24.9139C63.1469 23.3275 62.2346 22.3863 60.706 22.3863C59.8682 22.3863 58.8741 22.6564 58.0233 23.731C57.9981 23.5053 57.8689 22.7511 57.7102 22.4183L55.4207 22.3137C55.6175 23.4216 55.6796 24.5326 55.7233 25.7038L55.7578 27.9011C55.8014 29.0779 55.7737 30.1476 55.6833 31.2161H58.5671C58.3967 30.1476 58.334 29.0785 58.2897 27.9011L58.222 25.3667C58.1888 24.4667 58.8612 23.8946 59.555 23.8854C60.3572 23.875 60.7515 24.4058 60.7817 25.2117L60.8758 27.9005C60.9201 29.0773 60.9361 30.147 60.8462 31.2155H63.6224L63.6236 31.2167Z" fill="white"/>
<path d="M72.5482 31.2168C72.2031 30.3666 72.0308 29.2391 71.9447 28.0623L71.7768 26.2587C71.6181 24.1297 70.723 22.6711 67.2013 22.6711C66.5923 22.6711 65.701 22.7696 64.9874 22.9289L65.1055 24.5646C65.8203 24.126 66.5597 23.8104 67.4671 23.8104C68.3744 23.8104 69.2184 24.1936 69.2965 25.5955C68.3867 25.697 67.5354 25.8564 66.5825 26.2827C65.5097 26.7631 64.4043 27.6292 64.5088 29.1031C64.6245 30.7332 65.8554 31.4437 67.4037 31.4437C68.5719 31.4437 69.3882 30.8378 69.828 30.3845C69.908 30.6859 70.023 30.9879 70.1546 31.2174H72.5482V31.2168ZM68.375 30.0461C67.5624 30.0824 66.8568 29.6518 66.8286 28.6079C66.8027 27.6711 67.4449 26.8424 69.3691 26.5263L69.4817 28.0623C69.5204 28.5913 69.5346 28.9647 69.6016 29.4722C69.3236 29.805 68.869 30.0246 68.3756 30.0467L68.375 30.0461Z" fill="white"/>
<path d="M53.0523 22.6172C52.4138 22.1731 51.6436 21.9731 50.8279 21.9731C48.964 21.9731 46.4727 23.2969 46.5379 26.7596C46.6037 30.2352 49.2617 31.2951 51.1373 31.2951C52.7822 31.2951 53.78 30.7131 54.5926 29.8519L54.0162 29.1205C53.5751 29.4656 52.8997 29.9817 51.7826 29.959C50.6021 29.9356 49.8246 29.0559 49.4401 27.8367L54.6184 25.8916C54.4573 24.1803 53.8723 23.1874 53.0517 22.616L53.0523 22.6172ZM51.2579 25.9667L49.199 26.7565C49.1467 26.3868 49.1196 26.003 49.1172 25.6154C49.1049 23.4766 50.2558 23.1561 50.6341 23.1204C51.2708 23.0613 51.7802 23.412 51.9825 24.1501C52.2114 24.9837 52.1542 25.6456 51.2585 25.9667H51.2579Z" fill="white"/>
</g>
<defs>
<clipPath id="clip0_326_65">
<rect width="85.1873" height="100" fill="white" transform="translate(7)"/>
</clipPath>
</defs>
</svg>
