<svg width="100" height="100" viewBox="0 0 100 100" fill="none" xmlns="http://www.w3.org/2000/svg">
<g clip-path="url(#clip0_326_67)">
<path d="M17.3119 3.31201V72.7805C17.3119 83.447 29.8846 86.94 39.0661 89.4903C40.904 90.0007 42.6404 90.4835 44.1386 90.978C44.153 90.9833 45.562 91.4641 46.746 92.2434C47.8165 92.9485 48.9133 94.1398 48.9238 94.1516L49.7949 95.1027L50.6686 94.1522C50.6798 94.1404 51.7772 92.9485 52.8471 92.244C54.0304 91.4654 55.4401 90.9839 55.4466 90.982C56.952 90.4854 58.689 90.0026 60.527 89.4923C69.7078 86.9419 82.2812 83.449 82.2812 72.7825V3.31201H17.3119Z" fill="#670E36"/>
<path d="M82.2806 3.31193V72.7817C82.2806 83.4482 69.7072 86.9412 60.5264 89.4916C58.6884 90.0019 56.9514 90.4847 55.446 90.9812C55.4394 90.9832 54.0298 91.4647 52.8464 92.2433C51.7759 92.9478 50.6792 94.1397 50.668 94.1515L49.7943 95.102L48.9232 94.1508C48.9127 94.139 47.8152 92.9478 46.7454 92.2427C45.5614 91.464 44.1524 90.9826 44.138 90.9773C42.6397 90.4827 40.9034 90.0006 39.0654 89.4896C29.884 86.9399 17.3113 83.4463 17.3113 72.7798V3.31193H82.2806ZM85.5925 0H14V72.7804C14 75.9848 14.9144 78.9005 16.717 81.4463C17.5087 82.564 18.4848 83.624 19.6183 84.5962C20.6225 85.4574 21.7829 86.2774 23.0666 87.033C27.7331 89.7795 33.5259 91.3886 38.1799 92.6808C39.968 93.1774 41.6578 93.6471 43.0766 94.1141C43.3823 94.2217 44.2672 94.5759 44.9258 95.0088C45.4479 95.3525 46.159 96.0387 46.4856 96.3916L47.3521 97.3381L49.7897 100L52.2325 97.3427L53.0996 96.3988C53.4466 96.0256 54.1479 95.3506 54.6667 95.0088C55.3227 94.5772 56.2043 94.2236 56.508 94.1167C57.9314 93.6484 59.6192 93.1794 61.406 92.6828L61.4126 92.6808C66.0686 91.3873 71.8613 89.7782 76.5265 87.0324C77.8102 86.2767 78.9699 85.4568 79.9742 84.5955C81.1077 83.6234 82.0838 82.5634 82.8748 81.4456C84.6774 78.8998 85.5918 75.9841 85.5918 72.7798V0H85.5925Z" fill="white"/>
<path d="M79.9165 72.7804C79.9165 81.6503 68.8144 84.7346 59.894 87.2122C58.0278 87.7304 56.2653 88.2197 54.7002 88.7366C54.6313 88.7596 52.994 89.3158 51.5483 90.2676C50.9041 90.6913 50.277 91.2325 49.7975 91.6818C49.318 91.2325 48.6903 90.6913 48.0461 90.2676C46.6004 89.3158 44.9638 88.7602 44.8877 88.7346C43.3291 88.2204 41.5659 87.7304 39.6991 87.2122C30.7787 84.7339 19.6766 81.6496 19.6766 72.7804V5.67603H79.9171V72.7804H79.9165Z" fill="#95BFE5"/>
<path d="M27.1467 32.2206L29.0674 31.1966L30.9861 32.2206L30.6181 30.0487L32.172 28.5125L30.0251 28.1963L29.0674 26.2212L28.1071 28.1963L25.9614 28.5125L27.5141 30.0487L27.1467 32.2206Z" fill="white"/>
<path d="M49.8121 9.0647C49.2224 9.10537 48.613 9.1257 47.9216 9.1257C47.1489 9.1257 46.3775 9.10537 45.4218 9.0647C45.1777 9.16637 45.1777 9.59274 45.3404 9.75542L45.9911 9.89776C46.4785 10.0198 46.6412 10.1011 46.6412 10.2435C46.6412 10.3648 46.5802 10.5891 46.4378 10.9748C46.1938 11.6656 45.3201 13.9424 44.8117 15.2228L44.0396 17.133C43.7956 17.743 43.4703 18.4331 43.3076 18.7794L42.6372 17.072L40.8491 12.4993C40.361 11.2792 40.0363 10.4265 40.0363 10.2638C40.0363 10.0808 40.1787 9.95877 40.5441 9.87743L41.1541 9.75542C41.2761 9.57241 41.2964 9.18605 41.1338 9.0647C39.8947 9.10537 39.0203 9.1257 38.0855 9.1257C37.0288 9.1257 36.3577 9.08503 35.3213 9.0647C35.1383 9.16637 35.0773 9.53305 35.24 9.75542L36.0534 9.95877C36.7034 10.1208 36.8051 10.1621 37.5772 12.1129L40.8694 20.3852C41.1541 21.0759 41.4998 22.153 41.7235 22.702C41.8455 22.8037 42.0278 22.8647 42.2718 22.8647C42.5769 22.8647 42.8202 22.8037 42.9836 22.702C43.4513 21.564 43.98 19.9582 45.0164 17.4996L46.5001 13.9837C47.1909 12.3373 47.6992 11.1992 48.1466 10.5288C48.4109 10.1018 48.7566 9.95942 49.3254 9.85775L49.8534 9.75608C49.9951 9.63407 49.9754 9.14604 49.8134 9.06535" fill="#670E36"/>
<path d="M58.794 9.12562H54.2463C53.2702 9.12562 52.2535 9.10529 51.3797 9.06462C51.1561 9.14596 51.1561 9.65433 51.3397 9.77633L51.7458 9.83734C52.6602 9.97968 52.7822 10.1627 52.7822 12.0532V19.6131C52.7822 21.5029 52.6602 21.6452 51.7458 21.7876L51.0754 21.8892C50.9127 22.0112 50.9127 22.4789 51.0754 22.601C52.2948 22.5603 53.3109 22.5399 54.2463 22.5399C55.1817 22.5399 56.2174 22.5596 57.4775 22.601C57.6192 22.4789 57.6192 22.0112 57.4775 21.8892L56.7251 21.7876C55.8107 21.6656 55.6887 21.5029 55.6887 19.6131V16.8692C55.6887 16.3208 55.7091 16.2592 56.2581 16.2592H58.1033C59.1804 16.2592 59.4034 16.4218 59.6068 17.3972L59.7084 17.8853C59.8508 18.0683 60.3585 18.0473 60.4811 17.8649C60.4405 17.2549 60.4201 16.5032 60.4201 15.7508C60.4201 14.9984 60.4398 14.227 60.4811 13.5763C60.3591 13.3933 59.8514 13.3729 59.7084 13.5566L59.6068 14.044C59.4034 15.0397 59.1804 15.1821 58.1033 15.1821H56.2581C55.7097 15.1821 55.6887 15.1211 55.6887 14.572V10.8934C55.6887 10.1004 55.6887 10.0604 56.3591 10.0604H58.224C59.2604 10.0604 59.8704 10.3044 60.2161 10.7308C60.4195 10.9951 60.5822 11.4831 60.8058 12.3162C61.0492 12.4782 61.4966 12.4579 61.5779 12.2349C61.5379 10.8731 61.5379 9.40965 61.5379 9.06396C61.2539 9.10463 60.0948 9.12497 58.794 9.12497" fill="#670E36"/>
<path d="M75.7945 18.7794C75.2461 20.1615 74.108 21.93 71.6489 21.93C69.1897 21.93 66.8728 19.7555 66.8728 15.7109C66.8728 11.6662 69.2914 9.73576 71.5472 9.73576C73.5183 9.73576 74.8191 10.7518 75.3675 12.6417C75.5092 12.8247 76.0582 12.7433 76.1395 12.5C75.9565 11.3212 75.8955 9.6951 75.8955 9.32907C75.2855 9.28906 73.782 8.80103 71.7092 8.80103C69.6364 8.80103 67.5229 9.41107 66.0798 10.6095C64.6774 11.7679 63.6206 13.516 63.6206 15.9949C63.6206 18.4738 64.7384 20.2016 66.2011 21.32C67.6442 22.397 69.6764 22.8641 71.6685 22.8641C73.254 22.8641 74.6971 22.4167 75.7939 22.1124C76.0785 21.6447 76.4242 20.4252 76.5666 18.9218C76.4446 18.6778 75.9565 18.6168 75.7939 18.7794" fill="#670E36"/>
<path d="M29.9634 16.8694H28.0526C27.5449 16.8694 27.4432 16.8084 27.6262 16.2593L28.134 14.7355C28.439 13.8008 28.8457 12.7027 29.0077 12.2357C29.1907 12.6621 29.5561 13.7595 29.8408 14.6339L30.3688 16.2803C30.5315 16.8084 30.4298 16.87 29.9628 16.87M35.9379 21.7681C35.1861 21.6461 35.0031 21.1784 34.5761 19.9596L31.8119 11.993C31.3042 10.5499 31.0595 9.79816 30.8975 9.20845C30.8162 8.90343 30.6942 8.80176 30.4305 8.80176C30.3931 8.80176 29.7594 9.63482 28.904 9.94706L28.399 11.2957C28.3301 11.4866 28.2507 11.6945 28.1641 11.9248L27.9155 12.5879C27.9135 12.5932 27.9122 12.5965 27.9103 12.6011L26.0605 17.5601C25.5121 19.0242 25.1257 19.9989 24.78 20.8123C24.4344 21.6047 24.0283 21.7674 23.5409 21.8284L22.9926 21.8894C22.8502 22.0514 22.8299 22.4791 23.0536 22.6005C23.9883 22.6005 24.4553 22.5395 25.1467 22.5395C26.0001 22.5605 26.7322 22.5605 27.4432 22.6005C27.6466 22.4988 27.6052 22.0311 27.4839 21.8894L26.8739 21.7877C26.3045 21.6861 26.0408 21.5641 26.0408 21.4421C26.0408 21.28 26.0605 21.1167 26.1825 20.71L26.9749 18.3518C27.0969 17.9661 27.1579 17.9458 27.6459 17.9458H30.0644C30.7761 17.9458 30.9382 17.9858 31.0398 18.3118L31.5882 20.0593C31.8322 20.8117 31.9739 21.2991 31.9739 21.4414C31.9739 21.5634 31.8932 21.7057 31.4255 21.7871L30.7755 21.8888C30.5518 22.0508 30.5925 22.4785 30.8155 22.5998C31.7502 22.5598 32.5433 22.5388 33.5594 22.5388C34.5755 22.5388 35.7135 22.5598 36.6889 22.5998C36.872 22.4785 36.8313 21.9898 36.7093 21.8888L35.9372 21.7667V21.7681H35.9379Z" fill="#670E36"/>
<path d="M74.4025 42.2049C74.0437 42.2049 73.8443 42.2646 73.8443 42.2646C73.8443 42.2646 76.2445 39.9077 76.2445 36.2259C76.2445 34.5512 75.8476 33.9064 75.7814 33.9064C75.6548 33.9064 75.6535 34.9034 74.882 35.6742C74.3238 36.2324 73.4468 36.2895 72.9588 36.7782C73.4304 35.768 73.0919 34.399 73.025 34.399C72.9581 34.399 72.9955 35.1199 72.0877 36.0271C71.5091 36.6057 70.167 37.0242 69.0709 38.1209C69.536 37.0504 69.1306 35.9215 69.0309 35.9215C68.9312 35.9215 69.0244 36.5663 68.3992 37.1908C67.8174 37.7726 66.695 38.0645 65.8535 38.9054C64.6891 40.0698 64.8964 41.8356 64.8964 42.4712C64.8964 42.5283 64.899 42.5893 64.9043 42.6536C64.7429 42.7703 64.5783 42.9002 64.4117 43.0452C63.0925 44.199 62.3946 45.7195 62.3946 47.4434C62.3946 50.7284 64.5225 52.9501 66.3999 54.9101C67.2297 55.7767 68.0135 56.5953 68.5829 57.4526C69.1693 58.3349 69.4415 59.1358 69.4415 59.9715C69.4415 60.8072 69.1706 61.5661 68.6977 62.1211C68.1664 62.7449 67.4225 63.0604 66.4878 63.0604C64.8741 63.0604 63.6875 62.4569 62.432 61.8193C61.7898 61.4927 61.1463 61.147 60.4536 60.8793C60.0948 57.3306 57.5451 55.1902 57.5451 51.8685C57.5451 50.0606 58.3493 49.0564 58.0482 47.7884C58.6261 48.367 59.6284 48.571 59.9577 48.571C60.2424 48.571 60.4248 48.468 60.5186 48.3906C60.5376 48.3748 60.5376 48.3447 60.5166 48.3296C60.35 48.2095 59.7085 47.6854 59.7085 46.7317C59.7085 45.6349 60.1178 44.7979 60.1178 43.7116C60.1178 42.6254 59.5143 41.972 59.4002 41.8579C59.8934 42.3512 60.7659 42.6457 61.1948 42.6457C61.5746 42.6457 61.778 42.5873 61.9 42.4942C61.9223 42.4771 61.9197 42.4437 61.8961 42.4292C61.6862 42.3013 60.8465 41.7346 60.8465 40.8615C60.8465 39.8645 61.126 39.6755 61.126 38.9776C61.126 38.2797 60.7967 37.7713 60.7967 37.7713C60.7967 37.7713 61.265 38.0507 61.8134 38.0507C62.4313 38.0507 62.7836 37.8979 63.0079 37.7077C63.0348 37.6854 63.0204 37.6408 62.985 37.6381C61.4284 37.5201 61.6416 33.9799 60.1742 32.6771C60.1742 32.6771 60.329 32.7119 60.5625 32.7119C61.0637 32.7119 61.6881 32.2783 61.9066 31.869C61.9203 31.8428 61.9033 31.8113 61.8738 31.81C59.065 31.6663 58.1696 25.4432 51.835 26.6955C52.1656 26.2271 52.7704 25.8381 52.9888 25.7063C53.0183 25.6886 53.0144 25.6453 52.9829 25.6328C52.6982 25.5233 52.0934 25.2897 50.6766 25.2897C49.2597 25.2897 47.8901 26.0605 47.1298 27.0543C47.4722 26.3701 47.0531 25.4964 46.668 25.07C46.6464 25.0464 46.607 25.0562 46.6005 25.0871C46.5578 25.2674 46.4004 25.6407 46.1636 25.8775C45.0222 27.0188 42.9737 27.7515 42.9737 30.1241C42.9737 30.1241 42.3059 30.5531 41.3987 31.1704C40.4922 31.7883 40.0035 32.7604 40.0035 33.0641C39.6591 33.2465 38.2193 34.3013 37.0701 35.4499C37.0438 35.4761 37.0399 35.5181 37.0609 35.5496C37.1868 35.7378 37.2754 35.9805 37.3213 36.1235C37.339 36.178 37.4072 36.1963 37.4492 36.157C37.6047 36.0127 37.9156 35.7345 38.0546 35.6913C37.7955 35.9504 37.7109 36.2593 37.7109 36.6522C37.7109 37.5142 39.6303 38.729 39.7496 38.6083C39.8323 38.5256 39.5233 37.6414 39.8139 37.3508C40.2436 36.9212 41.768 36.8654 42.2397 36.8654C42.7113 36.8654 42.9546 37.0465 42.9546 37.3712C42.9546 38.1832 42.4935 39.6873 41.0281 39.6873C40.4358 39.6873 40.0494 39.1147 39.9536 39.2118C39.8572 39.3082 39.9327 40.1557 40.1262 40.4443C40.1262 40.4443 39.9615 40.6372 39.9615 41.0439C39.9615 42.0921 41.6939 43.4348 41.8717 43.2571C41.9904 43.1383 41.5142 41.9543 41.8172 41.9543C41.9806 41.9543 42.4456 42.6332 42.9789 42.6332C43.0032 42.6332 43.0157 42.6254 43.0216 42.6195C43.1075 42.5335 42.6844 41.9373 42.9114 41.7103C43.4958 41.1259 45.013 39.9838 45.402 39.8585C46.2082 39.5994 46.6326 40.1859 46.6326 40.975C46.6326 42.7336 44.7703 43.0904 43.2472 44.6142C41.7234 46.138 41.4243 48.304 39.5069 48.304C39.257 48.304 40.9245 47.8422 41.3987 46.1787C36.3944 46.2161 35.545 43.421 31.539 42.8858C31.5305 42.8235 31.4997 42.7625 31.4511 42.7126C31.3455 42.605 29.9418 41.3732 29.9418 38.5965C29.9418 38.0383 29.5626 37.6093 28.9913 37.6093C28.8155 37.2183 28.3347 36.4266 27.3324 36.4266C26.3301 36.4266 26.1398 36.8687 26.1956 36.9251C26.2514 36.9815 26.6587 36.8293 27.154 37.3252C27.4373 37.6086 27.5528 37.9359 27.6 38.1655C27.4832 38.3085 27.4117 38.4791 27.4117 38.6765C27.4117 38.6765 26.9191 38.5821 26.4416 39.0301C26.2343 38.9094 25.8847 38.7729 25.3652 38.7729C23.9916 38.7729 23.7069 40.0127 23.7633 40.0691C23.8197 40.1255 24.0624 39.85 24.4875 39.85C24.9683 39.85 25.4747 40.2318 25.7423 40.4692C25.7115 40.7867 25.7738 41.0865 25.9857 41.299C25.9857 41.299 25.3265 41.4991 25.2149 42.426C25.1854 42.4319 25.1539 42.4404 25.1192 42.4496C23.2956 42.9612 23.6413 44.3827 23.7167 44.3827C23.7922 44.3827 23.8866 43.7713 24.7243 43.7713C25.0155 43.7713 25.251 43.8054 25.434 43.85C25.7561 44.4752 26.3438 44.628 26.7643 44.628C27.1448 44.628 27.4957 44.5454 27.804 44.5454C28.2205 44.5454 28.4751 44.7972 28.4751 45.383C28.4751 46.241 27.6512 45.9832 27.2819 46.3525C27.0326 46.6018 26.9939 46.8314 26.9939 47.1698C26.9939 47.1836 26.9939 47.1981 26.9959 47.2131C26.883 47.2472 26.7617 47.2696 26.6357 47.2696C26.0677 47.2696 25.7436 46.7559 25.6689 46.8307C25.5692 46.9304 25.9076 48.5657 27.0641 48.5657C27.4695 48.5657 27.7469 48.4555 27.9365 48.3125C28.0323 48.3342 28.1366 48.346 28.2501 48.346C29.4164 48.346 29.6814 46.9403 31.1323 46.9403C32.5833 46.9403 35.3659 48.9416 35.7608 51.4401C35.766 51.4703 35.8014 51.4847 35.8251 51.4657C36.46 50.9495 36.4239 50.1702 36.4239 50.1702C37.6001 51.1325 38.0966 51.5746 39.0865 52.5539C39.0865 52.5539 33.3278 56.9784 33.0274 57.1542C32.7683 57.3063 32.6456 57.3719 32.3262 57.3719C31.5154 57.3719 31.2589 56.0108 29.9706 56.0108C29.7207 56.0108 29.5397 56.0856 29.3803 56.2017C29.253 56.1755 29.0864 56.1571 28.8673 56.1571C27.3455 56.1571 27.0661 58.2037 27.2123 58.2037C27.3586 58.2037 27.4649 57.6789 28.1891 57.6789C28.2822 57.6789 28.378 57.6907 28.4731 57.7098C28.4751 58.102 28.6253 58.4707 28.8798 58.6668C28.8798 58.6668 28.4659 58.8209 28.2297 59.309C26.416 59.3693 26.4567 61.5005 26.6272 61.5005C26.7538 61.5005 26.8266 60.6104 27.8703 60.6104C27.9503 60.6104 28.0434 60.6419 28.1372 60.6885C28.3229 61.4809 28.8686 61.9203 29.5128 61.9203C29.354 62.2195 29.379 62.697 29.5528 63.1135C29.133 63.9919 29.8814 65.1982 30.0769 65.1982C30.2212 65.1982 30.0434 64.4281 30.376 63.9217C30.4462 63.9394 30.5203 63.9486 30.5971 63.9486C31.541 63.9486 31.9385 63.1555 31.9385 63.1555C31.9385 63.1555 31.9936 63.9965 32.8286 64.0817C33.0051 64.8256 33.4846 65.4592 33.6414 65.4592C33.7496 65.4592 33.5397 64.4412 33.8487 63.7938C35.0372 62.6052 34.1045 61.0617 35.3396 59.8265C36.7618 58.4044 40.2613 57.1338 43.1357 57.0164C44.1747 58.188 45.6172 59.9551 46.281 60.4136C46.281 60.4136 46.2515 60.4477 46.2121 60.4877C44.4391 62.2608 41.1383 60.7068 39.404 62.4418C38.7165 63.1293 38.6227 63.7642 37.6512 63.7642C37.316 63.7642 37.0091 63.5957 36.8706 63.4664C36.849 63.4468 36.8142 63.4566 36.8057 63.4848C36.7427 63.6895 36.6962 64.3795 37.2203 64.9043C37.8185 65.5025 38.5591 65.393 38.7539 65.2893C38.2751 65.9355 37.2242 65.9027 36.6148 65.5485C36.584 65.5307 36.5473 65.5583 36.5564 65.5924C37.0412 67.4402 38.9553 67.0913 38.9553 67.0913C39.3541 69.0768 41.3187 69.9027 41.3187 71.2317C41.3187 71.6016 41.1626 72.0247 40.851 72.3369C40.1045 73.0834 38.4568 73.5767 36.6621 73.5767C33.7713 73.5767 33.7312 71.5249 32.1556 71.5249C31.951 71.5249 31.7516 71.5505 31.5613 71.597C31.3357 71.3366 30.8431 71.0421 30.2225 71.0421C29.2609 71.0421 28.7027 72.1316 28.8319 72.2615C28.9132 72.3428 29.1914 71.9985 29.6236 71.9985C29.8362 71.9985 30.1025 72.1821 30.2133 72.4701C30.1372 72.5672 30.0684 72.6702 30.0074 72.7784C29.8427 72.7351 29.642 72.7095 29.3986 72.7095C27.5875 72.7095 27.6197 74.8027 27.8093 74.8027C27.9188 74.8027 28.1569 74.026 29.0333 74.1231C28.8594 74.4465 28.7604 74.8165 28.7604 75.2094C28.7604 75.2684 28.7624 75.3268 28.767 75.3845C28.355 75.6233 28.0303 76.0772 28.0303 76.5908C28.0303 77.3478 28.174 77.7342 28.2894 77.7342C28.42 77.7342 28.5439 76.8598 29.2084 76.5718C29.5095 76.9805 29.9424 77.2855 30.4442 77.4245C30.3832 77.6856 30.3262 78.0805 30.3262 78.6433C30.3262 79.3432 30.5453 80.2832 30.6915 80.2832C30.826 80.2832 30.9132 79.1976 31.3855 78.7765C31.5869 78.97 31.8237 79.1261 32.0848 79.237C32.3367 79.3511 32.6345 79.4187 32.9841 79.4187C33.0057 79.4187 33.0267 79.4187 33.0484 79.4173C35.4662 79.3786 37.0084 77.1635 38.8254 77.1635C39.8395 77.1635 39.8579 78.1127 39.4879 78.5213C42.2357 78.5213 43.0209 76.4301 44.6969 76.4301C45.5483 76.4301 46.3105 76.8821 47.0878 76.8755C47.5923 76.8709 48.2285 76.7063 48.5847 75.9729C48.5972 75.9467 48.5782 75.9152 48.5487 75.9152C47.2649 75.929 46.7231 75.3216 46.6221 74.9424C48.918 75.8712 49.5916 74.4327 49.7254 74.0536C49.7372 74.0208 49.7044 73.99 49.6723 74.0031C49.5805 74.0405 49.4191 74.0929 49.2322 74.0929C47.9924 74.0929 46.6542 72.8394 46.6542 71.1051C46.6542 69.4625 47.7943 68.5344 48.8773 68.2346C49.7333 65.8115 50.937 65.3241 50.4719 63.8115C50.4719 63.8115 50.4667 63.799 50.4759 63.7964C50.4785 63.7964 50.4811 63.7977 50.4831 63.7997C50.6143 63.9604 50.8589 64.6183 50.8589 64.9784C50.8589 66.5763 49.3246 67.4953 49.3246 70.0273C49.3246 72.8873 51.551 72.7738 51.551 74.6859C51.551 75.4514 51.2604 75.885 51.1489 76.0241C51.1298 76.0477 51.1436 76.0831 51.1738 76.0877C51.4467 76.1297 52.4877 76.1625 53.4972 74.4983C54.8255 75.1858 54.4693 76.3422 54.367 76.6053C54.3572 76.6315 54.3768 76.659 54.405 76.659C56.1354 76.6053 56.6937 74.2556 56.6937 74.2556C58.2227 74.089 59.427 74.6157 59.427 75.2579C59.427 76.9123 56.3355 80.0149 54.0712 80.0149C53.2296 80.0149 52.9363 79.1379 52.1971 79.1379C51.6658 79.1379 51.4014 79.395 51.24 79.723C50.9449 79.5958 50.6418 79.5282 50.3532 79.5282C49.6336 79.5282 49.0006 79.9329 48.7822 80.8198C47.81 81.1405 47.6093 82.6492 47.7071 82.747C47.7825 82.8224 48.2587 82.0235 49.0557 82.2157C49.1961 82.4433 49.3574 82.6263 49.4854 82.7535C49.3273 82.8382 49.1495 82.9516 48.9652 83.136C48.0108 84.0904 48.2508 85.1583 48.3433 85.2508C48.4424 85.3498 48.6156 84.8795 48.8812 84.6145C49.0898 84.4059 49.3948 84.1842 49.7884 84.2124C50.1151 84.8303 50.8169 84.9871 51.2663 84.9871C51.2112 85.542 51.2184 86.4768 51.3561 86.6145C51.4578 86.7162 51.8908 85.8156 52.5467 85.3426C52.8904 85.5578 53.3266 85.7565 53.7661 85.7565C55.0289 85.7565 56.1518 85.1648 57.0623 84.2544C58.3893 82.9274 59.2998 80.7994 60.4228 80.7994C61.1306 80.7994 60.9922 81.4429 60.9705 81.5217C62.7862 81.5217 62.0128 79.3045 65.4632 75.8542C65.8856 75.4318 66.3769 75.0644 66.4418 74.6459C66.4471 74.6125 66.4104 74.5882 66.3815 74.6059C66.0784 74.7994 65.3038 74.8591 64.9574 74.5121C64.9574 74.5121 67.7511 73.1228 67.8292 71.0467C67.8305 71.0132 67.7918 70.9929 67.7649 71.0139C67.0112 71.6082 65.6153 71.4711 65.6153 71.4711C66.2661 70.947 66.7469 69.458 66.0745 68.0503C66.0594 68.0188 66.0148 68.0201 66.001 68.0522C65.351 69.5878 64.0319 70.1126 62.8288 70.1126C61.1069 70.1126 59.6481 68.7272 59.6481 66.8335C59.6481 65.2139 60.1729 64.4851 60.3867 63.0394C60.754 63.1988 61.1319 63.3904 61.5346 63.595C62.8793 64.2785 64.4031 65.0532 66.4937 65.0532C67.2723 65.0532 67.9958 64.903 68.6432 64.6065C69.2533 64.3277 69.7833 63.9263 70.2215 63.4127C71.008 62.4891 71.4416 61.2664 71.4416 59.9702C71.4416 57.284 69.6134 55.3752 67.8463 53.5293C66.9712 52.6156 66.0673 51.6723 65.4153 50.6576C64.7187 49.5733 64.3946 48.5519 64.3946 47.4414C64.3946 46.3309 65.0191 45.1416 65.8731 44.3735C65.8731 44.3735 67.778 45.4335 69.9637 45.4335C72.1493 45.4335 73.4606 43.8284 73.4606 43.8284C74.4675 42.8215 75.5439 42.9809 75.6535 42.8714C75.763 42.7618 75.193 42.2036 74.4071 42.2036L74.4052 42.2049H74.4025ZM43.238 32.7099C42.8799 33.0681 42.9264 33.5154 42.605 33.8362C42.4771 33.9641 42.2889 34.0658 42.0514 34.0658C41.583 34.0658 41.2682 33.6847 41.2682 33.2826C41.2682 32.8805 41.726 32.5249 42.9947 32.5249C43.1429 32.5249 43.3207 32.5322 43.4906 32.5433C43.4171 32.5656 43.3253 32.6227 43.238 32.7099Z" fill="#FFE505"/>
</g>
<defs>
<clipPath id="clip0_326_67">
<rect width="71.5925" height="100" fill="white" transform="translate(14)"/>
</clipPath>
</defs>
</svg>
