<svg width="100" height="100" viewBox="0 0 100 100" fill="none" xmlns="http://www.w3.org/2000/svg">
<g clip-path="url(#clip0_326_63)">
<path d="M63.7499 66.9177C64.1806 66.9224 64.602 66.9734 65.0804 66.9694C64.602 66.9694 64.1806 66.9218 63.7499 66.9177Z" fill="url(#paint0_linear_326_63)"/>
<path d="M67.41 67.9685C67.5912 67.9168 67.763 67.8604 67.9273 67.792C67.7636 67.8611 67.5912 67.9208 67.41 67.9685Z" fill="url(#paint1_linear_326_63)"/>
<path d="M78.6888 62.5895L78.7445 62.456L78.7532 62.4392L78.7619 62.4225C79.0417 61.7716 79.3215 61.0832 79.6227 60.3163C79.9327 59.5112 80.1998 58.7879 80.4413 58.1116C84.1322 47.6903 84.9065 38.427 84.9112 32.4924V8.30379C73.4392 4.97047 61.566 3.28235 49.625 3.28235H49.5693C37.6229 3.28235 25.7503 4.97047 14.2823 8.30379V32.4884C14.287 38.4223 15.062 47.6856 18.7523 58.1028C18.9938 58.7832 19.2608 59.5065 19.5749 60.321C19.8721 61.0832 20.1566 61.7723 20.4317 62.4178L20.4404 62.4345L20.4491 62.4513L20.5048 62.5848C25.5215 74.3111 33.3335 84.25 43.7199 92.1136C45.0376 93.1039 46.4198 94.0862 47.8281 95.0202L47.8496 95.0336L49.5981 96.1273L51.3466 95.0336L51.3681 95.0202C52.7765 94.0855 54.1586 93.108 55.4804 92.1136C65.8588 84.25 73.6707 74.3158 78.6874 62.5888L78.6888 62.5895Z" fill="url(#paint2_linear_326_63)"/>
<path d="M49.6249 3.28232C61.5659 3.28232 73.4392 4.97044 84.9112 8.30376V32.4924C84.9065 38.427 84.1322 47.6902 80.4413 58.1115C80.1997 58.7878 79.9327 59.5111 79.6227 60.3163C79.3215 61.0825 79.0417 61.7716 78.7619 62.4224L78.7532 62.4392L78.7444 62.456L78.6888 62.5895C73.672 74.3165 65.8594 84.2506 55.4817 92.1143C54.1599 93.1086 52.7771 94.0869 51.3694 95.0208L51.348 95.0342L49.5994 96.1279L47.8509 95.0342L47.8295 95.0208C46.4211 94.0862 45.039 93.1046 43.7212 92.1143C33.3341 84.2506 25.5228 74.3111 20.5061 62.5855L20.4504 62.4519L20.4417 62.4352L20.433 62.4184C20.1579 61.7729 19.8734 61.0832 19.5762 60.3217C19.2622 59.5078 18.9951 58.7845 18.7536 58.1035C15.0633 47.6862 14.2884 38.423 14.2837 32.489V8.30376C25.7503 4.97044 37.6235 3.28232 49.5693 3.28232H49.6249ZM49.6249 0H49.5693C37.3069 0 25.1263 1.73308 13.3665 5.1516L11 5.84V32.4884C11.0047 38.6887 11.8166 48.3538 15.6584 59.1991C15.9228 59.9452 16.2019 60.6981 16.5126 61.5025L16.5146 61.5079L16.5166 61.5133C16.7964 62.2312 17.0896 62.9478 17.4123 63.7053L17.46 63.8167L17.472 63.8401L17.4767 63.8516L17.4821 63.8643L17.4875 63.8771C22.7344 76.1401 30.8939 86.5212 41.7392 94.7323L41.7439 94.7357L41.7486 94.739C43.1656 95.8038 44.6008 96.819 46.0139 97.7563L46.0608 97.7872L46.1085 97.8167L46.1192 97.8234L47.8583 98.911L49.5988 100L51.3392 98.911L53.0784 97.8234L53.0891 97.8167L53.1367 97.7872L53.1837 97.7563C54.6397 96.7901 56.0769 95.7743 57.455 94.737L57.4597 94.7337L57.4637 94.7303C67.7153 86.9626 75.5648 77.262 80.8211 65.8718H80.8741L81.7175 63.8549L81.7222 63.8435L81.7315 63.8254L81.7772 63.72C82.0509 63.0847 82.3367 62.3848 82.6783 61.5173L82.6823 61.5066L82.6863 61.4958C82.9862 60.7168 83.2633 59.9701 83.5331 59.2139L83.5344 59.2105L83.5357 59.2072C87.3776 48.3598 88.1895 38.6934 88.1942 32.4951V5.83933L85.8277 5.1516C74.0632 1.73308 61.8826 0 49.6249 0Z" fill="white"/>
<path d="M57.4536 51.2813L54.5034 47.905C50.3697 47.6212 46.6787 45.713 44.06 42.8145C43.1341 43.4686 42.5054 44.3174 42.5054 44.3174L35.3013 44.1282L35.1725 46.9871C35.1725 46.9871 34.1131 46.9267 32.9979 46.9871C31.8781 47.0562 31.8177 48.6068 31.8177 48.6068C31.8177 48.6068 30.9475 48.5464 30.0175 48.792C29.0876 49.0423 29.2124 50.4714 29.2124 50.4714C29.2124 50.4714 26.7882 50.5358 25.9784 51.4658C25.1685 52.4004 25.0484 54.3247 25.8583 55.4452C26.6634 56.565 31.2628 63.1498 32.443 65.7632C33.5756 68.2692 33.7957 76.585 33.8125 77.2781C37.339 81.6145 41.4137 85.555 46.038 89.0561C47.1793 89.9169 48.3762 90.7657 49.5994 91.5883C50.8219 90.7657 52.0195 89.9129 53.1696 89.0521C54.0566 88.3804 54.914 87.6873 55.7615 86.9849L43.962 73.3678L43.9707 73.3591L44.7075 72.7217L44.9443 72.7082C45.0134 72.7035 45.0946 72.6995 45.1771 72.6995C45.3751 72.6995 45.5643 72.7129 45.7669 72.725C45.995 72.7384 46.2319 72.7505 46.4821 72.7505H46.5076C47.188 72.7505 48.1273 72.6687 49.3411 72.0272C49.7893 71.7857 50.116 71.4421 50.3401 70.9765C50.5428 70.5592 50.6461 70.0506 50.6414 69.538C50.6461 68.9952 50.5166 68.4913 50.3831 68.233C50.1804 67.8156 49.7202 67.4453 49.0915 67.191C48.4588 66.9326 47.8341 66.8548 47.765 66.8461C47.7093 66.8374 47.6872 66.8327 47.6872 66.8327H47.6483L46.9632 66.7126L46.9585 66.7079L44.7061 64.1972L44.7148 64.1884L45.7354 63.3055L45.7441 63.3142L45.7528 63.3276L45.7575 63.3229L47.5832 65.3814C48.1951 65.4545 48.7372 65.5579 49.3746 65.8034L46.5412 62.6083L47.4242 61.8421L47.4329 61.8508L47.4416 61.8642L47.4463 61.8596L63.2849 79.7439C63.5217 79.4768 63.7499 79.2098 63.9827 78.9387L48.234 61.1443L48.2427 61.1356L49.117 60.3781L49.1257 60.3868L49.1344 60.4002L49.1391 60.3955L50.3321 61.7394L64.7623 78.0343C64.9952 77.7585 65.2146 77.4787 65.4427 77.1989L49.9268 59.6763L50.263 59.3877H50.2717C50.2764 59.3877 50.685 59.5045 51.3311 59.5515H51.3358L51.3405 59.5562L51.3492 59.5649H51.3539L66.1727 76.2952C66.3968 76.0114 66.6122 75.7222 66.8269 75.4343L52.7583 59.5434L52.7838 59.5387C53.2185 59.5045 53.6627 59.4267 54.1102 59.3106H54.119L54.1236 59.3153L54.1324 59.324H54.1371L54.8993 60.1848L67.5508 74.4695C67.7662 74.177 67.9729 73.875 68.1835 73.5785L55.2086 58.9234L55.2254 58.9147C55.5702 58.7295 55.8628 58.4799 56.0862 58.174L56.0949 58.1606L56.1083 58.174L56.1171 58.1874L56.1218 58.1827L57.1986 59.3971L68.878 72.5828C69.0846 72.2815 69.2826 71.9709 69.4852 71.6656L56.5921 57.1058V57.0971C56.7558 56.4644 56.7558 55.8565 56.7256 55.4519L56.7209 55.413L56.7464 55.4432L56.7598 55.4566V55.4519L70.1743 70.5974C70.3722 70.2827 70.5661 69.9687 70.756 69.65L56.0064 52.9929V51.2229L56.0319 51.2484L56.0453 51.2618V51.2571L58.9264 54.5086L70.6527 67.7465L71.3934 68.5819C71.5826 68.2591 71.7685 67.931 71.9489 67.6043L57.4583 51.2786L57.457 51.2813H57.4536Z" fill="white"/>
<path d="M47.5838 74.0925C47.5019 74.1059 47.4201 74.118 47.3382 74.1267L47.2866 74.1314C47.2611 74.1361 47.2349 74.1361 47.2087 74.1402C47.1658 74.1449 47.1181 74.1536 47.0752 74.1536C47.0061 74.1583 46.933 74.1623 46.8638 74.1623H46.8384C46.8216 74.1623 46.8082 74.1623 46.7954 74.167C46.7652 74.167 46.735 74.167 46.7048 74.1717H46.6572C46.5237 74.1717 46.3814 74.163 46.2264 74.1502L56.7766 86.1221C57.0436 85.8893 57.3059 85.6524 57.569 85.4203L47.5824 74.0945V74.0932L47.5838 74.0925Z" fill="white"/>
<path d="M51.511 71.7925C51.352 72.0937 51.1359 72.3869 50.8649 72.6627L60.0677 83.1061C60.3213 82.8559 60.5669 82.6023 60.8172 82.3527L51.511 71.7932V71.7925Z" fill="white"/>
<path d="M51.9417 68.7094C51.9719 68.9248 51.9934 69.1442 51.9974 69.3723C52.0021 69.695 51.9806 70.005 51.933 70.3023L61.7598 81.3999C62.0054 81.1416 62.2463 80.8792 62.4878 80.6162L51.9417 68.7087V68.7094Z" fill="white"/>
<path d="M49.9006 73.3389C49.8577 73.3644 49.8101 73.3865 49.7671 73.408L49.698 73.4422C49.6423 73.4677 49.586 73.4939 49.5343 73.52H49.5296C49.5209 73.5247 49.5081 73.5287 49.4954 73.5334C49.4739 73.5422 49.4524 73.5549 49.4263 73.5636H49.4216C49.4169 73.5683 49.4082 73.5683 49.4048 73.5724C49.4001 73.5724 49.3914 73.5771 49.388 73.5811C49.3793 73.5858 49.3746 73.5858 49.3666 73.5898C49.3619 73.5898 49.3531 73.5945 49.3498 73.5945C49.1773 73.6636 49.0183 73.7146 48.8546 73.7622L58.4406 84.6405C58.7029 84.3989 58.9532 84.154 59.2115 83.9125L49.9013 73.3402L49.9 73.3389H49.9006Z" fill="white"/>
<path d="M84.9071 8.29976C73.4392 4.96645 61.5666 3.27832 49.6256 3.27832H49.5699C37.6235 3.27832 25.7509 4.96645 14.283 8.29976V32.4844C14.2877 38.4183 15.0626 47.6815 18.7529 58.0988C18.9944 58.7792 19.2615 59.5024 19.5755 60.317C19.8727 61.0792 20.1572 61.7683 20.4323 62.4137L20.441 62.4305L20.4497 62.4473L20.5054 62.5808C25.5221 74.3071 33.3341 84.246 43.7205 92.1096C45.0383 93.0999 46.4204 94.0822 47.8288 95.0162L47.8502 95.0296L49.5987 96.1232L51.3473 95.0296L51.3687 95.0162C52.7771 94.0815 54.1592 93.1039 55.481 92.1096C65.8681 84.246 73.6753 74.3118 78.6927 62.5848L78.7484 62.4513L78.7572 62.4345L78.7659 62.4178C79.0457 61.7669 79.3255 61.0785 79.6267 60.3116C79.9367 59.5065 80.2037 58.7832 80.4453 58.1069C84.1362 47.6856 84.9105 38.4223 84.9152 32.4877L84.9065 8.29909L84.9071 8.29976ZM56.7739 86.1287L46.2238 74.1568C46.3828 74.1702 46.5251 74.1783 46.6586 74.1783H46.7062C46.7364 74.1736 46.7666 74.1736 46.7968 74.1736C46.8102 74.1736 46.827 74.1736 46.8398 74.1689H46.8653C46.9344 74.1642 47.0075 74.1642 47.0766 74.1602C47.1196 74.1555 47.1672 74.1514 47.2101 74.1467C47.2356 74.142 47.2618 74.142 47.288 74.138L47.3396 74.1333C47.4215 74.1246 47.5074 74.1118 47.5852 74.0991L57.567 85.4289C57.3047 85.657 57.0464 85.8938 56.7746 86.1267V86.128L56.7739 86.1287ZM58.444 84.6425L48.858 73.7643C49.0217 73.7167 49.1854 73.661 49.3572 73.5966C49.3619 73.5966 49.3706 73.5919 49.374 73.5919C49.3827 73.5919 49.3874 73.5872 49.3954 73.5831C49.4001 73.5784 49.4089 73.5784 49.4122 73.5744C49.4169 73.5697 49.4256 73.5697 49.429 73.5657H49.4337C49.4552 73.557 49.4766 73.5442 49.5028 73.5355C49.5115 73.5308 49.5243 73.5268 49.537 73.5221H49.5417C49.5974 73.4966 49.6538 73.4704 49.7054 73.4442L49.7745 73.41C49.8175 73.3886 49.8651 73.3624 49.9081 73.3409L59.227 83.9132C58.9599 84.1547 58.7063 84.3996 58.4433 84.6412L58.4446 84.6425H58.444ZM60.0636 83.1094L50.8561 72.6659C51.1272 72.3862 51.3426 72.0929 51.5022 71.787L60.8124 82.3505C60.5669 82.6041 60.322 82.8591 60.063 83.108L60.0636 83.1094ZM61.7558 81.4004L51.9196 70.2988C51.9672 69.9888 51.9887 69.6748 51.984 69.3729C51.9793 69.1488 51.9625 68.9247 51.9283 68.7013L62.4784 80.6168C62.2416 80.8791 62 81.1421 61.7551 81.4004H61.7558ZM71.3719 68.6107L56.0151 51.2691L55.9896 51.2436V53.0136L70.7392 69.6708C70.5453 69.9895 70.3521 70.3035 70.1542 70.6229L56.7317 55.4646L56.7062 55.4344L56.7109 55.4734C56.7411 55.8739 56.7451 56.4858 56.5774 57.1185V57.1273L69.4705 71.687C69.2678 71.997 69.0699 72.303 68.8632 72.6082L57.1758 59.4052L56.099 58.1907L56.0855 58.1773L56.0768 58.1907C55.8527 58.4967 55.5595 58.7463 55.216 58.9315L55.1992 58.9402L68.1742 73.5952C67.9628 73.8924 67.7568 74.1937 67.5415 74.4862L54.119 59.328L54.1143 59.3233H54.1056C53.6574 59.44 53.2145 59.5172 52.7791 59.5514L52.7536 59.5561L66.8222 75.4471C66.6028 75.7356 66.3874 76.0288 66.1633 76.3126L51.3365 59.5648L51.3318 59.5602H51.3271C50.6763 59.5085 50.2724 59.3964 50.2677 59.3964H50.259L49.9228 59.6849L65.4387 77.2076C65.2105 77.4874 64.9865 77.7672 64.7583 78.0477L49.1264 60.3955L49.1177 60.3868L48.2434 61.1443L48.2347 61.153L63.9834 78.9474C63.7505 79.2185 63.5184 79.4902 63.2816 79.7526L47.4342 61.8548L47.4255 61.8461L46.5425 62.6123L49.376 65.8074C48.7386 65.5619 48.1958 65.4626 47.5805 65.3854L45.7461 63.3182L45.7374 63.3095L44.7169 64.1924L44.7081 64.2012L46.9605 66.7119L46.9652 66.7166L47.6503 66.8367H47.6892C47.6892 66.8367 47.7107 66.8367 47.767 66.8501C47.8361 66.8588 48.4648 66.9319 49.0935 67.195C49.7222 67.4486 50.1791 67.8149 50.3851 68.237C50.5186 68.4953 50.6474 69.0032 50.6434 69.542C50.6481 70.0546 50.5401 70.5625 50.3422 70.9805C50.1181 71.4455 49.7906 71.7903 49.3431 72.0312C48.1287 72.6727 47.19 72.7545 46.5097 72.7545H46.4842C46.2339 72.7545 45.9977 72.7411 45.7689 72.729C45.5663 72.7156 45.3771 72.7075 45.1792 72.7035C45.0933 72.7035 45.0154 72.7082 44.9463 72.7122L44.7095 72.7257L43.9728 73.3631L43.964 73.3718L55.7635 86.9888C54.9147 87.6907 54.0579 88.3838 53.1716 89.0561C52.0263 89.9216 50.8246 90.7744 49.6014 91.5923C48.3789 90.7697 47.1813 89.9216 46.04 89.0601C36.2038 81.6098 28.8058 72.2137 24.0514 61.1201L24.0125 61.0255L24.0038 61.0087L23.987 60.9698L23.9702 60.9309L23.9615 60.9141C23.6992 60.3069 23.4361 59.6608 23.1517 58.9375C22.8544 58.1625 22.6001 57.4775 22.372 56.8273C18.8669 46.9227 18.1262 38.1251 18.1215 32.4918V19.4564C28.3791 16.7343 38.9426 15.3569 49.5665 15.3569H49.6222C54.3243 15.3569 59.0143 15.6279 63.67 16.1667V19.0431C61.3143 17.6006 58.5453 16.7692 55.583 16.7692C46.9961 16.7692 40.0369 23.7499 40.0369 32.3623C40.0369 40.9747 46.4231 47.3568 54.5021 47.913L57.4523 51.2893L71.9262 67.6365C71.7497 67.9639 71.5598 68.2873 71.3746 68.614L71.3733 68.6107H71.3719ZM63.6721 45.6747V56.5221L56.0842 47.9352C58.8573 47.8493 61.4458 47.0354 63.6721 45.6747ZM72.5213 66.5394L68.2493 61.7079V41.3947C70.0622 38.845 71.1304 35.7278 71.1304 32.3596C71.1304 28.9914 70.0622 25.8741 68.2493 23.3245V16.7786C69.6791 16.998 71.1002 17.2436 72.5213 17.5153V66.5388V66.5394ZM81.0652 32.4804C81.0605 38.113 80.3245 46.9106 76.8147 56.8287C76.81 56.8455 76.8013 56.8629 76.798 56.8803V18.4023C78.2278 18.7251 79.6535 19.074 81.0699 19.4531V32.4797H81.0652V32.4804Z" fill="#1D1D1B"/>
<path d="M55.6884 21.2445L50.9427 19.3457C48.6601 20.1683 46.662 21.5719 45.1162 23.3721L45.3577 28.5915L41.8003 33.1607L41.7057 33.2808C41.8996 35.4688 42.5712 37.5313 43.6219 39.3442L43.6434 39.3489L49.203 41.0283L52.3289 45.8726C53.5481 46.1739 54.8262 46.3161 56.1447 46.2685C57.1048 46.2343 58.0394 46.1048 58.9352 45.8847L61.8719 41.3846L67.3067 39.9246C68.4648 38.1332 69.2229 36.0619 69.4511 33.8437L65.8722 29.1672L66.0963 23.2587C64.6235 21.5793 62.7589 20.2575 60.6488 19.443L55.6877 21.2432L55.6884 21.2445ZM59.3062 37.4743L52.2478 37.5132L50.043 30.7439L55.6153 26.58L61.3251 30.817L59.3049 37.4749L59.3062 37.4743Z" fill="white"/>
<path d="M22.103 14.7289C21.797 14.7933 21.4958 14.8537 21.1945 14.9181C21.1254 14.9315 21.0778 14.8926 21.061 14.8275C20.9831 14.4873 20.906 14.1424 20.8282 13.8029C20.3847 13.8975 19.9412 13.9968 19.4976 14.1002C19.4198 14.4752 19.3427 14.8537 19.2648 15.2327C19.2514 15.3019 19.2004 15.3663 19.136 15.383C18.8347 15.4521 18.5328 15.5253 18.2275 15.5984C18.1631 15.6152 18.1155 15.585 18.1155 15.5206C18.1155 15.5159 18.1242 15.4991 18.1242 15.4864C18.4469 14.0525 18.7703 12.6187 19.089 11.1842C19.2393 10.5213 19.7177 10.3099 20.1659 10.2106C20.6141 10.1113 21.0918 10.1073 21.2428 10.7058C21.5615 11.9934 21.8842 13.2809 22.2117 14.5725C22.2117 14.5859 22.2204 14.598 22.2164 14.6027C22.2164 14.6631 22.1687 14.7107 22.1043 14.7275L22.103 14.7289ZM20.2511 11.2198C20.2377 11.1553 20.2256 11.1251 20.1653 11.1379C20.1096 11.1513 20.0874 11.1896 20.0747 11.258C19.9412 11.8954 19.8123 12.5281 19.6788 13.1615C20.0015 13.0924 20.3249 13.0146 20.6477 12.9461C20.5141 12.3691 20.3806 11.7921 20.2518 11.2198H20.2511Z" fill="url(#paint3_linear_326_63)"/>
<path d="M25.6215 10.0697C25.178 10.1516 24.7385 10.2334 24.295 10.3153C23.989 10.371 23.877 10.5005 23.877 10.8447V11.4345C24.4366 11.3264 25.0008 11.2191 25.5651 11.1157C25.6382 11.1023 25.6939 11.15 25.6939 11.2238V11.8478C25.6939 11.9209 25.6335 11.99 25.5651 12.0028C25.0008 12.1061 24.4372 12.2094 23.877 12.3215V14.2424C23.877 14.3155 23.8166 14.3846 23.7481 14.3974C23.4643 14.4531 23.1839 14.5094 22.8994 14.5651C22.8263 14.5786 22.7659 14.5349 22.7659 14.4571V11.0594C22.7659 9.86643 23.5153 9.50075 24.3547 9.34107C25.0612 9.20755 25.388 9.20352 25.6161 9.19413C25.7067 9.18943 25.7496 9.2156 25.7449 9.30215V9.91406C25.7536 9.98317 25.6933 10.0563 25.6201 10.0691L25.6215 10.0697Z" fill="url(#paint4_linear_326_63)"/>
<path d="M29.3849 13.3634C29.2474 13.4325 28.8676 13.5526 28.4073 13.6257C27.413 13.7847 26.4696 13.4231 26.4696 11.8604V11.0338C26.4696 9.4705 27.413 8.78545 28.4073 8.62643C28.8636 8.5533 29.2474 8.56202 29.3849 8.58752C29.4795 8.60094 29.5272 8.61771 29.5319 8.70762V9.34503C29.5319 9.42286 29.4929 9.48257 29.4071 9.49197C29.4024 9.49197 29.3936 9.49666 29.3856 9.49666C29.1353 9.51344 28.7784 9.53961 28.4167 9.59597C27.9645 9.6691 27.6028 9.96231 27.6028 10.8406V11.6672C27.6028 12.5415 27.9645 12.7179 28.4167 12.6448C28.7784 12.5891 29.1353 12.4979 29.3856 12.4381C29.3903 12.4381 29.399 12.4381 29.4071 12.4334C29.4929 12.42 29.5319 12.4724 29.5319 12.5502V13.1876C29.5319 13.2869 29.4762 13.3251 29.3849 13.3641V13.3634Z" fill="url(#paint5_linear_326_63)"/>
<path d="M33.5233 12.916C33.0925 12.9676 32.5759 13.0018 32.3216 12.9891C32.0593 12.9757 31.96 12.9032 31.96 12.61V8.61379C31.96 8.32126 32.0505 8.21793 32.3089 8.14412C32.533 8.08374 33.0664 7.97638 33.4844 7.92472C34.729 7.77443 35.5643 8.01932 35.5643 9.06132V9.18142C35.5643 9.61217 35.3577 9.99999 35.0128 10.206C35.3617 10.3348 35.5979 10.6622 35.5979 11.1144V11.2137C35.5979 12.3678 34.6592 12.7771 33.5219 12.9146L33.5233 12.916ZM34.4794 9.24717C34.4794 8.88553 34.2466 8.74798 33.5709 8.82514C33.4676 8.83856 33.1616 8.87681 33.0717 8.89425V10.0309C33.3173 10.0007 33.5622 9.97046 33.8084 9.94027C34.3258 9.87989 34.4801 9.62559 34.4801 9.34178V9.24717H34.4794ZM34.5049 11.2319C34.5049 10.9172 34.3325 10.6636 33.8071 10.728C33.5615 10.7582 33.3166 10.7884 33.0704 10.8186V12.0457C33.1737 12.0323 33.5186 11.9981 33.6085 11.9853C34.2848 11.9075 34.5042 11.6707 34.5042 11.305V11.2319H34.5049Z" fill="url(#paint6_linear_326_63)"/>
<path d="M38.1999 12.4335C37.111 12.5281 36.2488 12.0329 36.2488 10.5045V9.72078C36.2488 8.19637 37.1143 7.52474 38.1999 7.43416C39.2889 7.34358 40.1551 7.86894 40.1551 9.39335V10.177C40.1504 11.7014 39.2849 12.3429 38.1999 12.4335ZM39.0138 9.4799C39.0138 8.6922 38.7514 8.37752 38.1952 8.42046C37.6397 8.4681 37.3814 8.82975 37.3814 9.61343V10.3971C37.3814 11.1848 37.6397 11.4955 38.1952 11.4478C38.7508 11.4002 39.0138 11.0473 39.0138 10.2596V9.4799Z" fill="url(#paint7_linear_326_63)"/>
<path d="M42.843 12.1235C41.7922 12.1752 40.9395 11.8397 40.9395 10.3408V7.41674C40.9395 7.34763 40.9998 7.28791 41.073 7.28791C41.3615 7.26644 41.65 7.249 41.9385 7.23625C42.0116 7.23155 42.072 7.28389 42.072 7.35299V10.277C42.072 10.9486 42.2532 11.2204 42.843 11.1902C43.4374 11.16 43.6226 10.8715 43.6226 10.1999V7.27584C43.6226 7.20673 43.683 7.14701 43.7561 7.14701C44.0446 7.13359 44.3291 7.12152 44.617 7.11279C44.6901 7.11279 44.7545 7.16043 44.7545 7.23289V10.1569C44.7545 11.6511 43.8937 12.0732 42.8423 12.1248L42.843 12.1235Z" fill="url(#paint8_linear_326_63)"/>
<path d="M49.3539 11.8954C49.0137 11.8954 48.6776 11.8954 48.3374 11.9001C48.2643 11.9001 48.2428 11.8357 48.2086 11.7713C47.9113 11.2197 47.6141 10.6689 47.3216 10.1221C47.3001 10.1221 47.2739 10.1267 47.2484 10.1308C47.1109 10.1308 46.9036 10.1221 46.7788 10.1261V11.7927C46.7788 11.8659 46.7184 11.9263 46.6452 11.9263C46.3614 11.935 46.0722 11.9397 45.7884 11.9477C45.7193 11.9477 45.6549 11.892 45.6549 11.8229V7.4134C45.6549 7.1893 45.7495 7.12959 45.9521 7.09067C46.2581 7.03498 46.8177 6.98265 47.2961 6.97393C48.4199 6.95715 49.2895 7.33087 49.2855 8.49431V8.58019C49.2855 9.27799 48.9151 9.70405 48.4333 9.89795C48.7648 10.5139 49.0962 11.1292 49.4324 11.7458C49.4458 11.7713 49.4539 11.7974 49.4539 11.8189C49.4539 11.8665 49.4284 11.8967 49.3546 11.8967L49.3539 11.8954ZM48.1609 8.50169C48.1609 8.10113 47.8509 7.91997 47.2954 7.9287C47.2008 7.93339 46.8559 7.95017 46.7781 7.95889V9.22029C46.8512 9.22498 47.174 9.22498 47.2478 9.22498C47.9456 9.21156 48.1609 9.03108 48.1609 8.58757V8.50169Z" fill="url(#paint9_linear_326_63)"/>
<path d="M53.7895 11.9598C53.5742 11.9511 53.3588 11.9464 53.1434 11.943C53.0059 11.9383 52.9066 11.9088 52.7985 11.7317C52.2946 10.8574 51.7955 9.98314 51.2916 9.11291C51.2661 9.06997 51.2527 9.06125 51.2312 9.06125C51.2144 9.06125 51.201 9.07467 51.201 9.11291V11.7739C51.201 11.8471 51.1406 11.9027 51.0675 11.9027C50.8091 11.9027 50.5468 11.8981 50.2878 11.8981C50.2147 11.8981 50.1543 11.8377 50.1543 11.7645V7.26443C50.1543 7.12688 50.2663 7.01416 50.4046 7.01416C50.6287 7.01416 50.8528 7.01886 51.0722 7.02288C51.2057 7.02288 51.2701 7.08729 51.352 7.22954C51.8726 8.13801 52.3986 9.05118 52.9193 9.96368C52.9408 10.0066 52.9535 10.0153 52.971 10.0153C52.9844 10.0153 53.0052 10.0066 53.0052 9.95966V7.1819C53.0052 7.10876 53.0656 7.0571 53.1387 7.0618C53.397 7.06649 53.6594 7.07522 53.9184 7.08327C53.9915 7.08327 54.0519 7.13896 54.0519 7.21209V11.7162C54.0472 11.8585 53.9271 11.9665 53.7895 11.9578V11.9598Z" fill="url(#paint10_linear_326_63)"/>
<path d="M57.8374 12.1188C57.6046 12.1402 57.2691 12.1664 56.5539 12.1322C55.7018 12.0892 54.9476 11.8437 54.9476 10.646V8.46675C54.9476 7.26977 55.7098 7.08861 56.5626 7.13625C57.2779 7.17046 57.6093 7.24427 57.8374 7.29124C57.932 7.31271 57.9663 7.34693 57.9663 7.42878V8.04472C57.9663 8.11785 57.9059 8.16952 57.8374 8.16482C57.3892 8.13933 56.9417 8.11316 56.4935 8.08699C56.1835 8.07022 56.0715 8.17287 56.0715 8.51305V9.11154C56.6398 9.13704 57.2128 9.16723 57.7811 9.20212C57.8542 9.20682 57.9146 9.27123 57.9146 9.34436V9.96835C57.9146 10.0415 57.8542 10.0972 57.7811 10.0885C57.2128 10.0542 56.6398 10.024 56.0715 9.99787V10.691C56.0715 11.0358 56.1795 11.1432 56.4935 11.1606C56.9417 11.1821 57.3845 11.2123 57.8374 11.2385C57.9106 11.2432 57.9663 11.3076 57.9663 11.376V11.9879C57.9663 12.0785 57.932 12.1127 57.8374 12.1168V12.1188Z" fill="url(#paint11_linear_326_63)"/>
<path d="M63.1467 12.5804C62.8582 12.5502 62.5697 12.52 62.2765 12.4945C62.2161 12.4858 62.1732 12.4254 62.1732 12.3523V9.61343C62.1732 9.57049 62.1517 9.55774 62.139 9.55774C62.1222 9.55774 62.1048 9.57116 62.0873 9.60068C61.8894 9.94555 61.6914 10.2857 61.4975 10.6299C61.4499 10.7031 61.3855 10.7333 61.2996 10.7205C61.1231 10.7037 60.9467 10.6903 60.7702 10.6776C60.6843 10.6688 60.6199 10.6299 60.5723 10.5487C60.3744 10.1737 60.1764 9.79526 59.9778 9.41617C59.961 9.38195 59.9436 9.36853 59.9262 9.36451C59.9127 9.36451 59.8919 9.3692 59.8919 9.41617V12.155C59.8919 12.2281 59.8443 12.2838 59.7839 12.2798C59.4914 12.2583 59.2022 12.2369 58.9137 12.2154C58.862 12.2107 58.8016 12.1852 58.8016 12.1161V7.55158C58.8016 7.41404 58.9009 7.33218 59.0385 7.34493C59.2451 7.35835 59.4518 7.37512 59.6584 7.39257C59.796 7.40129 59.8913 7.47442 59.951 7.5905C60.2871 8.24133 60.6226 8.89081 60.9635 9.54567C60.989 9.59733 61.0111 9.63624 61.0366 9.63624C61.0621 9.64094 61.0842 9.60605 61.1057 9.55841C61.4419 8.96395 61.7773 8.37015 62.1135 7.77971C62.1739 7.67168 62.2638 7.61599 62.406 7.62941C62.6127 7.65088 62.8193 7.66833 63.026 7.6898C63.1635 7.70322 63.2628 7.80655 63.2628 7.94342V12.5039C63.2581 12.573 63.1984 12.5858 63.1461 12.5817L63.1467 12.5804Z" fill="url(#paint12_linear_326_63)"/>
<path d="M66.0103 12.9589C64.9247 12.8254 64.0592 12.149 64.0592 10.6246V9.84095C64.0592 8.31654 64.92 7.8254 66.0103 7.95892C67.096 8.09244 67.9568 8.79896 67.9568 10.3227V11.1064C67.9568 12.6268 67.096 13.0917 66.0103 12.9582V12.9589ZM66.8289 10.1684C66.8289 9.38068 66.5666 9.01031 66.015 8.9459C65.4635 8.87679 65.2052 9.18274 65.2052 9.97045V10.7541C65.2052 11.5418 65.4635 11.9041 66.015 11.9732C66.5666 12.0424 66.8289 11.7404 66.8289 10.9527V10.169V10.1684Z" fill="url(#paint13_linear_326_63)"/>
<path d="M70.6312 13.6049C69.5892 13.4412 68.7444 12.9286 68.7411 11.4304V8.50634C68.7411 8.43321 68.8015 8.3896 68.8746 8.39832C69.1631 8.44126 69.4476 8.4842 69.7354 8.52312C69.8086 8.53654 69.869 8.59625 69.869 8.67006V11.5941C69.869 12.2657 70.0454 12.5717 70.6352 12.6663C71.225 12.7609 71.4102 12.5113 71.4102 11.8397V8.91563C71.4102 8.84249 71.4705 8.79888 71.5437 8.8123C71.8275 8.85994 72.112 8.90691 72.3924 8.95454C72.4656 8.96796 72.53 9.02768 72.53 9.10148V12.0255C72.5253 13.5285 71.6732 13.774 70.6312 13.6063V13.6049Z" fill="url(#paint14_linear_326_63)"/>
<path d="M76.488 10.6507C76.135 10.5816 75.7814 10.5085 75.4332 10.4394V14.2638C75.4332 14.337 75.3775 14.3839 75.3044 14.3719C75.0206 14.3162 74.7361 14.2638 74.4523 14.2081C74.3791 14.1947 74.3235 14.1263 74.3235 14.0532V10.2334C73.9705 10.1643 73.6129 10.1046 73.26 10.0355C73.1869 10.022 73.1312 9.95764 73.1265 9.88517V9.20885C73.1265 9.13572 73.1869 9.0921 73.26 9.10955C74.3409 9.30345 75.4218 9.50541 76.498 9.72549C76.5712 9.73891 76.6356 9.80734 76.6356 9.87578V10.5561C76.6268 10.6293 76.5624 10.6682 76.4886 10.6507H76.488Z" fill="url(#paint15_linear_326_63)"/>
<path d="M80.9364 15.5904C80.6526 15.526 80.3681 15.4569 80.0876 15.3925C80.0185 15.3757 79.9588 15.3019 79.9588 15.2288V13.3299C79.4248 13.2051 78.8907 13.0884 78.3526 12.973V14.8718C78.3526 14.9449 78.2922 14.9885 78.2237 14.9751C77.9399 14.9147 77.6554 14.8503 77.3716 14.7899C77.2985 14.7732 77.2428 14.7041 77.2428 14.6309V10.0054C77.2428 9.93222 77.2985 9.89331 77.3716 9.91075C77.6554 9.96644 77.9399 10.0309 78.2237 10.0919C78.2969 10.1087 78.3526 10.1738 78.3526 10.2469V11.9954C78.8866 12.1122 79.4207 12.2323 79.9588 12.3524V10.6038C79.9588 10.5347 80.0145 10.4918 80.0876 10.5092C80.3715 10.5737 80.656 10.6428 80.9364 10.7072C81.0055 10.724 81.0652 10.7931 81.0652 10.8622V15.4877C81.0652 15.5609 81.0048 15.6078 80.9364 15.5911V15.5904Z" fill="url(#paint16_linear_326_63)"/>
</g>
<defs>
<linearGradient id="paint0_linear_326_63" x1="57.9723" y1="83.6726" x2="88.7577" y2="3.74074" gradientUnits="userSpaceOnUse">
<stop stop-color="#881002"/>
<stop offset="1" stop-color="#E20613"/>
</linearGradient>
<linearGradient id="paint1_linear_326_63" x1="61.1198" y1="84.884" x2="91.9033" y2="4.95344" gradientUnits="userSpaceOnUse">
<stop stop-color="#881002"/>
<stop offset="1" stop-color="#E20613"/>
</linearGradient>
<linearGradient id="paint2_linear_326_63" x1="49.5968" y1="94.7216" x2="49.5968" y2="6.01448" gradientUnits="userSpaceOnUse">
<stop stop-color="#881002"/>
<stop offset="1" stop-color="#E20613"/>
</linearGradient>
<linearGradient id="paint3_linear_326_63" x1="21.5306" y1="14.4055" x2="56.6586" y2="40.67" gradientUnits="userSpaceOnUse">
<stop stop-color="#B3A06E"/>
<stop offset="0.44" stop-color="#FFE9CF"/>
<stop offset="1" stop-color="#B3A06E"/>
</linearGradient>
<linearGradient id="paint4_linear_326_63" x1="23.7213" y1="11.4767" x2="58.8445" y2="37.7366" gradientUnits="userSpaceOnUse">
<stop stop-color="#B3A06E"/>
<stop offset="0.44" stop-color="#FFE9CF"/>
<stop offset="1" stop-color="#B3A06E"/>
</linearGradient>
<linearGradient id="paint5_linear_326_63" x1="25.5819" y1="8.98808" x2="60.6978" y2="35.2433" gradientUnits="userSpaceOnUse">
<stop stop-color="#B3A06E"/>
<stop offset="0.44" stop-color="#FFE9CF"/>
<stop offset="1" stop-color="#B3A06E"/>
</linearGradient>
<linearGradient id="paint6_linear_326_63" x1="27.7168" y1="6.12656" x2="62.8454" y2="32.3905" gradientUnits="userSpaceOnUse">
<stop stop-color="#B3A06E"/>
<stop offset="0.44" stop-color="#FFE9CF"/>
<stop offset="1" stop-color="#B3A06E"/>
</linearGradient>
<linearGradient id="paint7_linear_326_63" x1="29.6472" y1="3.54664" x2="64.7664" y2="29.8038" gradientUnits="userSpaceOnUse">
<stop stop-color="#B3A06E"/>
<stop offset="0.44" stop-color="#FFE9CF"/>
<stop offset="1" stop-color="#B3A06E"/>
</linearGradient>
<linearGradient id="paint8_linear_326_63" x1="31.6326" y1="0.901079" x2="66.7384" y2="27.1482" gradientUnits="userSpaceOnUse">
<stop stop-color="#B3A06E"/>
<stop offset="0.44" stop-color="#FFE9CF"/>
<stop offset="1" stop-color="#B3A06E"/>
</linearGradient>
<linearGradient id="paint9_linear_326_63" x1="33.0436" y1="-0.987643" x2="68.1554" y2="25.2635" gradientUnits="userSpaceOnUse">
<stop stop-color="#B3A06E"/>
<stop offset="0.44" stop-color="#FFE9CF"/>
<stop offset="1" stop-color="#B3A06E"/>
</linearGradient>
<linearGradient id="paint10_linear_326_63" x1="34.8471" y1="-3.41116" x2="69.971" y2="22.8501" gradientUnits="userSpaceOnUse">
<stop stop-color="#B3A06E"/>
<stop offset="0.44" stop-color="#FFE9CF"/>
<stop offset="1" stop-color="#B3A06E"/>
</linearGradient>
<linearGradient id="paint11_linear_326_63" x1="36.4521" y1="-5.54818" x2="71.5666" y2="20.7063" gradientUnits="userSpaceOnUse">
<stop stop-color="#B3A06E"/>
<stop offset="0.44" stop-color="#FFE9CF"/>
<stop offset="1" stop-color="#B3A06E"/>
</linearGradient>
<linearGradient id="paint12_linear_326_63" x1="37.8061" y1="-7.37854" x2="72.9353" y2="18.8867" gradientUnits="userSpaceOnUse">
<stop stop-color="#B3A06E"/>
<stop offset="0.44" stop-color="#FFE9CF"/>
<stop offset="1" stop-color="#B3A06E"/>
</linearGradient>
<linearGradient id="paint13_linear_326_63" x1="39.3653" y1="-9.45709" x2="74.4879" y2="16.8028" gradientUnits="userSpaceOnUse">
<stop stop-color="#B3A06E"/>
<stop offset="0.44" stop-color="#FFE9CF"/>
<stop offset="1" stop-color="#B3A06E"/>
</linearGradient>
<linearGradient id="paint14_linear_326_63" x1="40.8541" y1="-11.4398" x2="75.9713" y2="14.816" gradientUnits="userSpaceOnUse">
<stop stop-color="#B3A06E"/>
<stop offset="0.44" stop-color="#FFE9CF"/>
<stop offset="1" stop-color="#B3A06E"/>
</linearGradient>
<linearGradient id="paint15_linear_326_63" x1="42.035" y1="-13.036" x2="77.1609" y2="13.2265" gradientUnits="userSpaceOnUse">
<stop stop-color="#B3A06E"/>
<stop offset="0.44" stop-color="#FFE9CF"/>
<stop offset="1" stop-color="#B3A06E"/>
</linearGradient>
<linearGradient id="paint16_linear_326_63" x1="42.9905" y1="-14.2893" x2="78.1043" y2="11.9646" gradientUnits="userSpaceOnUse">
<stop stop-color="#B3A06E"/>
<stop offset="0.44" stop-color="#FFE9CF"/>
<stop offset="1" stop-color="#B3A06E"/>
</linearGradient>
<clipPath id="clip0_326_63">
<rect width="77.1942" height="100" fill="white" transform="translate(11)"/>
</clipPath>
</defs>
</svg>
