<svg width="100" height="100" viewBox="0 0 100 100" fill="none" xmlns="http://www.w3.org/2000/svg">
<g clip-path="url(#clip0_326_69)">
<path d="M50 96.2696C75.5541 96.2696 96.2697 75.554 96.2697 49.9999C96.2697 24.4459 75.5541 3.73022 50 3.73022C24.446 3.73022 3.73035 24.4459 3.73035 49.9999C3.73035 75.554 24.446 96.2696 50 96.2696Z" fill="white"/>
<path d="M50 3.73031C75.5539 3.73031 96.2697 24.4461 96.2697 50C96.2697 75.5539 75.5539 96.2697 50 96.2697C24.4461 96.2697 3.73031 75.5546 3.73031 50C3.73031 24.4454 24.4461 3.73031 50 3.73031ZM50 0C46.6097 0 43.2208 0.341466 39.9271 1.01555C36.7153 1.67266 33.5558 2.65355 30.5365 3.93091C27.5732 5.18467 24.7146 6.73565 22.0419 8.5418C19.395 10.3303 16.9066 12.3835 14.6447 14.6454C12.3827 16.9073 10.3295 19.3957 8.54107 22.0426C6.73492 24.7161 5.18394 27.5739 3.93018 30.5372C2.65355 33.5565 1.67267 36.716 1.01481 39.9279C0.340733 43.2216 -0.000732422 46.6104 -0.000732422 50.0007C-0.000732422 53.3911 0.340733 56.7799 1.01481 60.0736C1.67193 63.2854 2.65282 66.4449 3.93018 69.4643C5.18394 72.4276 6.73492 75.2862 8.54107 77.9589C10.3295 80.6058 12.3827 83.0941 14.6447 85.3561C16.9066 87.618 19.395 89.6712 22.0419 91.4597C24.7153 93.2658 27.5732 94.8168 30.5365 96.0706C33.5558 97.3472 36.7153 98.3281 39.9271 98.9859C43.2208 99.66 46.6097 100.001 50 100.001C53.3903 100.001 56.7792 99.66 60.0729 98.9859C63.2847 98.3288 66.4442 97.3479 69.4635 96.0706C72.4268 94.8168 75.2854 93.2658 77.9582 91.4597C80.6051 89.6712 83.0934 87.618 85.3553 85.3561C87.6173 83.0941 89.6705 80.6058 91.4589 77.9589C93.2651 75.2854 94.8161 72.4276 96.0698 69.4643C97.3465 66.4449 98.3273 63.2854 98.9852 60.0736C99.6593 56.7799 100.001 53.3911 100.001 50.0007C100.001 46.6104 99.6593 43.2216 98.9852 39.9279C98.3281 36.716 97.3472 33.5565 96.0698 30.5372C94.8161 27.5739 93.2651 24.7153 91.4589 22.0426C89.6705 19.3957 87.6173 16.9073 85.3553 14.6454C83.0934 12.3835 80.6051 10.3303 77.9582 8.5418C75.2847 6.73565 72.4268 5.18467 69.4635 3.93091C66.4442 2.65429 63.2847 1.6734 60.0729 1.01555C56.7792 0.341466 53.3903 0 50 0Z" fill="white"/>
<path d="M58.0425 41.4537L74.7049 34.7018L71.8184 39.3149L58.0476 42.5039L58.0425 41.4537ZM58.0653 43.2635L58.0594 43.9929H78.169L71.6701 40.447L58.0653 43.2635ZM80.1065 36.328C80.0143 36.1871 79.8151 36.0883 79.1484 35.9091L75.6969 35.0123C75.691 34.9761 72.6982 39.9108 72.6982 39.9108L78.3541 42.9125L79.9479 37.3679C80.1441 36.6532 80.2104 36.4873 80.105 36.328H80.1065ZM19.951 37.3686L21.5447 42.9132L27.2014 39.9115C27.2014 39.9115 24.2079 34.9769 24.2027 35.013L20.7512 35.9098C20.0845 36.089 19.8861 36.1886 19.7939 36.3287C19.6892 36.4888 19.7555 36.6532 19.951 37.3686ZM28.2671 40.4477L21.7682 43.9863H41.8778L41.8719 43.2643L28.2671 40.4477ZM58.0565 44.7518L58.0388 45.4657L66.4014 46.8382L71.6214 44.7525H58.0565V44.7518ZM58.0469 46.1575L58.0329 46.8965C58.0314 46.9252 64.3386 50.3089 64.3386 50.3089C64.3386 50.3089 65.2804 50.8392 65.5872 50.9078C66.0658 51.0169 66.821 50.9668 66.821 50.9668L69.2946 50.8266C69.2946 50.8266 65.8586 47.7063 65.9419 47.7387C66.026 47.7719 58.0469 46.1582 58.0469 46.1582V46.1575ZM74.0449 45.7401L72.9305 45.1803L67.2458 47.561L70.2688 50.4645L74.022 46.7431C74.2838 46.4665 74.4594 46.3043 74.4483 46.1295C74.4409 46.01 74.3362 45.9053 74.0441 45.7401H74.0449ZM25.5192 46.1295C25.5081 46.3035 25.6836 46.4658 25.9454 46.7431L29.6986 50.4645L32.7209 47.561L27.0362 45.1803L25.9218 45.7401C25.6298 45.9045 25.5251 46.0093 25.5177 46.1295H25.5192ZM41.9353 41.4529L25.2728 34.7011L28.1594 39.3142L41.9302 42.5031L41.9353 41.4529ZM28.3556 44.7511L33.5764 46.8367L41.939 45.4642L41.9213 44.7503H28.3563L28.3556 44.7511ZM34.0359 47.738C34.1192 47.7055 30.6832 50.8259 30.6832 50.8259L33.1568 50.966C33.1568 50.966 33.9112 51.0154 34.3906 50.907C34.6974 50.8384 35.6392 50.3082 35.6392 50.3082C35.6392 50.3082 41.9464 46.9238 41.9449 46.8957L41.9309 46.1567C41.9309 46.1567 33.9525 47.7704 34.0359 47.7372V47.738ZM57.8448 40.298L63.1622 34.5329L66.5835 30.3734L66.7686 29.242L66.4257 28.9264L66.0046 30.2163L57.08 38.3244C57.1058 38.4033 57.8433 40.2987 57.8433 40.2987M64.7243 59.4687C64.6195 59.3279 61.7189 51.6416 61.7189 51.6416C61.227 50.4136 60.8059 50.2027 59.929 49.7115L57.937 48.4393L57.8419 48.5595L60.1259 51.6763L60.1318 56.2045L67.5666 65.6461C68.5844 66.9095 68.6198 67.3306 70.0941 67.3306L71.0071 66.9095L69.2872 66.6277C69.2872 66.6277 64.8297 59.6081 64.725 59.468M35.311 59.468C35.2063 59.6089 30.7488 66.6277 30.7488 66.6277L29.0289 66.9095L29.942 67.3306C31.4163 67.3306 31.4509 66.9095 32.4687 65.6461L39.8924 56.2045L39.9101 51.6763L42.1934 48.5595L42.0983 48.4393L40.107 49.7115C39.2301 50.2034 38.8083 50.4136 38.3164 51.6416C38.3164 51.6416 35.4165 59.3271 35.3118 59.4687M36.8384 34.5344L42.1558 40.2995C42.1558 40.2995 42.8933 38.4041 42.9192 38.3252L33.9953 30.217L33.5735 28.9271L33.2313 29.2428L33.4156 30.3741L36.8384 34.5336V34.5344ZM58.9872 52.0878V61.4947L55.8808 66.759L51.6335 69.9885L50.0022 72.0418L48.3664 69.9885L44.1191 66.759L41.0127 61.4947V52.0878L43.7924 48.193L42.8557 47.5676V41.4065L44.1722 37.5146L45.2777 36.8804C45.2777 36.8804 45.3559 35.0588 45.7254 34.589C46.0211 34.2121 47.4533 33.7386 47.4533 33.7386L48.1636 32.7585L45.6568 29.1299L43.1647 27.7619L42.3645 26.8238L43.5932 27.2102L46.2254 28.6845L48.755 32.2658L50.0567 31.9479L51.3142 32.2784L53.8534 28.6845L56.4856 27.2102L57.7143 26.8238L56.9133 27.7619L54.422 29.1299L51.8769 32.8153L52.5466 33.7386C52.5466 33.7386 53.9781 34.2121 54.2753 34.589C54.6448 35.058 54.7215 36.8804 54.7215 36.8804L55.8277 37.5146L57.1449 41.4065V47.5676L56.2606 48.1576L58.9872 52.0885V52.0878ZM53.4242 44.1264V47.1443L55.1433 43.2834L49.9882 41.037L45.0734 42.7576L45.1147 42.9154L49.9882 42.3711L53.4242 44.1264ZM52.1844 35.8258L53.88 36.5087L52.5473 34.0867L52.1852 35.8243L52.1844 35.8258ZM46.1207 36.5094L47.8376 35.8494L47.4541 34.0882L46.1214 36.5102L46.1207 36.5094ZM43.7695 41.284L47.28 39.4241H52.7228L56.2326 41.284L55.8462 40.1955L53.3187 38.0899L55.5652 38.8621L55.3196 38.0899C55.3196 38.0899 52.8976 36.8966 52.8622 36.7912H47.1384C47.103 36.8959 44.6811 38.0899 44.6811 38.0899L44.4347 38.8621L46.6812 38.0899L44.1537 40.1955L43.768 41.284H43.7695ZM57.1272 62.8642L52.933 64.3378H47.0691L42.928 62.8642L44.3942 65.419L47.842 66.6646L45.42 66.6071L48.7182 69.1124H51.2825L54.5806 66.6071L52.1601 66.6646L55.608 65.419L57.1265 62.8642H57.1272ZM46.7844 60.9297H53.217L56.2216 58.6346L56.1839 58.5387L52.874 59.7188H47.1266L43.8174 58.5387L43.7798 58.6346L46.7844 60.9297ZM57.9525 52.3695L57.9451 52.3607L53.0023 52.9661L56.7592 50.8886L55.2761 48.8155L53.1432 50.2396H46.8582L44.7806 48.8523L43.3056 50.8893L46.9983 52.9669L42.0563 52.3614L42.0504 52.3702V55.0142L45.2438 56.2082H54.7591L57.954 55.0142V52.3702L57.9525 52.3695ZM96.513 49.9711C96.513 24.2993 75.629 3.41382 49.9594 3.41382C24.2897 3.41382 3.40649 24.2978 3.40649 49.9689C3.40649 75.6401 24.2905 96.5226 49.9601 96.5226C75.6298 96.5226 96.5138 75.6386 96.5138 49.9689L96.513 49.9711ZM95.3979 49.9711C95.3979 75.0257 75.014 95.4097 49.9587 95.4097C24.9033 95.4097 4.5216 75.0242 4.5216 49.9689C4.5216 24.9136 24.9056 4.52819 49.9601 4.52819C75.0147 4.52819 95.3994 24.9129 95.3994 49.9689L95.3979 49.9711ZM26.9189 34.3928C31.92 27.0362 40.3563 22.1952 49.9026 22.1952C59.4489 22.1952 68.0025 27.104 72.9902 34.5477L74.0441 34.1066C68.8646 26.3208 59.9342 21.0867 49.9026 21.0867C39.871 21.0867 31.0527 26.2072 25.8695 33.968L26.9189 34.3935V34.3928ZM21.4887 44.7525C21.1811 46.4385 21.0204 48.1967 21.0204 49.9704C21.0204 65.8961 33.9769 78.8519 49.9019 78.8519C65.8268 78.8519 78.7834 65.8954 78.7834 49.9704C78.7834 48.1901 78.6211 46.4318 78.3106 44.7393L77.1918 44.7415C77.5082 46.4171 77.6741 48.2048 77.6741 49.9711C77.6741 65.2847 65.2155 77.7442 49.9011 77.7442C34.5868 77.7442 22.1281 65.2847 22.1281 49.9711C22.1281 48.1901 22.2963 46.4473 22.6185 44.7577L21.4879 44.7533L21.4887 44.7525Z" fill="#0F0F0F"/>
<path d="M44.159 40.1934L46.6864 38.0878L44.44 38.86L44.6863 38.0878C44.6863 38.0878 47.1083 36.8945 47.1437 36.7891H52.8674C52.9028 36.8938 55.3248 38.0878 55.3248 38.0878L55.5704 38.86L53.324 38.0878L55.8514 40.1934L56.2378 41.282L52.7281 39.422H47.2853L43.7747 41.282L44.1604 40.1934H44.159ZM57.1236 62.8621L52.9294 64.3357H47.0655L42.9244 62.8621L44.3905 65.4169L47.8384 66.6625L45.4164 66.605L48.7145 69.1103H51.2789L54.577 66.605L52.1565 66.6625L55.6043 65.4169L57.1229 62.8621H57.1236ZM57.9496 52.3682L57.9422 52.3593L52.9995 52.9648L56.7563 50.8872L55.2732 48.8141L53.1403 50.2382H46.8553L44.7777 48.851L43.3027 50.888L46.9954 52.9655L42.0534 52.36L42.0475 52.3689V55.0129L45.2409 56.2069H54.7562L57.9511 55.0129V52.3689L57.9496 52.3682Z" fill="#FFB81C"/>
<path d="M62.1586 32.8205V25.6475L62.6674 25.9329V32.3271L62.1586 32.8205ZM62.1586 59.9947V74.0051L62.6674 73.7145V60.8199L62.1586 59.9939V59.9947ZM62.6674 38.7456V36.1732L62.1586 36.7713V38.9676L62.6674 38.7456ZM62.6674 51.9632V50.1858L62.1586 49.8628V50.9307L62.6674 51.9639V51.9632ZM54.487 27.5495V23.3811L53.9781 23.2705V27.829L54.487 27.5495ZM53.9781 69.4377V76.6903L54.487 76.6085V69.0107L53.9781 69.4377ZM53.9781 30.9089V33.5182L54.487 33.7815V30.1205L53.9781 30.9089ZM70.9047 35.4172V32.6936L70.3958 32.2283V35.6083L70.9047 35.418V35.4172ZM70.3641 51.4057V65.9537L70.8729 66.0429V51.3702L70.3641 51.4057ZM38.0259 32.8212V25.6482L37.517 25.9336V32.3278L38.0259 32.8212ZM37.517 60.8199V73.7145L38.0259 74.0051V59.9947L37.517 60.8207V60.8199ZM38.0259 38.9676V36.7713L37.517 36.1732V38.7456L38.0259 38.9676ZM38.0259 50.93V49.8621L37.517 50.1851V51.9625L38.0259 50.9292V50.93ZM46.2063 27.8305V23.272L45.6974 23.3826V27.551L46.2063 27.8305ZM45.6974 69.0107V76.6085L46.2063 76.6903V69.4377L45.6974 69.0107ZM45.6974 30.1205V33.7815L46.2063 33.5182V30.9089L45.6974 30.1205ZM29.7887 35.6075V32.2275L29.2798 32.6929V35.4165L29.7887 35.6068V35.6075ZM29.3115 51.371V66.0437L29.8204 65.9544V51.4064L29.3115 51.371Z" fill="#E6E6E6"/>
<path d="M23.4674 26.3983C23.0175 26.0222 22.5005 26.2161 22.1244 26.6653L21.4392 27.4832L22.8191 28.6388L23.4703 27.8608C23.8671 27.3873 23.9246 26.7811 23.4681 26.3976L23.4674 26.3983Z" fill="#C10000"/>
<path d="M45.8876 87.7138L47.0786 87.834L46.645 86.168L45.8876 87.7138Z" fill="#C10000"/>
<path d="M41.2081 84.7595L40.4802 84.5559L40.1653 85.6865L40.8711 85.8827C41.2354 85.9837 41.5739 85.8252 41.6727 85.4689C41.7826 85.0751 41.4965 84.8398 41.2089 84.7587L41.2081 84.7595Z" fill="#C10000"/>
<path d="M19.9982 24.9668L19.3536 25.7367L20.5484 26.7375L21.1731 25.9912C21.4961 25.6062 21.4887 25.1091 21.1119 24.7935C20.6944 24.4439 20.2534 24.6615 19.9975 24.9661L19.9982 24.9668Z" fill="#C10000"/>
<path d="M14.0126 49.2809C14.3526 49.2809 14.5812 49.0316 14.5812 48.7056C14.5812 48.3796 14.3526 48.1304 14.0126 48.1304C13.6726 48.1304 13.458 48.3796 13.458 48.7056C13.458 49.0316 13.68 49.2809 14.0126 49.2809Z" fill="#C10000"/>
<path d="M30.1056 79.7104C29.3482 79.2288 28.3688 79.4176 27.7987 80.3144C27.2323 81.2046 27.4757 82.1714 28.2331 82.653C28.9913 83.1346 29.9692 82.9458 30.5363 82.0557C31.1072 81.1589 30.8638 80.192 30.1064 79.7097L30.1056 79.7104Z" fill="#C10000"/>
<path d="M40.7036 86.7439L39.9293 86.5278L39.5657 87.8325L40.3017 88.0375C40.7494 88.1621 41.183 88.0132 41.304 87.581C41.422 87.1562 41.1277 86.8619 40.7036 86.7432V86.7439Z" fill="#C10000"/>
<path d="M14.0126 49.9807C13.4787 49.9807 13.1188 50.376 13.1188 50.8679C13.1188 51.3598 13.4794 51.7485 14.0126 51.7485C14.5458 51.7485 14.9212 51.3539 14.9212 50.8679C14.9212 50.3819 14.5606 49.9807 14.0126 49.9807Z" fill="#C10000"/>
<path d="M27.3489 19.2106C27.0399 18.8279 26.5199 18.7497 26.056 19.1243L25.2743 19.7549L26.4042 21.1554L27.1453 20.5573C27.6181 20.176 27.6778 19.617 27.3489 19.2099V19.2106Z" fill="#C10000"/>
<path d="M79.3373 27.5008C80.1942 26.6563 80.4553 25.4158 79.4781 24.4239L78.7362 23.6709L75.517 26.8437L76.2294 27.5664C77.2287 28.5797 78.4729 28.3526 79.3373 27.5V27.5008Z" fill="#C10000"/>
<path d="M84.8766 49.266C85.2159 49.266 85.4452 49.0167 85.4452 48.69C85.4452 48.3633 85.2166 48.1147 84.8766 48.1147C84.5366 48.1147 84.322 48.364 84.322 48.69C84.322 49.016 84.544 49.266 84.8766 49.266Z" fill="#C10000"/>
<path d="M84.8766 49.9661C84.3427 49.9661 83.9828 50.3614 83.9828 50.8533C83.9828 51.3452 84.3434 51.7339 84.8766 51.7339C85.4099 51.7339 85.7853 51.3393 85.7853 50.8533C85.7853 50.3673 85.4246 49.9661 84.8766 49.9661Z" fill="#C10000"/>
<path d="M89.3703 48.1147C88.8297 48.1147 88.483 48.5241 88.483 49.016C88.483 49.5079 88.8297 49.9172 89.3703 49.9172C89.9108 49.9172 90.2575 49.5013 90.2575 49.016C90.2575 48.5307 89.9042 48.1147 89.3703 48.1147Z" fill="#C10000"/>
<path d="M73.3788 20.0262C73.6753 19.6338 73.6244 19.1102 73.1487 18.751L72.3471 18.1455L71.2629 19.5814L72.0226 20.1552C72.5071 20.521 73.0639 20.4428 73.3788 20.0262Z" fill="#C10000"/>
<path d="M63.5214 18.4303C64.6217 18.8913 65.8608 18.4237 66.4028 17.1301C66.9486 15.8277 66.4124 14.616 65.3121 14.155C64.2124 13.6941 62.9727 14.1616 62.4269 15.4641C61.8856 16.7569 62.4218 17.9694 63.5221 18.4296L63.5214 18.4303Z" fill="#C10000"/>
<path d="M49.9948 5.67505C25.5759 5.67505 5.70898 25.542 5.70898 49.9631C5.70898 74.3841 25.5759 94.2489 49.9948 94.2489C74.4136 94.2489 94.2806 74.3819 94.2806 49.9631C94.2806 25.5442 74.4136 5.67505 49.9948 5.67505ZM80.3203 23.5942C81.9141 25.2116 81.5741 27.2515 80.366 28.4404C79.1661 29.6226 77.0251 30.0585 75.3067 28.315L73.7056 26.6903L78.6093 21.8574L80.3211 23.5942H80.3203ZM73.9955 17.9081C75.098 18.7407 75.1961 19.9296 74.5338 20.8057C74.1053 21.3736 73.3155 21.7601 72.3929 21.5226L71.9585 24.997L70.6221 23.9881L71.0594 20.909L70.5506 20.5247L68.9111 22.696L67.8085 21.8633L71.957 16.3689L73.9947 17.9073L73.9955 17.9081ZM61.1437 14.9271C61.9439 13.0162 63.9669 12.1961 65.8099 12.9683C67.6536 13.7404 68.4878 15.7575 67.6868 17.6676C66.8911 19.5689 64.8681 20.3898 63.0243 19.6176C61.1805 18.8454 60.3464 16.8284 61.1429 14.9271H61.1437ZM56.0527 10.1923L60.1525 10.9807L59.929 12.1422L57.1862 11.6142L56.8698 13.2581L59.058 13.6792L58.8345 14.8408L56.6464 14.4197L56.1087 17.2141L54.7524 16.953L56.0534 10.1923H56.0527ZM47.1812 9.75567L52.8733 9.78591L52.8674 10.9681L50.7116 10.9563L50.6814 16.6587L49.3 16.6514L49.3303 10.949L47.1746 10.9372L47.1805 9.75494L47.1812 9.75567ZM39.7213 11.1326L43.8469 14.6638L42.8727 10.4106L44.2186 10.1023L45.7556 16.8136L44.4812 17.1057L40.3622 13.6047L41.3291 17.8277L39.9831 18.136L38.4462 11.4247L39.7206 11.1326H39.7213ZM34.5875 12.7581L35.0979 13.8245L32.5778 15.0303L33.3006 16.5407L35.3103 15.5783L35.8206 16.6447L33.8109 17.6072L34.53 19.1073L37.1253 17.8653L37.6356 18.9317L33.7947 20.7711L30.8226 14.5613L34.5883 12.7588L34.5875 12.7581ZM25.4447 18.0991C26.5199 17.2318 27.697 17.4243 28.3866 18.279C28.8328 18.8329 29.0171 19.6936 28.5628 20.5306L31.8285 21.7947L30.5261 22.8464L27.6446 21.676L27.1476 22.0772L28.8564 24.1938L27.7811 25.0611L23.4578 19.7032L25.4447 18.0998V18.0991ZM19.167 24.1201C20.0675 23.0448 21.1148 22.9674 21.8051 23.5448C22.3346 23.9881 22.5241 24.7071 22.2697 25.3532C22.8966 24.8819 23.6975 24.789 24.3635 25.3466C25.1415 25.9978 25.4801 27.3054 24.4992 28.4765L22.8464 30.4501L17.5688 26.0288L19.1677 24.1201H19.167ZM10.7203 52.4013H9.95776V47.898L10.7203 47.4231V52.4005V52.4013ZM14.0133 52.4573C13.0708 52.4573 12.3429 51.764 12.3429 50.8695C12.3429 50.3008 12.6342 49.8296 13.0914 49.5663C12.8628 49.3583 12.7308 49.0603 12.7308 48.7063C12.7308 47.9924 13.2854 47.4238 14.0133 47.4238C14.7412 47.4238 15.3098 47.9924 15.3098 48.7063C15.3098 49.0603 15.1712 49.3576 14.9426 49.5729C15.3998 49.8362 15.6911 50.3008 15.6911 50.8695C15.6911 51.7633 14.9699 52.4573 14.0133 52.4573ZM21.0779 73.2513L20.3618 73.7794L19.3654 72.4297L17.6418 73.7012L17.0253 72.8641L21.1952 69.7887L23.0603 72.3176L22.3442 72.8464L21.0956 71.1546L20.0815 71.9024L21.0779 73.252V73.2513ZM21.8973 78.832C20.8515 77.7516 20.8736 76.1091 21.9887 75.0302C23.1097 73.9468 24.7514 73.9792 25.7972 75.0604C26.8422 76.1409 26.8209 77.7833 25.6998 78.8674C24.5847 79.9464 22.9423 79.9132 21.8965 78.832H21.8973ZM31.4199 82.6206C30.5873 83.9297 28.9825 84.2807 27.714 83.4731C26.4447 82.6663 26.0833 81.0637 26.916 79.7546C27.7531 78.4389 29.3579 78.0879 30.6264 78.8954C31.8956 79.7023 32.257 81.3049 31.4207 82.6206H31.4199ZM37.4173 83.6413L35.9423 82.968L34.1598 86.8723L33.2143 86.4401L34.9968 82.5365L33.5211 81.8632L33.8906 81.0534L37.7876 82.8323L37.4181 83.642L37.4173 83.6413ZM42.7444 85.5573C42.6042 86.0581 42.1713 86.4106 41.6492 86.4372C42.1661 86.7204 42.4796 87.2411 42.3041 87.8709C42.099 88.6062 41.3077 89.2441 40.2007 88.9359L38.3348 88.4152L39.7265 83.4245L41.5319 83.9275C42.5482 84.2107 42.9273 84.9046 42.7451 85.5573H42.7444ZM47.6532 90.0473L47.3405 88.8363L45.437 88.6431L44.8876 89.7663L43.7673 89.6527L46.3043 84.7018L47.2911 84.8021L48.7742 90.1609L47.6539 90.0473H47.6532ZM49.9498 79.9825C33.3979 79.9825 19.9325 66.5171 19.9325 49.9653C19.9325 48.154 20.1184 46.2173 20.4031 44.656C20.4945 44.1559 20.6464 43.6294 20.6464 43.6294L18.9347 37.6858C18.5681 36.4114 18.4229 36.0603 18.6242 35.7321C18.7039 35.6023 18.8514 35.3921 19.4443 35.2351L24.5869 33.954L24.6902 33.7623C30.0349 25.4579 39.3607 19.9465 49.9491 19.9465C60.5374 19.9465 69.7836 25.4122 75.1393 33.659L75.2979 33.9444L80.4405 35.2255C81.0327 35.3818 81.181 35.592 81.2606 35.7225C81.462 36.0507 81.3174 36.4018 80.9501 37.6762L79.2384 43.6198C79.2384 43.6198 79.4147 44.2076 79.5039 44.7054C79.8151 46.4304 79.9656 48.1717 79.9656 49.966C79.9656 66.5171 66.5002 79.9833 49.9483 79.9833L49.9498 79.9825ZM51.1578 90.0989L50.8643 84.9253L51.902 84.8663L52.1454 89.1512L54.2133 89.0339L54.2635 89.9226L51.1578 90.0989ZM56.653 89.5104L55.6367 84.4297L56.6559 84.2254L57.4974 88.4336L59.5285 88.028L59.7033 88.9005L56.653 89.5104ZM66.7458 86.3723C65.4927 86.9276 63.9941 86.4969 63.3112 84.9563C62.584 83.3146 63.4358 81.8949 64.6601 81.3528C65.3076 81.0659 66.1366 80.9914 66.9213 81.4022L66.5356 82.3396C66.0149 82.0011 65.4728 82.0608 65.034 82.2555C64.2279 82.6125 63.7773 83.4237 64.2464 84.4821C64.6962 85.4976 65.5871 85.8177 66.394 85.46C67.0135 85.1856 67.3645 84.617 67.3373 83.8367L68.2968 83.9024C68.3159 85.0735 67.6824 85.9571 66.7465 86.3716H66.745L66.7458 86.3723ZM71.1413 83.9695L68.2628 79.661L69.1272 79.0835L71.5115 82.6523L73.2336 81.5018L73.7278 82.2415L71.1413 83.9695ZM77.1985 79.5968C76.416 80.2805 75.1969 80.4774 74.3369 79.4921L72.1406 76.9772L72.9231 76.2935L75.0464 78.7251C75.5487 79.3003 76.1276 79.245 76.5605 78.8659C76.9934 78.4876 77.1365 77.9337 76.6239 77.3474L74.5007 74.9159L75.2831 74.2322L77.4794 76.7471C78.3445 77.7376 77.9802 78.9124 77.197 79.5968H77.1985ZM81.9244 74.4313L80.6006 75.8459L76.8172 72.3058L78.0982 70.9377C78.8187 70.1678 79.6094 70.1516 80.1042 70.6147C80.4833 70.9695 80.5969 71.5174 80.3786 71.9931C80.869 71.6649 81.4745 71.6273 81.9524 72.0742C82.51 72.5957 82.7106 73.592 81.9251 74.4313H81.9244ZM84.8766 52.4448C83.9341 52.4448 83.2062 51.7515 83.2062 50.8569C83.2062 50.2883 83.4975 49.817 83.9548 49.5537C83.7261 49.3458 83.5941 49.0478 83.5941 48.6938C83.5941 47.9799 84.1487 47.4113 84.8766 47.4113C85.6046 47.4113 86.1739 47.9799 86.1739 48.6938C86.1739 49.0478 86.0353 49.3458 85.8066 49.5604C86.2639 49.8237 86.5552 50.2883 86.5552 50.8569C86.5552 51.7508 85.8339 52.4448 84.8774 52.4448H84.8766ZM89.3142 52.3895H88.4683L89.5082 50.601C89.4389 50.615 89.3695 50.6224 89.3002 50.6224C88.4889 50.6224 87.7124 49.9712 87.7124 49.0205C87.7124 48.0699 88.4263 47.412 89.3695 47.412C90.3128 47.412 91.0267 48.1193 91.0267 49.0205C91.0267 49.3598 90.888 49.6651 90.7287 49.9424L89.3142 52.3895Z" fill="#C10000"/>
<path d="M79.5327 71.5218C79.234 71.2422 78.8933 71.3868 78.6883 71.6051L78.1713 72.1575L79.0283 72.9592L79.529 72.4245C79.7871 72.1486 79.8026 71.7747 79.5327 71.5218Z" fill="#C10000"/>
<path d="M22.7166 75.7816C21.9585 76.5154 21.9688 77.5125 22.5927 78.1579C23.2166 78.8032 24.213 78.8474 24.9712 78.1136C25.7352 77.3746 25.7249 76.3775 25.1002 75.7322C24.4763 75.0869 23.4799 75.0426 22.7159 75.7816H22.7166Z" fill="#C10000"/>
<path d="M80.2163 72.9697L79.6676 73.556L80.6566 74.4808L81.178 73.9233C81.4951 73.584 81.5645 73.1304 81.2363 72.8244C80.914 72.5227 80.5172 72.6481 80.2163 72.9697Z" fill="#C10000"/>
</g>
<defs>
<clipPath id="clip0_326_69">
<rect width="100" height="100" fill="white"/>
</clipPath>
</defs>
</svg>
