<svg width="100" height="100" viewBox="0 0 100 100" fill="none" xmlns="http://www.w3.org/2000/svg">
<g clip-path="url(#clip0_326_71)">
<path d="M49.9996 97.4885C76.227 97.4885 97.4885 76.227 97.4885 49.9996C97.4885 23.7722 76.227 2.51074 49.9996 2.51074C23.7722 2.51074 2.51074 23.7722 2.51074 49.9996C2.51074 76.227 23.7722 97.4885 49.9996 97.4885Z" fill="white"/>
<path d="M49.9996 2.51074C62.1531 2.51074 74.3067 7.1474 83.5793 16.42C102.125 34.9659 102.125 65.034 83.5793 83.58C74.3067 92.8526 62.1531 97.4893 49.9996 97.4893C37.8461 97.4893 25.6926 92.8526 16.42 83.58C-2.12593 65.034 -2.12593 34.9659 16.42 16.42C25.6926 7.1474 37.8461 2.51074 49.9996 2.51074ZM49.9996 0C46.8005 0 43.5882 0.307989 40.452 0.91519C37.285 1.52824 34.1671 2.45221 31.1859 3.66149C28.1485 4.89345 25.2215 6.43339 22.4862 8.23963C19.6806 10.092 17.0418 12.2472 14.6445 14.6445C12.2472 17.0418 10.092 19.6806 8.23963 22.4862C6.43339 25.2215 4.89345 28.1485 3.66149 31.1859C2.45221 34.1678 1.52824 37.285 0.91519 40.452C0.307989 43.5882 0 46.8005 0 49.9996C0 53.1988 0.307989 56.4111 0.91519 59.5473C1.52824 62.7143 2.45221 65.8322 3.66149 68.8133C4.89345 71.8508 6.43339 74.7778 8.23963 77.5131C10.092 80.3187 12.2472 82.9574 14.6445 85.3548C17.0418 87.7521 19.6806 89.9073 22.4862 91.7596C25.2215 93.5659 28.1485 95.1058 31.1859 96.3378C34.1678 97.5471 37.285 98.471 40.452 99.0841C43.5882 99.6913 46.8005 99.9993 49.9996 99.9993C53.1988 99.9993 56.4111 99.6913 59.5473 99.0841C62.7143 98.471 65.8322 97.5471 68.8133 96.3378C71.8508 95.1058 74.7778 93.5659 77.5131 91.7596C80.3187 89.9073 82.9574 87.7521 85.3548 85.3548C87.7521 82.9574 89.9073 80.3187 91.7596 77.5131C93.5659 74.7778 95.1058 71.8508 96.3378 68.8133C97.5471 65.8315 98.471 62.7143 99.0841 59.5473C99.6913 56.4111 99.9993 53.1988 99.9993 49.9996C99.9993 46.8005 99.6913 43.5882 99.0841 40.452C98.471 37.285 97.5471 34.1671 96.3378 31.1859C95.1058 28.1485 93.5659 25.2215 91.7596 22.4862C89.9073 19.6806 87.7521 17.0418 85.3548 14.6445C82.9574 12.2472 80.3187 10.092 77.5131 8.23963C74.7778 6.43339 71.8508 4.89345 68.8133 3.66149C65.8315 2.45221 62.7143 1.52824 59.5473 0.91519C56.4111 0.307989 53.1988 0 49.9996 0Z" fill="white"/>
<path d="M31.502 88.2809L32.6725 88.7608L33.396 87.9319L35.2863 88.7059L35.2132 89.8011L35.2344 89.8113L36.3844 90.2825L36.6288 83.9573L35.7553 83.6011L31.5012 88.2816L31.502 88.2809ZM35.3749 87.6291L34.1049 87.1082L35.5117 85.5149L35.3749 87.6291Z" fill="#0054A5"/>
<path d="M41.0093 85.3722L39.8308 85.0906L38.451 90.8714L38.4825 90.8787L42.2245 91.7734L42.4769 90.7134L39.8827 90.0952L41.0093 85.3722Z" fill="#0054A5"/>
<path d="M49.1217 88.2218C49.1261 88.1596 49.1283 88.0996 49.1283 88.0411C49.1283 87.6094 48.9959 87.2466 48.7318 86.9576C48.4297 86.6284 47.9885 86.4426 47.4121 86.398L45.0257 86.2092L44.5553 92.1327L47.0404 92.3295C47.1143 92.3346 47.1882 92.3376 47.2592 92.3376H47.2643C47.7091 92.3376 48.0888 92.2183 48.3982 91.9813C48.7589 91.7062 48.9601 91.2936 49.0018 90.7552C49.0061 90.6952 49.0083 90.6381 49.0083 90.584C49.0083 90.3045 48.9476 90.066 48.8247 89.8722C48.6923 89.6644 48.5299 89.4976 48.3368 89.3754C48.5094 89.295 48.6726 89.1647 48.8254 88.9819C48.9974 88.777 49.0954 88.5224 49.1195 88.2203L49.1217 88.2218ZM47.8005 90.603C47.7852 90.8049 47.7091 90.9629 47.5723 91.0844C47.456 91.1875 47.3023 91.2402 47.1063 91.2409C47.0755 91.2409 47.0434 91.2387 47.0119 91.2366L45.8494 91.1451L45.9584 89.7683L47.1209 89.8597C47.3623 89.8795 47.5357 89.9585 47.6506 90.0953C47.7508 90.2167 47.802 90.3616 47.802 90.5306C47.802 90.554 47.802 90.5789 47.7998 90.603H47.8005ZM47.9095 88.1757C47.8942 88.3725 47.8188 88.5202 47.6857 88.6285C47.5708 88.7178 47.4208 88.766 47.2314 88.766C47.1999 88.766 47.167 88.766 47.1333 88.7631L46.0448 88.6761L46.1472 87.3885L47.2343 87.4756C47.4713 87.4946 47.6432 87.567 47.7588 87.6943C47.8598 87.807 47.9117 87.9408 47.9117 88.1084C47.9117 88.1296 47.9117 88.153 47.9095 88.1764V88.1757Z" fill="#0054A5"/>
<path d="M51.1876 86.4726L51.4707 92.4093L51.5037 92.4071L52.6822 92.35L52.3984 86.4148L51.1884 86.4719L51.1876 86.4726Z" fill="#0054A5"/>
<path d="M59.2664 89.8793C59.2664 89.545 59.2115 89.076 59.1047 88.4696C58.9913 87.8287 58.875 87.3525 58.7536 87.0364C58.6321 86.7197 58.4149 86.4527 58.1054 86.2412C57.8537 86.0657 57.5889 85.9464 57.3109 85.885C57.1668 85.8513 57.0168 85.8359 56.8617 85.8359C56.7154 85.8359 56.5647 85.8498 56.4082 85.8776C56.0848 85.934 55.8017 86.04 55.5588 86.1937C55.3167 86.3473 55.106 86.5507 54.9311 86.8031C54.7226 87.1008 54.6144 87.4234 54.6063 87.7695C54.6063 87.79 54.6063 87.8112 54.6063 87.8324C54.6063 88.1711 54.6597 88.6386 54.7658 89.237C54.8777 89.872 54.9962 90.3468 55.1199 90.6643C55.245 90.9847 55.4579 91.2517 55.7563 91.4661C56.0087 91.6417 56.275 91.7602 56.5559 91.8224C56.6993 91.8531 56.85 91.8684 57.0059 91.8684C57.1529 91.8684 57.3043 91.8545 57.4616 91.8267C57.7857 91.7697 58.0674 91.6643 58.3073 91.5107C58.548 91.3578 58.7558 91.1544 58.9321 90.9035C59.1494 90.5919 59.2613 90.2656 59.2664 89.9247C59.2664 89.9086 59.2664 89.8932 59.2664 89.8778V89.8793ZM58.0564 89.8193C58.0542 89.932 58.0425 90.0278 58.022 90.1068C58.0015 90.1851 57.9671 90.2619 57.9211 90.3343C57.7828 90.5655 57.5692 90.7045 57.2736 90.7572C57.2048 90.7682 57.139 90.7747 57.0746 90.7747C56.9971 90.7747 56.9247 90.7674 56.8537 90.7513C56.7206 90.7199 56.6079 90.6643 56.5135 90.5853C56.444 90.5311 56.3884 90.4733 56.3445 90.4097C56.2999 90.3453 56.2575 90.2568 56.2158 90.1456C56.1741 90.0344 56.1338 89.8939 56.0943 89.7235C56.0563 89.5523 56.0109 89.3197 55.9597 89.027C55.9085 88.7344 55.8705 88.5003 55.8471 88.3225C55.8251 88.1565 55.8156 88.0189 55.8156 87.907V87.8858C55.8178 87.7687 55.8288 87.6714 55.8493 87.5924C55.8697 87.5142 55.9012 87.441 55.9429 87.3752C56.0058 87.2662 56.0929 87.1754 56.2063 87.1001C56.3197 87.0269 56.4506 86.9757 56.5984 86.9494C56.6679 86.9362 56.7352 86.9304 56.8003 86.9304C57.0095 86.9304 57.1917 86.9955 57.3512 87.1228C57.4199 87.1769 57.4785 87.2362 57.5253 87.3035C57.5721 87.3708 57.616 87.4564 57.6562 87.5624C57.6972 87.6685 57.7374 87.8082 57.7777 87.9845C57.8157 88.1616 57.8625 88.3935 57.9123 88.681C57.9627 88.9634 58.0001 89.196 58.0235 89.3775C58.0447 89.5435 58.0564 89.684 58.0564 89.793V89.8193Z" fill="#0054A5"/>
<path d="M64.4364 83.6025L63.2966 84.0093L64.4825 87.3284L61.1495 84.7767L60.1392 85.1374L62.1385 90.7338L63.2805 90.3264L62.0917 86.9992L65.4277 89.5589L65.443 89.5531L66.4387 89.1976L64.4378 83.6018L64.4364 83.6025Z" fill="#0054A5"/>
<path d="M49.9989 3.11133C24.1036 3.11133 3.11206 24.1036 3.11206 49.9989C3.11206 75.8941 24.1044 96.8864 49.9996 96.8864C75.8949 96.8864 96.8879 75.8941 96.8879 49.9989C96.8879 24.1036 75.8949 3.11133 49.9989 3.11133ZM49.9989 95.0846C25.0993 95.0846 4.91464 74.8992 4.91464 49.9989C4.91464 25.0986 25.1 4.91464 49.9996 4.91464C74.8992 4.91464 95.0846 25.1 95.0846 49.9989C95.0846 74.8977 74.8999 95.0846 49.9996 95.0846H49.9989Z" fill="#0054A5"/>
<path d="M20.0946 28.3533C20.1063 28.4331 20.1122 28.5143 20.1122 28.5947C20.1122 28.959 19.99 29.3263 19.7501 29.6965L18.4025 31.7653L13.5361 28.5925L14.8303 26.6056C15.1419 26.1264 15.5114 25.8294 15.9371 25.7197C16.0578 25.6882 16.1771 25.6729 16.2978 25.6729C16.6029 25.6729 16.9072 25.7723 17.2086 25.9706C17.4566 26.1323 17.6292 26.3364 17.7236 26.5815C17.796 26.7695 17.8319 26.9472 17.8319 27.1118C17.8319 27.1382 17.8319 27.1631 17.8297 27.1887C18.0258 27.0782 18.2445 27.0138 18.4866 26.9963C18.5108 26.9941 18.5364 26.9941 18.562 26.9941C18.8071 26.9941 19.0631 27.0818 19.3294 27.2552C19.7713 27.5442 20.0302 27.9114 20.0961 28.3533M18.1209 28.1236C17.9489 28.1594 17.7982 28.2736 17.6673 28.4755L17.0374 29.4426L18.1669 30.1786L18.7968 29.2114C18.8963 29.0571 18.9446 28.913 18.9446 28.7762C18.9446 28.7345 18.9402 28.6928 18.9314 28.6533C18.8919 28.4777 18.7924 28.3387 18.6264 28.2304C18.5027 28.1485 18.3776 28.1097 18.2503 28.1097C18.2072 28.1097 18.164 28.1141 18.1209 28.1236ZM16.1112 26.9099C15.9488 26.9509 15.8025 27.0658 15.6745 27.2625L15.0849 28.1682L16.1398 28.8559L16.7302 27.9502C16.8333 27.7893 16.8845 27.6408 16.8845 27.5018C16.8845 27.4696 16.8809 27.4381 16.8772 27.4081C16.8487 27.2421 16.7565 27.1082 16.5963 27.0028C16.4807 26.9282 16.3666 26.8916 16.251 26.8916C16.2049 26.8916 16.1581 26.8982 16.112 26.9099H16.1105H16.1112Z" fill="#0054A5"/>
<path d="M17.5736 22.9764L19.1348 21.269C19.3316 21.0539 19.5474 20.8878 19.7778 20.7722C20.009 20.6581 20.2416 20.5937 20.4765 20.5806C20.5057 20.5791 20.5357 20.5784 20.565 20.5784C20.7676 20.5784 20.9644 20.6149 21.1546 20.6874C21.3719 20.7693 21.5716 20.8937 21.7523 21.0605C22.0391 21.3216 22.211 21.6201 22.2673 21.9501C22.2834 22.0488 22.2915 22.1468 22.2915 22.2427C22.2915 22.4563 22.2512 22.6641 22.17 22.8652L24.8915 23.5814L23.9668 24.5917L23.9529 24.6071L21.4955 23.8989L20.9783 24.4652L22.669 26.0117L21.8591 26.8984L17.5736 22.9779V22.9764ZM20.407 21.7518C20.2102 21.7701 20.0324 21.8645 19.87 22.0415L19.1684 22.8089L20.2409 23.7892L20.9417 23.0218C21.1034 22.8455 21.1817 22.6604 21.1824 22.4622C21.1824 22.2632 21.1041 22.0934 20.9417 21.9464C20.7976 21.814 20.6411 21.7496 20.4691 21.7496C20.4487 21.7496 20.4274 21.7496 20.4077 21.7518H20.407Z" fill="#0054A5"/>
<path d="M22.1284 18.2842L23.0414 17.5044L26.8156 21.9179L25.9282 22.6773L25.904 22.6985L22.1291 18.2835L22.1284 18.2842Z" fill="#0054A5"/>
<path d="M28.2875 20.0443C27.9334 19.9712 27.6357 19.8161 27.3986 19.5783C27.1623 19.3442 26.8704 18.9646 26.5215 18.44C26.1718 17.9148 25.934 17.4985 25.8067 17.1876C25.7255 16.9879 25.6838 16.7808 25.6838 16.565C25.6838 16.4436 25.697 16.3177 25.7248 16.1912C25.847 15.5986 26.1733 15.1268 26.6971 14.7785C27.0263 14.5591 27.3335 14.4208 27.6203 14.3652C27.7403 14.3418 27.8683 14.3301 28.0036 14.3301C28.1916 14.3301 28.3943 14.3528 28.6123 14.3974L28.6438 14.404L28.4111 15.524L28.3797 15.5174C28.1938 15.4808 28.0344 15.4625 27.8998 15.4625C27.8559 15.4625 27.8142 15.4647 27.7761 15.4691C27.6232 15.4845 27.4601 15.5489 27.2852 15.6645C27.0365 15.8305 26.899 16.0397 26.8631 16.3016C26.8565 16.3404 26.8536 16.3792 26.8536 16.4187C26.8536 16.4567 26.8558 16.4948 26.8624 16.5336C26.8741 16.6133 26.9012 16.704 26.9451 16.8086C26.989 16.9125 27.0555 17.0405 27.1448 17.1898C27.2348 17.339 27.3591 17.5351 27.5201 17.7758C27.681 18.0164 27.812 18.2066 27.9137 18.3456C28.0146 18.4832 28.1075 18.5944 28.1902 18.6792C28.2721 18.7648 28.346 18.827 28.4104 18.8673C28.4748 18.9068 28.5479 18.9368 28.6313 18.9572C28.7023 18.9763 28.7718 18.9858 28.8427 18.9858C29.0176 18.9858 29.1961 18.9265 29.3768 18.8065C29.6343 18.6353 29.7835 18.4108 29.8311 18.1298C29.8377 18.0911 29.8399 18.0516 29.8399 18.0128C29.8399 17.9257 29.826 17.8357 29.7982 17.745C29.7565 17.6112 29.6957 17.4831 29.6145 17.361L29.5202 17.219L28.6613 17.7889L28.1075 16.9571L29.9657 15.7215L30.439 16.4333C30.6753 16.7881 30.837 17.1027 30.9233 17.3771C30.9753 17.5438 31.0009 17.7128 31.0009 17.8848C31.0009 17.9952 30.9899 18.1072 30.9679 18.2198C30.8531 18.8343 30.5173 19.3267 29.9664 19.6925C29.5728 19.9544 29.1573 20.0853 28.7228 20.0853C28.5794 20.0853 28.4331 20.0707 28.286 20.0436V20.0451L28.2875 20.0443Z" fill="#0054A5"/>
<path d="M30.7565 12.3893L31.8502 11.8962L32.8166 14.0353L34.5562 13.2503L33.5898 11.1112L34.6835 10.6182L37.0757 15.911L36.0106 16.3917L35.9813 16.4034L34.9915 14.2123L33.2518 14.9973L34.2417 17.1891L33.1472 17.6822L30.7572 12.3893H30.7565Z" fill="#0054A5"/>
<path d="M38.5557 10.4257L37.0889 10.8288L36.8058 9.8024L40.8982 8.67944L41.1813 9.70364L39.7145 10.1075L40.975 14.6798L39.8169 14.9973L38.5564 10.4257H38.5557Z" fill="#0054A5"/>
<path d="M44.346 13.8421C44.0717 13.7689 43.8134 13.6409 43.5742 13.4551C43.2896 13.2319 43.0921 12.9598 42.986 12.6423C42.88 12.3263 42.7892 11.8573 42.711 11.2318C42.651 10.757 42.6217 10.3686 42.6217 10.0621C42.6217 9.9633 42.6239 9.87405 42.6312 9.79284C42.6561 9.45559 42.7805 9.14541 43.0029 8.86522C43.1901 8.62819 43.4081 8.44018 43.6561 8.30191C43.9034 8.16291 44.1895 8.07512 44.5128 8.03562C44.6262 8.02099 44.7367 8.0144 44.8449 8.0144C45.0417 8.0144 45.2283 8.03781 45.4053 8.0861C45.6775 8.15999 45.9335 8.28947 46.1727 8.47383C46.4676 8.69549 46.6695 8.96544 46.7726 9.28148C46.875 9.59532 46.965 10.0664 47.0448 10.6963C47.1047 11.1806 47.1347 11.5749 47.1347 11.8807C47.1347 11.9707 47.1311 12.0512 47.1267 12.1258C47.1033 12.4579 46.9745 12.7718 46.7441 13.0644C46.5561 13.3007 46.3395 13.4887 46.0952 13.6262C45.8501 13.7631 45.5648 13.8523 45.2414 13.8918C45.1281 13.9057 45.0169 13.913 44.9086 13.913C44.7103 13.913 44.5223 13.8889 44.3453 13.8413L44.346 13.8421ZM45.7557 10.1579C45.7265 9.98378 45.6936 9.84478 45.6592 9.74017C45.6248 9.63482 45.5853 9.54923 45.5421 9.48119C45.499 9.41389 45.4456 9.35244 45.3804 9.29757C45.2166 9.15272 45.0227 9.08103 44.7923 9.08103C44.744 9.08103 44.695 9.08322 44.6445 9.09054C44.4967 9.10883 44.365 9.15126 44.248 9.21783C44.1317 9.28513 44.0409 9.36926 43.9736 9.47168C43.9283 9.5346 43.8932 9.60337 43.8683 9.67945C43.8434 9.75553 43.8266 9.8499 43.82 9.9633C43.8164 10.005 43.8149 10.0496 43.8149 10.0986C43.8149 10.185 43.8193 10.2823 43.8288 10.392C43.842 10.5661 43.8661 10.7966 43.9019 11.0841C43.9371 11.3723 43.9707 11.6005 43.9992 11.7695C44.0285 11.9385 44.0614 12.0768 44.0965 12.1873C44.1309 12.2985 44.1697 12.3862 44.2092 12.4506C44.2487 12.515 44.3014 12.575 44.3665 12.6299C44.4565 12.7125 44.5647 12.7725 44.6942 12.8084C44.7806 12.8325 44.8705 12.8449 44.9664 12.8449C45.0125 12.8449 45.0615 12.842 45.1098 12.8362C45.4068 12.7988 45.6241 12.6745 45.7726 12.4557C45.823 12.387 45.8596 12.3146 45.8852 12.2392C45.9101 12.1624 45.9269 12.0687 45.9342 11.9597C45.9379 11.9202 45.9386 11.8763 45.9386 11.8273C45.9386 11.741 45.9342 11.64 45.9255 11.5274C45.9108 11.3482 45.8867 11.1206 45.8523 10.8426C45.8179 10.5603 45.785 10.3313 45.755 10.1586" fill="#0054A5"/>
<path d="M61.9073 15.5781L61.6696 14.9966L61.6593 15.0002C61.4179 15.0865 61.1794 15.1421 60.9431 15.1685C60.8875 15.1751 60.8283 15.1758 60.7675 15.1751C60.5664 15.1699 60.3359 15.1238 60.077 15.0404C59.4712 14.8415 59.055 14.5415 58.8369 14.1406C58.7082 13.9058 58.6482 13.6475 58.6548 13.3688C58.6599 13.172 58.6994 12.9635 58.7711 12.7455C58.8764 12.4236 59.063 12.1705 59.3308 11.992C59.5853 11.8208 59.8875 11.6891 60.232 11.597C60.1384 11.3716 60.0696 11.1566 60.0265 10.9517C60.0075 10.8595 59.9987 10.7659 60.0016 10.6708C60.0045 10.5399 60.0294 10.406 60.074 10.2706C60.1991 9.88583 60.4391 9.61369 60.7895 9.46225C60.9753 9.38105 61.1772 9.34447 61.3952 9.34959C61.5869 9.35398 61.791 9.39202 62.0076 9.46299C62.4428 9.60637 62.7567 9.84413 62.9381 10.177C63.0508 10.3826 63.1042 10.5991 63.0983 10.8266C63.0947 10.9656 63.0691 11.109 63.0215 11.2553C62.9542 11.4602 62.8445 11.6248 62.6916 11.7469C62.5401 11.8684 62.3499 11.9657 62.1224 12.0396C62.0705 12.0564 61.9944 12.0813 61.8949 12.1127C61.8093 12.1412 61.7332 12.1647 61.6652 12.1837L62.2124 13.5078C62.4355 13.3417 62.6199 13.0667 62.7625 12.6797L62.7735 12.6512L63.7904 12.9847L63.7787 13.0162C63.6368 13.3791 63.4736 13.6841 63.2878 13.9336C63.1071 14.1728 62.8927 14.3689 62.644 14.5166L63.2768 16.0398L61.9081 15.5774L61.9073 15.5781ZM60.0894 12.6753C59.9636 12.766 59.8721 12.897 59.8165 13.0711C59.7909 13.1501 59.777 13.2276 59.7748 13.3015C59.7719 13.4317 59.8041 13.5554 59.8743 13.6761C59.984 13.8648 60.153 13.9972 60.3849 14.0726C60.5122 14.1136 60.6329 14.1362 60.75 14.1384C60.7785 14.1384 60.8056 14.1384 60.8349 14.137C60.9695 14.1296 61.1114 14.096 61.265 14.0345L60.6037 12.4478C60.3849 12.51 60.2145 12.5868 60.0923 12.6753H60.0894ZM61.355 10.3833C61.2548 10.4345 61.1853 10.5208 61.1436 10.6474C61.1311 10.6847 61.1253 10.7213 61.1246 10.7622C61.1224 10.8105 61.1297 10.8617 61.1443 10.9173C61.1706 11.0176 61.2226 11.1544 61.3009 11.3329C61.336 11.3248 61.3755 11.3153 61.4194 11.3036C61.4757 11.2882 61.5196 11.2758 61.554 11.2626C61.671 11.2297 61.7683 11.1851 61.8473 11.1295C61.9249 11.0754 61.9746 11.0095 62.001 10.929C62.0171 10.8808 62.0251 10.8339 62.0258 10.7893C62.028 10.7213 62.0134 10.6569 61.9819 10.5954C61.9307 10.4916 61.8415 10.4191 61.7069 10.376C61.6469 10.3555 61.5906 10.3453 61.5386 10.3438C61.4699 10.3416 61.4091 10.3548 61.3543 10.3848V10.3833H61.355Z" fill="#0054A5"/>
<path d="M69.9838 19.506L69.9567 19.4899L71.2165 17.4437L69.5902 16.4422L68.3312 18.4891L67.3085 17.8577L70.3503 12.916L71.3738 13.5466L70.1433 15.5438L71.7688 16.5453L72.9993 14.5481L74.0221 15.1787L70.9795 20.1197L69.9838 19.5067V19.506Z" fill="#0054A5"/>
<path d="M74.4442 22.7973C74.1764 22.7088 73.9204 22.5588 73.6724 22.3466C73.4237 22.1367 73.2342 21.904 73.104 21.6516C72.9723 21.3993 72.894 21.1227 72.8677 20.8206C72.8647 20.7694 72.8611 20.7174 72.8611 20.6677C72.8611 20.367 72.9306 20.0905 73.071 19.8388C73.2327 19.5491 73.5173 19.1643 73.927 18.6859C74.3359 18.2067 74.6717 17.8636 74.9351 17.658C75.2014 17.4481 75.5137 17.3317 75.8707 17.3061C75.9285 17.3025 75.9856 17.2996 76.0434 17.2996C76.2819 17.2996 76.5101 17.3361 76.7281 17.4093C76.9966 17.4993 77.2563 17.65 77.5036 17.8621C77.7509 18.0728 77.9403 18.304 78.0691 18.5549C78.1986 18.8044 78.2761 19.0809 78.3017 19.3831C78.3083 19.4489 78.3112 19.5133 78.3112 19.5769C78.3112 19.8674 78.2439 20.1322 78.1108 20.3707C77.9484 20.6582 77.6616 21.0415 77.2497 21.5244C76.8408 22.0035 76.5079 22.3444 76.249 22.5493C75.9878 22.7556 75.671 22.8726 75.2987 22.899C75.2387 22.9034 75.1801 22.9056 75.1224 22.9056C74.8846 22.9056 74.6585 22.8704 74.4435 22.7987L74.4442 22.7973ZM74.0126 20.8542C74.0126 20.9735 74.0418 21.0927 74.1033 21.2127C74.1633 21.332 74.2503 21.441 74.363 21.5375C74.5539 21.6999 74.7522 21.7789 74.9651 21.7789C75.006 21.7789 75.0477 21.7767 75.0909 21.7702C75.1758 21.7607 75.2533 21.7402 75.3272 21.7058C75.4004 21.6729 75.4801 21.6231 75.5664 21.5544C75.6527 21.487 75.7574 21.3868 75.8803 21.2551C76.0024 21.1249 76.1546 20.953 76.336 20.7408C76.5196 20.5236 76.6674 20.3458 76.7757 20.2068C76.884 20.0671 76.9644 19.9493 77.0193 19.8527C77.0727 19.7569 77.11 19.6691 77.1305 19.5938C77.1481 19.5272 77.1583 19.4591 77.1583 19.3875C77.1583 19.3757 77.1583 19.3626 77.1583 19.3501C77.1539 19.0868 77.0413 18.8615 76.8137 18.6676C76.7011 18.571 76.5804 18.5015 76.4531 18.4606C76.3653 18.4328 76.2804 18.4189 76.1985 18.4189C76.1582 18.4189 76.1202 18.4211 76.0814 18.4284C76.0039 18.4379 75.93 18.4584 75.8568 18.492C75.7837 18.5249 75.7032 18.5761 75.6154 18.6464C75.5269 18.7166 75.423 18.8154 75.3045 18.9412C75.1853 19.0685 75.0316 19.2419 74.8422 19.4628C74.6549 19.683 74.5078 19.8615 74.4032 19.9961C74.2979 20.1315 74.2174 20.25 74.1589 20.3502C74.1018 20.4504 74.0623 20.5382 74.0418 20.6106C74.0228 20.6728 74.014 20.7394 74.014 20.8103C74.014 20.8221 74.014 20.8345 74.014 20.852L74.0126 20.8542Z" fill="#0054A5"/>
<path d="M77.0543 25.5631L80.121 20.2673L80.9455 21.2023L78.9542 24.487L82.4628 22.9237L83.2924 23.8644L77.6674 26.2281L77.6462 26.2369L77.0536 25.5639L77.0543 25.5631Z" fill="#0054A5"/>
<path d="M79.4371 28.4223L79.4196 28.3952L84.2698 25.2085L86.4148 28.4698L85.5259 29.0529L84.0416 26.796L82.9691 27.5005L84.2333 29.4223L83.3444 30.0054L82.0817 28.0836L80.9697 28.8144L82.4541 31.072L81.5652 31.6558L79.4386 28.4215H79.4371V28.4223Z" fill="#0054A5"/>
<path d="M52.296 13.5713H52.2792L50.0215 10.1227V13.5713H48.821V7.76636H49.884L52.1431 11.2076V7.76636H53.3436V13.5713H52.2967H52.296Z" fill="#0054A5"/>
<path d="M68.4783 52.3802C68.4783 52.3802 68.8675 52.9347 69.3466 52.9347C69.8258 52.9347 70.215 52.3802 70.215 52.3802C70.215 52.3802 69.8265 51.8264 69.3466 51.8264C68.8667 51.8264 68.4783 52.3802 68.4783 52.3802Z" fill="#0054A5"/>
<path d="M92.0018 44.5137C91.4253 44.205 90.5394 43.7953 89.2694 43.2627C87.9658 42.7177 85.2634 41.8559 82.4659 41.1068C78.5644 26.8317 65.5118 16.3359 49.9997 16.3359C32.6242 16.3359 18.3302 29.5012 16.5327 46.3989C14.8238 46.6542 13.1873 46.8518 11.7687 47.0003C8.95733 47.2951 7.00478 47.4004 7.00039 47.4012C6.89651 47.4078 6.81238 47.4868 6.80141 47.5899C6.80141 47.5965 6.79921 47.6082 6.79921 47.6236C6.79117 47.7794 6.90017 48.4239 7.9646 48.9675C9.0283 49.5176 11.0372 50.0187 14.9372 50.0202C15.3761 50.0202 15.8472 50.0114 16.3352 49.9982C16.3352 68.5895 31.4069 83.6613 49.9982 83.6613C68.5895 83.6613 83.6612 68.5895 83.6612 49.9982C83.6612 47.884 83.4557 45.8195 83.0826 43.8143C86.5451 44.5773 90.8979 45.5664 92.3018 45.5693C92.4517 45.5679 92.5717 45.5598 92.6727 45.5298C92.7634 45.5079 92.898 45.4318 92.9009 45.2752C92.8482 44.968 92.5695 44.8451 91.9996 44.5129H92.0011L92.0018 44.5137ZM92.304 45.2518C90.1071 45.2562 79.9983 42.6328 78.5615 42.6262C76.3185 42.6401 71.2714 45.4128 68.6502 47.1159C67.8835 47.6162 67.1059 48.064 66.3472 48.4619C66.5433 48.4729 66.7357 48.4897 66.9267 48.5132C68.5163 48.707 69.9327 49.3201 71.0783 50.1606C72.5539 51.2573 74.0741 52.6048 74.99 52.7848C75.0331 52.787 75.0822 52.7914 75.1334 52.7957H75.1392C76.4407 52.9194 80.1702 53.8404 80.0531 56.0461C80.0531 56.0461 77.4575 55.264 74.3455 55.7966C73.1216 56.0563 71.3365 56.2261 68.6261 57.0856C66.0641 57.8933 59.3791 60.4267 54.1491 60.4304C50.173 60.4252 42.1346 58.1376 37.4979 57.7441C37.2214 57.7206 36.9471 57.7097 36.6749 57.7097C33.1422 57.7053 30.112 59.5598 28.5955 59.5817C27.2282 59.5817 24.8316 59.3433 22.4825 57.6029C20.6982 56.27 19.3741 54.3181 19.3587 52.8726C19.3566 52.3883 19.5241 51.9405 19.9008 51.6457C20.1679 51.4431 20.5402 51.4014 21.0326 51.397C22.8512 51.3999 26.4571 52.1893 30.7302 52.1878C33.2702 52.1878 36.0385 51.9098 38.7826 51.0239C39.4198 50.819 41.3365 50.3706 42.5699 50.0619C42.8962 50.2843 43.2407 50.5257 43.6255 50.792C43.6621 50.8176 43.7038 50.8293 43.7462 50.8293C43.8135 50.8293 43.8794 50.7971 43.9211 50.7386C43.9884 50.642 43.9635 50.5096 43.8684 50.4438C41.4945 48.786 40.3642 47.8679 36.3889 47.8796C33.8569 47.8796 30.1537 48.2315 24.1556 48.9499C20.2622 49.4166 17.2562 49.5966 14.9379 49.5966C11.0738 49.5988 9.11974 49.0918 8.16139 48.5914C7.57102 48.2798 7.35447 47.9894 7.27473 47.8101C8.66763 47.7231 15.6043 47.2402 21.7378 45.8824C28.6957 44.3352 39.5931 39.9831 44.6702 39.9919C46.5606 39.9765 49.8416 41.9298 53.0935 44.1157C56.3592 46.2994 59.622 48.699 61.704 49.5717C61.8123 49.6171 61.9359 49.5666 61.9813 49.4591C62.0266 49.3515 61.9747 49.2272 61.8679 49.1818C60.6761 48.6843 59.0191 47.6221 57.18 46.3806C59.7039 45.1882 68.449 39.9348 74.7105 39.9392C77.6924 39.9326 86.499 42.4404 89.1465 43.5568C90.4114 44.0879 91.2929 44.4939 91.8519 44.7939C92.1313 44.9438 92.331 45.0667 92.451 45.1604C92.4883 45.1889 92.5176 45.2152 92.5395 45.2365C92.4839 45.2467 92.4042 45.2518 92.3032 45.2518V45.2504L92.304 45.2518Z" fill="#0054A5"/>
<path d="M74.3454 55.798C77.4575 55.2647 80.0531 56.0475 80.0531 56.0475C80.1745 53.7503 76.126 52.8461 74.9899 52.7854C74.9899 52.7854 75.5759 54.0057 72.4126 54.2471C72.4126 54.2471 70.9348 54.2098 70.3298 54.754C70.3298 54.754 73.2437 54.5324 74.2657 55.6685L74.3454 55.798Z" fill="#FBAE17"/>
</g>
<defs>
<clipPath id="clip0_326_71">
<rect width="100" height="100" fill="white"/>
</clipPath>
</defs>
</svg>
