<svg width="100" height="100" viewBox="0 0 100 100" fill="none" xmlns="http://www.w3.org/2000/svg">
<g clip-path="url(#clip0_624_924)">
<path d="M48.7625 99.5026C37.4918 97.4032 26.9393 91.6021 19.0387 83.2595C10.9724 74.6408 6.44204 64.033 6.33154 53.4253V0.276123H93.5139V53.37C93.4034 64.033 88.873 74.6408 80.8067 83.2595C72.9614 91.6573 62.4089 97.4032 51.0829 99.5026L49.9227 99.7236L48.7625 99.5026Z" fill="white"/>
<path d="M49.2045 96.906C38.4862 94.917 28.431 89.3921 20.9172 81.4363C13.2929 73.3148 8.98347 63.3148 8.92822 53.37V2.8728H90.9172V53.37C90.8067 63.37 86.5525 73.3148 78.9282 81.4363C71.4144 89.3921 61.4144 94.917 50.6409 96.906L49.9227 97.0165L49.2045 96.906Z" fill="#5F0041"/>
<path d="M11.4696 5.41431V53.3701C11.5801 62.7071 15.6133 72.0441 22.7956 79.7237C29.9226 87.2928 39.4807 92.5414 49.7017 94.4751L49.9226 94.5303L50.1436 94.4751C60.3646 92.5414 69.9227 87.348 77.0497 79.7237C84.232 72.0441 88.2652 62.7071 88.3757 53.3149V5.41431H11.4696ZM85.8343 53.3149C85.6685 71.1602 69.8674 88.0662 49.9226 91.9336C29.9226 88.1215 14.1768 71.1602 14.011 53.3701V7.95574H85.8895V53.3149H85.8343Z" fill="white"/>
<path d="M27.4364 69.1712C27.7127 69.1159 27.8784 69.0607 27.9889 68.7844C28.0994 68.5082 28.0994 68.0109 27.3812 67.7347L25.8342 67.127L24.7292 69.9446L26.3315 70.5524C26.8287 70.7734 27.4364 70.6629 27.6574 70.1104C27.8232 69.6131 27.6574 69.3369 27.4364 69.1712ZM26.8287 69.6131C26.7182 69.8341 26.5525 69.8341 26.3867 69.7236L25.8895 69.5026L26.1105 69.0054L26.6629 69.2264C26.8287 69.3369 26.8839 69.4474 26.8287 69.6131ZM27.1049 68.5634C27.0497 68.7292 26.8839 68.7292 26.7182 68.6739L26.2762 68.5082L26.442 68.0662L26.8839 68.2319C27.1049 68.3424 27.1602 68.4529 27.1049 68.5634Z" fill="white"/>
<path d="M29.5359 68.5635L28.7072 68.1768L27.9337 69.8342C27.6022 70.6077 27.8232 71.1602 28.652 71.5469C29.4807 71.9337 30.0884 71.7679 30.4199 70.9944L31.1934 69.337L30.3647 68.9502L29.6464 70.442C29.5359 70.7182 29.3702 71.0497 28.9282 70.8839C28.5415 70.7182 28.7072 70.3315 28.8177 70.0552L29.5359 68.5635Z" fill="white"/>
<path d="M30.8619 72.6519L31.4143 71.7126L31.8563 71.9336C32.1878 72.0994 32.0221 72.3756 31.9116 72.6519C31.8563 72.8176 31.8011 72.9281 31.7458 73.0938L32.5746 73.5358C32.5746 73.3701 32.7403 73.0386 32.7956 72.9281C32.9613 72.5966 32.9613 72.2651 32.7956 72.0441C33.1271 72.0994 33.4033 71.8784 33.569 71.6021C33.8453 71.1049 33.6243 70.6077 33.1271 70.3867L31.5801 69.5027L30.0884 72.0994L30.8619 72.6519ZM32.0221 70.6629L32.4088 70.8839C32.7403 71.0496 32.7403 71.2154 32.6298 71.3811C32.5193 71.6021 32.2983 71.5469 32.1326 71.4364L31.6906 71.2154L32.0221 70.6629Z" fill="white"/>
<path d="M33.2928 74.1989L34.3425 72.9282L34.011 74.7514L34.7293 75.3591L36.6077 72.9835L35.9448 72.431L34.895 73.7017L35.2265 71.8785L34.5083 71.2708L32.5746 73.6464L33.2928 74.1989Z" fill="white"/>
<path d="M36.7734 76.9613L37.2707 76.3535L36.221 75.58L37.6022 73.7568L36.8287 73.2043L35.0055 75.58L36.7734 76.9613Z" fill="white"/>
<path d="M39.1491 78.6187L39.5911 77.9557L38.2099 77.0717L38.4309 76.7402L39.6464 77.5137L40.0331 76.9612L38.8729 76.1325L39.0386 75.8563L40.3646 76.685L40.6408 76.3535V78.1767L40.0884 79.1159L40.8618 79.6132L41.4143 78.6187L43.2928 77.4585L42.4088 76.9612L41.4143 77.6795L41.5248 76.464L40.8066 76.0773L38.7071 74.696L37.0497 77.1822L39.1491 78.6187Z" fill="white"/>
<path d="M44.0111 80.9944L44.3978 79.8894L45.558 80.2762L45.779 79.6132L44.6188 79.2264L44.7845 78.8397L46.1105 79.3369L46.3315 78.6187L44.1768 77.8452L43.1271 80.6629L44.0111 80.9944Z" fill="white"/>
<path d="M45.9447 80.0551C45.779 80.9391 46.221 81.7126 47.1602 81.8784C48.0442 82.0441 48.7624 81.5469 48.9834 80.6076C49.1491 79.7237 48.7071 78.9502 47.7679 78.7844C46.8287 78.6187 46.1105 79.1712 45.9447 80.0551ZM46.8287 80.2761C46.9392 79.6132 47.3259 79.5579 47.6022 79.5579C47.8232 79.6132 48.1547 79.8342 48.0442 80.4971C47.9337 81.1601 47.5469 81.2154 47.2707 81.2154C47.0497 81.1601 46.7182 80.9391 46.8287 80.2761Z" fill="white"/>
<path d="M50.5856 82.3203C51.5249 82.3203 52.1326 81.7126 52.1326 80.7733C52.1326 79.8341 51.5249 79.1711 50.6409 79.1711C49.7017 79.1711 49.0939 79.7789 49.0939 80.7181C49.0387 81.6021 49.6464 82.2651 50.5856 82.3203ZM50.6409 79.8894C50.8619 79.8894 51.2486 80.0551 51.2486 80.7181C51.2486 81.3811 50.8619 81.5468 50.6409 81.5468C50.4199 81.5468 50.0332 81.3811 50.0332 80.7181C50.0332 80.0551 50.3647 79.8894 50.6409 79.8894Z" fill="white"/>
<path d="M52.9613 79.8341L53.3481 82.0993L54.232 81.9336L53.9005 79.7236L54.7293 79.5579L54.6188 78.7844L52.0221 79.2264L52.1326 79.9999L52.9613 79.8341Z" fill="white"/>
<path d="M57.326 81.0497C57.8232 80.8839 58.21 80.3867 57.989 79.8342C57.8232 79.3922 57.547 79.2817 57.2155 79.2817C57.3813 79.116 57.4918 78.895 57.3813 78.6187C57.2708 78.3425 56.9945 77.9558 56.221 78.232L54.6741 78.7845L55.6685 81.6022L57.326 81.0497ZM57.105 80.0552C57.1603 80.2762 57.0498 80.3867 56.884 80.4419L56.3868 80.6077L56.221 80.0552L56.7735 79.8342C56.884 79.8342 57.0498 79.8894 57.105 80.0552ZM56.2763 78.9502C56.442 78.895 56.6078 78.895 56.663 79.0607C56.7183 79.2265 56.6078 79.337 56.442 79.3922L56 79.558L55.8343 79.116L56.2763 78.9502Z" fill="white"/>
<path d="M59.1491 80.2761L59.0939 79.8341L59.9226 79.3921L60.2541 79.7236L61.0828 79.2816L58.7071 77.127L57.8784 77.5689L58.3204 80.7734L59.1491 80.2761ZM58.7624 78.1767L59.4254 78.8949L58.9281 79.1712L58.7624 78.1767Z" fill="white"/>
<path d="M63.0718 77.8453L62.6851 77.2376L61.5248 77.9559L60.3094 76.0774L59.5359 76.5746L61.1933 79.1161L63.0718 77.8453Z" fill="white"/>
<path d="M65.1161 76.3535L64.6741 75.6905L63.6244 76.5193L62.2431 74.696L61.5249 75.2485L63.3481 77.6795L65.1161 76.3535Z" fill="white"/>
<path d="M67.3812 74.6409C68.0442 74.0884 68.0442 73.2597 67.6575 72.8177L66.9392 73.3702C67.0497 73.6465 67.105 73.8675 66.884 74.0884C66.5525 74.3647 66.1657 74.0884 65.9447 73.8122C65.6685 73.4807 65.558 73.094 65.8895 72.8177C66.1657 72.5967 66.442 72.7625 66.5525 72.873L67.2707 72.3205C66.7182 71.768 66.1105 71.7128 65.4475 72.21C64.7293 72.7625 64.6188 73.6465 65.2265 74.4199C65.779 75.0277 66.663 75.2487 67.3812 74.6409Z" fill="white"/>
<path d="M70.3647 72.2099L69.8674 71.6021L68.8177 72.4309L67.4917 70.6077L66.7183 71.1602L68.5415 73.5911L70.3647 72.2099Z" fill="white"/>
<path d="M71.6353 71.4917C72.4088 70.9945 72.6298 70.442 72.1878 69.7238L71.2486 68.1216L70.4751 68.6188L71.3038 70.0553C71.4696 70.3315 71.6353 70.663 71.3038 70.884C70.9171 71.105 70.6961 70.7735 70.5856 70.4973L69.7569 69.0608L68.9834 69.558L69.9226 71.1603C70.2541 71.8232 70.8619 71.9337 71.6353 71.4917Z" fill="white"/>
<path d="M74.5083 70.1105C75.0055 69.9447 75.3922 69.4475 75.1712 68.895C75.0055 68.453 74.7293 68.3425 74.3978 68.3425C74.5635 68.1768 74.674 67.9558 74.5635 67.6795C74.453 67.4033 74.1215 67.0165 73.4033 67.2928L71.8563 67.8453L72.8508 70.6629L74.5083 70.1105ZM74.2873 69.116C74.3425 69.337 74.232 69.4475 74.0663 69.5027L73.569 69.6685L73.4033 69.116L73.9558 68.895C74.1215 68.895 74.232 68.9502 74.2873 69.116ZM73.4585 68.011C73.6243 67.9558 73.79 67.9558 73.8453 68.1215C73.9005 68.2873 73.79 68.3978 73.6243 68.453L73.1823 68.6188L73.0165 68.1768L73.4585 68.011Z" fill="white"/>
<path d="M79.0939 63.4254C79.0387 63.3702 78.9834 63.3149 78.9282 63.2597H78.8729C80.5304 60.3867 80.0331 57.6795 80.0331 57.5138C79.9779 57.2928 79.8674 56.7956 79.3701 56.3536C78.7624 55.8011 77.7679 55.5801 76.442 55.7458C75.0055 55.9116 73.9558 56.4088 73.569 57.1823L73.5138 57.2376C73.4033 57.4585 73.2375 57.9005 73.2928 58.5083C73.348 58.9503 73.5138 59.5027 73.6243 59.9447C72.7956 60.0552 72.0221 60.1657 71.3038 60.442C70.5856 60.7182 70.1989 61.0497 70.0884 61.4917C70.0331 61.6022 70.0331 61.7679 70.0884 61.8784C70.0884 61.8784 69.9226 64.2541 70.1989 66.4641C66.7182 68.011 64.7293 69.8895 64.7293 69.8895C57.1049 76.9613 51.0276 77.1823 50.3094 77.1823H50.2541C50.1989 77.1823 43.8453 77.2928 35.8342 69.8895C35.8342 69.8895 33.9005 68.232 30.5856 66.7403C30.9171 64.4199 30.7514 61.6022 30.6961 61.4364C30.5856 60.9945 30.1989 60.6077 29.4806 60.3867C28.7624 60.1105 27.9889 60 27.1602 59.8895C27.3259 59.4475 27.4364 58.895 27.4917 58.453C27.5469 57.8453 27.4364 57.4585 27.2707 57.1823C27.2707 57.1271 27.2154 57.1271 27.2154 57.0718C26.7735 56.2983 25.779 55.7458 24.3425 55.6353C23.0165 55.5248 22.0221 55.6906 21.4143 56.2431C20.9171 56.6851 20.8066 57.1823 20.7514 57.4033C20.7514 57.5138 20.2541 60.0552 22.1326 62.9834C22.1326 62.9834 22.0773 62.9834 22.0221 63.0387C22.0221 63.0387 21.9668 63.0939 21.9116 63.0939C21.8011 63.1492 21.7458 63.2044 21.6906 63.3149C21.5248 63.4807 21.3038 63.8121 21.1381 64.1989C20.7514 65.0829 20.5304 66.9613 22.2431 70.884L22.2983 70.9945L22.4088 71.0497C22.4641 71.0497 27.2154 72.3757 32.2983 76.3536C35.8895 79.1713 40.1989 82.2099 44.7845 83.5359L45.1712 83.6464C45.779 83.8121 46.442 83.9779 47.1049 84.0331L47.5469 84.0884C47.6022 84.0884 47.7127 84.0884 47.8232 84.1436C47.8784 84.1436 47.9889 84.1436 48.0442 84.1436C48.7624 84.1989 49.4806 84.2541 50.1989 84.2541C50.5856 84.2541 50.9171 84.2541 51.3038 84.1989C52.2431 84.1436 53.2375 84.0331 54.232 83.8121C54.9503 83.6464 55.4475 83.5359 55.6685 83.4254C59.8674 82.2099 64.2873 79.6132 68.0994 76.2431C73.127 71.7679 77.8784 70.9945 77.9337 70.9945H78.0994L78.1547 70.8287C79.5359 67.1271 79.7016 65.2486 79.5359 64.3094C79.5911 64.0331 79.2596 63.6464 79.0939 63.4254ZM74.0663 57.3481C74.453 56.7403 75.2817 56.3536 76.4972 56.2431C76.7182 56.2431 76.9392 56.1878 77.1602 56.1878C77.9889 56.1878 78.5967 56.3536 78.9834 56.7403C79.3701 57.0718 79.4254 57.4585 79.4806 57.569C79.4806 57.6243 79.4806 57.7348 79.4806 57.79V57.8453C79.3149 58.8398 78.5414 59.2818 77.2154 59.5027L76.8287 57.7348L76.5525 57.79C74.5635 58.3425 74.1215 58.011 74.011 57.9005C73.8453 57.7348 74.0663 57.3481 74.0663 57.3481ZM74.011 58.5635C74.5083 58.7845 75.337 58.7293 76.442 58.453L76.7182 59.6685C76.2762 59.7237 75.779 59.779 75.2265 59.8342H75.1712C75.0607 59.8342 74.9503 59.8342 74.8398 59.8895C74.7293 59.8895 74.5635 59.8895 74.453 59.9447C74.3978 59.9447 74.3425 59.9447 74.232 59.9447C74.232 59.8895 74.1768 59.779 74.1215 59.6685C74.0663 59.5027 74.011 59.2818 73.9558 59.0608C73.9005 58.895 73.8453 58.674 73.8453 58.5083C73.9005 58.5083 73.9558 58.5635 74.011 58.5635ZM70.6409 61.6574C70.6961 61.3812 71.0276 61.1602 71.5248 60.9392C72.2431 60.663 73.0166 60.5525 73.8453 60.442C73.9558 60.442 74.011 60.442 74.1215 60.3867C74.453 60.3315 74.7293 60.3315 75.0607 60.2762H75.116C75.1712 60.2762 75.1712 60.2762 75.2265 60.2762C75.2817 60.2762 75.3922 60.2762 75.4475 60.2762C75.558 60.2762 75.6685 60.2762 75.779 60.221C76.3315 60.1657 76.884 60.1105 77.3812 60C77.8232 59.9447 78.2099 59.8342 78.5967 59.6685C78.8729 59.558 79.0939 59.4475 79.3149 59.2818C79.4254 59.1713 79.5911 59.0608 79.7016 58.9503C79.7016 59.0608 79.7016 59.1713 79.7016 59.2818C79.6464 60.2762 79.3701 61.6022 78.5967 62.9282C78.4309 62.8177 78.2099 62.7624 77.9337 62.7072C77.1602 62.4862 75.779 62.4309 74.453 62.3757C73.5138 62.3204 72.5193 62.3204 71.8011 62.2099C71.1381 62.0994 70.9171 61.9889 70.8619 61.9337C70.6409 61.8784 70.6409 61.7679 70.6409 61.6574ZM70.5856 62.5967C70.5856 62.5414 70.5856 62.5414 70.5856 62.4862C70.9723 62.6519 71.6353 62.7624 72.4641 62.8177C72.8508 62.8177 73.2375 62.8729 73.6795 62.8729C73.8453 62.8729 74.0663 62.8729 74.232 62.8729C75.5027 62.9282 76.8287 62.9834 77.6022 63.1492C77.8232 63.2044 77.9889 63.2597 78.1547 63.3149C78.2652 63.3702 78.3204 63.3702 78.3757 63.4254C78.6519 63.5911 78.6519 63.7016 78.6519 63.7016C78.6519 63.8121 78.5414 63.9779 78.2099 64.1436C78.0442 64.2541 77.8232 64.3094 77.5469 64.4199C77.1049 64.5856 76.4972 64.6961 75.6685 64.8066C73.79 65.0829 72.1326 65.6353 70.6961 66.1878C70.5856 64.8619 70.5856 63.4254 70.5856 62.5967ZM27.0497 58.453C27.0497 58.6188 26.9944 58.7845 26.9392 59.0055C26.884 59.2265 26.8287 59.3922 26.7735 59.6132C26.7182 59.7237 26.7182 59.779 26.663 59.8895C26.6077 59.8895 26.5525 59.8895 26.442 59.8895C26.3315 59.8895 26.1657 59.8895 26.0552 59.8342C25.9447 59.8342 25.8342 59.8342 25.7237 59.779H25.6685C25.116 59.7237 24.6188 59.6685 24.1768 59.6132L24.453 58.3978C25.6132 58.674 26.3867 58.7293 26.884 58.5083C26.9944 58.5083 27.0497 58.5083 27.0497 58.453ZM21.8563 56.6851C22.3536 56.2431 23.2375 56.0773 24.3978 56.1878C25.6132 56.2983 26.4972 56.6851 26.8287 57.2928C26.8839 57.348 26.9944 57.7348 26.884 57.9005C26.7735 58.011 26.3315 58.3425 24.3425 57.79L24.0663 57.7348L23.6795 59.5027C22.3536 59.2818 21.5248 58.8398 21.4143 57.8453V57.79C21.4143 57.7348 21.4143 57.6243 21.4143 57.569C21.4143 57.4585 21.4696 57.0166 21.8563 56.6851ZM21.4143 59.337C21.4143 59.2265 21.3591 59.116 21.3591 59.0055C21.4696 59.116 21.5801 59.2265 21.6906 59.2818C21.9116 59.4475 22.1326 59.558 22.4088 59.6685C22.7403 59.8342 23.1823 59.9447 23.569 60C24.0663 60.1105 24.6188 60.1657 25.1712 60.221C25.2817 60.221 25.3922 60.221 25.5027 60.2762C25.558 60.2762 25.6685 60.2762 25.7237 60.2762C25.779 60.2762 25.779 60.2762 25.8342 60.2762H25.8895C26.221 60.2762 26.4972 60.3315 26.8287 60.3867C26.9392 60.3867 26.9944 60.3867 27.1049 60.442C27.9337 60.5525 28.7072 60.663 29.4254 60.9392C29.9226 61.1602 30.2541 61.3812 30.3094 61.6574C30.3646 61.7679 30.3094 61.8784 30.2541 61.9889C30.1989 62.0442 29.9226 62.1547 29.3149 62.2652C28.5967 62.3757 27.6022 62.3757 26.663 62.4309C25.337 62.4862 23.9558 62.5414 23.1823 62.7624C23.0165 62.8177 22.906 62.8729 22.7403 62.9282C21.9116 61.5469 21.5248 60.2762 21.4143 59.337ZM22.2431 63.8121V63.7016C22.2983 63.6464 22.4088 63.5359 22.5193 63.4806C22.5746 63.4254 22.6851 63.4254 22.7403 63.3701C22.7956 63.3149 22.906 63.3149 23.0165 63.2597C23.0718 63.2597 23.1823 63.2044 23.2928 63.2044C24.011 62.9834 25.337 62.9282 26.663 62.9282C26.9392 62.9282 27.2154 62.9282 27.4917 62.8729C27.9337 62.8729 28.3204 62.8177 28.6519 62.8177C29.3701 62.7624 29.9779 62.6519 30.3094 62.4862C30.3094 62.5414 30.3094 62.5414 30.3094 62.5967C30.3094 63.4806 30.3646 65.0829 30.1436 66.5746C28.6519 65.9116 26.9392 65.3039 24.9502 64.9171C24.3978 64.8066 23.9558 64.6961 23.6243 64.5856C23.5138 64.5304 23.4033 64.5304 23.2928 64.4751C22.2431 64.0884 22.2431 63.8674 22.2431 63.8121ZM77.8232 70.663C76.9392 70.8287 72.5746 71.8784 67.8784 76.0221C64.1215 79.337 59.7569 81.8784 55.6132 83.0939C55.3922 83.1492 54.895 83.3149 54.232 83.4254C53.2928 83.6464 52.3536 83.7569 51.4143 83.8121C50.3646 83.8674 49.2596 83.8674 48.2099 83.7016C48.1547 83.7016 48.0442 83.7016 47.9889 83.7016C47.9337 83.7016 47.8232 83.7016 47.7679 83.6464L47.3259 83.5911C46.8287 83.5359 46.3315 83.4254 45.8342 83.2596L45.5027 83.1492C40.8619 81.8784 36.4972 78.7845 32.8508 75.9668C28.1547 72.3204 23.6795 70.884 22.906 70.6077C21.2486 66.6298 21.5801 64.9724 21.9116 64.3646C21.9116 64.3094 21.9668 64.3094 21.9668 64.2541C22.0773 64.3646 22.1878 64.4751 22.4088 64.5856C22.5193 64.6409 22.6851 64.7514 22.8508 64.8066C23.2928 64.9724 24.011 65.1934 24.9502 65.4143C26.1657 65.6906 27.2707 66.0221 28.2652 66.3536C28.6519 66.5193 29.0386 66.6298 29.4254 66.7956C29.7569 66.9061 30.0884 67.0718 30.4199 67.2376C33.7348 68.7293 35.6132 70.3315 35.6132 70.3315C43.7348 77.8453 50.0884 77.79 50.3646 77.79H50.4199C51.1381 77.79 57.3812 77.569 65.1712 70.3867C65.1712 70.3867 67.0497 68.5635 70.3646 67.0718C70.4199 67.0166 70.5304 67.0166 70.6409 66.9613C70.9171 66.8508 71.1933 66.7403 71.5248 66.6298C72.7956 66.1326 74.232 65.7458 75.8895 65.4696C76.9944 65.3039 77.7679 65.0829 78.2652 64.8619C78.4309 64.8066 78.5967 64.6961 78.7072 64.6409C78.9282 64.5304 79.0386 64.4199 79.1491 64.3094C79.1491 64.3646 79.2044 64.4199 79.2044 64.4751C79.2596 65.1381 79.2044 66.9061 77.8232 70.663Z" fill="white"/>
<path d="M49.8674 64.3093C50.1989 63.7015 49.6464 63.149 49.6464 63.2595C49.7016 63.4253 49.3701 63.4805 49.3701 63.4805C49.0386 63.5358 48.3204 63.3148 48.3204 63.3148C45.8895 62.8728 46.6629 65.9115 46.8287 66.5745C46.9392 66.9612 46.6629 67.8452 45.2817 67.7347C44.232 67.6242 44.1768 68.1767 44.1768 68.1767C44.674 67.7899 45.0055 68.0662 45.0055 68.0662C44.453 68.1214 44.2873 68.7292 44.2873 68.7292C44.8397 68.2319 45.337 68.5634 45.337 68.5634C44.895 68.6739 44.895 69.2816 44.895 69.2816C45.2265 68.8397 45.558 69.0607 45.558 69.0607C45.558 69.0607 46.221 69.3369 46.3867 68.6187C46.442 68.3977 46.8287 68.7292 46.8287 68.7292C46.7734 68.4529 46.8839 68.1767 46.9392 68.0662C46.9944 67.9557 47.4364 68.3977 47.4364 68.3977C47.6574 68.1767 47.5469 67.9004 47.5469 67.8452C47.5469 67.7347 47.3812 67.3479 47.4917 67.127C47.8232 66.685 48.2652 67.4584 48.2652 67.4584C48.3757 66.8507 47.7679 65.6905 47.7127 65.6352C47.4364 65.3037 47.3259 64.5303 48.5414 65.4695C48.9834 65.8562 49.5359 65.6352 49.5359 65.6352C49.3701 65.0275 49.8674 64.3093 49.8674 64.3093Z" fill="white"/>
<path d="M48.3204 57.569C48.3204 57.569 48.5414 57.8452 48.3204 58.2319C48.3204 58.2319 48.9834 58.3977 49.3149 58.0662C49.3149 58.0662 49.1491 58.5082 49.4254 59.0054C49.4254 59.0054 49.9226 58.7292 50.0331 58.3977C50.0331 58.3977 50.2541 58.4529 50.4199 58.8397C50.5856 59.2264 50.7514 59.2817 50.7514 59.2817C50.7514 59.2817 50.7514 58.7292 51.1381 58.6187C51.1381 58.6187 51.5801 59.1712 52.1878 58.9502C52.1878 58.9502 51.1933 58.3977 52.1878 58.1767C52.1878 58.1767 51.4696 57.9557 51.5248 57.6242C51.5248 57.6242 51.1381 58.2319 50.3094 58.0662C50.3094 58.0662 50.5304 57.79 50.4199 57.4585C50.4199 57.4585 49.7569 57.8452 49.2044 57.569C49.2044 57.569 49.2044 56.9612 49.5911 56.7402C49.5911 56.7402 48.7072 56.6297 48.4309 56.906C48.4309 56.906 48.2652 56.5192 48.5414 56.1877C48.5414 56.1877 47.7127 56.464 47.4917 57.79C47.4364 57.8452 48.0442 57.9005 48.3204 57.569Z" fill="white"/>
<path d="M42.8509 60.8839C42.8509 60.8839 42.0774 61.4916 42.6851 62.1546C42.6851 62.1546 42.7404 61.3258 43.2376 61.5468C43.2376 61.5468 42.4089 62.1546 43.2376 62.6518C43.2376 62.6518 43.1824 61.8231 43.8454 61.9888C44.2321 62.0993 44.5083 61.6021 44.5083 61.6021C44.5083 61.6021 44.9503 61.3258 45.2266 61.7126C45.5028 62.1546 45.8896 62.2098 45.9448 62.2651C45.9448 62.2651 45.6686 61.8783 45.9448 61.7126C45.9448 61.7126 46.3868 62.1546 46.7183 62.1546C46.7183 62.1546 46.3315 61.7126 46.7183 61.6573C46.7183 61.6573 46.9393 61.6573 46.9945 61.8783C47.0498 62.1546 47.7128 62.2651 47.768 62.2651C47.768 62.2651 47.3813 61.9336 47.6023 61.6021C47.6023 61.6021 47.6023 61.6021 47.6023 61.5468C47.8233 61.2153 48.0442 61.3258 48.0442 61.3258C48.873 61.1049 48.8177 60.2209 48.8177 59.9999C48.873 59.9999 48.9282 60.0551 48.9282 60.1104C49.0387 60.3866 49.094 61.0496 48.1547 61.6021C48.1547 61.6021 48.21 62.3756 49.4807 62.9281C49.4807 62.9281 49.315 61.9336 50.0884 63.37C50.0884 63.37 50.3647 63.9225 50.0332 64.475C49.757 65.0275 49.4255 65.9667 50.4752 66.5745C51.5249 67.2374 52.1879 67.9557 51.6907 69.8341C51.6907 69.8341 51.3592 70.4971 50.6962 70.3314C50.0332 70.1656 49.757 69.8894 49.2045 70.6076C49.2045 70.6076 49.8675 70.2761 50.2542 70.7181C50.2542 70.7181 49.4807 70.4971 49.2045 71.4916C49.2045 71.4916 49.9779 71.0496 50.3094 71.3811C50.3094 71.3811 49.8675 71.4916 49.8675 72.0441C49.8675 72.0441 50.3094 71.7126 50.6409 71.8783C51.1934 72.0993 51.3039 71.7678 51.4697 71.4916C51.6354 71.2153 52.0222 71.6021 52.5746 71.4916C52.5746 71.4916 51.8012 70.8839 52.2431 70.6076C52.5194 70.4419 53.0166 70.7734 53.2376 70.4971C53.2376 70.4971 52.2431 70.1104 52.7404 69.4474C52.9614 69.1711 53.3481 69.5026 53.5691 69.3369C53.5691 69.3369 52.9061 69.1159 53.0166 68.5082C53.0719 68.1214 53.2376 68.1767 53.3481 68.2319C53.4586 68.2872 53.7349 68.3424 53.9006 68.2319C53.9006 68.2319 53.6244 68.1767 53.5691 67.8452C53.5139 67.5137 53.5691 67.0717 53.1824 66.7955C52.9614 66.6297 52.7956 66.6297 52.7956 66.0772C52.7956 65.4142 53.0719 65.359 53.2376 65.3037C53.4034 65.3037 53.7901 65.2485 54.0111 65.0828C54.0111 65.0828 55.4476 64.1988 54.6741 62.3756C53.9006 60.5524 53.5139 60.4419 53.6244 59.0054C53.7349 57.5689 54.0663 56.906 54.3978 56.4087C54.6188 56.022 55.1161 55.7457 55.4476 55.6905C55.4476 55.6905 56.2763 55.5247 56.1658 56.5192C56.1658 56.5192 56.1658 56.7955 55.6686 57.1822C55.1713 57.6242 55.0056 58.0662 55.0056 58.0662C55.0056 58.0662 55.5581 57.6794 55.6686 57.7899C55.7791 57.9004 55.7238 58.0662 55.5028 58.3424C55.2818 58.5634 55.0056 59.1159 55.0608 59.5579C55.0608 59.5579 55.2266 59.2816 55.4476 59.2816C55.4476 59.2816 55.3371 60.1656 55.8896 60.4971C55.8896 60.4971 55.7238 59.5026 56.1105 58.9502C56.3868 58.5634 57.0498 57.2927 56.663 56.4087C56.663 56.4087 56.663 55.2485 55.9448 55.138C55.9448 55.138 56.0553 55.359 56 55.3037C55.9448 55.2485 53.7349 55.0828 53.2929 58.5634C53.2929 58.7292 53.1824 59.2264 53.1824 59.2264C53.1824 59.2264 53.1271 60.1104 52.5746 59.4474C52.5746 59.4474 52.5194 60.1656 53.2376 60.6076C53.9558 61.1048 52.5746 61.0496 52.2984 60.5524C52.2984 60.5524 52.2984 61.1048 53.0166 61.4363C53.7349 61.7126 53.6244 62.0993 52.4641 61.8231C52.4641 61.8231 52.7956 62.3203 53.7349 62.3203C54.6741 62.3203 54.7293 63.7568 54.3978 64.0883C53.9006 64.5303 53.6244 64.475 53.4034 64.4198C53.1271 64.3645 53.0166 64.4198 53.0166 64.4198C53.0166 64.4198 52.4641 63.8673 52.3536 63.37C52.2984 62.9833 51.5249 62.3203 51.5249 62.3203C51.5249 62.3203 51.0829 61.7678 51.2487 60.6629C51.4144 59.5579 51.4697 59.2264 51.4144 59.0607C51.4144 59.0607 51.1382 59.0054 51.0277 58.8397C51.0277 58.8397 50.8619 59.2816 50.8619 59.5579C50.8619 59.5579 50.3094 59.4474 50.0884 59.0054C49.9227 58.5634 49.757 58.6739 49.757 58.6739C49.757 58.6739 49.4255 59.1159 49.0387 59.2264C49.0387 59.2264 48.873 59.1712 48.873 58.7292C48.873 58.6187 48.873 58.5082 48.873 58.4529C48.873 58.3977 48.873 58.3424 48.873 58.2872C48.873 58.2872 48.2652 58.4529 47.8785 58.2872C47.8785 58.2872 47.989 58.0109 47.8785 57.8452C47.8785 57.8452 47.6023 58.0109 47.0498 57.9004C47.0498 57.9004 46.9393 57.4032 47.4365 56.6297C47.4365 56.6297 47.4918 56.4087 47.2155 55.9115C46.9393 55.4695 46.4973 54.475 46.884 53.812C47.1603 53.37 47.0498 52.7623 46.663 52.5413C46.3315 52.3203 46.1105 52.3203 45.6133 52.4861C45.6133 52.4861 46.2763 52.4308 46.2763 52.9833C46.2763 52.9833 45.5581 52.2651 44.9503 52.9833C44.9503 52.9833 45.7791 52.8728 45.6133 53.5358C45.6133 53.5358 45.0056 52.7071 44.3978 53.7015C44.3978 53.7015 45.2266 53.591 45.2266 54.3093C45.1713 54.8065 45.8343 54.9723 45.8343 54.9723C45.8343 54.9723 46 56.4087 45.1713 56.3535C45.1713 56.3535 45.6686 56.685 45.8895 56.6297C45.8895 56.6297 45.9448 57.1822 45.4476 57.2374C45.4476 57.2374 45.7238 57.5137 46.1105 57.5137C46.1105 57.5137 46.1658 57.6794 45.9448 57.7899C45.6686 57.9557 45.6686 58.3977 45.6686 58.4529C45.6686 58.4529 45.9448 58.2319 46.3868 58.4529C46.8288 58.6739 47.3813 58.5082 47.4918 58.4529C47.4918 58.4529 47.6023 58.3977 47.7128 58.3977C47.6575 58.4529 47.6023 58.5634 47.4918 58.7292C47.326 58.9502 47.105 59.2264 46.884 59.5026C46.2763 60.1104 45.2266 60.7181 43.6796 59.9999C43.2929 59.8341 42.6299 59.7789 42.3536 60.0551C42.0774 60.3314 41.9669 60.6629 42.2431 61.0496C42.3536 61.3811 42.3536 60.7734 42.8509 60.8839Z" fill="white"/>
<path d="M50.0883 56.6297C49.5911 56.8507 49.6464 57.3479 49.6464 57.3479C50.4198 57.2927 50.5856 56.9612 50.5856 56.9612C51.0276 57.0717 50.7513 57.6794 50.6961 57.7347C50.7513 57.7347 50.7513 57.7347 50.8066 57.7347C50.9723 57.7347 51.3038 57.5689 51.6353 57.1269C51.6353 57.2374 51.7458 57.9557 52.8508 57.9004C52.8508 57.9004 52.1325 57.5689 52.2983 57.1269V57.0717C52.7403 57.5137 53.348 56.9612 53.348 56.9612C52.7403 56.9612 52.685 56.6297 52.685 56.464C53.4033 56.9059 53.79 56.1877 53.6795 56.0772C53.6795 56.0772 52.4088 56.5745 53.4585 54.3093C53.569 54.033 53.9557 53.591 53.569 53.2043C53.1823 52.8175 53.0165 52.1546 53.4585 51.8231C53.4585 51.8231 52.9613 51.6021 52.2983 52.0441C51.9668 52.2651 51.6906 52.1546 51.6906 52.1546C51.6906 52.1546 51.1381 51.8783 50.6408 52.0993C50.2541 52.2651 50.1436 52.4861 50.0883 52.5965C49.8121 52.4861 49.3149 52.8175 49.2596 52.8175C49.2044 52.8175 49.2596 53.0385 49.2044 53.149C49.1491 53.2595 49.0939 53.6463 49.5911 53.6463C50.0883 53.591 50.4198 53.4805 50.4198 53.4805C50.4198 53.4805 50.5303 53.591 50.5856 53.8673C50.6408 54.1988 50.8066 54.696 50.1436 54.7512C50.1436 54.7512 50.1436 54.7512 50.3093 54.917C50.4751 55.0275 51.0276 55.0275 51.0828 54.696C51.1933 54.4198 51.3591 54.3645 51.3591 54.3645C51.3591 54.3645 51.6353 55.138 50.5303 55.2485C49.4254 55.359 48.7624 55.7457 48.5414 56.5745C49.8673 56.243 50.0883 56.6297 50.0883 56.6297ZM51.1381 52.8175C50.9171 52.9833 50.6961 52.928 50.4198 52.6518C50.6961 52.3203 51.0828 52.2098 51.6353 52.5965C51.6353 52.5965 51.3591 52.6518 51.1381 52.8175Z" fill="white"/>
<path d="M39.3149 45.2486L37.547 42.2651L35.7238 45.3038L37.547 48.7292L39.3149 45.2486Z" fill="white"/>
<path d="M64.9502 45.2486L63.127 42.2651L61.3038 45.3038L63.1823 48.7292L64.9502 45.2486Z" fill="white"/>
<path d="M49.9779 75.0277H50.0884H50.1989C60.5857 72.9835 68.8177 63.6464 68.9282 53.7569V29.2818H60.1437C60.6962 29.0608 61.1382 28.5083 61.1382 27.8453C61.1382 27.0166 60.4752 26.2984 59.5912 26.2984H57.4365C56.5525 26.1879 56.3868 25.3039 56.3868 25.3039C55.3371 26.4089 54.2873 24.6962 54.2873 24.6962L52.4641 25.3039L52.0221 24.4752C52.2431 24.0332 52.5194 23.5912 52.7956 23.3702C53.2929 22.9282 53.4586 22.873 53.4586 22.873C53.2376 22.3757 53.1271 21.9337 53.1271 21.768C53.1824 21.7127 53.5691 21.547 53.9558 21.3812C54.1216 21.326 54.2873 21.2707 54.4531 21.2155C54.5083 21.2155 54.6188 21.2155 54.6741 21.2155H54.7293L54.5083 20.9945C54.5636 20.9945 54.6741 21.105 54.7293 21.105C54.8398 21.1602 54.9503 21.2155 55.0608 21.2155C55.1713 21.2155 55.3371 21.2155 55.2818 21.105C55.3371 21.105 55.4476 21.1602 55.5028 21.1602C55.5581 21.1602 55.6133 21.1602 55.7238 21.1602C55.779 21.105 55.8343 21.105 55.8895 21.0498C55.9448 20.9945 56 20.9945 56.0553 20.9393C56.0553 20.884 56.1105 20.884 56.1105 20.8288C56.1105 20.7735 56.1105 20.7183 56.0553 20.7183C55.9448 20.6078 55.8343 20.6078 55.7238 20.5525L55.3371 20.442C55.2266 20.3868 55.1713 20.3868 55.0608 20.3315C54.7846 20.221 55.0608 20.3315 55.1713 20.3315C55.2818 20.3315 55.3371 20.3315 55.4476 20.3315C55.5581 20.3315 55.6133 20.2763 55.7238 20.2763L56 20.1658C56 20.1658 55.7238 20.2763 55.1161 19.8343C54.8951 19.6685 54.7846 19.4475 54.6188 19.2818C54.2873 18.8951 53.9558 18.5083 53.5691 18.1768C53.1824 17.8453 52.7956 17.5138 52.3536 17.2928C51.9669 17.0719 51.5249 16.9061 51.0277 16.9061H50.9724C50.9724 16.8509 50.8619 15.9669 51.3592 14.8619C51.6354 14.2542 51.6906 13.6464 51.4144 13.1492C51.1934 12.7625 50.8619 12.5415 50.4752 12.431C50.4199 12.431 49.7569 12.3205 48.9835 12.873C48.7625 12.9835 48.5415 13.094 48.3205 13.2044C48.9835 12.431 50.4199 11.6575 50.6962 11.6022V11.547C50.6409 11.547 49.7017 11.6022 49.094 11.989C49.2045 11.768 49.315 11.3812 49.2045 10.7735V10.7183H49.1492C49.1492 10.7183 47.7127 11.0498 47.7127 13.0387C47.7127 13.0387 47.7127 13.3149 47.6023 13.6464C47.4365 13.7569 47.3813 13.8674 47.3813 13.8674C47.4365 13.8122 47.4918 13.8122 47.547 13.8122C47.4918 13.9227 47.4365 14.0884 47.326 14.1989C46.9945 14.6409 46.7183 15.4144 46.7183 16.0774V16.1326L46.7735 16.0774C46.7735 16.0774 47.326 15.6906 47.4365 15.1934C47.4918 14.9724 47.6575 14.8067 47.7127 14.6962C47.768 14.9172 47.8232 15.4144 47.8232 15.5249C47.8232 15.5801 47.8232 15.5801 47.8232 15.5801C47.8785 15.5801 47.8785 15.5801 47.8785 15.5801C47.989 15.4696 48.431 14.8619 47.989 14.0332C47.9337 13.9227 47.9337 13.7569 47.9337 13.5912C48.652 13.4254 49.1492 13.7017 49.3702 13.8122C49.4807 13.9227 49.5912 14.0332 49.6464 14.1989C49.7569 14.5304 49.7017 14.9172 49.4807 15.3039C49.315 15.6906 49.094 15.9669 48.9282 16.2431C48.4862 16.9614 48.1547 17.4586 48.2652 18.5636C48.431 19.8343 49.2597 20.442 49.7569 20.663C50.0332 20.9393 50.1989 21.3812 50.3094 21.6022C50.4752 21.9337 50.3094 21.8785 50.3094 21.8785C49.3702 21.9337 49.0387 21.4365 48.3757 21.1602C48.21 21.105 48.0442 21.0498 47.8785 21.0498C47.4918 20.884 46.9393 20.884 46.442 21.0498C45.5028 21.326 44.8951 22.0995 45.1161 22.7625C45.1713 22.9835 45.3371 23.2044 45.6133 23.3149C45.8343 23.4254 46.1105 23.4807 46.442 23.4807C46.663 23.4807 46.9393 23.4254 47.2155 23.3702C47.989 23.094 48.5415 22.5415 48.5967 21.989C48.9282 22.0995 49.8674 22.8177 50.5857 23.094C51.3592 23.4254 51.6354 22.5415 51.6354 22.5415C51.8564 22.9282 51.3039 24.1989 50.9724 24.9172L50.6409 25.1382L50.4752 24.3094L49.7017 25.3591C49.4255 25.2486 48.5967 24.2542 48.5967 24.2542C48.4862 25.3039 48.1547 25.5801 48.0442 25.6354L46.221 24.4199C46.221 25.2486 45.3923 25.7459 44.9503 25.7459L43.7348 25.1382C43.8453 26.0221 43.1271 26.1879 42.9061 26.1879H40.8067C39.9779 26.1879 39.2597 26.8509 39.2597 27.7348C39.2597 28.3978 39.6464 28.9503 40.2542 29.1713H31.2487V53.6464C31.3592 63.6464 39.5912 72.9835 49.9779 75.0277ZM58.3205 26.9614H58.3757C59.3702 26.7404 60.0332 27.0719 60.0332 27.0719C60.3647 27.2376 60.4752 27.4586 60.4199 27.6796C60.3647 28.1216 59.7569 28.6188 59.7017 28.3426C59.5912 27.7348 58.9282 27.4586 58.9282 27.4586C58.9282 27.4586 58.0442 27.0166 58.3205 26.9614ZM59.8122 33.4807C59.8122 33.4254 59.8674 33.3149 59.8674 33.2597C59.536 32.652 59.2597 32.1547 59.1492 31.989C59.094 31.9337 59.094 31.9337 59.0387 31.8785C58.873 31.6575 58.7625 31.547 58.873 31.4917C58.9282 31.4365 59.0387 31.4917 59.1492 31.4917C59.1492 31.4917 59.5359 31.7127 59.9779 32.4862C60.0332 32.5415 60.0332 32.5967 60.0884 32.7072C60.3647 32.0995 60.6962 31.7127 61.0829 31.7127C61.4697 31.7127 61.8011 32.0995 62.0774 32.7072C62.1326 32.5967 62.1879 32.4862 62.2431 32.431C62.6851 31.6575 63.0719 31.4365 63.0719 31.4365C63.1271 31.3812 63.2376 31.326 63.3481 31.4365C63.4034 31.547 63.3481 31.6022 63.1824 31.8232C63.1271 31.8785 63.1271 31.8785 63.0719 31.9337C62.9061 32.0995 62.6299 32.5967 62.2984 33.2597C62.3536 33.3149 62.3536 33.3149 62.4089 33.4254C64.1768 33.094 65.5581 33.1492 65.6685 33.5912C65.779 33.9227 64.7846 34.4199 63.9006 34.9172C64.7846 35.4144 65.779 35.9116 65.6685 36.2431C65.5028 36.7404 64.2321 36.7956 62.4641 36.4641L62.4089 36.8509V36.9614L62.5194 37.1271C62.5194 37.1271 63.0166 38.0111 63.3481 38.3426C63.4586 38.4531 63.4034 38.5083 63.4034 38.5083C63.4034 38.5636 63.3481 38.5636 63.2929 38.5636C63.2376 38.5636 63.1271 38.5083 62.9614 38.4531C62.8509 38.3978 62.6299 38.0663 62.2984 37.5138C62.2431 37.6243 62.2431 37.7901 62.1879 37.9006C61.9116 38.6188 61.5802 39.0056 61.1382 39.0056C60.6962 39.0056 60.2542 38.4531 60.0332 37.5691C59.7569 38.0663 59.5359 38.3978 59.4255 38.4531C59.2597 38.5636 59.1492 38.5636 59.094 38.5636C59.0387 38.5636 59.0387 38.5636 58.9835 38.5083C58.9835 38.5083 58.9282 38.3978 59.0387 38.3426C59.3702 37.9558 59.8674 37.1271 59.8674 37.0719C59.8674 37.0719 59.9227 37.0166 59.9227 36.9061C59.9227 36.9061 59.8674 36.5194 59.8674 36.4089C58.1547 36.7404 56.8288 36.6851 56.7183 36.1879C56.6078 35.8564 57.4918 35.3039 58.431 34.8067C58.1547 34.6962 57.9337 34.5304 57.7127 34.4199C57.105 34.0884 56.663 33.7569 56.7183 33.5359C56.663 33.2044 57.989 33.1492 59.8122 33.4807ZM49.7017 12.9835C49.7017 12.9835 49.9227 12.652 50.5304 12.9835C50.5304 12.9835 50.3094 13.4254 49.7017 12.9835ZM50.0332 17.4586C50.0332 19.5028 51.9116 20.221 51.9669 20.2763C51.9116 20.221 51.8564 20.1105 51.8564 20.0553C52.0774 20.1658 52.2984 20.2763 52.5194 20.3315C52.6299 20.3868 52.7404 20.3868 52.8509 20.442H52.9061C52.8509 20.3868 52.7956 20.2763 52.7956 20.221C52.9614 20.3315 53.1271 20.3868 53.2929 20.3868C53.3481 20.3868 53.4586 20.3868 53.5139 20.3315L53.6243 20.2763C53.6796 20.2763 53.7348 20.221 53.7901 20.221C53.7901 20.2763 53.7348 20.3315 53.7348 20.3868C53.6796 20.442 53.6796 20.442 53.6243 20.4973C53.5139 20.5525 53.4034 20.6078 53.2929 20.6078C53.2376 20.6078 53.1824 20.6078 53.1271 20.5525C53.0719 20.6078 52.9614 20.6078 52.8509 20.6078C52.7404 20.6078 52.5746 20.6078 52.4641 20.5525C52.3536 20.4973 52.2984 20.4973 52.1879 20.442C51.6354 20.4973 49.4807 19.7238 50.0332 17.4586ZM50.9172 26.3536C52.5746 25.7459 54.6188 26.6299 54.6188 26.6299C55.2818 26.9061 55.6685 27.1823 56 27.4586C56.1105 27.5691 56.1658 27.6243 56.221 27.6796C56.442 27.9006 56.8288 28.2321 57.1603 28.2873C57.4365 28.3426 56.9393 28.8951 56.1658 28.5083C56.1105 28.4531 56 28.3978 55.8895 28.2873C55.1161 27.6796 54.4531 27.6796 54.4531 27.6796C53.7348 27.6243 53.9006 28.0663 53.9006 28.0663C54.2873 28.8398 53.2929 28.6188 52.7956 28.0663C52.0221 27.2376 51.3039 26.9614 50.8619 26.7404C50.3647 26.5746 50.6962 26.4089 50.9172 26.3536ZM51.1934 37.9558C51.2487 38.0111 51.4144 38.3426 51.1382 39.0056C51.1382 39.0056 50.2542 39.5028 48.9835 39.0608C48.9835 39.0056 48.9835 38.1216 48.9282 37.9558C48.873 37.7901 48.3757 37.4586 48.3757 37.4586C48.3757 37.4033 47.8785 34.3647 48.2652 33.1492C48.2652 33.1492 48.2652 32.1547 48.5967 32.0442C48.8177 31.989 48.7625 33.094 48.7625 33.094C48.7625 33.094 48.7625 34.3094 48.7625 34.3647C48.3205 34.6962 48.652 34.7514 48.652 34.7514C50.0332 34.5304 50.7514 34.4752 51.0829 34.5304C51.1382 34.5304 51.1382 34.5304 51.1934 34.5304C51.4144 34.5857 51.4144 34.6962 51.4144 34.6962C51.4144 34.6962 51.4697 34.9724 50.4752 35.1381C50.4752 35.1381 49.9227 35.2486 49.8122 35.4696C49.7017 35.6906 49.6464 36.4089 49.9227 36.8509C49.9227 36.8509 50.0884 36.7956 50.0332 36.5746C49.9779 36.3536 50.0332 35.8011 50.1989 35.6906C50.3647 35.5249 51.8011 35.3591 51.8011 34.9724C51.8011 34.9724 51.6354 34.3094 51.9669 33.5912C52.2431 33.094 52.5746 33.7569 52.5194 34.6409C52.5194 34.6409 52.4641 36.0221 52.4641 36.2984C52.4641 36.5746 52.2984 37.4586 51.3592 37.6243C51.3592 37.6243 51.0277 37.7348 50.9724 37.9006C50.9172 37.9006 51.1382 37.9006 51.1934 37.9558ZM49.7017 33.6464C49.7017 33.9227 49.7017 34.0884 49.6464 34.1989C49.4255 34.1989 49.2597 34.2542 49.094 34.2542C48.9835 33.7569 48.9835 33.1492 48.9835 33.1492L49.0387 32.0995C49.0387 32.0442 49.0387 31.4365 49.3702 31.4365C49.6464 31.4365 49.6464 32.1547 49.6464 32.1547C49.6464 32.1547 49.6464 32.9282 49.7017 33.6464ZM50.9724 32.7072C50.9724 32.21 50.9724 31.547 51.3039 31.547C51.5249 31.547 51.5249 31.989 51.5249 32.2652C51.5249 32.5967 51.5249 33.3702 51.5249 33.4254C51.4144 33.5912 51.3592 34.0884 51.3592 34.1989C51.2487 34.1437 51.1382 34.1437 50.9724 34.1437C50.9172 34.0332 50.9724 33.2044 50.9724 32.7072ZM50.2542 31.0498H50.3094C50.7514 31.1602 50.6962 33.7569 50.5857 34.0884C50.4199 34.0884 50.2542 34.0884 50.0884 34.1437C50.0332 34.0332 50.0332 33.9227 50.0332 33.7569C50.0332 33.4807 50.0332 31.768 50.0884 31.3812C50.0332 31.105 50.1989 31.0498 50.2542 31.0498ZM44.9503 26.5746C46.442 26.0221 48.2652 26.8509 48.2652 26.8509C49.7569 27.5138 49.9779 28.2321 49.9779 28.2321C49.9779 28.2321 50.1989 29.0056 49.3702 28.3978C48.7072 27.9006 48.21 28.0111 48.21 28.0111C47.7127 28.0111 47.6023 29.2265 46.5525 28.1768C45.8343 27.4586 45.1713 27.1824 44.7846 26.9614C44.3978 26.7404 44.7293 26.6851 44.9503 26.5746ZM40.7514 27.0719C41.4144 26.6299 42.2431 26.9061 42.5746 27.4033C43.2929 28.4531 44.2321 28.6188 43.7901 28.6741C43.5139 28.7293 42.6851 28.4531 42.2984 28.1216C41.8011 27.6796 41.0277 28.0111 41.5802 28.4531C41.6354 28.5083 41.5249 28.5636 41.4144 28.5636C40.3647 28.5636 40.0332 27.5691 40.7514 27.0719ZM35.0608 33.7017C35.2266 33.2044 36.5525 33.1492 38.3757 33.5359C38.3757 33.4807 38.431 33.3702 38.431 33.3149C38.0995 32.7072 37.8232 32.21 37.7127 32.0442C37.6575 31.989 37.6575 31.989 37.6022 31.9337C37.4365 31.7127 37.326 31.6022 37.4365 31.547C37.4918 31.4917 37.6023 31.547 37.7127 31.547C37.7127 31.547 38.0995 31.768 38.5415 32.5415C38.5967 32.5967 38.5967 32.652 38.652 32.7625C38.9282 32.1547 39.2597 31.768 39.6465 31.768C40.0332 31.768 40.3647 32.1547 40.6409 32.7625C40.6962 32.652 40.7514 32.5415 40.8067 32.4862C41.2487 31.7127 41.6354 31.4917 41.6354 31.4917C41.6906 31.4365 41.8011 31.3812 41.9116 31.4917C41.9669 31.6022 41.9116 31.6575 41.7459 31.8785C41.6906 31.9337 41.6906 31.9337 41.6354 31.989C41.4697 32.1547 41.1934 32.652 40.8619 33.3149C40.9172 33.3702 40.9172 33.3702 40.9724 33.4807C42.7404 33.1492 44.1216 33.2044 44.2321 33.6464C44.3426 33.9779 43.3481 34.4752 42.4641 34.9724C43.3481 35.4696 44.3426 35.9669 44.2321 36.2984C44.0663 36.7956 42.7956 36.8509 41.0277 36.5194L40.9724 36.9061V37.0166L41.0829 37.1824C41.0829 37.1824 41.5802 38.0663 41.9116 38.3978C42.0221 38.5083 41.9669 38.5636 41.9669 38.5636C41.9669 38.6188 41.9116 38.6188 41.8564 38.6188C41.8011 38.6188 41.6906 38.5636 41.5249 38.5083C41.4144 38.4531 41.1934 38.1216 40.8619 37.5691C40.8067 37.6796 40.8067 37.8453 40.7514 37.9558C40.4752 38.6741 40.1437 39.0608 39.7017 39.0608C39.2597 39.0608 38.8177 38.5083 38.5967 37.6243C38.3205 38.1216 38.0995 38.4531 37.989 38.5083C37.8232 38.6188 37.7127 38.6188 37.6575 38.6188C37.6023 38.6188 37.6022 38.6188 37.547 38.5636C37.547 38.5636 37.4918 38.4531 37.6022 38.3978C37.9337 38.0111 38.431 37.1823 38.431 37.1271C38.431 37.1271 38.4862 37.0719 38.4862 36.9614C38.4862 36.9614 38.431 36.5746 38.431 36.4641C36.7183 36.7956 35.3923 36.7404 35.2818 36.2431C35.1713 35.9116 36.0553 35.3591 36.9945 34.8619C36.7183 34.7514 36.4973 34.5857 36.2763 34.4752C35.4476 34.2542 34.9503 33.9227 35.0608 33.7017ZM32.9614 57.0166C32.9061 56.8509 32.9061 56.6299 32.8509 56.4641C32.8509 56.3536 32.8509 56.2984 32.7956 56.1879C32.7404 55.9669 32.7404 55.7459 32.6851 55.5249C32.6851 55.4696 32.6851 55.4144 32.6851 55.3591C32.6851 55.1381 32.6299 54.8619 32.6299 54.6409V54.5857C32.6299 54.3094 32.6299 54.0332 32.5746 53.7569V40.6078H67.6022V53.7569C67.6022 54.0332 67.6022 54.2542 67.6022 54.5304C67.6022 54.5857 67.6022 54.6409 67.6022 54.6962C67.6022 54.9172 67.547 55.1381 67.547 55.3591C67.547 55.4696 67.547 55.5249 67.4918 55.6354C67.4918 55.8011 67.4365 55.9669 67.4365 56.0774C67.4365 56.2431 67.3813 56.4089 67.326 56.6299C67.326 56.7404 67.2708 56.7956 67.2708 56.9061C67.2155 57.1824 67.1603 57.5138 67.0498 57.7901H66.1105V55.0829H63.6244V52.873H61.2487V50.2763H59.094V47.9558H56.7735V45.9669H54.3426L54.2873 43.3702H51.8564L50.3647 41.3812L49.094 43.3702H46.3868V45.8011H43.5139V48.1216H41.0277V50.3315H38.5967V52.8177H36.1105V54.9724H34.3426V57.2376H33.1271C33.0166 57.1823 33.0166 57.1271 32.9614 57.0166ZM37.6022 66.2431C37.547 66.1879 37.4918 66.1326 37.4918 66.0774C37.105 65.6354 36.7735 65.1934 36.442 64.6962C36.3868 64.6409 36.3868 64.5857 36.3315 64.5304C36.221 64.3647 36.1105 64.1989 36 64.0884C36 64.0884 36 64.0332 35.9448 64.0332C35.6133 63.5359 35.2818 62.9835 35.0056 62.4862C35.0056 62.431 34.9503 62.431 34.9503 62.3757C34.6741 61.8232 34.3978 61.2707 34.1216 60.663H36.3868V58.2321H38.7072V55.7459H41.3592V53.2597H43.7901V50.8288H46.3868V48.3426H48.873V46.0221H51.0277H51.6354V48.4531H53.8453V50.884H56.221V53.3149H58.652V55.6906H61.0277V58.2321H64.0663V61.0498H66C65.8895 61.2155 65.8343 61.4365 65.7238 61.6022C65.7238 61.6022 65.7238 61.6022 65.7238 61.6575C65.4476 62.21 65.1713 62.7625 64.8398 63.2597C64.8398 63.2597 64.8398 63.3149 64.7846 63.3149C64.6741 63.4807 64.5636 63.6464 64.4531 63.8122C64.1216 64.3094 63.7348 64.8619 63.4034 65.3039C63.3481 65.3591 63.3481 65.3591 63.2929 65.4144L62.1879 66.7404C62.1326 66.7956 62.1326 66.8509 62.0774 66.8509C61.9669 66.9614 61.8564 67.1271 61.7459 67.2376C61.6906 67.2928 61.6354 67.3481 61.5802 67.4033C61.1934 67.7901 60.8067 68.1216 60.4199 68.5083C60.3094 68.5636 60.2542 68.6741 60.1437 68.7293C60.0332 68.8398 59.9227 68.8951 59.8122 69.0056C59.7017 69.0608 59.5912 69.1713 59.536 69.2266C59.3702 69.337 59.2597 69.4475 59.094 69.558C58.9282 69.6685 58.8177 69.779 58.652 69.8895C58.5415 69.9448 58.431 70.0553 58.3757 70.1105C58.2652 70.221 58.0995 70.2763 57.989 70.3868C57.8785 70.442 57.768 70.4973 57.7127 70.5525C57.547 70.663 57.326 70.7735 57.1603 70.884C57.0498 70.9393 56.9945 70.9945 56.884 71.0498C56.7183 71.1603 56.5525 71.2707 56.3315 71.326C56.221 71.3812 56.1658 71.4365 56.0553 71.4917C55.8895 71.6022 55.7238 71.6575 55.558 71.768C55.5028 71.8232 55.3923 71.8232 55.3371 71.8785C55.1161 71.989 54.8398 72.0995 54.6188 72.21C54.5636 72.2652 54.5083 72.2652 54.4531 72.2652C54.2873 72.3205 54.0663 72.431 53.9006 72.4862C53.8453 72.5415 53.7348 72.5415 53.6796 72.5967C53.4586 72.652 53.2929 72.7625 53.0719 72.8177C53.0166 72.8177 52.9614 72.873 52.9061 72.873C52.6299 72.9835 52.4089 73.0387 52.1326 73.1492C52.0774 73.1492 51.9669 73.2044 51.9116 73.2044C51.6906 73.2597 51.5249 73.3149 51.3039 73.3702C51.2487 73.3702 51.1382 73.4254 51.0829 73.4254C50.8067 73.4807 50.5304 73.5359 50.2542 73.5912C49.9779 73.5359 49.7017 73.4807 49.4255 73.4254C49.3702 73.4254 49.2597 73.3702 49.2045 73.3702C48.9835 73.3149 48.8177 73.2597 48.5967 73.2044C48.5415 73.2044 48.431 73.1492 48.3757 73.1492C48.0995 73.0939 47.8785 72.9835 47.6023 72.873C47.547 72.873 47.547 72.873 47.4918 72.8177C47.2708 72.7625 47.0498 72.652 46.8288 72.5415C46.7735 72.4862 46.663 72.4862 46.6078 72.431C46.442 72.3757 46.221 72.2652 46.0553 72.21C46 72.1547 45.8895 72.1547 45.8343 72.0995C45.6133 71.989 45.3371 71.8785 45.1161 71.768C45.0608 71.7127 45.0056 71.7127 44.9503 71.6575C44.7846 71.547 44.5636 71.4917 44.3978 71.3812C44.2873 71.326 44.2321 71.2707 44.1216 71.2155C43.9558 71.105 43.7901 71.0497 43.6796 70.9393C43.5691 70.884 43.5139 70.8288 43.4034 70.7735C43.1824 70.663 42.9614 70.4973 42.7404 70.3868C42.6299 70.3315 42.5746 70.2763 42.4641 70.221C42.3536 70.1105 42.1879 70.0553 42.0774 69.9448C41.9669 69.8895 41.8564 69.779 41.8011 69.7238C41.6906 69.6133 41.5801 69.558 41.4144 69.4475C41.3039 69.3923 41.1934 69.2818 41.1382 69.2266C40.9724 69.0608 40.7514 68.9503 40.5857 68.7846C40.4752 68.6741 40.3647 68.6188 40.2542 68.5083C40.1437 68.4531 40.0884 68.3426 39.9779 68.2873C39.8674 68.1768 39.7569 68.0663 39.6465 68.0111C39.5912 67.9558 39.4807 67.8453 39.4255 67.7901C39.2045 67.5691 38.9282 67.3481 38.7072 67.1271C38.652 67.0718 38.652 67.0719 38.5967 67.0166C38.4862 66.9061 38.3757 66.7956 38.2652 66.6299C38.21 66.5746 38.1547 66.5194 38.0995 66.4641C37.8232 66.5194 37.7127 66.4089 37.6022 66.2431Z" fill="white"/>
<path d="M40.4751 36.7402C40.4751 36.6297 40.5304 36.4639 40.5304 36.4639C40.1989 36.4087 39.9226 36.2982 39.5912 36.2429C39.2597 36.3534 38.9282 36.4087 38.5967 36.4639C38.5967 36.4639 38.5967 36.6297 38.6519 36.7402C38.7624 36.7954 39.4807 37.0164 40.4751 36.7402Z" fill="white"/>
<path d="M40.2541 33.2043C40.2541 33.149 40.2541 33.0938 40.1988 33.0938C40.0331 32.5413 39.7569 32.3203 39.5359 32.3203C39.3149 32.3203 39.0386 32.5413 38.8729 33.0938C38.8729 33.149 38.8176 33.2043 38.8176 33.2595C39.4254 32.9833 39.9226 33.0938 40.2541 33.2043Z" fill="white"/>
<path d="M38.652 37.0166C38.7072 37.3481 38.7072 37.3481 38.8177 37.5138C38.9282 37.5691 39.4807 37.7348 40.3094 37.5138C40.3647 37.4033 40.4199 37.1823 40.4199 37.0166C40.0884 37.1271 39.7569 37.1271 39.4807 37.1271C39.094 37.1271 38.8177 37.0719 38.652 37.0166Z" fill="white"/>
<path d="M60.3646 37.8453C60.4199 38.011 60.5304 38.1768 60.5856 38.232C60.9724 38.3425 61.0276 38.3425 61.4696 38.232C61.5801 38.1215 61.5801 38.011 61.6906 37.79C61.4143 37.8453 61.2486 37.8453 61.0276 37.8453C60.7514 37.9005 60.4751 37.9005 60.3646 37.8453Z" fill="white"/>
<path d="M38.9282 37.8453C38.9835 38.011 39.094 38.1768 39.1492 38.232C39.536 38.3425 39.5912 38.3425 40.0332 38.232C40.1437 38.1215 40.1437 38.011 40.2542 37.79C39.9779 37.8453 39.8122 37.8453 39.5912 37.8453C39.315 37.9005 39.0387 37.9005 38.9282 37.8453Z" fill="white"/>
<path d="M61.9117 36.7402C61.9117 36.6297 61.9669 36.4639 61.9669 36.4639C61.6354 36.4087 61.3592 36.2982 61.0277 36.2429C60.6962 36.3534 60.3647 36.4087 60.0332 36.4639C60.0332 36.4639 60.0332 36.6297 60.0885 36.7402C60.1989 36.7954 60.9172 37.0164 61.9117 36.7402Z" fill="white"/>
<path d="M60.0884 37.0166C60.1436 37.3481 60.1436 37.3481 60.2541 37.5138C60.3646 37.5691 60.9171 37.7348 61.7458 37.5138C61.8011 37.4033 61.8563 37.1823 61.8563 37.0166C61.5248 37.1271 61.1934 37.1271 60.9171 37.1271C60.5856 37.1271 60.3094 37.0719 60.0884 37.0166Z" fill="white"/>
<path d="M61.6906 33.2043C61.6906 33.149 61.6906 33.0938 61.6354 33.0938C61.4696 32.5413 61.1934 32.3203 60.9724 32.3203C60.7514 32.3203 60.4751 32.5413 60.3094 33.0938C60.3094 33.149 60.2542 33.2043 60.2542 33.2595C60.8619 32.9833 61.4144 33.0938 61.6906 33.2043Z" fill="white"/>
</g>
<defs>
<clipPath id="clip0_624_924">
<rect width="87.8453" height="100" fill="white" transform="translate(6)"/>
</clipPath>
</defs>
</svg>
