<svg width="100" height="100" viewBox="0 0 100 100" fill="none" xmlns="http://www.w3.org/2000/svg">
<g clip-path="url(#clip0_326_73)">
<path d="M96.8634 50C96.8634 75.8809 75.8824 96.8634 50.0007 96.8634C24.119 96.8634 3.13647 75.8809 3.13647 50C3.13647 24.119 24.1183 3.13647 50.0007 3.13647C75.8831 3.13647 96.8634 24.1183 96.8634 50Z" fill="#FBB700"/>
<path d="M50.0008 3.13652C75.8832 3.13652 96.8635 24.1183 96.8635 50C96.8635 75.8817 75.8824 96.8635 50.0008 96.8635C24.1191 96.8635 3.13652 75.8809 3.13652 50C3.13652 24.1191 24.1183 3.13652 50.0008 3.13652ZM50.0008 0C46.6103 0 43.2213 0.341957 39.9272 1.01593C36.7157 1.67307 33.5562 2.6538 30.5375 3.9306C27.5739 5.18368 24.7158 6.73511 22.0429 8.54129C19.396 10.3299 16.9066 12.3831 14.6453 14.6453C12.3831 16.9074 10.3299 19.396 8.54129 22.0429C6.73511 24.7158 5.18444 27.5739 3.9306 30.5375C2.6538 33.5562 1.67307 36.7157 1.01593 39.9272C0.341957 43.2213 0 46.6103 0 50.0008C0 53.3913 0.341957 56.7802 1.01593 60.0744C1.67307 63.2859 2.6538 66.4453 3.9306 69.464C5.18368 72.4277 6.73511 75.285 8.54129 77.9587C10.3299 80.6056 12.3831 83.0941 14.6453 85.3563C16.9074 87.6184 19.396 89.6717 22.0429 91.4602C24.7158 93.2664 27.5739 94.8171 30.5375 96.0709C33.5562 97.3477 36.7157 98.3285 39.9272 98.9856C43.2213 99.6596 46.6103 100.002 50.0008 100.002C53.3913 100.002 56.7802 99.6596 60.0744 98.9856C63.2859 98.3285 66.4453 97.3477 69.464 96.0709C72.4277 94.8178 75.285 93.2664 77.9587 91.4602C80.6056 89.6717 83.0941 87.6184 85.3563 85.3563C87.6184 83.0941 89.6717 80.6056 91.4595 77.9587C93.2657 75.2857 94.8163 72.4277 96.0702 69.464C97.347 66.4453 98.3277 63.2859 98.9848 60.0744C99.6588 56.7802 100.001 53.3913 100.001 50.0008C100.001 46.6103 99.6588 43.2213 98.9848 39.9279C98.3277 36.7164 97.347 33.557 96.0702 30.5383C94.8171 27.5746 93.2657 24.7173 91.4595 22.0436C89.6717 19.3967 87.6176 16.9074 85.3563 14.646C83.0941 12.3839 80.6056 10.3306 77.9587 8.54205C75.2857 6.73587 72.4277 5.18521 69.464 3.93136C66.4453 2.65457 63.2859 1.67383 60.0744 1.01669C56.7802 0.342722 53.3913 0.000765006 50.0008 0.000765006V0Z" fill="white"/>
<path d="M50.0008 95.3013C75.02 95.3013 95.3021 75.0192 95.3021 49.9999C95.3021 24.9807 75.02 4.69861 50.0008 4.69861C24.9816 4.69861 4.69946 24.9807 4.69946 49.9999C4.69946 75.0192 24.9816 95.3013 50.0008 95.3013Z" fill="#001489"/>
<path d="M82.2832 50C82.2832 67.8292 67.83 82.2824 50 82.2824C32.17 82.2824 17.7152 67.83 17.7152 50C17.7152 32.17 32.17 17.7152 50 17.7152C67.83 17.7152 82.2832 32.1692 82.2832 50Z" fill="#FBB700"/>
<path d="M81.3055 50C81.3055 67.2899 67.2906 81.3056 50.0007 81.3056C32.7109 81.3056 18.6952 67.2907 18.6952 50C18.6952 32.7094 32.7109 18.6945 50.0007 18.6945C67.2906 18.6945 81.3055 32.7101 81.3055 50Z" fill="white"/>
<path d="M72.3894 48.7698C71.7422 47.0562 69.5146 46.3104 67.4077 47.1052C66.5272 47.4364 65.8089 47.9895 65.3177 48.6413C66.71 44.6709 72.3749 43.8287 72.3749 40.1345C72.3749 33.9433 63.5827 35.6775 64.8618 40.136C64.8618 38.1141 68.0817 37.7423 68.0817 40.136C68.0817 42.5297 62.4689 44.0987 62.4689 48.1441C62.4689 52.6025 66.9273 53.0141 66.4767 57.0908C66.4002 57.7946 65.6444 58.7172 64.5497 58.7172C57.7197 58.7172 60.1578 50.3113 57.7717 47.7532L57.8956 46.0258C59.2765 46.8719 62.9378 44.8905 60.5288 41.8687C60.5288 43.3551 57.4336 43.2725 57.4336 40.4665C57.4336 36.6675 60.984 38.6496 61.1561 39.488C60.9855 38.1057 60.9205 37.2267 61.1507 36.4311C59.2352 37.0477 59.0585 35.9415 59.2987 35.5131C59.5779 35.0181 59.9489 34.4405 60.6917 34.4405C61.0957 34.4405 61.3389 34.4964 61.4812 34.5943C61.7199 34.7588 61.8936 34.3854 61.8591 34.732C62.0642 34.4199 61.9823 34.8085 62.182 34.4964C62.3824 34.1865 62.6509 33.8354 63.1291 33.3672L63.1084 32.6649L63.6668 32.8707L64.2024 32.004C63.624 30.8075 62.8406 31.3851 62.2615 29.8987C61.7803 29.7725 54.2573 30.5918 54.4768 27.5907C53.8625 27.5907 52.4106 27.9265 53.311 29.149C52.6095 29.2324 52.1061 28.4391 51.0527 30.5864C52.3731 30.3386 51.6892 31.8143 51.6892 32.2343C51.6892 34.9546 48.0684 34.9095 48.0684 33.6342C47.1948 34.4826 47.6905 36.3377 49.0109 36.7929C49.0109 36.7929 48.509 38.7773 47.269 40.0342C45.4291 39.9623 42.4793 39.6418 40.7817 38.0376C40.0504 37.3468 39.469 36.9696 38.9732 36.7769V35.878C39.6977 35.5222 40.4933 34.8965 41.3187 33.8461C41.9636 33.0597 42.3117 32.0491 42.2169 30.9781C42.2054 30.8504 42.1863 30.7241 42.1633 30.601C42.1564 30.5612 42.1472 30.5229 42.1381 30.4847C42.1197 30.3982 42.0983 30.3149 42.0738 30.2299C42.0623 30.1894 42.0509 30.1473 42.0371 30.1052C42.0103 30.0219 41.9789 29.9377 41.9453 29.8566C41.9323 29.823 41.92 29.7878 41.9055 29.7541C41.8588 29.6462 41.8083 29.5422 41.7517 29.4389C41.7288 29.3968 41.7043 29.3571 41.6806 29.318C41.6439 29.2561 41.6064 29.1934 41.5666 29.1337C41.5352 29.0847 41.5 29.0373 41.4672 28.9891C41.432 28.9417 41.396 28.8958 41.3601 28.8499C41.3195 28.8001 41.2797 28.7481 41.2361 28.6992C41.2078 28.6663 41.178 28.6372 41.1474 28.6058C41.0395 28.4888 40.924 28.3771 40.8024 28.2731C40.7917 28.2639 40.7794 28.2532 40.7687 28.2432C40.6999 28.1858 40.6279 28.1308 40.5568 28.078C40.5384 28.0634 40.5201 28.0504 40.5002 28.0367C40.4237 27.9823 40.3449 27.9303 40.2646 27.8806C40.2592 27.8768 40.2554 27.8752 40.25 27.8714C39.4774 27.3987 38.5433 27.1508 37.5564 27.2281C35.1819 27.4178 33.4162 29.403 33.6151 31.662C33.7689 33.4215 35.0679 34.8284 36.7555 35.2759C36.1626 35.6064 35.6623 35.7969 35.5491 35.7969C35.5682 35.8091 35.5927 35.8229 35.6202 35.8405C35.6271 35.8443 35.634 35.8489 35.6424 35.8527C35.6661 35.8665 35.6929 35.8818 35.722 35.8979C35.7288 35.9017 35.7357 35.9047 35.7426 35.9093C35.7801 35.9285 35.8199 35.9484 35.8643 35.9705C35.8711 35.9744 35.8796 35.9759 35.8872 35.9797C35.9255 35.9973 35.966 36.0164 36.0088 36.0333C36.0211 36.0386 36.0326 36.044 36.0456 36.0486C36.1488 36.0906 36.2659 36.1297 36.3936 36.1664C36.4112 36.171 36.4296 36.1756 36.4464 36.1802C36.4969 36.1932 36.5489 36.2062 36.604 36.2169C36.6224 36.2215 36.6392 36.2245 36.6583 36.2283C36.7264 36.2414 36.7968 36.2528 36.8695 36.2628C36.8764 36.2628 36.8817 36.2643 36.8871 36.2643V36.7753C36.8611 36.7799 36.8358 36.7845 36.8106 36.7883C36.0379 36.9153 35.5361 37.1525 35.3096 37.841C35.0847 38.5302 35.3165 38.7804 35.6776 39.2647C35.3708 39.8101 34.5714 40.0159 35.6156 41.2231C35.5407 41.679 35.6363 42.4042 36.2995 42.6253C36.5168 42.698 36.6958 42.7362 36.8871 42.7714L36.8855 51.8192C36.223 52.1695 35.8971 52.6071 35.7174 53.0149C35.7174 53.0149 35.1857 51.836 35.2201 54.1708C35.8237 53.7018 35.585 54.7147 35.585 54.7147C34.7634 55.7773 35.8084 55.7215 35.8084 55.7215C36.516 55.0138 36.3715 56.0412 36.3715 56.0412C36.3715 57.2951 36.8817 57.7847 36.8848 57.787V64.6804L36.2842 64.682L36.2888 66.5845L37.3399 66.5807C36.7501 66.827 36.3615 67.4092 36.4181 68.0541C36.4893 68.8665 37.2397 69.4686 38.0935 69.4021C38.9465 69.334 39.5807 68.6217 39.508 67.8085C39.459 67.2486 39.088 66.7888 38.5823 66.5784L39.5523 66.5769L39.547 64.6751L38.9702 64.6766V58.5604C39.0903 58.6231 39.2196 58.6705 39.3588 58.6996C39.4154 58.7119 39.4713 58.7187 39.5279 58.7226C39.5539 58.7249 39.5784 58.7249 39.6044 58.7264C39.4483 57.9216 39.9272 57.3892 39.9272 57.3892C40.1751 57.0181 40.5316 56.7282 40.937 56.5255C42.1518 55.9142 43.8081 56.0703 44.303 57.061C47.4396 56.234 50.1362 53.0807 50.1362 53.0807L51.6807 55.7092C48.405 56.8039 41.2736 63.0043 46.2247 65.1517C46.2224 65.7767 46.139 70.4149 43.1647 70.0462C38.8807 69.5183 37.8127 71.2901 38.6359 73.2822C38.248 74.9629 39.5424 75.5466 39.5424 75.5466C39.3481 74.575 39.8155 73.7733 41.5857 73.7832C41.5765 75.5535 42.7202 75.8717 42.7202 75.8717C42.7286 74.357 43.7813 73.7947 44.7177 73.8001C44.7108 75.0493 46.162 75.5236 46.162 75.5236C46.162 75.5236 45.794 74.0854 47.4342 73.8001C51.5866 73.0764 47.6866 68.8038 54.0025 67.628C54.0025 67.628 50.8584 67.1522 50.8584 65.4324C50.8584 63.8688 53.7034 62.7978 54.6834 62.7978C56.6946 66.6373 58.8794 66.6679 59.4509 66.6985C60.3421 67.6907 60.0423 71.0438 58.7586 70.9757C54.0546 70.7263 54.2267 73.5874 54.753 74.1719C54.6933 75.2842 55.5563 75.9245 55.5563 75.9245C55.5563 74.7334 56.6892 74.3998 58.1427 74.4779C58.0662 75.9321 58.9927 76.1486 58.9927 76.1486C59.0179 74.6859 60.1012 74.4381 60.8708 74.4779C60.8149 75.5045 61.8331 75.8067 61.8331 75.8067C61.8331 75.8067 61.7337 74.5039 63.103 74.5031C65.7033 74.5016 61.9265 68.9285 67.0046 63.4174C62.5461 65.4806 60.1731 60.3222 60.1731 59.3323C62.4643 62.0152 69.894 62.5499 69.894 57.9698C69.894 53.3897 65.0844 51.9645 67.3328 50.2914C68.6424 49.3168 71.2159 51.2829 69.7433 53.3132C71.8524 52.5306 73.0313 50.4858 72.3849 48.7721H72.3871L72.3894 48.7698ZM43.8938 48.9075C42.2138 49.8959 41.0869 51.1467 39.5539 51.6937C39.3213 51.7763 39.1354 51.7985 38.974 51.787V43.2465C39.3802 43.2848 40.4336 43.4286 41.6653 43.9381C42.8839 44.6036 42.8839 45.9806 41.3448 46.3058C42.3171 48.1693 45.6892 47.2574 46.4236 45.7397C46.7832 45.7075 47.1014 46.3509 47.4013 46.9568C46.9285 47.2031 45.96 47.6912 43.893 48.9075H43.8938ZM62.7068 34.7496C62.5232 34.999 62.3388 35.2499 62.1812 35.4626C62.605 36.1717 63.4075 36.6154 64.2857 36.5328C65.5013 36.4181 66.3956 35.3402 66.2824 34.1238C66.2786 34.081 66.2702 34.0404 66.2633 33.9968C66.1363 34.6257 65.3919 35.1596 64.4479 35.2468C63.7342 35.3142 63.0862 35.1091 62.7068 34.7496Z" fill="#CCCCCC"/>
<path d="M35.5498 29.6103C35.5498 29.6103 35.5483 29.6149 35.5483 29.618H35.5467C35.5643 29.5705 35.5865 29.5262 35.6095 29.4833C35.5865 29.5246 35.5666 29.5667 35.5498 29.6103ZM35.6278 65.4332C35.6278 65.4332 35.6317 65.4317 35.634 65.4287H35.6324C35.6324 65.4287 35.6294 65.4325 35.6271 65.4332H35.6278ZM34.9317 65.2252L35.9828 65.2213C35.8558 65.2756 35.7388 65.346 35.634 65.4287C35.738 65.3904 35.8489 65.3667 35.966 65.3667C36.4938 65.3667 36.9199 65.7936 36.9199 66.3206C36.9199 66.8477 36.4931 67.2746 35.966 67.2746C35.5391 67.2746 35.1826 66.9938 35.061 66.6083V66.694C35.1321 67.5056 35.8818 68.1092 36.7363 68.0419C37.5893 67.9746 38.2235 67.2608 38.1516 66.4484C38.1019 65.8899 37.7316 65.4287 37.2259 65.219L38.1952 65.2152L38.1906 63.3142L37.6138 63.3157V57.2002C37.0485 56.9057 36.7203 56.2662 36.8473 55.6113C37.2083 55.6113 37.5327 55.7047 37.7492 55.8523C37.4157 56.5882 38.2465 57.367 38.2465 57.367C38.0904 56.5622 38.57 56.0298 38.57 56.0298C38.8179 55.6588 39.1744 55.3688 39.5799 55.1653C40.7955 54.5541 42.4517 54.7094 42.9466 55.6993C46.0832 54.8746 48.7798 51.7197 48.7798 51.7197L50.3244 54.3475C53.9451 54.3475 52.6867 51.6356 52.4488 51.3969C53.2819 51.3969 54.4554 52.0105 54.4554 53.3699C54.4554 56.7045 44.7612 57.1804 44.7612 61.228C44.7612 62.9278 46.4443 63.575 46.4443 63.575C46.4443 67.2654 43.9106 69.4595 42.1755 69.4595C39.4024 69.4595 37.2803 68.8987 37.2803 71.9205H38.2465C37.3292 72.8377 38.186 74.1849 38.186 74.1849C37.9925 73.2156 38.4591 72.4131 40.2293 72.4216L41.3348 72.4231C40.6325 73.1254 41.0418 74.1895 41.3646 74.5116C41.3723 72.9968 42.4241 72.4346 43.3613 72.4399H44.1615C43.9442 72.6572 44.2954 73.6532 44.8056 74.1635C44.8056 74.1635 44.4369 72.7253 46.0778 72.4399C50.231 71.717 46.3303 67.4444 52.6462 66.2686C52.6462 66.2686 49.5027 65.7928 49.5027 64.0723C49.5027 62.5094 52.347 61.4384 53.3278 61.4384C54.0966 61.3267 54.8302 61.3558 55.4614 61.4912C55.7161 63.9705 58.5658 63.8489 59.1831 63.8489C61.599 66.264 58.5711 70.1418 58.5711 70.1418C54.8639 70.1418 53.3966 70.6529 53.3966 72.8125H54.0981C53.7034 73.2065 53.9291 74.2943 54.1999 74.5643C54.1999 73.374 55.3336 73.042 56.7864 73.1192H57.5506C57.1796 73.4903 57.2438 74.396 57.6378 74.7893C57.6623 73.3266 58.7448 73.0779 59.5151 73.1192H60.1516C59.9129 73.3579 60.1531 74.1237 60.4775 74.4481C60.4775 74.4481 60.3773 73.1437 61.7474 73.1422C64.3477 73.1407 60.5708 67.5684 65.6482 62.058C61.1905 64.1205 58.8167 58.9621 58.8167 57.9706C61.1079 60.6535 68.5384 61.189 68.5384 56.6089C68.5384 52.9147 65.1112 51.1774 65.395 49.72C65.4952 48.6039 66.4323 47.7287 67.5745 47.7287C68.7832 47.7287 69.7616 48.7079 69.7616 49.9166C69.7616 50.8377 69.194 51.6234 68.39 51.947C68.3915 51.9454 68.3915 51.9454 68.3915 51.9454C68.39 51.947 68.3869 51.95 68.3861 51.9523C70.4953 51.1705 71.6749 49.1256 71.0285 47.4135C70.382 45.6999 68.152 44.9533 66.0467 45.7474C65.1655 46.0801 64.4479 46.6317 63.9568 47.2835C65.3483 43.3131 71.0139 42.4724 71.0139 38.7774C71.0139 32.587 62.2225 34.3205 63.5016 38.7789C63.5016 38.7116 63.5046 38.6458 63.5115 38.5815C63.7364 36.0608 68.2393 35.546 68.2393 38.8302C68.2393 41.637 62.4726 43.193 62.4726 46.9675C62.4726 50.7421 66.733 51.8146 66.733 55.8974C66.733 56.3825 66.4782 58.4763 63.6462 58.4763C60.8141 58.4763 59.6008 56.9493 58.8565 54.9542V54.9557C57.4642 52.269 57.9759 48.073 56.4092 46.3938L56.5331 44.6679C57.914 45.514 61.5738 43.5311 59.1678 40.5117C59.1678 41.9981 56.0718 41.9154 56.0718 39.1079C56.0718 35.3104 59.6222 37.2925 59.7951 38.1302C59.6238 36.7471 59.5595 35.8673 59.7898 35.0732C57.8734 35.6891 57.696 34.5836 57.9362 34.1545C58.2154 33.6587 58.5864 33.0819 59.3308 33.0819C60.4064 33.0819 60.339 33.4774 60.2824 34.0321C60.694 33.4109 60.8095 32.9435 61.7665 32.0086L61.7459 31.3056L62.3036 31.5129L62.8406 30.6454C62.263 29.4474 61.4789 30.0265 60.9006 28.5401C60.4178 28.4154 54.0958 27.8309 54.3146 24.8306C53.7546 24.8306 52.2315 26.7607 53.2627 27.7911H51.9485C51.2477 27.8753 49.6106 27.3849 48.558 29.5315C51.1467 26.9427 52.829 33.1179 48.0576 33.1179V33.1163H48.0592C47.3546 33.1194 46.7518 32.8249 46.7112 32.3284C46.2354 34.4138 49.2396 35.0618 49.2396 35.0618C49.2396 35.6822 47.7348 39.0337 47.0035 39.7642C47.4969 40.2577 47.6499 43.2351 45.3702 43.2351C46.1926 41.0135 43.7751 39.1301 41.4273 37.8839H41.4296C41.0058 37.7217 40.6004 37.5258 40.2248 37.291C38.7835 36.6323 37.6115 36.2613 37.6115 36.2613V34.5194C38.336 34.1636 39.1308 33.5363 39.957 32.486C40.6019 31.7003 40.95 30.6913 40.8559 29.6195C40.8444 29.4917 40.826 29.3663 40.8016 29.2408C40.7947 29.2026 40.7855 29.1643 40.7771 29.1261C40.7587 29.0404 40.7373 28.9547 40.7128 28.8706C40.7014 28.8285 40.6891 28.7887 40.6753 28.7466C40.6486 28.6609 40.6172 28.5783 40.5843 28.4972C40.5698 28.4628 40.5583 28.4292 40.5445 28.3947C40.4986 28.2876 40.4466 28.1821 40.3915 28.0795C40.3686 28.0375 40.3441 27.9985 40.3196 27.9571C40.2821 27.8952 40.2454 27.834 40.2056 27.7743C40.1727 27.7253 40.1398 27.6779 40.1054 27.6297C40.071 27.5831 40.035 27.5364 39.9983 27.4913C39.9585 27.44 39.9172 27.3887 39.8751 27.3398C39.8461 27.3084 39.8162 27.2763 39.7864 27.2457C39.677 27.1286 39.5623 27.0185 39.4414 26.9144C39.4299 26.9053 39.4184 26.893 39.407 26.8831C39.3381 26.8257 39.267 26.7714 39.1951 26.7178C39.1759 26.7048 39.1576 26.6903 39.1384 26.6773C39.0619 26.6222 38.9839 26.571 38.9028 26.5205C38.8975 26.5189 38.8929 26.5151 38.8875 26.512C38.1149 26.0377 37.1808 25.7906 36.1955 25.8687C35.9813 25.8855 35.7755 25.9222 35.5728 25.9674C34.2065 26.4906 33.2112 28.0918 33.2112 29.9867C33.2112 31.7715 34.0955 33.2938 35.341 33.902C35.3586 33.9066 35.3762 33.9135 35.3937 33.9181C34.8009 34.2486 34.3006 34.439 34.1873 34.439C34.2072 34.4513 34.2317 34.465 34.2585 34.4826C34.2654 34.4865 34.2722 34.4895 34.2807 34.4949C34.3036 34.5094 34.3312 34.524 34.3602 34.5393C34.3671 34.5438 34.374 34.5477 34.3809 34.5515C34.4176 34.5706 34.4589 34.5913 34.5018 34.6127C34.5086 34.615 34.517 34.6188 34.5247 34.6226C34.5622 34.6402 34.602 34.6563 34.6456 34.6747C34.6578 34.68 34.6685 34.6838 34.6823 34.6907C34.7871 34.7313 34.9026 34.7726 35.0304 34.8078C35.048 34.8124 35.0663 34.817 35.0839 34.8223C35.1344 34.8353 35.1864 34.8483 35.2407 34.8583C35.2599 34.8636 35.2775 34.8667 35.2966 34.8705C35.3647 34.8835 35.4351 34.8965 35.5077 34.9049C35.5131 34.9049 35.5192 34.9065 35.5253 34.9072C35.9767 34.9455 36.513 34.8323 36.513 34.8323V35.8428C36.4326 35.8428 35.7212 35.6126 35.5253 35.4175C35.5001 35.4228 35.4748 35.4259 35.4488 35.4305C34.6762 35.5575 34.1759 35.7939 33.9487 36.4831C33.7222 37.1732 33.9548 37.4233 34.3166 37.9076C34.0091 38.4523 33.2104 38.6565 34.2547 39.866C34.1797 40.3212 34.2753 41.0479 34.9378 41.269C35.1551 41.3417 35.3348 41.3799 35.5253 41.4136C35.917 41.4136 36.513 41.7418 36.513 42.5573V50.3351C36.8702 50.355 37.2588 50.4047 37.6107 50.4338V41.8933C38.017 41.9315 39.0711 42.0746 40.3013 42.5825C40.315 42.5894 40.3257 42.5986 40.3387 42.6062C40.3372 42.6047 40.3372 42.6047 40.3372 42.6039C40.4489 42.6192 40.5621 42.6407 40.6769 42.6758C41.4962 42.926 42.0057 43.639 41.8144 44.2678C41.6224 44.8967 40.8016 45.2011 39.9823 44.951C40.9546 46.8145 44.3275 45.9034 45.0627 44.3856C45.4207 44.3527 45.7397 44.9969 46.0388 45.6028C46.0388 45.6028 46.8834 45.9256 48.9757 45.9256C48.9757 45.9256 40.5063 51.3334 38.056 51.3334C37.0102 51.3334 34.6884 51.3334 34.6884 52.1252C34.0504 52.1252 33.1309 53.2092 33.1309 53.8281C33.7337 53.3584 34.2256 53.3584 34.2256 53.3584C34.7397 53.3584 35.0288 53.5122 35.0288 53.5122C34.8422 53.6988 33.9953 54.6512 33.9953 55.391C34.7029 54.6834 35.0112 54.6857 35.0112 54.6857C35.0112 54.6857 35.7518 54.5908 36.0142 54.8555C35.8359 55.0345 35.5246 55.6756 35.5246 56.4329C35.5246 56.4329 35.9621 55.5869 36.5122 55.5869V63.7158C36.5122 63.966 35.3907 64.2031 34.9294 64.2031M35.2729 40.6348C35.0656 40.6432 34.9661 40.3717 34.9638 40.2737C34.9592 40.1743 35.038 39.8974 35.2461 39.8905C35.7418 39.8729 36.734 40.1108 36.7386 40.2079C36.7417 40.3066 35.7701 40.618 35.2736 40.6356L35.2729 40.6348ZM34.9531 39.293C34.6655 39.2723 34.5714 38.883 34.5813 38.7475C34.5905 38.6114 34.7404 38.2411 35.0296 38.2618C35.7158 38.3123 37.0469 38.7919 37.0362 38.9273C37.027 39.0635 35.6393 39.3435 34.9531 39.2922V39.293ZM34.8361 37.574C34.5308 37.4937 34.5063 37.0569 34.5438 36.9131C34.5813 36.77 34.8169 36.4005 35.1214 36.4808C35.8482 36.6706 37.1831 37.4509 37.1456 37.5947C37.1081 37.7385 35.5628 37.763 34.8353 37.5733L34.8361 37.574ZM37.0836 32.73C37.2106 32.4286 37.1831 32.0193 37.1051 31.6307C37.0921 31.6307 37.0791 31.6322 37.0653 31.6322C36.1916 31.6322 35.484 30.9246 35.484 30.051C35.4702 29.9018 35.4924 29.758 35.5422 29.6249H35.5437C35.5437 29.6249 35.5437 29.618 35.5452 29.6172C35.7349 28.9555 36.3424 28.4682 37.0645 28.4682C37.9374 28.4682 38.6458 29.1758 38.6458 30.0502C38.6458 31.0592 37.9359 31.9872 37.0821 32.7292H37.0836V32.73Z" fill="#001489"/>
<path d="M60.8195 34.1032C61.2433 34.8124 62.0458 35.2553 62.9247 35.1727C64.1411 35.0595 65.0339 33.9816 64.9214 32.7637C64.9176 32.7216 64.9092 32.6803 64.9031 32.6375C64.7761 33.2663 64.0294 33.7995 63.0862 33.8875C62.3732 33.9548 61.7252 33.749 61.3465 33.3895C61.1622 33.6396 60.977 33.8898 60.8195 34.1032Z" fill="#FF0000"/>
<path d="M57.8657 30.0028L58.63 30.0426L58.2482 30.5674C58.2482 30.5674 57.7395 30.7296 57.8665 30.0036L57.8657 30.0028ZM56.0435 30.0028H57.1451C57.1451 30.0028 57.103 30.8902 57.9078 30.9705L57.738 31.2528C57.738 31.2528 55.5776 30.689 56.0435 30.0028Z" fill="white"/>
<path d="M37.1486 37.5886C37.1854 37.4448 35.8512 36.6652 35.1244 36.4747C34.8192 36.3944 34.5843 36.7631 34.5469 36.907C34.5094 37.0508 34.5339 37.4868 34.8391 37.5679C35.5658 37.7576 37.1112 37.7332 37.1494 37.5893L37.1486 37.5886ZM37.0385 38.9204C37.0492 38.7858 35.7181 38.3046 35.0319 38.2549C34.7442 38.2342 34.5943 38.6045 34.5836 38.7407C34.5736 38.8761 34.6677 39.2655 34.9554 39.2861C35.6408 39.3366 37.0285 39.0574 37.0385 38.9212V38.9204ZM35.5268 34.9011V35.4121C35.7219 35.6072 36.4334 35.8375 36.5145 35.8375V34.8269C36.5145 34.8269 35.9789 34.9401 35.5268 34.9019V34.9011ZM35.2476 39.8805C35.0395 39.8874 34.9607 40.1651 34.9653 40.2638C34.9676 40.3617 35.0678 40.6333 35.2744 40.6249C35.7716 40.6073 36.7424 40.2952 36.7394 40.1972C36.7355 40.1009 35.7433 39.8622 35.2468 39.8798L35.2476 39.8805ZM34.2263 53.3515C33.4047 54.4156 33.9961 55.3834 33.9961 55.3834C33.9961 54.6436 34.8421 53.6912 35.0296 53.5045C35.0296 53.5045 34.7404 53.3507 34.2263 53.3507V53.3515ZM36.8449 55.6098C36.7179 56.2647 37.0461 56.9042 37.6115 57.1987C37.7316 57.2607 37.8609 57.3089 37.9993 57.3372C38.0567 57.3487 38.1125 57.3556 38.1684 57.3617C38.1944 57.3617 38.2189 57.3632 38.2441 57.3655C38.2441 57.3655 37.4133 56.5867 37.7469 55.8508C37.5296 55.7024 37.206 55.6098 36.8449 55.6098ZM35.3432 33.8974C34.097 33.2892 33.2135 31.7669 33.2135 29.9821C33.2135 28.0872 34.2087 26.486 35.575 25.9628C33.5225 26.4164 32.0744 28.2417 32.2557 30.2988C32.4079 32.0408 33.6816 33.4338 35.344 33.8974H35.3432ZM48.5579 29.5285C49.8783 29.2798 50.3274 30.4541 50.3274 30.8734C50.3274 32.4653 49.0873 33.1087 48.0584 33.1141V33.1156C52.8297 33.1156 51.1467 26.9405 48.5587 29.5292L48.5579 29.5285ZM45.3702 43.232C47.6491 43.232 47.4961 40.2554 47.0034 39.7612C47.7348 39.0306 49.2396 35.6791 49.2396 35.0587C49.2396 35.0587 46.2316 34.4092 46.712 32.323V32.3192L46.6722 32.3139C45.8529 33.1783 46.3501 34.983 47.6506 35.432C47.6506 35.432 47.1488 37.4157 45.9095 38.6741C44.6771 38.6259 42.9474 38.463 41.4288 37.8808C43.7774 39.1278 46.1941 41.0104 45.3717 43.232H45.3702ZM36.467 28.9387C37.0576 28.8912 37.5763 29.3097 37.6252 29.872C37.675 30.4335 37.2351 30.9284 36.6453 30.9751C36.0539 31.0218 35.5345 30.6033 35.4863 30.0418C35.4863 30.9154 36.1939 31.6231 37.0676 31.6231C37.0798 31.6231 37.0936 31.6215 37.1073 31.6215C37.1861 32.0102 37.2129 32.4187 37.0859 32.7208C37.9397 31.9788 38.6496 31.0516 38.6496 30.0418C38.6496 29.1682 37.9412 28.4598 37.0683 28.4598C36.3423 28.4598 35.7319 28.9494 35.546 29.6157C35.6837 29.2485 36.0325 28.9738 36.4678 28.9379L36.467 28.9387ZM53.2627 27.7881C52.2323 26.7576 53.7554 24.8275 54.3146 24.8275C53.7011 24.8275 51.0488 26.5641 51.9484 27.7881H53.2627ZM39.983 44.9441C40.8023 45.1943 41.6232 44.889 41.8152 44.261C42.0072 43.6321 41.4977 42.9199 40.6776 42.669C40.5644 42.6346 40.4496 42.6116 40.3379 42.5971C41.5199 43.2718 41.5061 44.6243 39.9822 44.9441H39.983ZM37.6122 36.2575C37.6122 36.2575 38.7842 36.6285 40.2255 37.2872C39.9379 37.1059 39.6655 36.9054 39.4199 36.6752C38.6894 35.9828 38.1072 35.6057 37.6115 35.4144V36.2567L37.6122 36.2575ZM38.0567 51.3273C40.5063 51.3273 48.9764 45.9195 48.9764 45.9195C46.8841 45.9195 46.0395 45.5967 46.0395 45.5967C45.5668 45.843 44.5975 46.3288 42.532 47.5459C40.852 48.5366 39.7244 49.7866 38.1921 50.3328C37.9588 50.4162 37.7729 50.4368 37.6122 50.4277C37.2603 50.3986 36.8717 50.3489 36.5145 50.329V42.5512C36.5145 41.7357 35.9193 41.4075 35.5268 41.4075V50.4567C34.8636 50.8071 34.5384 51.2455 34.3579 51.6532C34.3579 51.6532 33.0964 51.4857 33.1324 53.822C33.1324 53.2031 34.0519 52.1191 34.6899 52.1191C34.6899 51.3273 37.0109 51.3273 38.0575 51.3273H38.0559H38.0567ZM59.1816 63.8459C58.5642 63.8459 55.7146 63.9675 55.4598 61.4881C54.8287 61.3527 54.095 61.3236 53.3262 61.4353C55.3374 65.2757 57.5215 65.307 58.0937 65.3361C58.985 66.3283 58.6851 69.6798 57.4014 69.6125C52.6974 69.3623 52.8687 72.2227 53.3958 72.8087C53.3958 70.6491 54.8631 70.138 58.5703 70.138C58.5703 70.138 61.5982 66.261 59.1823 63.8451L59.1816 63.8459ZM60.1501 73.1162H59.5136C59.4593 74.1428 60.4775 74.445 60.4775 74.445C60.1516 74.1199 59.9129 73.3541 60.1516 73.1162H60.1501ZM54.1976 74.5613C53.9267 74.2912 53.7011 73.2034 54.0958 72.8094H53.3943C53.3362 73.9217 54.1976 74.5613 54.1976 74.5613ZM68.2392 38.8271C68.2392 35.5422 63.7341 36.0586 63.5115 38.5808C63.7112 36.7318 66.7215 36.4602 66.7215 38.7759C66.7215 41.0915 61.1063 42.7386 61.1063 46.7832C61.1063 51.2416 65.5648 51.6532 65.1142 55.7291C65.0377 56.4337 64.2826 57.3563 63.1871 57.3563C60.8386 57.3563 59.5855 56.361 58.8564 54.9519C59.6008 56.947 60.9135 58.474 63.6461 58.474C66.3787 58.474 66.7329 56.3802 66.7329 55.8952C66.7329 51.8123 62.4726 50.8446 62.4726 46.9652C62.4726 43.0859 68.2392 41.6339 68.2392 38.8279V38.8271ZM35.012 54.6796C35.012 55.938 35.5261 56.4261 35.5261 56.4261C35.5261 55.6695 35.8367 55.0276 36.0157 54.8486C35.7525 54.5839 35.0127 54.6788 35.0127 54.6788L35.012 54.6796ZM67.5721 47.728C66.43 47.728 65.4936 48.6031 65.3926 49.7193C65.4454 49.4507 65.6244 49.1906 65.9733 48.9298C67.283 47.9559 69.8511 49.9159 68.3876 51.9447C69.1917 51.6218 69.7593 50.8362 69.7593 49.9143C69.7593 48.7056 68.7809 47.7264 67.5721 47.7264V47.728ZM57.5483 73.1177H56.784C56.7075 74.5705 57.6355 74.7877 57.6355 74.7877C57.2415 74.3938 57.1772 73.4888 57.5483 73.1177ZM35.9644 65.3659C35.8466 65.3659 35.7357 65.3896 35.6316 65.4279C35.2683 65.7079 35.0472 66.1355 35.0602 66.6075C35.1818 66.9931 35.5391 67.2738 35.9652 67.2738C36.493 67.2738 36.9191 66.847 36.9191 66.3199C36.9191 65.7928 36.4923 65.3659 35.9652 65.3659H35.9644ZM41.3325 72.4223L40.227 72.4208C40.2186 74.1918 41.3623 74.5108 41.3623 74.5108C41.0395 74.188 40.6302 73.1246 41.3325 72.4223ZM44.7582 61.2288C44.7582 57.1819 54.4523 56.7045 54.4523 53.3706C54.4523 52.0112 53.2788 51.3977 52.4457 51.3977C52.6844 51.6364 53.942 54.3483 50.3213 54.3483C47.047 55.443 39.9157 61.6434 44.866 63.7915C44.8622 64.415 44.7803 69.0532 41.806 68.6868C37.5227 68.1582 36.4548 69.9299 37.2772 71.9213C37.2772 68.8995 39.3993 69.4602 42.1724 69.4602C43.9075 69.4602 46.4412 67.267 46.4412 63.5758C46.4412 63.5758 44.7582 62.9286 44.7582 61.2288ZM36.5137 63.7097V55.5807C35.9644 55.5807 35.5261 56.4268 35.5261 56.4268V63.3631V63.3195L34.9248 63.3211L34.9301 64.1962C35.3914 64.1962 36.5129 63.9591 36.5129 63.7089L36.5137 63.7097ZM38.1837 74.1857C38.1837 74.1857 37.3261 72.8393 38.2441 71.9213H37.2779C36.8893 73.6035 38.1837 74.1857 38.1837 74.1857ZM44.1599 72.4399H43.3597C43.3528 73.6892 44.8041 74.1635 44.8041 74.1635C44.293 73.6532 43.9427 72.6572 44.1599 72.4399Z" fill="#6672B8"/>
<path d="M91.9039 58.1864L91.8244 58.0341L91.7701 57.8696C91.5941 57.3066 91.2636 56.2593 90.4022 56.2149C90.172 56.2027 89.9471 56.2685 89.7221 56.4108C89.742 56.1453 89.6946 55.9166 89.5768 55.7192C89.1323 54.9787 88.0537 55.1806 87.4738 55.2885L87.3024 55.3183H87.1295C86.5413 55.3115 85.4435 55.3023 85.1329 56.1078C85.051 56.322 85.0441 56.5561 85.1099 56.8147C84.8636 56.713 84.631 56.6877 84.4069 56.7397C83.5654 56.9333 83.4223 58.0226 83.3474 58.6071L83.3221 58.7777L83.2693 58.9422C83.0811 59.5014 82.7331 60.5433 83.404 61.0857C83.583 61.2303 83.8033 61.3099 84.068 61.3267C83.8951 61.5294 83.7995 61.7429 83.7796 61.9716C83.7046 62.8315 84.6953 63.3035 85.2285 63.5567L85.383 63.6332L85.5238 63.7334C85.9981 64.0838 86.8794 64.7363 87.6023 64.2681C87.7951 64.1427 87.9389 63.9583 88.0368 63.7105C88.1768 63.9377 88.349 64.0945 88.5616 64.1848C89.3565 64.5214 90.1115 63.7258 90.517 63.2974L90.6379 63.1734L90.7771 63.0701C91.2583 62.7282 92.1526 62.0917 91.9269 61.2586C91.8672 61.036 91.7364 60.8425 91.5306 60.6719C91.7907 60.6099 91.9927 60.4921 92.1442 60.3184C92.711 59.6674 92.1862 58.7027 91.9039 58.1848V58.1864Z" fill="white"/>
<path d="M86.8519 58.3982C83.9112 55.4828 86.9069 55.8607 87.3453 55.8217C87.7836 55.7842 90.6662 54.893 88.2847 58.2666C88.1524 58.2177 88.0147 58.1817 87.8693 58.168C87.7033 57.6608 87.5342 57.1436 87.5342 57.1436L87.4203 57.1543C87.4203 57.1543 87.3438 57.6914 87.2688 58.2192C87.1211 58.259 86.9819 58.321 86.8519 58.399V58.3982ZM87.1953 61.4307C86.7937 61.8438 86.3408 62.312 86.3408 62.312L86.2421 62.2531C86.2421 62.2531 86.4387 61.6449 86.6139 61.1002C86.4755 60.9801 86.3645 60.8378 86.2735 60.6848C82.4339 62.0068 85.2668 62.9745 85.6416 63.2002C86.0165 63.4235 88.186 65.4577 87.5717 61.5026C87.4432 61.4919 87.317 61.4705 87.1953 61.4315V61.4307ZM86.0409 59.9818C86.0371 59.9367 86.0425 59.8923 86.0425 59.8471C85.5422 59.6023 85.0082 59.3399 85.0082 59.3399L85.0334 59.2267C85.0334 59.2267 85.6087 59.2252 86.1557 59.2252C86.2223 59.0569 86.3079 58.8962 86.4273 58.7547L86.4288 58.7532C83.9563 55.4461 83.9119 58.4617 83.8132 58.8909C83.7146 59.3185 82.4385 62.0351 86.0769 60.1753C86.0639 60.1111 86.0471 60.0483 86.0409 59.9818ZM89.2731 60.4285C89.2096 60.5923 89.127 60.7499 89.013 60.8906C89.2808 61.397 89.5799 61.9609 89.5799 61.9609L89.4926 62.0366C89.4926 62.0366 88.9648 61.6549 88.4989 61.3167C88.3773 61.3817 88.2457 61.4261 88.1103 61.459C88.1937 65.4562 89.9761 63.0778 90.3059 62.7924C90.6356 62.5048 93.2458 61.0673 89.2746 60.4301L89.2731 60.4285ZM91.357 58.2299C91.1841 57.8245 90.6187 54.8639 88.759 58.5459C88.9051 58.666 89.0382 58.8014 89.1377 58.9643C89.677 58.8702 90.2447 58.7715 90.2447 58.7715L90.2898 58.8771C90.2898 58.8771 89.8071 59.229 89.3573 59.5572C89.3641 59.6008 89.3779 59.6429 89.3825 59.6873C89.3886 59.7576 89.3825 59.8265 89.381 59.8961C93.2481 61.075 91.5276 58.6323 91.3562 58.2299H91.357ZM87.626 58.8458C87.3629 58.8687 87.1227 58.9934 86.9528 59.1961C86.783 59.3996 86.7019 59.6567 86.7241 59.9198C86.7715 60.4653 87.2542 60.8684 87.7974 60.821C88.0621 60.798 88.3015 60.6741 88.4714 60.4706C88.6412 60.2671 88.7223 60.0116 88.7001 59.7477C88.6519 59.2022 88.1692 58.7976 87.6253 58.8458H87.626Z" fill="#FF0000"/>
<path d="M83.0382 40.8169C83.4529 43.1693 85.7035 44.7437 88.0544 44.3298C90.406 43.9159 91.9819 41.6653 91.5673 39.3137C91.1519 36.9621 88.902 35.3861 86.5511 35.8C84.1995 36.2162 82.6228 38.466 83.0382 40.8169Z" fill="white"/>
<path d="M85.5711 39.0765C85.6086 39.0528 85.6744 39.0099 85.7563 38.9556C86.1105 38.7223 86.8066 38.261 86.825 38.2465C86.9221 38.1807 87.0162 38.1164 87.108 38.0567C87.4171 37.8479 87.694 37.6674 87.9549 37.5182C88.0543 37.4608 88.1522 37.408 88.2486 37.3598C88.6633 37.151 89.0611 37.024 89.5293 36.9834C89.8896 37.2435 90.204 37.5664 90.4565 37.9397C89.3809 38.3291 88.3297 38.9503 86.1395 40.312C86.0148 40.022 85.5956 39.1316 85.5711 39.0773V39.0765ZM91.0042 39.1981C90.9223 38.8493 90.7961 38.5226 90.6293 38.222C89.5514 38.603 88.5087 39.2203 86.2665 40.6126C86.3445 40.8008 86.5366 41.2874 86.5809 41.3983C88.7375 40.8766 90.3876 40.0458 91.0042 39.1989V39.1981ZM87.707 37.2887C86.942 36.6797 85.9827 36.7012 85.2858 36.8396C84.9002 37.0821 84.5651 37.3904 84.2913 37.7462C85.0272 37.4945 85.9827 37.3598 86.8227 37.8571C87.1417 37.6429 87.4301 37.4516 87.707 37.2887ZM91.0164 40.8942C91.109 40.4849 91.1297 40.0549 91.0776 39.6189C90.2063 40.5637 88.3764 41.2889 86.7026 41.7028C86.8403 42.0424 87.2006 42.9375 87.2166 42.9757C87.2893 42.9581 88.2548 42.7065 88.6748 42.5695C88.7949 42.5297 88.915 42.4892 89.032 42.4456C89.3089 42.3431 89.5759 42.2253 89.823 42.0883C89.9462 42.0202 90.0617 41.9476 90.1726 41.8688C90.5383 41.6125 90.8336 41.295 91.0164 40.8942ZM86.6544 43.8127C87.0254 43.8769 87.411 43.8869 87.8011 43.8348C88.0941 43.6107 88.3672 43.323 88.5409 42.9513C88.1844 43.0606 87.8325 43.1517 87.5089 43.2351L87.1616 43.3261C87.1616 43.3261 86.9221 43.6038 86.6544 43.8127ZM84.2867 38.8554C84.3892 38.8462 84.4971 38.8393 84.6118 38.8371C84.8252 38.8325 85.057 38.8393 85.3095 38.8631L86.5182 38.0629C85.6407 37.6337 84.6371 37.9213 83.9784 38.2151C83.8476 38.4507 83.7428 38.7016 83.6632 38.961C83.8476 38.9158 84.0488 38.8753 84.2859 38.8554H84.2867ZM83.5722 39.3221C83.4819 39.7734 83.4697 40.247 83.553 40.7266C83.8017 42.135 84.7992 43.2251 86.063 43.6619C85.2552 42.7042 84.3173 41.1688 84.2836 39.1828C84.0029 39.2111 83.768 39.2616 83.5714 39.3221H83.5722ZM89.1108 36.7195C88.381 36.324 87.5204 36.1603 86.6421 36.3156C86.4761 36.3454 86.3162 36.3875 86.1594 36.4372C86.7768 36.4518 87.4446 36.6193 88.0107 37.1188C88.3703 36.9322 88.7237 36.796 89.1108 36.7195ZM84.608 39.1629C84.6371 41.1543 85.6239 42.6758 86.4188 43.5809C86.5939 43.4562 86.7722 43.297 86.9191 43.102L86.3836 41.7785L86.2596 41.4717C86.2596 41.4717 86.0538 40.9538 85.9865 40.7863C85.9444 40.6838 85.9031 40.5859 85.8595 40.4833C85.718 40.1506 85.5497 39.7826 85.2613 39.1844C85.0234 39.1637 84.8046 39.1561 84.6057 39.1629H84.608ZM88.4284 43.6987C88.762 43.5961 89.0756 43.4516 89.3594 43.2687C89.4964 43.0492 89.6302 42.7914 89.7251 42.5007C89.4727 42.6231 89.208 42.7263 88.9425 42.8197C88.8308 43.167 88.6457 43.4554 88.4284 43.6987ZM89.9668 42.7814C90.2239 42.5282 90.4457 42.239 90.6225 41.9246C90.4672 42.057 90.2989 42.1778 90.1191 42.2857C90.0824 42.4609 90.0273 42.6246 89.9676 42.7822L89.9668 42.7814Z" fill="#FF0000"/>
<path d="M17.2003 58.9422L17.1476 58.7778L17.1231 58.6072C17.0466 58.0227 16.9051 56.9333 16.0635 56.7398C15.8394 56.6878 15.6068 56.713 15.3605 56.8147C15.4271 56.5569 15.4194 56.3228 15.3376 56.1079C15.0285 55.3031 13.9307 55.3123 13.3409 55.3184H13.168L12.9974 55.2886C12.4175 55.1815 11.3381 54.9795 10.8944 55.7193C10.7766 55.9166 10.7284 56.1461 10.7491 56.4116C10.5241 56.2685 10.2992 56.2035 10.0697 56.215C9.20833 56.2594 8.87861 57.3074 8.70113 57.8697L8.64682 58.0342L8.56725 58.1864C8.28497 58.7043 7.76017 59.6682 8.32704 60.32C8.47851 60.4929 8.68124 60.6107 8.94058 60.6734C8.73479 60.8433 8.60398 61.0376 8.5443 61.2602C8.32016 62.0933 9.21521 62.729 9.69487 63.0717L9.8341 63.175L9.95498 63.2989C10.3597 63.7273 11.1147 64.5237 11.9096 64.1863C12.1215 64.0961 12.2951 63.9392 12.4344 63.7113C12.533 63.9591 12.6761 64.1443 12.8689 64.2697C13.5926 64.7387 14.4739 64.0861 14.9474 63.735L15.0882 63.6348L15.2435 63.5583C15.7759 63.3043 16.7673 62.8323 16.6924 61.9732C16.6725 61.7444 16.5761 61.5302 16.404 61.3283C16.6702 61.3114 16.8897 61.2319 17.0688 61.0873C17.7397 60.5449 17.3901 59.5022 17.2026 58.9438H17.2011L17.2003 58.9422Z" fill="white"/>
<path d="M14.3913 60.177C14.4043 60.1127 14.4211 60.05 14.428 59.9834C14.4318 59.9383 14.4265 59.8947 14.4265 59.8488C14.9268 59.604 15.4623 59.3416 15.4623 59.3416L15.4363 59.2283C15.4363 59.2283 14.8618 59.2268 14.3133 59.2268C14.2482 59.0593 14.1618 58.8986 14.0424 58.7563L14.0409 58.7548C16.5134 55.4477 16.557 58.4633 16.6565 58.8925C16.7544 59.3202 18.0312 62.0367 14.3928 60.177H14.3913ZM12.5989 58.1688C12.7649 57.6616 12.9332 57.1445 12.9332 57.1445L13.0472 57.1552C13.0472 57.1552 13.1237 57.6922 13.1986 58.2201C13.3463 58.2598 13.4855 58.3226 13.6156 58.3998C16.557 55.4844 13.5597 55.8616 13.1214 55.8225C12.6838 55.7851 9.80125 54.8938 12.182 58.2675C12.3143 58.2185 12.452 58.1826 12.5981 58.1688H12.5989ZM11.0865 59.9C11.0842 59.8304 11.078 59.7616 11.0849 59.6912C11.0888 59.646 11.1025 59.6047 11.1094 59.5604C10.6596 59.2322 10.1776 58.8803 10.1776 58.8803L10.2212 58.7747C10.2212 58.7747 10.7889 58.8734 11.329 58.9675C11.4284 58.8045 11.5623 58.6684 11.7084 58.5483C9.84792 54.8678 9.28258 57.8276 9.10969 58.2323C8.93756 58.6347 7.21783 61.0774 11.0849 59.8985L11.0865 59.9ZM14.1939 60.6872C14.1021 60.8402 13.992 60.9825 13.8535 61.1034C14.0294 61.6481 14.2253 62.2555 14.2253 62.2555L14.1274 62.3144C14.1274 62.3144 13.6745 61.847 13.2736 61.4331C13.152 61.4729 13.025 61.4943 12.8965 61.5042C12.2822 65.4586 14.4517 63.4252 14.8266 63.2018C15.2022 62.9761 18.035 62.0084 14.1939 60.6865V60.6872ZM11.97 61.3199C11.5026 61.658 10.9755 62.0397 10.9755 62.0397L10.8891 61.964C10.8891 61.964 11.1874 61.4002 11.4552 60.8938C11.342 60.753 11.2586 60.5962 11.1951 60.4317C7.22318 61.069 9.83338 62.5072 10.1639 62.794C10.4936 63.0794 12.2753 65.4578 12.3587 61.4599C12.2233 61.427 12.0917 61.3826 11.97 61.3183V61.3199ZM13.5161 59.2008C13.3455 58.9981 13.1068 58.8742 12.8429 58.8504C12.299 58.803 11.8163 59.2077 11.7696 59.7524C11.7467 60.0155 11.8278 60.2711 11.9976 60.4753C12.1682 60.6788 12.4069 60.802 12.6716 60.8257C13.2155 60.8731 13.6982 60.47 13.7449 59.9245C13.7678 59.6613 13.6867 59.4035 13.5161 59.2008Z" fill="#FF0000"/>
<path d="M13.4487 35.8C11.0971 35.3861 8.84721 36.9628 8.43258 39.3137C8.01794 41.6653 9.59309 43.9152 11.9455 44.3298C14.2971 44.7437 16.5478 43.1693 16.9616 40.8169C17.3778 38.4653 15.8003 36.2161 13.4487 35.8Z" fill="white"/>
<path d="M13.8602 40.3112C11.67 38.9495 10.6197 38.3291 9.54331 37.9389C9.79576 37.5656 10.1102 37.2427 10.4705 36.9826C10.9387 37.0232 11.3357 37.1502 11.7504 37.359C11.8467 37.4065 11.9439 37.4592 12.0441 37.5174C12.305 37.6666 12.5811 37.8479 12.891 38.0559C12.9828 38.1171 13.0769 38.1799 13.1748 38.2457C13.1939 38.2602 13.8893 38.7215 14.2435 38.9548C14.3254 39.0091 14.3912 39.0512 14.4294 39.0757C14.4042 39.13 13.9849 40.0205 13.8602 40.3104V40.3112ZM13.4196 41.3975C13.464 41.2873 13.6567 40.8 13.734 40.6118C11.4918 39.2195 10.4498 38.6022 9.37119 38.2212C9.20441 38.5218 9.07742 38.8485 8.99633 39.1973C9.61369 40.0442 11.263 40.875 13.4196 41.3967V41.3975ZM13.1771 37.8563C14.0171 37.359 14.9718 37.4937 15.7085 37.7454C15.4346 37.3896 15.1003 37.0813 14.714 36.8388C14.0178 36.7011 13.0577 36.6789 12.2927 37.2879C12.5697 37.4501 12.8588 37.6413 13.1771 37.8563ZM9.82636 41.8687C9.93729 41.9475 10.0528 42.0202 10.176 42.0883C10.4238 42.2252 10.6901 42.343 10.967 42.4456C11.084 42.4892 11.2041 42.5312 11.3242 42.5695C11.7442 42.7064 12.7104 42.9581 12.7831 42.9757C12.7992 42.9374 13.1595 42.0432 13.2972 41.7027C11.6241 41.2881 9.79423 40.5636 8.92213 39.6189C8.87011 40.0549 8.89076 40.4856 8.98333 40.8941C9.16616 41.295 9.46146 41.6125 9.82713 41.8687H9.82636ZM12.8382 43.3245L12.4909 43.2335C12.1673 43.1509 11.8154 43.0591 11.4589 42.9497C11.6333 43.3207 11.9064 43.6091 12.1994 43.8333C12.5903 43.8853 12.9751 43.8753 13.3469 43.8111C13.0799 43.6022 12.8397 43.3245 12.8397 43.3245H12.8382ZM16.3366 38.9602C16.2578 38.7001 16.153 38.4492 16.0214 38.2143C15.3627 37.9198 14.359 37.6321 13.4808 38.0621L14.6895 38.8623C14.942 38.8393 15.1745 38.8324 15.3872 38.8363C15.5019 38.8385 15.6098 38.8447 15.7131 38.8546C15.9502 38.8753 16.1514 38.915 16.3358 38.9602H16.3366ZM15.7161 39.182C15.6825 41.168 14.7446 42.7034 13.936 43.6611C15.1998 43.2236 16.1973 42.1334 16.446 40.7258C16.5309 40.2462 16.5171 39.7719 16.4268 39.3213C16.2302 39.2608 15.9961 39.2103 15.7154 39.182H15.7161ZM11.9898 37.1196C12.5559 36.6193 13.2238 36.4517 13.8403 36.438C13.6835 36.3882 13.5244 36.3454 13.3576 36.3163C12.4794 36.161 11.618 36.3247 10.889 36.7202C11.2776 36.7983 11.6302 36.9329 11.989 37.1196H11.9898ZM14.7362 39.1851C14.4485 39.7833 14.2795 40.1513 14.1379 40.4841C14.0943 40.5866 14.053 40.6845 14.0117 40.787C13.9444 40.9546 13.7378 41.4725 13.7378 41.4725L13.6139 41.7792L13.0792 43.1027C13.2276 43.2978 13.4051 43.4569 13.5795 43.5816C14.3743 42.6758 15.3612 41.1542 15.3902 39.1637C15.1906 39.1568 14.9718 39.1637 14.7339 39.1851H14.7362ZM11.0573 42.8196C10.7918 42.7263 10.5263 42.6223 10.2747 42.5006C10.3688 42.7913 10.5034 43.0491 10.6403 43.2687C10.9249 43.4515 11.2378 43.5954 11.5713 43.6986C11.3533 43.4554 11.1689 43.1669 11.0565 42.8196H11.0573ZM9.88221 42.2864C9.70243 42.1793 9.53413 42.0585 9.37884 41.9253C9.55479 42.2405 9.77664 42.5289 10.0344 42.7822C9.97324 42.6246 9.91893 42.4608 9.88297 42.2857L9.88221 42.2864Z" fill="#FF0000"/>
<path d="M22.6625 77.5472C22.983 77.854 23.7526 78.5876 23.7526 78.5876L22.9348 79.4467C22.9348 79.4467 22.1652 78.7123 21.8447 78.4063C21.4614 78.8079 20.4103 79.9088 20.4103 79.9088L19.1687 78.7253L22.4399 75.295L22.7528 74.9661L25.1901 77.2902L24.3723 78.15C24.3723 78.15 23.5216 77.3391 23.1743 77.0086C22.97 77.2244 22.866 77.3322 22.661 77.5472H22.6625ZM29.0885 81.3562C29.0885 81.9268 28.9019 82.4975 28.5446 82.9994C28.0986 83.6282 27.4614 84.0406 26.753 84.1599C26.0951 84.2708 25.4242 84.1125 24.8649 83.7154C24.3088 83.3192 23.9416 82.7408 23.8306 82.0844C23.7113 81.3745 23.8918 80.6378 24.3394 80.0082C24.7869 79.3786 25.4234 78.9655 26.1325 78.8462C26.7897 78.736 27.4575 78.8928 28.0137 79.2876C28.5729 79.6854 28.9416 80.266 29.0526 80.9247C29.0771 81.0662 29.0893 81.2123 29.0893 81.3554L29.0885 81.3562ZM27.0987 81.9712C27.3657 81.5964 27.9211 80.6791 27.3267 80.2553C26.7576 79.8506 26.1165 80.5713 25.786 81.0372C25.454 81.503 24.9843 82.3445 25.5527 82.7477C26.1478 83.1715 26.8318 82.3453 27.0995 81.9705L27.0987 81.9712ZM33.9624 85.8161C33.6151 86.5046 33.0467 87.0073 32.3643 87.2314C31.7309 87.4402 31.0446 87.3852 30.4326 87.0746C29.8237 86.767 29.3731 86.2499 29.165 85.6172C28.9401 84.9341 29.009 84.179 29.357 83.4882C30.0547 82.1074 31.5702 81.565 32.8822 82.2275C34.1957 82.8923 34.6608 84.4345 33.9624 85.8169V85.8161ZM32.3788 85.0159C32.6588 84.4628 32.7636 83.9457 32.6611 83.6313C32.6114 83.4783 32.5119 83.3681 32.3467 83.2855C31.724 82.9703 31.1976 83.7789 30.9406 84.2892C30.7914 84.5845 30.6139 85.0136 30.6139 85.3824C30.6139 85.6478 30.7065 85.8842 30.9674 86.0158C31.1311 86.0977 31.2795 86.1137 31.4325 86.0632C31.7462 85.9607 32.1004 85.569 32.3796 85.0152L32.3788 85.0159ZM35.5895 84.1247L35.3478 84.8155C35.3478 84.8155 35.9652 85.0328 36.1534 85.0963C35.9177 85.771 34.8268 88.8785 34.8268 88.8785L36.4448 89.4461C36.4448 89.4461 37.5342 86.3394 37.7713 85.6662C37.9588 85.7305 38.5761 85.9477 38.5761 85.9477L38.9693 84.8277L35.7403 83.6963L35.5888 84.1255L35.5895 84.1247ZM43.6749 87.1886C43.6749 87.2941 43.6642 87.3951 43.6451 87.4861C43.5709 87.8365 43.3918 88.118 43.1424 88.3169C43.3215 88.5587 43.4201 88.8425 43.4201 89.1539C43.4201 89.2656 43.4079 89.3818 43.3834 89.4989C43.2916 89.9326 43.0552 90.2937 42.7156 90.5148C42.4494 90.69 41.9819 90.8644 41.2705 90.7152L39.0474 90.247L40.025 85.6088L40.1184 85.1644L42.3032 85.6241C43.3375 85.8421 43.6757 86.5957 43.6757 87.1886H43.6741H43.6749ZM41.7157 89.0215C41.7157 88.8655 41.6606 88.6551 41.373 88.5946C41.373 88.5946 41.2521 88.5686 41.1573 88.5495C41.0869 88.883 41.0402 89.1064 40.9691 89.44C41.0685 89.4599 41.1527 89.479 41.1527 89.479C41.3363 89.5188 41.4786 89.5119 41.5528 89.4637C41.6331 89.4117 41.6767 89.2724 41.6996 89.1653C41.7065 89.134 41.7149 89.0827 41.7149 89.0215H41.7157ZM41.4013 87.3875C41.4656 87.4005 41.5137 87.4119 41.5137 87.4119C41.8917 87.4907 41.9314 87.3025 41.9605 87.1656C41.9697 87.1159 41.9758 87.0707 41.9758 87.031C41.9758 86.9682 41.9636 86.917 41.9391 86.8787C41.8848 86.7969 41.744 86.728 41.5505 86.6821C41.49 86.9667 41.4617 87.1059 41.4021 87.3875H41.4013ZM46.3348 86.3807L43.9618 91.2393L45.3158 91.3433C45.3158 91.3433 45.6838 90.5706 45.8299 90.2616C46.1153 90.2845 46.4037 90.3067 46.6844 90.3281C46.7885 90.6525 47.0539 91.4772 47.0539 91.4772L48.8578 91.6156L46.8428 85.3694L46.3348 86.3799V86.3807ZM51.686 90.2601C51.6554 89.5486 51.52 86.3157 51.52 86.3157L51.0664 86.3348L49.8064 86.3884L50.0237 91.5766L53.4547 91.4336L53.4042 90.1889C53.4042 90.1889 52.1772 90.2402 51.686 90.2608V90.2601ZM56.3816 89.7628C56.2715 89.0598 55.7696 85.862 55.7696 85.862L55.3213 85.9332L54.0751 86.1283L54.8807 91.2599L58.2735 90.7275L58.0807 89.4973C58.0807 89.4973 56.8674 89.6871 56.3809 89.7636L56.3816 89.7628ZM66.2089 86.308C66.1959 86.7556 65.932 87.1365 65.5227 87.301C65.2947 87.3898 65.0797 87.3898 64.8655 87.298C64.5312 87.1557 64.2222 86.7938 64.0378 86.3318C63.8183 85.7848 63.7769 85.3219 63.9177 84.9953C64.0172 84.7635 64.2084 84.5952 64.5022 84.4766C64.8219 84.3496 65.1249 84.4667 65.5395 84.7122L65.919 84.9371L66.5516 83.9388L66.1775 83.6932C65.4875 83.2411 64.6345 83.147 63.897 83.4423C63.2108 83.7162 62.6784 84.2257 62.3984 84.8782C62.1138 85.5423 62.1146 86.3027 62.403 87.021C62.9477 88.3835 64.4899 89.0544 65.8394 88.5151C66.811 88.1265 67.3633 87.3867 67.4329 86.3761L67.4658 85.9248L66.2257 85.833L66.2104 86.3057L66.2089 86.308ZM70.2045 84.892C69.8572 84.2708 68.2798 81.4449 68.2798 81.4449L67.8835 81.666L66.7834 82.2818L69.3156 86.8152L72.3136 85.1414L71.7062 84.052C71.7062 84.052 70.6337 84.6503 70.2053 84.8913L70.2045 84.892ZM73.5376 77.9022L73.1712 78.1699L72.5278 78.6419L74.6293 81.5092C74.7257 81.6407 74.7272 81.7249 74.7181 81.7761C74.6959 81.9246 74.5421 82.0837 74.4075 82.1831C74.3432 82.2298 74.1933 82.291 74.0425 82.2688C73.9354 82.2527 73.8475 82.1938 73.771 82.0906L71.6917 79.2562L70.3086 80.2691L72.3764 83.0897C72.6831 83.5074 73.0649 83.7544 73.5086 83.8225C74.0089 83.9006 74.5758 83.7292 75.1028 83.3413C76.1853 82.548 76.17 81.4931 75.6973 80.849L73.5369 77.9037L73.5376 77.9022ZM80.3187 77.9787C80.3133 78.2977 80.1986 78.7834 79.6761 79.2883L78.0443 80.8704L74.4296 77.1402L76.0331 75.5872C76.9259 74.7205 77.8951 75.0686 78.3273 75.5153C78.5767 75.7731 78.6999 76.0822 78.7236 76.402C79.1367 76.3806 79.5292 76.5274 79.8482 76.8579C80.1572 77.1769 80.324 77.5747 80.3171 77.9794L80.3187 77.9787ZM76.489 76.8013C76.6925 77.0109 76.7904 77.1119 76.9916 77.32C77.0375 77.2741 77.0735 77.2397 77.0735 77.2397C77.1959 77.1203 77.238 77.0262 77.238 76.9513C77.238 76.8564 77.1737 76.7891 77.1194 76.7332C77.0008 76.6116 76.8494 76.4693 76.489 76.8021V76.8013ZM77.8156 78.1699C78.0535 78.4139 78.2111 78.5784 78.4497 78.824C78.5232 78.7528 78.5844 78.6932 78.5844 78.6932C78.7198 78.5624 78.7955 78.44 78.7963 78.3527V78.3497C78.7963 78.2541 78.7076 78.1424 78.6311 78.0651C78.5507 77.981 78.2661 77.7339 77.9739 78.0154C77.9739 78.0154 77.8852 78.1018 77.8156 78.1699Z" fill="#FBB700"/>
<path d="M22.1805 77.5601C22.3212 77.694 23.2721 78.6005 23.2721 78.6005L22.9241 78.9655C22.9241 78.9655 21.9732 78.0589 21.8324 77.9251C21.6924 78.0719 20.3995 79.4283 20.3995 79.4283L19.6514 78.7145L22.6861 75.5314L22.7642 75.4487L24.7096 77.3039L24.3623 77.6688C24.3623 77.6688 23.3073 76.6643 23.165 76.5274C23.0396 76.659 22.3075 77.4286 22.1805 77.5601ZM28.7174 80.9828C28.7381 81.1067 28.7488 81.2322 28.7488 81.3576C28.7488 81.8579 28.5828 82.3598 28.2676 82.8035C27.8736 83.3574 27.3152 83.7215 26.6963 83.8248C26.1279 83.9204 25.548 83.785 25.063 83.4392C24.5811 83.0965 24.2628 82.5954 24.1664 82.0285C24.0616 81.4097 24.2215 80.7632 24.6155 80.2078C25.011 79.6524 25.5687 79.2891 26.1891 79.1842C26.756 79.0886 27.3328 79.2248 27.8155 79.5675C28.3005 79.9125 28.6211 80.4159 28.7167 80.9835V80.982L28.7174 80.9828ZM27.5248 79.9791C26.6841 79.3809 25.8357 80.3815 25.5098 80.8397C25.1839 81.298 24.516 82.4286 25.3568 83.0269C26.2029 83.6282 27.0513 82.6268 27.3779 82.1693C27.7038 81.7103 28.3709 80.5804 27.5256 79.9783L27.5248 79.9791ZM33.6609 85.6631C33.3541 86.2705 32.8561 86.7119 32.261 86.9085C31.7132 87.0883 31.1188 87.0393 30.5879 86.7708C30.06 86.5038 29.6699 86.0571 29.4909 85.5108C29.295 84.9126 29.3562 84.2509 29.6638 83.6427C30.2742 82.434 31.5923 81.9566 32.7307 82.5319C33.8713 83.108 34.2714 84.4551 33.6609 85.6631ZM31.5403 86.3875C32.0927 86.207 32.4935 85.5468 32.6848 85.1697C32.8753 84.7917 33.1683 84.078 32.9869 83.5257C32.9089 83.2885 32.746 83.1057 32.5019 82.9817C31.5816 82.5166 30.8924 83.6328 30.6384 84.1346C30.3852 84.638 29.8948 85.8543 30.8151 86.3195C31.0591 86.4434 31.3024 86.4663 31.5403 86.3868V86.3875ZM35.9146 84.2379L35.7846 84.6066C35.7846 84.6066 36.4287 84.8331 36.5901 84.8889C36.519 85.0916 35.2636 88.6711 35.2636 88.6711L36.239 89.0138C36.239 89.0138 37.4944 85.4343 37.5655 85.2316C37.7277 85.2875 38.3711 85.5124 38.3711 85.5124L38.5386 85.0365L35.9521 84.1285L35.9154 84.2363L35.9146 84.2379ZM43.3382 87.1862C43.3382 87.2719 43.3291 87.3507 43.3153 87.4165C43.2265 87.8388 42.9488 88.1241 42.5618 88.2343C42.8961 88.463 43.0827 88.7805 43.0827 89.1569C43.0827 89.2456 43.072 89.3366 43.0529 89.4284C42.9794 89.778 42.7997 90.0557 42.5327 90.2294C42.2236 90.4314 41.8235 90.4818 41.3454 90.3816L39.4543 89.9823L40.3601 85.6776L40.3838 85.5667L42.2351 85.9576C43.1118 86.142 43.3382 86.7509 43.3382 87.1847V87.1862ZM41.2918 86.2774C41.2544 86.4549 41.0386 87.4754 41.0011 87.6529C41.1633 87.6865 41.4464 87.7462 41.4464 87.7462C41.7126 87.802 42.1754 87.8097 42.2955 87.2375C42.3116 87.1648 42.3185 87.0967 42.3185 87.0332C42.3185 86.9039 42.2879 86.7899 42.2252 86.6958C42.115 86.5245 41.8993 86.4051 41.5871 86.3401C41.5871 86.3401 41.4081 86.3026 41.2918 86.2782V86.2774ZM40.8971 88.1455C40.8596 88.3291 40.6072 89.5218 40.5689 89.7038C40.7487 89.7406 41.0861 89.8125 41.0861 89.8125C41.3668 89.8714 41.5879 89.85 41.7432 89.749C41.8885 89.6549 41.9849 89.4858 42.0377 89.2364C42.0393 89.2257 42.0561 89.1477 42.0561 89.0383C42.0561 88.7858 41.9719 88.372 41.4471 88.2626C41.4471 88.2626 41.0524 88.1784 40.8979 88.1455H40.8971ZM46.7815 86.2804L48.3812 91.2392L47.3124 91.1566C47.3124 91.1566 46.9835 90.1353 46.9429 90.0076C46.8137 89.9968 45.7587 89.915 45.6264 89.905C45.5682 90.029 45.1115 90.986 45.1115 90.986L44.4919 90.9386L46.6454 86.5306L46.7815 86.2789V86.2804ZM45.8666 89.4185C46.0777 89.4353 46.5681 89.4736 46.7785 89.4896C46.7134 89.2785 46.5122 88.6367 46.409 88.3054C46.2575 88.6175 45.963 89.2219 45.8666 89.4193V89.4185ZM51.3631 90.6173C51.354 90.4031 51.1971 86.6721 51.1971 86.6721L51.0847 86.6767L50.1644 86.715L50.3533 91.2239L53.1043 91.1092L53.0813 90.5446C53.0813 90.5446 51.5613 90.6088 51.3639 90.6165L51.3631 90.6173ZM56.1024 90.156C56.0695 89.9448 55.4903 86.2552 55.4903 86.2552L55.3779 86.2728L54.4691 86.4174L55.1683 90.8743L57.8879 90.4467L57.7991 89.8897C57.7991 89.8897 56.2967 90.1254 56.1008 90.1567H56.1024V90.156ZM66.5531 86.3218C66.5355 86.9077 66.1912 87.405 65.6519 87.6207C65.3413 87.7454 65.0323 87.7431 64.7339 87.6146C64.3132 87.4348 63.9444 87.0156 63.7241 86.4625C63.4709 85.8291 63.4311 85.2775 63.6071 84.8659C63.7417 84.5515 64.001 84.3167 64.3789 84.1667C64.8754 83.9678 65.3291 84.1958 65.7162 84.4245L65.8118 84.4796L66.088 84.0451L65.9946 83.9839C65.3979 83.5922 64.6605 83.5096 64.0263 83.7636C63.425 84.0045 62.9576 84.449 62.7143 85.0189C62.4657 85.5988 62.4687 86.2659 62.7219 86.9001C63.1978 88.0889 64.5404 88.6749 65.7154 88.2044C66.5684 87.8632 67.0335 87.2436 67.0955 86.3592L67.1039 86.246L66.5569 86.2062L66.5531 86.3241V86.3225V86.3218ZM70.0767 85.3578C69.9719 85.1712 68.1504 81.9107 68.1504 81.9107L68.051 81.9666L67.2477 82.4149L69.4479 86.3547L71.8515 85.0121L71.5769 84.5186C71.5769 84.5186 70.2481 85.2607 70.0759 85.3571L70.0767 85.3578ZM73.4672 78.3802L73.3754 78.4475L73.0059 78.7176L74.9077 81.3102C75.0347 81.4831 75.0852 81.6575 75.0592 81.8304C75.0118 82.1372 74.7318 82.3736 74.614 82.46C74.4793 82.5595 74.2337 82.6444 73.9958 82.6076C73.7977 82.5778 73.6317 82.473 73.5009 82.294L71.6236 79.7335L70.7889 80.3455L72.6555 82.8907C72.9065 83.2327 73.2125 83.4346 73.5644 83.4882C74.1198 83.5731 74.643 83.2633 74.9047 83.0705C75.8043 82.4095 75.8158 81.5818 75.4287 81.0539L73.468 78.381L73.4672 78.3802ZM79.9797 77.9778C79.9743 78.3466 79.793 78.7069 79.4411 79.0466L78.0534 80.3914L74.9131 77.1524L76.2733 75.8351C77.0436 75.0876 77.7949 75.4564 78.0848 75.7563C78.2975 75.9743 78.4061 76.2352 78.4061 76.5052C78.4061 76.6146 78.3839 76.7248 78.3479 76.8349C78.81 76.6551 79.2568 76.7378 79.6064 77.0981C79.8558 77.3544 79.9843 77.6581 79.9789 77.9771L79.9797 77.9778ZM77.3657 76.4998C77.0222 76.1456 76.6489 76.174 76.2251 76.5855C76.2251 76.5855 76.0942 76.7125 76.0078 76.7951C76.1333 76.9267 76.86 77.6757 76.9855 77.8065C77.1056 77.6902 77.3137 77.489 77.3137 77.489C77.433 77.3727 77.5799 77.1845 77.5799 76.9581C77.5799 76.8166 77.5233 76.662 77.3657 76.5006V76.4998ZM78.8253 78.9425C79.0311 78.7421 79.1374 78.547 79.1405 78.3619V78.3542C79.1405 78.1836 79.0548 78.0138 78.8804 77.8325C78.8559 77.8065 78.2944 77.2411 77.7421 77.7766C77.7421 77.7766 77.4521 78.0574 77.3389 78.1683C77.469 78.3014 78.3166 79.1774 78.4466 79.3105C78.5568 79.2041 78.8253 78.9433 78.8253 78.9433V78.9425Z" fill="white"/>
<path d="M29.3594 19.7799C29.8283 21.4882 29.3479 23.0297 27.9678 24.2361C26.05 25.9137 23.1108 25.7018 21.4163 23.7633C19.5926 21.6771 19.7586 18.7571 21.8034 16.9678C22.8484 16.0528 24.3119 15.7132 25.7141 16.0589L26.3659 16.2196L25.9475 18.0334L25.3003 17.9057C24.4266 17.732 23.7817 17.7144 23.273 18.1596C22.814 18.562 22.5738 18.995 22.5417 19.4877C22.4958 20.1655 22.8553 20.9634 23.5805 21.7911C24.1956 22.4942 24.9736 22.9417 25.6636 22.9876C26.1181 23.0174 26.5296 22.8744 26.8861 22.5623C27.528 22 27.7636 21.1393 27.502 20.3154L27.2855 19.6369L29.1788 19.1251L29.3586 19.7792L29.3594 19.7799ZM34.3235 9.62601L32.3903 10.5379C32.3903 10.5379 33.469 12.8268 33.8408 13.6155C33.2877 13.8756 32.7537 14.1281 32.2006 14.3882C31.8288 13.601 30.7486 11.3105 30.7486 11.3105L28.1981 12.5124L32.0782 20.7438L34.6287 19.5412C34.6287 19.5412 33.4277 16.9961 33.0406 16.1714C33.5929 15.9113 34.1269 15.6596 34.6808 15.3987C35.0694 16.2219 36.2689 18.7686 36.2689 18.7686L38.8179 17.5652L34.9386 9.33607L34.3227 9.62601H34.3235ZM42.9497 14.7255C42.8258 14.1135 42.7003 13.4908 42.5779 12.8773C43.3643 12.7182 45.4566 12.2966 45.4566 12.2966L45.0879 10.4698C45.0879 10.4698 42.9971 10.8929 42.2092 11.0504C42.096 10.4905 42.0011 10.02 41.8864 9.46076C42.7034 9.29552 44.941 8.84341 44.941 8.84341L44.5723 7.01657L43.9044 7.15045L38.7544 8.19162L40.5552 17.1108L46.4205 15.9266L46.051 14.099C46.051 14.099 43.7721 14.5588 42.9497 14.7255ZM51.2691 6.8039L48.4501 6.745L48.4356 7.42662L48.2588 15.8432L54.18 15.9664L54.2228 13.9965C54.2228 13.9965 51.9492 13.9483 51.1184 13.9307C51.1422 12.8168 51.2699 6.80467 51.2699 6.80467L51.2691 6.8039ZM60.4102 11.3932C59.6796 10.8561 59.4631 10.6412 59.5381 10.3466C59.5756 10.1944 59.7408 9.70786 60.2664 9.83944C60.5839 9.91977 60.8975 10.0858 61.039 10.7666L61.1936 11.5217L63.0548 10.8929L62.9378 10.3053C62.709 9.15323 61.7352 8.17403 60.5127 7.86879C59.6375 7.65 58.7593 7.76628 58.0394 8.19927C57.3785 8.59478 56.9126 9.22208 56.7267 9.96184C56.26 11.8262 57.5162 12.7243 58.35 13.3202C59.203 13.9292 59.4172 14.1678 59.2895 14.6766C59.2497 14.8365 59.1541 14.9612 59.0072 15.0507C58.8381 15.1509 58.6247 15.1868 58.448 15.1432C58.0027 15.0323 57.8076 14.8204 57.6187 14.242L57.39 13.5474L55.5218 14.3109L55.7024 14.9053C56.0527 16.0582 56.8896 16.7857 58.2582 17.1284C59.7959 17.5132 61.6625 16.8063 62.1253 14.9573C62.6111 13.0127 61.2861 12.0373 60.4094 11.3932H60.4102ZM67.1399 16.2487C67.8583 16.6105 69.7609 17.5729 69.7609 17.5729L70.6024 15.9082C70.6024 15.9082 68.6983 14.9466 67.9815 14.584C68.2393 14.0745 68.4558 13.6461 68.7128 13.1366C69.4556 13.5122 71.4951 14.5419 71.4951 14.5419L72.3343 12.8788L67.0382 10.2028L66.7307 10.8102L62.9339 18.3241L68.2744 21.0215L69.1152 19.3584C69.1152 19.3584 67.0405 18.3103 66.2916 17.9324C66.5738 17.374 66.86 16.8079 67.1407 16.2502L67.1392 16.2487H67.1399ZM79.2079 16.3374L75.5803 27.0383L73.3434 25.0914C73.3434 25.0914 73.8613 23.569 74.0457 23.0274C73.6731 22.703 73.1162 22.2188 72.736 21.889C72.228 22.1568 70.8265 22.9004 70.8265 22.9004L69.2032 21.4889L77.6917 17.0971L79.2094 16.3366L79.2079 16.3374Z" fill="#FBB700"/>
<path d="M28.921 19.9007C29.3471 21.4506 28.9256 22.794 27.6687 23.8933C25.939 25.4049 23.2875 25.2137 21.7575 23.4649C20.1036 21.5738 20.252 18.9292 22.1018 17.3112C23.0351 16.4934 24.3455 16.1897 25.6047 16.5003L25.8228 16.5546L25.6032 17.5032L25.3867 17.4611C24.5957 17.3043 23.6922 17.1896 22.9723 17.8184C22.4254 18.298 22.127 18.8489 22.0865 19.4586C22.0329 20.2611 22.4307 21.1706 23.237 22.0925C23.9401 22.8965 24.8114 23.3884 25.6315 23.4435C26.2098 23.4817 26.7323 23.3012 27.1837 22.9064C27.9648 22.2241 28.2509 21.1783 27.9326 20.18L27.8607 19.9535L28.8598 19.6835L28.9195 19.9023L28.921 19.9007ZM34.517 10.0368L32.9939 10.7551C32.9939 10.7551 34.2761 13.4747 34.4459 13.8327C34.1192 13.988 32.31 14.8402 31.9826 14.9932C31.8143 14.6352 30.5329 11.9156 30.5329 11.9156L28.8047 12.7303L32.297 20.1379L34.0251 19.3239C34.0251 19.3239 32.6076 16.3167 32.4362 15.9533C32.7636 15.7988 34.5714 14.9473 34.8988 14.7936C35.0694 15.1562 36.4869 18.1634 36.4869 18.1634L38.2151 17.3479L34.7221 9.9396L34.5178 10.0368H34.517ZM42.5947 15.2602C42.5228 14.9045 42.1135 12.878 42.0416 12.5207C42.4203 12.4458 44.9204 11.9401 44.9204 11.9401L44.7314 11.0037C44.7314 11.0037 42.2321 11.5079 41.8527 11.5844C41.7831 11.2363 41.422 9.45229 41.3524 9.10345C41.7349 9.02542 44.407 8.48762 44.407 8.48762L44.2173 7.55125L43.9955 7.59639L39.2899 8.54652L40.911 16.576L45.8858 15.5716L45.6968 14.6352C45.6968 14.6352 42.9788 15.1837 42.5955 15.2617V15.2602H42.5947ZM50.8032 7.24831L48.8938 7.20776L48.8884 7.43421L48.7209 15.3964L53.7363 15.5027L53.7592 14.4394C53.7592 14.4394 51.045 14.382 50.6548 14.3736C50.6632 13.949 50.8032 7.24831 50.8032 7.24831ZM60.3758 9.39797C60.9832 9.54945 61.3343 9.95566 61.4812 10.674L61.5347 10.9257L62.53 10.5891L62.491 10.3925C62.2959 9.41098 61.4567 8.57253 60.401 8.30784C59.6429 8.11812 58.8863 8.21834 58.2705 8.5886C57.7143 8.92214 57.3219 9.44923 57.1666 10.0719C56.7741 11.6356 57.7946 12.3654 58.6117 12.9499C59.4402 13.5428 59.9382 13.9475 59.7286 14.7867C59.6421 15.137 59.4134 15.3352 59.239 15.4408C58.9666 15.6037 58.63 15.6565 58.3363 15.5823C57.7342 15.4323 57.4221 15.1064 57.1842 14.382L57.1092 14.1502L56.0757 14.5732L56.1353 14.7706C56.4352 15.7582 57.1658 16.3848 58.3669 16.6854C59.688 17.0159 61.2884 16.4184 61.6832 14.8448C62.0963 13.1955 61.0115 12.3983 60.1394 11.758C59.3927 11.2087 58.9437 10.8423 59.0967 10.2349C59.2313 9.6925 59.6804 9.22432 60.3758 9.39797ZM68.5108 12.5246C68.8589 12.7005 71.2916 13.9291 71.2916 13.9291L71.7223 13.0761L67.2363 10.8094L67.1338 11.0121L63.5429 18.1206L68.0725 20.4087L68.5039 19.5557C68.5039 19.5557 66.0299 18.3057 65.6803 18.1282C65.8433 17.8031 66.7758 15.9594 66.9395 15.6343C67.2838 15.8087 69.5604 16.9585 69.5604 16.9585L69.9919 16.1055C69.9919 16.1055 67.716 14.9565 67.371 14.7813C67.5301 14.4638 68.3509 12.8405 68.5124 12.523H68.5108V12.5246ZM78.4138 17.2561L75.3653 26.2488L73.8682 24.9467C73.8682 24.9467 74.4871 23.1336 74.5712 22.8835C74.3784 22.7175 72.9907 21.5095 72.7949 21.3389C72.5569 21.4644 70.8854 22.3518 70.8854 22.3518L70.0011 21.5845L77.8952 17.4994L78.4123 17.2569V17.2553L78.4138 17.2561ZM74.9078 21.9096C75.0463 21.5141 75.402 20.4959 75.6177 19.8786C75.0371 20.18 74.0816 20.6757 73.7106 20.8685C74.0128 21.1309 74.6056 21.6465 74.9078 21.9096Z" fill="white"/>
</g>
<defs>
<clipPath id="clip0_326_73">
<rect width="100" height="100" fill="white"/>
</clipPath>
</defs>
</svg>
