<svg width="100" height="100" viewBox="0 0 100 100" fill="none" xmlns="http://www.w3.org/2000/svg">
<g clip-path="url(#clip0_326_75)">
<path d="M48.9633 99.9999H48.9619C48.0912 99.9999 47.3854 99.2941 47.3854 98.4234C47.3854 97.5527 48.0861 96.852 48.9532 96.8469H48.9619C49.8326 96.8469 50.5391 97.5527 50.5391 98.4234C50.5391 99.2941 49.834 99.9999 48.9633 99.9999Z" fill="white"/>
<path d="M87.7896 82.4856C86.7482 81.7287 85.6147 81.1374 84.4263 80.6866V68.6968L85.1436 68.421V66.766L84.4263 66.4347V65.2766L85.1436 65.0008V62.905L82.7173 60.5889V60.0372C82.7173 60.0372 82.6071 59.541 82 59.541H81.2827C81.2827 59.541 80.731 59.6512 80.731 60.0372V60.5889L78.2493 62.905V64.8906L78.9666 65.111V66.2691L78.1945 66.6003V67.6569C72.8313 74.0831 64.8155 77.9707 64.0759 78.3214V75.7H58.2323C58.0659 74.1948 57.5049 72.8127 56.6514 71.6568C57.1592 71.2268 57.5985 70.5117 57.7893 69.7958C57.9543 68.9136 57.8995 68.1408 57.4033 67.4797C57.3486 67.425 57.3486 67.3695 57.2931 67.3695C57.1829 67.2593 56.9618 67.0937 56.6867 66.8178C56.3007 66.4865 55.6388 65.9356 55.4732 65.8254C55.0872 65.3292 54.8668 64.8877 54.6457 64.2813C54.8106 64.2813 54.9215 64.1711 55.0317 64.1164C55.1419 63.9515 55.1966 63.8406 55.1419 63.6202L55.0317 63.2889C54.9215 62.7927 54.8113 62.241 54.7004 61.6894V61.6346H54.7552C55.031 61.6346 55.3068 61.4142 55.3068 61.083C55.3068 60.9728 55.2521 60.918 55.1967 60.8071L54.5903 59.2076C54.645 59.2623 54.7004 59.3178 54.7004 59.3725C54.8654 59.5374 55.2521 59.814 55.4177 59.7038C55.5834 59.5936 55.5827 59.2076 55.6381 59.0419C55.7483 57.9393 56.5204 56.836 57.458 56.1741C57.5128 56.3391 57.5682 56.3945 57.5682 56.45C57.6784 56.6149 57.6784 57.0016 57.8441 57.0016C58.0097 57.0016 58.2301 56.7258 58.5059 56.3952C58.892 56.0092 59.2232 55.6779 59.6085 55.513L61.5387 56.285C61.6488 56.6163 61.8699 57.1673 62.3107 57.554C62.642 57.8298 63.028 58.1057 63.6344 58.4363C63.6891 58.491 63.7993 58.5464 63.7993 58.6012C63.7446 58.6559 63.6344 58.6559 63.6344 58.7114C63.414 58.8215 62.7522 58.9872 62.7522 59.263C62.7522 59.5389 63.3586 59.7045 63.5797 59.8147C64.0212 59.9796 64.4619 60.0351 64.9034 60.0351C65.8411 60.0351 66.6686 59.7038 67.1648 59.1528C67.5508 58.6566 67.7165 58.0502 67.6063 57.3877C67.4961 56.8914 67.3304 55.6779 67.275 55.2364L67.8266 53.5814C67.8266 53.5267 67.8814 53.4713 67.8814 53.4165C67.8814 52.589 67.661 51.7615 67.2195 50.7691V50.7144C67.2195 50.6596 67.1648 50.5494 67.1093 50.5494C67.0539 50.5494 67.0546 50.4392 67.0546 50.3845C66.9444 50.1641 66.7788 49.8328 66.6131 49.557C65.2894 47.2956 63.3038 45.4757 63.1937 45.4202C63.0287 45.2553 62.6974 44.9788 62.5318 45.0889C62.3662 45.1991 62.3114 45.6406 62.3114 45.861V45.9712C62.1465 45.6399 61.705 45.0889 61.5394 44.9788C61.5034 44.9161 61.4681 44.8534 61.4328 44.7922C61.4688 44.8174 61.5048 44.8434 61.5401 44.8678C61.3485 44.5603 61.1562 44.2269 61.0576 43.9222C62.6715 36.4027 67.6617 31.4118 67.7172 31.3571C67.8274 31.2469 67.8821 31.1921 67.8821 31.0258C68.9847 20.2164 81.2841 15.4725 81.4491 15.4178C81.5038 15.4178 81.8351 15.3076 81.8351 15.2529C82.6071 14.6465 82.6626 14.3713 82.6071 14.2612C82.4422 13.8197 81.7249 13.4891 78.6915 13.4891C77.4779 13.4891 76.3753 13.5438 76.3753 13.5438H76.2104C74.335 13.7088 72.5151 14.0955 70.971 14.8128C73.1222 12.2201 76.4862 10.6213 78.4718 9.84927C78.582 9.79453 78.8578 9.68434 78.968 9.57343C79.0782 9.40851 79.2438 9.2976 79.1329 9.02177C78.9126 8.58029 77.9749 8.4701 77.3677 8.4701C76.7059 8.4701 75.7689 8.58029 74.6101 8.74593C74.0585 8.80067 73.5075 8.91086 73.0113 9.02177H72.9566C70.6404 9.57343 68.4338 10.6206 66.6138 12.0552C66.3935 12.2201 66.0622 12.4967 65.8418 12.6616L67.3304 10.1244C68.1579 8.8554 68.9854 7.58714 69.9231 6.53927C69.9779 6.48453 70.0333 6.37434 70.088 6.31889C70.1428 6.15396 70.3084 5.82268 70.253 5.71249C70.1428 5.6023 70.0326 5.49211 69.7013 5.49211C69.37 5.49211 68.5432 5.6023 65.1785 8.19499C61.9794 10.4564 59.2773 13.3242 57.237 16.578C56.4095 18.0119 55.031 20.7148 54.5341 22.5347C54.4793 22.3698 54.4793 22.1487 54.4239 21.983C54.3137 21.211 54.259 20.439 54.259 19.5567C54.259 18.4541 54.3137 17.461 54.3692 16.8538C54.3692 16.578 54.3144 15.9716 54.0933 15.9162C53.8729 15.8614 53.4315 16.4124 53.3213 16.6335C51.6663 20.3835 51.2255 23.5826 51.1153 25.458L50.4535 30.863C50.3987 31.249 50.0674 33.1244 50.0674 33.1244C49.5712 32.2969 49.2954 31.7452 48.9094 30.863C48.9094 30.8083 48.8546 30.8083 48.8546 30.7528L48.303 29.9253L48.2482 29.8706C47.4207 28.9329 46.6494 28.4367 45.711 27.885C44.442 27.113 42.7885 26.1198 40.4169 23.3622C39.0932 21.8181 37.5491 18.7292 37.0529 16.6335C36.0604 12.442 36.1706 7.36821 37.2732 2.84541C37.3834 2.56957 37.4382 1.96317 37.328 1.79753C37.2171 1.6326 37.0514 1.57715 36.8311 1.57715C36.4998 1.57715 36.1692 1.90844 33.9632 5.38264V5.43737C32.5293 7.75351 31.4815 10.4009 30.9853 13.1038C30.8751 13.6555 30.8203 14.3173 30.7649 14.869C30.2132 13.6 29.8272 12.2763 29.4959 10.8979C28.7786 8.03006 28.5582 5.05135 28.834 2.4601C28.834 2.29518 28.8888 1.8537 28.7793 1.74279C28.6691 1.6326 28.5035 1.57787 28.3378 1.57787C27.8416 1.57787 27.0689 2.18427 25.5255 6.37578C24.0916 10.3469 23.5954 13.9868 24.0916 17.9579C22.4366 15.752 21.6653 12.7185 21.0027 9.90616C20.8378 9.24431 20.6714 8.52699 20.451 7.92059C20.3408 7.58931 20.1197 6.81798 19.8446 6.9829C19.8446 6.9829 19.7899 6.9829 19.7899 7.03764H19.7351C19.7351 7.03764 19.6804 7.03764 19.6804 7.09237C19.6257 7.14711 19.4046 7.86442 19.4046 7.91987C19.2944 8.0848 19.2397 8.36135 19.2397 8.74737V9.62961C19.0747 11.7254 18.8536 17.0749 21.6112 22.7004L21.666 22.8653C21.7207 22.9755 21.7762 23.0302 21.7762 23.0857C22.052 23.6921 22.3826 24.2992 22.7139 24.8509C22.824 25.0158 22.8788 25.2369 23.0451 25.4025C23.4312 26.0644 23.7625 26.5051 24.093 26.8912C22.4935 26.5599 20.2328 26.1191 19.1295 25.9535C18.9091 25.8987 18.5778 26.0637 18.5778 26.2848C18.4676 26.5051 18.5778 26.8364 18.7427 26.9466C19.625 27.553 21.3901 29.0978 23.1553 30.6966H23.1006L26.2442 33.6192L26.5201 33.895C27.568 34.8327 28.6158 35.8806 29.609 36.8176L27.4578 36.5972C27.2374 36.5424 26.9615 36.7074 26.9061 36.9285C26.8506 37.1488 26.8514 37.4247 27.071 37.5349L32.09 41.6162L34.296 43.3814L34.3507 43.4361L38.1007 46.4696C38.2109 46.5797 38.2657 46.5797 38.432 46.6345L39.3697 46.6892C37.3294 47.5714 35.454 47.5714 33.2481 46.8541C31.5931 46.3025 29.9388 45.4202 28.5604 44.2614C28.3955 44.0965 27.8431 43.82 27.6781 43.9856C27.5132 44.1513 27.6234 44.7029 27.7329 44.9233C28.1744 45.9712 28.9464 46.9089 29.7184 47.7356C27.071 47.4044 24.7549 46.6878 21.9973 45.4195C21.7769 45.3093 21.3909 45.0335 21.1698 45.2546C21.0048 45.4195 21.115 46.0266 21.28 46.1923C22.5489 48.1224 23.4859 49.3914 24.479 50.3838C25.4715 51.4317 26.8506 52.535 27.5125 52.9765C27.6774 53.0867 28.0087 53.2523 29.6083 53.2523C30.2147 53.2523 30.8772 53.1976 31.4836 53.1421H31.6486C30.049 53.6938 28.5597 53.9142 27.2359 53.7485C26.9601 53.6938 26.3537 53.7485 26.2983 53.9689C26.2435 54.2447 26.7945 54.6862 27.0156 54.7964C28.9457 55.4583 30.8211 55.9545 32.641 56.1756C33.1926 56.3405 34.9571 56.782 36.7778 56.9476H37.109C37.274 56.9476 37.3849 57.0023 37.5505 57.0023C38.2678 57.0571 38.9297 57.1673 39.5908 57.1673C40.1425 57.1673 40.7489 57.1125 41.356 57.0023C41.356 57.0571 41.4107 57.1673 41.4107 57.1673L41.742 57.7737C41.6318 57.7737 41.5217 57.8839 41.4107 57.9386C41.2458 58.1035 41.2458 58.3801 41.3006 58.545L41.9624 59.814C41.9624 59.8687 42.0171 59.8687 42.0171 59.9242C42.0171 59.9242 42.0171 59.9789 42.0719 59.9789C42.0171 59.9789 42.0171 60.0336 41.9617 60.0336C41.7968 60.1986 41.6859 60.4197 41.7413 60.5853C42.0726 62.0192 42.7892 62.5154 43.2854 62.9014C43.6167 63.1218 43.8371 63.2875 43.9473 63.7289C44.0574 63.9493 44.1122 64.2806 44.2785 64.6112C44.4989 65.273 44.9404 66.2107 44.72 66.5967C44.3887 67.1484 44.1684 67.2586 43.7823 67.479C43.562 67.6439 43.2307 67.8103 42.9001 68.1408C42.0179 68.9129 42.0179 69.9608 42.7352 71.1743L42.7899 71.2845C42.8353 71.3522 42.9001 71.4105 42.975 71.4559C42.0366 72.6514 41.4179 74.1062 41.2422 75.6992H35.2337V78.2084C34.5106 77.8368 26.7498 73.767 21.3901 67.4869V66.6003L20.6181 66.2691V65.111L21.3354 64.8906V62.905L18.8536 60.5889V60.0372C18.8536 59.6512 18.302 59.541 18.302 59.541H17.5847C16.9783 59.541 16.8673 60.0372 16.8673 60.0372V60.5889L14.441 62.905V65.0008L15.1583 65.2766V66.4347L14.441 66.766V68.421L15.1583 68.6968V80.8378C13.1728 81.4723 11.8786 82.0945 11.7381 82.155L10.5801 82.7067L11.4623 83.5889C11.5178 83.5889 14.1652 86.1809 14.3301 90.9241C14.3848 91.4757 14.6059 91.972 15.0474 92.3032C15.9297 92.9644 17.3636 92.7995 17.9152 92.6893L17.97 94.785L19.2389 94.013C19.5148 93.7926 20.2868 93.7371 21.0589 93.9028C21.2245 93.9028 21.3354 93.9582 21.5003 94.013C22.1067 94.1232 22.9342 94.399 23.5406 93.9028C23.8165 93.7371 24.0923 93.3511 24.147 92.6338C24.147 92.1369 23.9821 91.5859 23.5406 91.2546C23.4816 91.2049 23.4175 91.1596 23.3505 91.1164C23.182 90.9406 22.7808 90.5107 22.4568 90.0606C24.0952 90.0692 25.9821 90.3292 28.0649 91.0335C30.7123 91.9165 32.9183 93.0738 35.0687 94.2326C39.1501 96.3838 42.9556 98.4242 48.9663 98.4242C49.5179 98.4242 50.0689 98.3694 50.5096 98.4242C56.9626 98.0381 61.4299 95.8322 65.4558 93.8466C67.1655 92.9644 68.7651 92.1916 70.3646 91.5852C70.5302 91.5305 70.6412 91.475 70.8061 91.4203C71.9829 90.9378 74.2169 90.0418 76.7937 89.9439C76.7837 89.9576 76.7729 89.9713 76.7642 89.9857C76.3775 90.6475 75.4952 91.5298 75.4952 91.5298H75.5276C75.1748 91.8567 74.9983 92.3054 74.9983 92.7987C74.9983 93.5161 75.3296 93.9568 75.55 94.1225C76.1564 94.6187 76.9839 94.453 77.5903 94.2874C77.7559 94.2319 77.8668 94.1772 78.0318 94.1772C78.8038 94.067 79.5758 94.1772 79.8517 94.3421L81.1199 95.1689L81.2301 93.13C81.7811 93.295 83.2704 93.516 84.1527 92.9096C84.5934 92.6338 84.87 92.1376 84.9247 91.5859C85.3655 86.8428 87.9027 83.864 87.9582 83.8093L88.62 83.0373L87.7925 82.4856H87.7896Z" fill="white"/>
<path d="M48.9627 99.9997C42.6264 99.9997 38.4752 97.8118 34.4616 95.6959L34.3298 95.626C34.3255 95.6239 34.3212 95.6217 34.3176 95.6195C32.0799 94.4146 30.0274 93.3502 27.5622 92.5278C27.56 92.527 27.5578 92.5263 27.5557 92.5256C26.9255 92.3124 26.2954 92.1374 25.6673 91.9998C25.7019 92.2044 25.7199 92.4161 25.7199 92.6322C25.7199 92.6725 25.7185 92.7121 25.7156 92.7525C25.6069 94.1727 24.9198 94.8713 24.4538 95.1853C23.3678 96.0113 22.1197 95.7499 21.4413 95.608C21.3628 95.5914 21.2864 95.5756 21.2144 95.5619C21.1417 95.549 21.0704 95.5302 21.0005 95.5072C20.9609 95.4942 20.9234 95.4805 20.8874 95.4683C20.8334 95.4625 20.7794 95.4539 20.7254 95.4424C20.4063 95.3739 20.1356 95.3747 20.0038 95.3891L18.7859 96.1301C18.3056 96.4225 17.7056 96.437 17.2123 96.1676C16.7182 95.8983 16.4057 95.3869 16.3906 94.8244L16.3783 94.347C15.6308 94.2901 14.7961 94.0863 14.0982 93.5634C13.3362 92.9923 12.8609 92.11 12.7579 91.0787C12.7543 91.0449 12.7522 91.0117 12.7514 90.9779C12.6189 87.1811 10.7011 85.0586 10.4627 84.8102C10.4216 84.7763 10.382 84.741 10.3438 84.7029L9.4616 83.8206C9.09935 83.4584 8.93586 82.9435 9.023 82.4386C9.11015 81.9337 9.43639 81.5031 9.89876 81.2827L11.0568 80.731C11.0734 80.7231 11.0907 80.7152 11.108 80.708C11.1209 80.7022 11.1396 80.6936 11.1649 80.6821C11.9304 80.3335 12.7392 80.0065 13.5789 79.7062V69.7416C13.1382 69.455 12.8616 68.9609 12.8616 68.4201V66.7658C12.8616 66.4446 12.9589 66.1392 13.1317 65.8836C12.9596 65.6286 12.8616 65.3232 12.8616 65.0013V62.9056C12.8616 62.4749 13.0381 62.0629 13.3499 61.7655L15.2937 59.9103C15.2995 59.8383 15.3103 59.7663 15.3261 59.6957C15.5112 58.8624 16.2962 57.9651 17.5818 57.9651H18.2991C18.4028 57.9651 18.5065 57.9751 18.608 57.9953C19.6285 58.1998 20.3559 58.9719 20.4222 59.8995L22.4085 61.7525C22.7282 62.0507 22.9097 62.4684 22.9097 62.9048V64.8904C22.9097 65.1842 22.8284 65.4637 22.6843 65.7028C22.8629 65.9613 22.9645 66.2725 22.9645 66.6002V66.8969C26.5042 70.8918 30.978 73.9043 33.6651 75.5183C33.7544 74.7325 34.422 74.1225 35.2315 74.1225H39.9307C40.1778 73.169 40.5652 72.258 41.0809 71.4182C40.7626 70.7333 40.6149 70.0657 40.6401 69.4283C40.6783 68.4914 41.0852 67.6495 41.8198 66.9898C42.154 66.6628 42.4773 66.4525 42.6934 66.3113C42.7481 66.2761 42.8101 66.235 42.8353 66.2163C42.8878 66.1774 42.9426 66.1414 42.9995 66.109L43.0463 66.0823C43.0686 66.0701 43.0924 66.0564 43.1154 66.0434C43.0643 65.8908 43.0016 65.7208 42.9548 65.5955C42.908 65.468 42.859 65.3369 42.8144 65.2073C42.6984 64.9567 42.6264 64.7291 42.5724 64.5577C42.5566 64.508 42.5357 64.4417 42.5249 64.4115C42.4989 64.3568 42.4759 64.3013 42.4557 64.2444C42.4413 64.235 42.4262 64.2242 42.4089 64.2127C42.3772 64.1911 42.3455 64.1688 42.3153 64.1457L42.249 64.0946C41.6923 63.6646 40.6596 62.8674 40.2123 60.9812C40.1194 60.6355 40.1309 60.2697 40.2361 59.9175L39.9005 59.2736C39.8616 59.1987 39.8285 59.121 39.8018 59.041C39.7687 58.9424 39.7435 58.8423 39.7248 58.7414C39.1637 58.7486 38.638 58.6953 38.1303 58.6406C37.9027 58.6161 37.6866 58.5931 37.4684 58.5758C37.2783 58.5693 37.1256 58.5405 37.0334 58.5225H36.7749C36.7273 58.5225 36.6798 58.5203 36.6323 58.516C34.8462 58.354 33.1062 57.9471 32.3183 57.7231C30.5726 57.4998 28.6677 57.0295 26.5013 56.2863C26.4351 56.2632 26.3703 56.2366 26.3076 56.2049C26.2889 56.1955 24.4337 55.2478 24.7498 53.6598C24.7549 53.6338 24.7606 53.6086 24.7671 53.5834C24.8002 53.4516 24.8694 53.2492 25.012 53.0375C24.4617 52.573 23.8705 52.0343 23.3469 51.4826C22.1939 50.3267 21.169 48.8942 19.9894 47.1017C19.4521 46.3642 19.2195 44.9714 20.0527 44.1388C20.5324 43.6592 21.2302 43.4827 21.9188 43.6671C22.232 43.7506 22.4798 43.8875 22.644 43.9782C22.6591 43.9869 22.6735 43.9948 22.6872 44.002C23.9468 44.5803 25.0955 45.0297 26.2118 45.3754C25.9691 44.7229 25.8164 43.6181 26.5589 42.8727C26.8895 42.5414 27.3403 42.3585 27.8279 42.3578H27.8294C28.5445 42.3578 29.2409 42.7604 29.5931 43.0722C30.7656 44.0524 32.198 44.8417 33.7378 45.3559C33.9935 45.4388 34.2405 45.5101 34.481 45.5698L33.3568 44.661C33.3165 44.6286 33.2776 44.5933 33.2409 44.5573L31.1026 42.8468C31.1026 42.8468 31.0961 42.8418 31.0933 42.8389L26.16 38.8274C25.4448 38.3578 25.1373 37.4871 25.3749 36.5437C25.4751 36.1461 25.694 35.8033 25.9857 35.5426C25.8121 35.382 25.6393 35.2236 25.4671 35.0695C25.4455 35.05 25.4239 35.0298 25.4038 35.0097L25.1481 34.754L22.0261 31.8509C21.9468 31.7775 21.8763 31.6968 21.815 31.6111C19.3772 29.4109 18.3156 28.5668 17.8526 28.2485C17.1108 27.7437 16.7852 26.7412 17.0445 25.8856C17.1388 25.4707 17.3787 25.0941 17.7337 24.8161C18.2126 24.4416 18.8313 24.2896 19.4074 24.4005C19.7704 24.456 20.2479 24.5381 20.7816 24.636C20.6188 24.3285 20.4712 24.0282 20.3394 23.7365C20.3329 23.7214 20.3257 23.7063 20.3199 23.6912C20.299 23.6551 20.2767 23.6127 20.2529 23.5658C20.2198 23.4996 20.1917 23.4312 20.1687 23.3606L20.1471 23.295C18.1485 19.1705 17.2894 14.4273 17.6617 9.56676V8.74575C17.6617 8.19696 17.7452 7.74036 17.9166 7.36154C17.9433 7.26575 17.9771 7.15556 18.0196 7.02233C18.0909 6.80051 18.155 6.6111 18.2371 6.44185C18.3985 6.07096 18.6937 5.77136 19.0618 5.60499C19.1417 5.56106 19.2252 5.52433 19.3124 5.49408C19.7006 5.34716 20.1276 5.34356 20.5223 5.49192C21.429 5.83113 21.7236 6.73929 21.9195 7.34065C21.9267 7.36298 21.9332 7.38386 21.9396 7.40331C22.155 8.00035 22.312 8.63772 22.4647 9.25492C22.487 9.34566 22.5093 9.43497 22.5316 9.52427C22.5331 9.53075 22.5352 9.53796 22.5367 9.54444C22.6094 9.85484 22.6836 10.1638 22.7585 10.4706C23.043 8.95892 23.4693 7.42491 24.0419 5.83977C24.0433 5.83689 24.044 5.83329 24.0455 5.83041C24.7894 3.80956 25.4326 2.40374 26.0102 1.53303C26.2601 1.15349 27.0249 -0.000256371 28.3357 -0.000256371C28.9262 -0.000256371 29.4937 0.228044 29.892 0.62703C30.4746 1.21255 30.4336 1.98675 30.412 2.4023C30.4105 2.42679 30.4091 2.44983 30.4084 2.46928C30.4084 2.52113 30.4048 2.57371 30.3997 2.62556C30.2017 4.48798 30.2838 6.56069 30.628 8.61467C31.1343 7.30608 31.758 6.03351 32.4854 4.82935C32.5236 4.7278 32.5725 4.62913 32.6309 4.53623C33.7731 2.73719 34.4169 1.77429 34.8519 1.21111C35.1796 0.787633 35.7889 -0.000976562 36.8296 -0.000976562C37.8703 -0.000976562 38.4054 0.573736 38.6351 0.916547C38.6365 0.918708 38.6373 0.920148 38.6387 0.922309C39.163 1.7102 38.9275 2.79697 38.7986 3.23484C37.7356 7.60496 37.6578 12.3539 38.5847 16.2681C39.0262 18.1334 40.4406 20.9681 41.6117 22.3343C43.796 24.8737 45.2904 25.7833 46.4917 26.5136L46.519 26.5301C47.4315 27.0674 48.2677 27.5968 49.1506 28.5222L49.5438 25.313C49.6749 23.1676 50.1884 19.8252 51.878 15.9952C51.8881 15.9729 51.8982 15.9513 51.909 15.9297C51.9183 15.9102 52.8927 13.9916 54.4728 14.3848C54.9078 14.4943 55.5697 14.8292 55.8318 15.8562C55.8448 15.8331 55.8578 15.8108 55.8707 15.7885C55.8801 15.7719 55.8902 15.7554 55.901 15.7388C58.0457 12.3186 60.9294 9.27149 64.2415 6.9251C67.8504 4.14661 68.9177 3.91398 69.7006 3.91398C70.5828 3.91398 71.074 4.30361 71.3671 4.59672C71.4859 4.71556 71.5853 4.85239 71.6602 5.00291C72.021 5.72022 71.7524 6.39216 71.6076 6.7537C71.5975 6.7789 71.5875 6.80267 71.5803 6.82356C71.5198 7.00288 71.4269 7.16925 71.308 7.31545C71.2605 7.38675 71.1878 7.49333 71.0819 7.60712C70.958 7.74612 70.8349 7.8916 70.7132 8.04068C71.3268 7.8239 71.9533 7.63881 72.59 7.48685C72.6613 7.46957 72.734 7.45804 72.8067 7.45084C73.2626 7.35146 73.8316 7.23983 74.4185 7.17933C75.8503 6.97552 76.7059 6.89269 77.367 6.89269C78.4905 6.89269 79.9539 7.13972 80.5423 8.31579C80.5618 8.3554 80.5798 8.39501 80.5963 8.43606C80.7908 8.92219 80.8923 9.66615 80.2766 10.4526L80.2643 10.4677C80.2103 10.5462 80.1491 10.6197 80.0814 10.6867C79.8164 10.9517 79.5089 11.1051 79.2164 11.239C79.1984 11.2477 79.1819 11.2549 79.1682 11.2614C79.1257 11.283 79.0861 11.2995 79.0414 11.3168C78.6367 11.4738 78.152 11.6755 77.6212 11.9232C77.9482 11.916 78.3133 11.911 78.6907 11.911C80.255 11.911 81.3345 11.9945 82.0893 12.1739C83.1141 12.418 83.7817 12.9257 84.0749 13.6848C84.2095 14.0262 84.3413 14.6801 83.8509 15.4313C83.6478 15.7417 83.3511 16.0521 82.9226 16.3999C82.754 16.5613 82.5293 16.7103 82.2283 16.8256C82.1059 16.8724 81.9978 16.9062 81.9042 16.9307C81.4015 17.1338 78.6576 18.2976 75.8589 20.5317C74.1485 21.8972 72.7506 23.3959 71.7034 24.9861C70.4416 26.9032 69.6854 28.9702 69.4557 31.13C69.4204 31.8812 69.0106 32.291 68.8313 32.4703C68.8291 32.4724 68.827 32.4746 68.8248 32.4768C68.7823 32.5193 64.4352 36.9232 62.7759 43.4928C63.2016 43.5288 63.7129 43.7254 64.2631 44.2591C64.7039 44.6178 65.2692 45.2177 65.6164 45.6008C66.2689 46.3203 67.2065 47.4495 67.9692 48.7502C68.1637 49.0736 68.343 49.4329 68.4618 49.6706L68.4654 49.6778C68.4748 49.6965 68.4842 49.7153 68.4928 49.7347C68.6167 49.9212 68.706 50.1294 68.755 50.3418C69.2418 51.4862 69.46 52.4426 69.46 53.4149C69.46 53.6994 69.3858 53.9291 69.3261 54.0724C69.3253 54.0746 69.3246 54.0767 69.3239 54.0789L68.8867 55.3904C68.9674 55.9874 69.0798 56.7451 69.1467 57.0439C69.1525 57.0713 69.1583 57.0994 69.1626 57.1268C69.3419 58.202 69.0747 59.265 68.4107 60.1184C68.3877 60.1487 68.3632 60.1775 68.338 60.2056C67.5349 61.0979 66.2833 61.6092 64.9048 61.6092C64.2192 61.6092 63.6049 61.5041 63.0287 61.2887C62.9819 61.2715 62.9365 61.252 62.8919 61.2297C62.8667 61.2189 62.8364 61.2074 62.804 61.1944C62.6276 61.1238 62.3863 61.0273 62.1465 60.8797C61.2722 60.3424 61.1778 59.5682 61.1778 59.2607C61.1778 59.1397 61.1922 58.9474 61.2628 58.727C60.8948 58.4022 60.5865 57.991 60.341 57.5005L59.8339 57.2974C59.7792 57.3507 59.7245 57.4055 59.6726 57.4566C59.2563 57.9564 58.7371 58.5751 57.8455 58.5751C57.7029 58.5751 57.5632 58.5571 57.4285 58.5218C57.3075 58.7508 57.2297 58.9827 57.2081 59.1959C57.1995 59.2837 57.1829 59.3709 57.1599 59.4559C57.1577 59.4681 57.1556 59.4818 57.1534 59.4947C57.1174 59.7101 57.049 60.1227 56.7947 60.5073C56.8451 60.6643 56.8848 60.8566 56.8848 61.0792C56.8848 61.5639 56.722 62.0104 56.4483 62.369C56.4836 62.5397 56.5189 62.7054 56.5542 62.8645L56.6385 63.118C56.6514 63.1569 56.6629 63.1965 56.673 63.2361C56.8235 63.8404 56.699 64.3099 56.5528 64.6254C56.5693 64.6499 56.5859 64.6744 56.6032 64.6988C57.0274 65.0294 57.6799 65.589 57.7137 65.6178C57.7447 65.6445 57.7742 65.6718 57.803 65.7006C57.9298 65.8274 58.0457 65.9275 58.148 66.0154C58.1674 66.0319 58.1869 66.0485 58.2056 66.065C58.3611 66.1695 58.5146 66.3128 58.6492 66.5094C58.6543 66.5166 58.66 66.5231 58.6651 66.5303C59.3867 67.4917 59.6071 68.6541 59.3392 70.083C59.332 70.1219 59.3233 70.1608 59.3125 70.1989C59.1649 70.7521 58.9186 71.2958 58.6039 71.7798C59.0144 72.5165 59.3291 73.3037 59.5415 74.1204H64.0759C64.9466 74.1204 65.6524 74.8262 65.6524 75.6969V75.7084C66.4676 75.2475 67.4528 74.6584 68.5353 73.9468C71.8021 71.7992 74.5186 69.4888 76.618 67.0733V66.5973C76.618 66.2696 76.7196 65.9585 76.8982 65.6999C76.7541 65.4601 76.6727 65.1814 76.6727 64.8875V62.902C76.6727 62.4648 76.8542 62.0478 77.174 61.7497L79.1603 59.8966C79.2265 58.969 79.9539 58.1962 80.9744 57.9924C81.076 57.9723 81.1797 57.9622 81.2834 57.9622H82C83.2855 57.9622 84.0705 58.8595 84.2556 59.6928C84.2715 59.7634 84.2823 59.8354 84.288 59.9074L86.2318 61.7626C86.5437 62.0601 86.7201 62.472 86.7201 62.9027V64.9984C86.7201 65.3204 86.6222 65.6257 86.4501 65.8807C86.6229 66.1363 86.7201 66.4424 86.7201 66.7629V68.4172C86.7201 68.9581 86.4443 69.4521 86.0028 69.7387V79.6327C86.9671 80.072 87.8674 80.5928 88.6898 81.1876L89.4914 81.722C89.8666 81.9726 90.1173 82.3716 90.1785 82.8189C90.2397 83.2661 90.1072 83.7177 89.8133 84.0605L89.1515 84.8325C89.1436 84.8412 89.1364 84.8498 89.1284 84.8584C89.0125 84.9967 86.8742 87.6067 86.4911 91.7283C86.4911 91.7319 86.4911 91.7348 86.4904 91.7384C86.3859 92.7856 85.8494 93.6901 85.0147 94.2245C84.2974 94.707 83.4555 94.8626 82.7108 94.8792L82.6907 95.2515C82.6604 95.814 82.332 96.3174 81.83 96.5723C81.3273 96.8273 80.7274 96.7949 80.2557 96.4866L79.1163 95.7441C78.9694 95.7153 78.6324 95.68 78.2514 95.7348C78.2327 95.7376 78.2147 95.7398 78.1959 95.742C78.1614 95.7542 78.1254 95.7672 78.0872 95.7801C78.0591 95.7895 78.0303 95.7981 78.0015 95.8061C77.4138 95.966 75.8582 96.3901 74.5727 95.3595C73.8496 94.8014 73.4182 93.8464 73.4182 92.7964C73.4182 92.5638 73.4405 92.3362 73.4837 92.1158C72.6029 92.383 71.8784 92.6797 71.4002 92.8763C71.3664 92.89 71.3325 92.903 71.298 92.9138C71.2612 92.926 71.2216 92.9419 71.1676 92.9635C71.0934 92.993 71.0034 93.029 70.8918 93.0672C69.5659 93.572 68.1529 94.2245 66.1745 95.245C66.1659 95.2494 66.1572 95.2537 66.1486 95.258L66.1371 95.2638C62.0248 97.2918 57.363 99.5907 50.5989 99.9954C50.5024 100.001 50.4059 99.9983 50.3101 99.986C50.143 99.9652 49.8535 99.9753 49.5734 99.9846C49.3775 99.9911 49.1751 99.9983 48.9605 99.9983L48.9627 99.9997ZM35.8069 92.841L35.9322 92.9073C39.943 95.0211 43.4064 96.8475 48.9627 96.8475C49.124 96.8475 49.2911 96.8417 49.4682 96.8359C49.8175 96.8244 50.1776 96.8122 50.5377 96.8424C56.5974 96.4557 60.7378 94.4139 64.7428 92.4385C66.2242 91.6743 67.9822 90.8015 69.8021 90.1108C69.8237 90.1029 69.8446 90.0949 69.8669 90.0877C69.9044 90.0755 69.944 90.0597 69.998 90.038C70.0664 90.0107 70.1485 89.9776 70.2486 89.943C71.3541 89.49 73.8575 88.4774 76.7304 88.3679C77.3375 88.3449 77.905 88.6733 78.1873 89.2127C78.4603 89.7341 78.4192 90.3629 78.085 90.8432C77.7257 91.4359 77.1567 92.0697 76.8305 92.414C76.7635 92.5126 76.685 92.6048 76.595 92.6876C76.5719 92.7085 76.5719 92.7892 76.5719 92.7978C76.5719 92.8288 76.5741 92.8547 76.5762 92.8763C76.6663 92.8749 76.8312 92.8554 77.1257 92.7784C77.1344 92.7755 77.143 92.7719 77.1517 92.769C77.3079 92.7128 77.5579 92.6235 77.8949 92.6034C78.4271 92.5364 79.1077 92.5292 79.7249 92.6516C79.8279 92.3261 80.0353 92.0395 80.3205 91.8392C80.7159 91.5613 81.2171 91.4799 81.6795 91.6189C82.1548 91.7615 83.0046 91.7824 83.2567 91.6095C83.2726 91.5987 83.2891 91.5879 83.3057 91.5771C83.3179 91.562 83.3439 91.5137 83.3525 91.4316C83.7263 87.4238 85.4195 84.602 86.3017 83.3763C85.5584 82.8995 84.7425 82.4912 83.866 82.1584C83.2538 81.9258 82.8491 81.3396 82.8491 80.6849V68.6952C82.8491 68.2602 83.0277 67.8554 83.3266 67.5645C83.0263 67.2728 82.8491 66.8673 82.8491 66.4338V65.2757C82.8491 64.7349 83.1249 64.2408 83.5664 63.9542V63.5797L81.7227 61.8195L79.825 63.5905V63.79C80.2643 64.0759 80.5423 64.5685 80.5423 65.1115V66.2696C80.5423 66.8306 80.2449 67.3441 79.7703 67.625V67.6567C79.7703 68.0261 79.6406 68.3833 79.4044 68.6671C73.8532 75.3181 65.666 79.3122 64.7507 79.7458C64.2624 79.977 63.6898 79.9424 63.2325 79.6529C62.7759 79.3641 62.4994 78.8614 62.4994 78.3205V77.2755H58.2322C57.4285 77.2755 56.7537 76.6706 56.6651 75.8719C56.534 74.6857 56.0911 73.5514 55.3824 72.5921C54.8898 71.9245 54.9986 70.989 55.6323 70.4532C55.8866 70.2378 56.1358 69.8288 56.2503 69.442C56.3489 68.8666 56.2661 68.6217 56.1905 68.4964C56.1883 68.4943 56.1862 68.4921 56.1833 68.4899C56.1581 68.4669 56.1264 68.4402 56.0904 68.4093C55.9766 68.3113 55.8081 68.1666 55.6158 67.9772C55.1866 67.6106 54.7019 67.213 54.5852 67.1281C54.4491 67.0351 54.3288 66.9221 54.2273 66.7924C53.7649 66.1976 53.4566 65.6257 53.1628 64.8191C52.9871 64.3359 53.0577 63.7972 53.3529 63.3759C53.3738 63.3463 53.3947 63.3182 53.417 63.2901C53.3292 62.8775 53.2413 62.441 53.1563 62.0161L53.1527 61.9981C53.1326 61.8959 53.1218 61.7929 53.1218 61.6884V61.6337C53.1218 61.2686 53.2464 60.9322 53.4545 60.6643L53.1138 59.7663C52.8503 59.0713 53.1081 58.287 53.7318 57.8829C53.9291 57.7548 54.1466 57.6763 54.3684 57.6453C54.7768 56.5844 55.5495 55.5891 56.5463 54.8848C56.9539 54.5967 57.4739 54.5189 57.9478 54.6752C57.9665 54.6817 57.9852 54.6882 58.0032 54.6947C58.2906 54.4476 58.6067 54.2244 58.9856 54.0623C59.3694 53.8981 59.8037 53.8924 60.1912 54.0479L62.1213 54.82C62.5519 54.9921 62.8847 55.345 63.0316 55.785C63.1504 56.1415 63.2707 56.2957 63.3377 56.3583C63.5545 56.5369 63.8504 56.7587 64.3856 57.0504C64.4842 57.1044 64.5771 57.1685 64.6628 57.2427C65.1562 57.6201 65.3218 58.0594 65.3629 58.4109C65.6401 58.3504 65.8396 58.2409 65.9534 58.1357C66.0456 57.9967 66.0766 57.852 66.0528 57.6763C65.903 56.9683 65.71 55.4494 65.7085 55.4343C65.679 55.2002 65.7028 54.9626 65.777 54.7393L66.2941 53.1887C66.2566 52.6918 66.0989 52.1445 65.7964 51.456C65.6718 51.2831 65.5789 51.0822 65.5263 50.8618C65.4435 50.699 65.3477 50.5183 65.2591 50.3714C65.2555 50.3656 65.2527 50.3606 65.2491 50.3548C64.5454 49.1528 63.6229 48.0776 62.9783 47.3991C62.8804 47.4452 62.7766 47.4812 62.6686 47.5072C61.9563 47.675 61.2232 47.3307 60.8962 46.6768C60.8437 46.576 60.6542 46.3224 60.5505 46.2115C60.3957 46.0877 60.2653 45.9357 60.1667 45.7629C60.1299 45.6988 60.0932 45.6347 60.0572 45.5713C59.9917 45.4561 59.942 45.3351 59.9081 45.2119C59.772 44.962 59.6445 44.6919 59.5531 44.4096C59.4674 44.1453 59.453 43.863 59.5113 43.5915C60.0003 41.3121 61.1166 37.7918 63.6531 33.969C64.8306 32.1945 65.8835 30.9997 66.3502 30.4998C66.6736 27.9086 67.607 25.4412 69.1273 23.1604C70.3811 21.2807 72.0325 19.5277 74.0376 17.9505C75.658 16.6751 77.2417 15.7237 78.4833 15.0669C77.4073 15.0726 76.4581 15.1187 76.448 15.1194C76.4221 15.1209 76.3962 15.1216 76.3695 15.1216H76.2752C74.4344 15.2894 72.8708 15.6668 71.6285 16.2437C70.9602 16.5541 70.1658 16.3596 69.7157 15.7755C69.2656 15.1915 69.2807 14.374 69.7517 13.8065C70.8694 12.4591 72.2709 11.3622 73.653 10.4951C73.5457 10.5174 73.4434 10.5397 73.3476 10.5606C73.2914 10.5729 73.2353 10.5822 73.1784 10.5887C71.1129 11.1008 69.1813 12.0341 67.5832 13.293C67.5731 13.301 67.563 13.3089 67.5522 13.3168C67.4608 13.3852 67.329 13.4904 67.2022 13.5926C67.0589 13.7071 66.9105 13.826 66.7823 13.9225C66.1817 14.3733 65.3463 14.338 64.786 13.8375C64.2257 13.3377 64.096 12.5116 64.4763 11.8635L65.7215 9.74177C62.8948 11.8102 60.4331 14.4461 58.5823 17.3902C57.8001 18.7499 56.4908 21.3311 56.0493 22.9486C55.8664 23.6191 55.2658 24.0909 54.5708 24.1096C53.8794 24.1283 53.2507 23.6904 53.0317 23.0307C53.0209 22.9983 53.0108 22.9659 53.0022 22.9342C52.8186 23.9425 52.7257 24.8255 52.6832 25.5492C52.681 25.5824 52.6781 25.6155 52.6745 25.6486L52.0127 31.0537C52.0112 31.0638 52.0098 31.0738 52.0083 31.0839C51.9515 31.4843 51.6483 33.2027 51.6144 33.3972C51.4999 34.0453 50.995 34.5538 50.3483 34.6734C49.7016 34.7929 49.0484 34.4983 48.7099 33.9344C48.2151 33.1098 47.9148 32.5279 47.4985 31.5837C47.4819 31.5556 47.4668 31.5276 47.4524 31.4995L47.0642 30.9176C47.0642 30.9176 47.0613 30.914 47.0599 30.9125C46.3743 30.1354 45.7348 29.73 44.9058 29.2424C44.8993 29.2388 44.8929 29.2345 44.8857 29.2309L44.8489 29.2085C43.531 28.407 41.7269 27.3094 39.2156 24.3897C37.7277 22.6534 36.0669 19.3376 35.5124 16.9963C34.7763 13.8886 34.6028 10.3266 34.983 6.79187C33.7911 8.85017 32.9463 11.1181 32.5293 13.3881C32.5279 13.396 32.5264 13.4047 32.525 13.4126C32.4465 13.8065 32.3961 14.32 32.3522 14.7737C32.3435 14.8602 32.3356 14.9444 32.327 15.0265C32.2549 15.7402 31.7105 16.3157 31.0018 16.4266C30.2931 16.5375 29.5989 16.1558 29.313 15.4975C28.7887 14.2927 28.3709 12.9891 27.9583 11.2729C27.5586 9.67335 27.3022 8.01763 27.1949 6.39648C27.1315 6.56213 27.0667 6.73569 26.9997 6.9179C25.6097 10.7688 25.1935 14.1141 25.6493 17.7633C25.7379 18.4726 25.3382 19.1525 24.6756 19.4204C24.0123 19.6883 23.2525 19.4766 22.824 18.9048C22.0736 17.9044 21.4938 16.7852 21.0171 15.5868C21.3707 17.8497 22.0433 20.0139 23.0199 22.0066C23.0509 22.0707 23.0783 22.1363 23.1006 22.204L23.1042 22.2155C23.1496 22.2933 23.2079 22.4049 23.2554 22.5453C23.47 23.0055 23.7351 23.4996 24.0448 24.0174C24.1326 24.155 24.1924 24.2788 24.237 24.371C24.2399 24.3775 24.2435 24.384 24.2464 24.3912C24.304 24.4596 24.3552 24.5331 24.4005 24.6101C24.7649 25.2352 25.0509 25.5961 25.2835 25.8661C25.7228 26.3782 25.7876 27.1128 25.4448 27.6933C25.102 28.2745 24.4279 28.5726 23.7675 28.4358C23.4506 28.3702 23.1092 28.3004 22.7585 28.2298C23.2014 28.6216 23.6847 29.0544 24.2082 29.529C24.2997 29.6118 24.3796 29.704 24.4481 29.8027L27.3123 32.4652C27.3259 32.4782 27.3396 32.4912 27.3533 32.5049L27.5982 32.7497C28.2946 33.3741 28.9824 34.0374 29.6486 34.6798C30.0079 35.0262 30.3471 35.3532 30.6849 35.6715C31.1761 36.1353 31.318 36.8599 31.0364 37.4742C30.8938 37.786 30.6583 38.0338 30.3738 38.1929L33.0738 40.3881L35.2754 42.1497C35.3193 42.1849 35.3611 42.2224 35.4015 42.262L38.8879 45.0816L39.4568 45.1147C40.1857 45.1572 40.7899 45.6952 40.9174 46.4146C41.0442 47.1341 40.661 47.8464 39.9905 48.1359C37.6448 49.1499 35.413 49.2169 32.7555 48.3534C32.7519 48.3519 32.7475 48.3512 32.7439 48.3498C32.2492 48.1849 31.7638 47.9969 31.2892 47.7866C31.282 48.0135 31.2258 48.241 31.1178 48.4528C30.816 49.044 30.1765 49.3825 29.5182 49.3004C27.833 49.0894 26.2629 48.7336 24.6144 48.1748C24.9551 48.5975 25.2712 48.9511 25.5888 49.2687C25.5989 49.2788 25.609 49.2896 25.6191 49.2997C26.4884 50.2172 27.6832 51.1809 28.2924 51.6036C28.4221 51.6281 28.7786 51.6756 29.6032 51.6756C30.1541 51.6756 30.7857 51.6223 31.3353 51.5719C31.3828 51.5676 31.431 51.5654 31.4786 51.5654H31.6435C32.4134 51.5654 33.0709 52.1214 33.1984 52.8812C33.3136 53.5683 32.9643 54.2395 32.3579 54.5477C32.5156 54.5708 32.6719 54.5924 32.826 54.6111C32.9146 54.6219 33.0025 54.6399 33.0882 54.6659C33.5354 54.7998 35.1724 55.2125 36.8454 55.3716H37.1033C37.3388 55.3716 37.526 55.4084 37.6283 55.4285C37.6405 55.4285 37.6528 55.43 37.665 55.4307C37.9452 55.4523 38.2088 55.4804 38.463 55.5078C38.8649 55.551 39.2444 55.5913 39.585 55.5913C40.0524 55.5913 40.5652 55.5431 41.0679 55.4516C41.5281 55.368 42.0013 55.4926 42.3599 55.7922C42.5962 55.9888 42.7661 56.2481 42.8554 56.5355L43.1197 57.0194C43.3862 57.5077 43.3754 58.1005 43.0917 58.5794C43.0917 58.5794 43.0917 58.5801 43.0909 58.5808L43.3272 59.0338C43.5252 59.2974 43.6426 59.6251 43.6426 59.9802C43.6426 60.2625 43.5684 60.5275 43.4381 60.7572C43.621 61.1749 43.8651 61.3636 44.1727 61.6006L44.2007 61.6222C44.5572 61.8613 45.1507 62.2876 45.4272 63.19C45.4899 63.3391 45.5338 63.4796 45.5749 63.6078C45.6116 63.7244 45.6469 63.8346 45.6822 63.9045C45.716 63.9722 45.7448 64.0413 45.7686 64.1133C45.8061 64.225 45.8557 64.3596 45.9083 64.5015C46.2274 65.3621 46.6235 66.4338 46.0833 67.3794C46.0776 67.3895 46.0718 67.3988 46.066 67.4089C45.5835 68.2134 45.1464 68.513 44.63 68.8083C44.5551 68.8608 44.4823 68.9084 44.411 68.9552C44.2569 69.0553 44.1244 69.1417 44.0106 69.2562C43.9854 69.2814 43.9595 69.3059 43.9328 69.329C43.8075 69.4384 43.6376 69.5875 44.0488 70.3084C44.2929 70.5374 44.4593 70.8406 44.5205 71.1755C44.6012 71.6192 44.4881 72.0765 44.2094 72.4315C43.428 73.4261 42.9419 74.6166 42.8036 75.8741C42.7157 76.6727 42.0402 77.2777 41.2364 77.2777H36.8044V78.2104C36.8044 78.7599 36.5185 79.2698 36.0496 79.5557C35.5808 79.8423 34.9967 79.8639 34.5077 79.6126C33.624 79.1588 25.7156 74.9918 20.1853 68.5115C19.9728 68.2624 19.8439 67.9541 19.8144 67.63C19.3361 67.3499 19.0358 66.8342 19.0358 66.2703V65.1122C19.0358 64.5692 19.3138 64.0759 19.7531 63.7907V63.5912L17.8554 61.8202L16.0117 63.5804V63.9549C16.4525 64.2415 16.7291 64.7356 16.7291 65.2764V66.4345C16.7291 66.8681 16.5512 67.2735 16.2516 67.5652C16.5512 67.8562 16.7291 68.2609 16.7291 68.6959V80.8369C16.7291 81.5225 16.2861 82.1296 15.6329 82.3385C14.8018 82.6042 14.0002 82.8981 13.2412 83.2142C13.5069 83.5534 13.8641 84.0576 14.2271 84.7108C14.9315 85.9783 15.7899 88.0611 15.8972 90.8036C15.9073 90.8749 15.9318 90.9988 15.9865 91.0406C16.2328 91.2249 16.9559 91.2703 17.5998 91.1421C18.0556 91.0514 18.5288 91.1659 18.8925 91.4561C19.1597 91.67 19.3484 91.9624 19.4334 92.2872C20.1485 92.1662 20.8723 92.2627 21.2504 92.3333C21.5392 92.3585 21.7589 92.4334 21.9051 92.4853C21.9634 92.4968 22.0239 92.5097 22.0851 92.5227C22.2191 92.5508 22.4193 92.5926 22.5583 92.607C22.5597 92.5983 22.5612 92.589 22.5619 92.5796C22.5583 92.535 22.5504 92.5011 22.5439 92.4802C22.536 92.4737 22.5273 92.4665 22.5194 92.4601C22.5194 92.4601 22.5079 92.4521 22.4819 92.4348C22.3818 92.3693 22.2896 92.2937 22.2068 92.2073C21.9792 91.971 21.5428 91.4972 21.1698 90.9801C20.8233 90.499 20.7758 89.8638 21.0473 89.3366C21.3181 88.8116 21.859 88.4824 22.4488 88.4824H22.4567C24.4668 88.4932 26.5193 88.8476 28.5582 89.5375C31.2546 90.437 33.5232 91.6131 35.8019 92.8396L35.8069 92.841ZM20.2205 95.2429C20.2205 95.2429 20.2191 95.2436 20.2184 95.2443C20.2184 95.2443 20.2198 95.2436 20.2205 95.2429ZM76.4912 92.8598C76.4912 92.8598 76.4927 92.8605 76.4934 92.8612C76.4934 92.8612 76.492 92.8605 76.4912 92.8598ZM11.1663 85.1379C11.2534 85.1544 11.3478 85.1645 11.4479 85.1652C11.3528 85.1652 11.2585 85.1552 11.1663 85.1379ZM89.1234 84.8671C89.1054 84.8865 89.0874 84.906 89.0687 84.924C89.0759 84.9168 89.0946 84.8988 89.1234 84.8671ZM58.5167 66.3661C58.5167 66.3661 58.5182 66.3675 58.5189 66.3682C58.5189 66.3682 58.5174 66.3668 58.5167 66.3661ZM62.8739 61.2261L62.8811 61.2297C62.8811 61.2297 62.876 61.2275 62.8739 61.2261ZM57.1325 59.5416C57.1325 59.5416 57.1325 59.543 57.1325 59.5437C57.1325 59.5437 57.1325 59.5423 57.1325 59.5416ZM53.1225 59.3846C53.1225 59.3846 53.1225 59.3867 53.1225 59.3882C53.1225 59.3867 53.1225 59.386 53.1225 59.3846ZM26.9241 55.2953C26.9241 55.2953 26.9248 55.2953 26.9255 55.2953C26.9255 55.2953 26.9248 55.2953 26.9241 55.2953ZM60.6593 46.2893C60.6593 46.2893 60.6607 46.29 60.6614 46.2908C60.6614 46.2908 60.66 46.29 60.6593 46.2893ZM27.4405 45.3768C27.4405 45.3768 27.4419 45.3783 27.4426 45.379C27.4426 45.379 27.4412 45.3776 27.4405 45.3768ZM39.2091 45.3523C39.2091 45.3523 39.2105 45.3538 39.2113 45.3545C39.2113 45.3545 39.2098 45.3531 39.2091 45.3523ZM22.3926 45.0801C22.3926 45.0801 22.3941 45.0816 22.3955 45.083C22.3948 45.0823 22.3941 45.0816 22.3926 45.0801ZM29.1394 44.2224C29.1394 44.2224 29.1394 44.2231 29.1394 44.2238C29.1394 44.2238 29.1394 44.2231 29.1394 44.2224ZM27.0724 38.1274C27.0724 38.1274 27.0739 38.1274 27.0753 38.1274H27.0724ZM18.7449 27.483C18.7449 27.483 18.747 27.483 18.7485 27.4837C18.747 27.4837 18.7463 27.4837 18.7449 27.483ZM19.6141 25.635C19.6177 25.6378 19.6221 25.64 19.6257 25.6429C19.6221 25.64 19.6185 25.6378 19.6141 25.635ZM80.2614 15.1072C80.2571 15.1518 80.255 15.1979 80.255 15.2448C80.255 15.1987 80.2578 15.1526 80.2614 15.1072ZM80.2744 10.4497C80.2744 10.4497 80.2737 10.4512 80.273 10.4519C80.273 10.4512 80.2737 10.4504 80.2744 10.4497ZM71.2101 7.42636C71.2101 7.42636 71.2086 7.42708 71.2086 7.4278C71.2086 7.4278 71.2094 7.42708 71.2101 7.42636Z" fill="white"/>
<path d="M81.1178 95.1697L81.1171 95.1689L81.1056 95.3677L81.1178 95.1697Z" fill="white"/>
<path d="M81.107 96.9442C81.076 96.9442 81.045 96.9435 81.0134 96.9413C80.1448 96.8902 79.4822 96.1462 79.5319 95.2777L79.5434 95.0789C79.5759 94.5143 79.9079 94.0109 80.4134 93.7581C80.919 93.5053 81.5218 93.5435 81.9921 93.8567C82.4588 94.1679 82.7252 94.7037 82.6921 95.2633L82.6799 95.4613C82.6295 96.2982 81.9352 96.9435 81.1077 96.9435L81.107 96.9442Z" fill="white"/>
<path d="M35.2855 78.2378C35.2855 78.2378 24.4207 72.7773 19.1258 64.4497C19.1806 71.6199 18.7946 80.6094 18.7946 80.6094L35.4504 83.8632L35.2855 78.2378Z" fill="white"/>
<path d="M64.0204 78.3481C64.0204 78.3481 74.8852 73.3291 80.18 64.946C80.1253 72.1163 80.5113 80.4993 80.5113 80.4993L63.8555 83.7531L64.0204 78.3481Z" fill="white"/>
<path d="M64.0751 75.7014H35.2307V88.8831H64.0751V75.7014Z" fill="white"/>
<path d="M58.2841 76.6384C58.2841 81.3262 54.4786 85.0762 49.7354 85.0762C44.9923 85.0762 41.1868 81.3262 41.1868 76.6384C41.1868 71.9507 44.9923 68.2007 49.7354 68.2007C54.4786 68.2007 58.2841 71.9507 58.2841 76.6384Z" fill="white"/>
<path d="M15.1554 81.0502V68.6961L14.4381 68.4202V66.7652L15.1554 66.434V65.2759L14.4381 65.0001V62.9043L16.8644 60.5882V60.0365C16.8644 60.0365 16.9746 59.5403 17.5817 59.5403H18.2991C18.2991 59.5403 18.8507 59.6505 18.8507 60.0365V60.5882L21.3325 62.9043V64.8899L20.6152 65.1102V66.2683L21.3872 66.5996V79.7258L15.1547 81.0495V81.0481L15.1554 81.0502Z" fill="white"/>
<path d="M84.4263 81.0502V68.6961L85.1436 68.4202V66.7652L84.4263 66.434V65.2759L85.1436 65.0001V62.9043L82.7173 60.5882V60.0365C82.7173 60.0365 82.6071 59.5403 81.9999 59.5403H81.2826C81.2826 59.5403 80.731 59.6505 80.731 60.0365V60.5882L78.2492 62.9043V64.8899L78.9665 65.1102V66.2683L78.1945 66.5996V79.7258L84.4263 81.0495V81.0481V81.0502Z" fill="white"/>
<path d="M48.9633 98.4235C42.9519 98.4235 39.1464 96.3832 35.0651 94.232C32.9139 93.0739 30.7086 91.9158 28.0612 91.0329C20.7261 88.5511 15.8172 91.5845 15.6516 91.6947L14.6592 90.1506C14.8796 89.9857 20.3948 86.5108 28.6122 89.2684C31.315 90.1506 33.6312 91.4196 35.8371 92.6324C39.9739 94.8938 43.945 96.9889 50.4527 96.6036C56.5196 96.2175 60.6556 94.1772 64.737 92.1909C66.4467 91.3087 68.101 90.5359 69.8107 89.8748C69.9209 89.8201 70.0311 89.7646 70.1967 89.7099C72.3479 88.8276 78.9658 86.2904 84.5912 90.5921L83.4886 92.026C78.6352 88.276 72.9543 90.5374 70.8038 91.4196C70.6389 91.4744 70.528 91.5298 70.3624 91.5845C68.7628 92.1909 67.1633 92.9637 65.4535 93.8459C61.427 95.8315 56.9603 98.0375 50.5074 98.4235C50.0659 98.3687 49.515 98.4235 48.9633 98.4235Z" fill="white"/>
<path d="M81.1178 95.1696L79.8488 94.3421C79.5729 94.1772 78.8009 94.0663 78.0288 94.1772C77.8639 94.1772 77.753 94.2319 77.5874 94.2874C76.981 94.4523 76.1535 94.6186 75.5471 94.1224C75.3267 93.9575 74.9954 93.516 74.9954 92.7987C74.9954 92.2471 75.2158 91.7508 75.6573 91.4196C77.0364 90.3169 80.5106 91.0883 81.5585 91.3648C82.2204 91.5297 82.9924 91.5297 83.1581 91.4196C83.4893 87.5593 85.0882 84.7463 85.9704 83.3678C79.5729 79.5076 69.8107 81.6026 66.1154 83.9195C60.655 87.3944 56.0774 89.5449 50.2316 89.5996C45.2681 89.5996 41.0766 87.5593 36.6092 85.4081C34.1274 84.1946 31.5355 82.9263 28.7224 81.9887C22.8211 80.0031 16.0377 82.209 13.4457 83.2576C14.3834 84.5266 15.8173 87.1179 16.0384 90.8686C16.2033 91.0335 16.9206 91.089 17.6379 90.9233C18.6858 90.703 22.1607 90.0958 23.5392 91.2546C23.9807 91.5859 24.1456 92.1369 24.1456 92.6338C24.0908 93.3511 23.8143 93.7364 23.5392 93.9028C22.9328 94.399 22.1053 94.1232 21.4989 94.013C21.334 93.9582 21.223 93.9028 21.0574 93.9028C20.2854 93.7379 19.5133 93.7926 19.2375 94.013L17.9685 94.785L17.9138 92.6893C17.3621 92.7994 15.9282 92.9651 15.046 92.3032C14.6045 91.9719 14.3841 91.4757 14.3286 90.9241C14.1637 86.1809 11.5163 83.5889 11.4608 83.5889L10.5786 82.7067L11.7367 82.155C12.1227 81.9901 21.223 77.5775 29.4404 80.3351C32.363 81.3275 35.0104 82.6512 37.5483 83.8647C41.7946 85.905 45.7664 87.8913 50.2885 87.8913H50.3433C55.7483 87.8913 60.05 85.7956 65.1792 82.4863C69.4809 79.7834 80.7324 77.3571 87.7918 82.4863L88.6193 83.038L87.9574 83.81C87.9027 83.8647 85.3647 86.8435 84.924 91.5866C84.8692 92.1383 84.5927 92.6345 84.1519 92.9103C83.2697 93.5167 81.7803 93.2964 81.2294 93.1307L81.1192 95.171V95.1696H81.1178Z" fill="white"/>
<path d="M23.4282 91.1985C23.4282 91.1985 22.546 90.3163 22.1593 89.599C21.4419 88.33 15.6516 90.8679 15.6516 90.8679L17.2512 91.1992" fill="white"/>
<path d="M75.4916 91.5298C75.4916 91.5298 76.3738 90.6475 76.7606 89.9857C77.5326 88.7167 83.2682 91.4196 83.2682 91.4196L81.6687 91.6954" fill="white"/>
<path d="M14.9897 91.2532C14.9897 91.2532 14.8248 87.7236 14.1075 86.124C13.28 84.5245 13.0049 82.9804 13.0049 82.9804C13.0049 82.9804 17.8583 80.5541 21.0019 80.4986C24.1455 80.4439 31.9776 81.7676 34.4587 83.2015C36.885 84.5252 43.5035 88.1651 46.923 88.8817C50.3425 89.599 56.0233 88.7167 59.5523 87.2821C63.0819 85.8482 65.4535 83.311 66.8874 82.7046C68.3213 82.0982 72.9543 80.3884 76.0425 80.1119C79.1314 79.8361 82.8814 81.1043 84.9772 81.4911C87.073 81.8771 86.7971 82.7046 86.7971 82.7046L84.2599 90.7563C84.2599 90.7563 80.1786 89.3772 77.4757 89.3224C74.7728 89.2122 70.1405 91.308 68.7066 91.8042C67.2727 92.3559 60.9855 94.9478 58.9452 95.7753C56.9596 96.6028 50.0659 98.4228 46.205 97.5405C42.2893 96.6583 34.7331 92.7973 32.7482 91.8604C30.7626 90.868 23.5931 88.4964 22.6554 88.9378C21.5528 89.3239 14.989 91.254 14.989 91.254L14.9897 91.2532Z" fill="white"/>
<path d="M82.6064 14.2612C82.4415 13.8197 81.7242 13.4891 78.6907 13.4891C77.4772 13.4891 76.3746 13.5438 76.3746 13.5438H76.2097C74.3343 13.7088 72.5144 14.0955 70.9703 14.8128C73.1215 12.2201 76.4855 10.6213 78.4711 9.84926C78.5812 9.79453 78.8571 9.68434 78.9673 9.57343C79.0775 9.40851 79.2431 9.2976 79.1322 9.02176C78.9118 8.58029 77.9741 8.4701 77.367 8.4701C76.7052 8.4701 75.7675 8.58029 74.6094 8.74593C74.0577 8.80067 73.5068 8.91086 73.0098 9.02176H72.9551C70.639 9.57343 68.4323 10.6213 66.6124 12.0552C66.392 12.2201 66.0607 12.4967 65.8403 12.6616L67.329 10.1244C68.1565 8.8554 68.984 7.58714 69.9217 6.53927C69.9764 6.48453 70.0319 6.37434 70.0866 6.31889C70.1413 6.15396 70.307 5.82268 70.2515 5.71249C70.1413 5.6023 70.0311 5.49211 69.6999 5.49211C69.3686 5.49211 68.5418 5.6023 65.1771 8.19499C61.978 10.4564 59.2758 13.3242 57.2355 16.578C56.408 18.0119 55.0296 20.7148 54.5326 22.5347C54.4779 22.3698 54.4779 22.1487 54.4224 21.983C54.3122 21.211 54.2575 20.439 54.2575 19.5567C54.2575 18.4541 54.3122 17.461 54.3677 16.8538C54.3677 16.578 54.313 15.9716 54.0919 15.9162C53.8715 15.8614 53.43 16.4124 53.3198 16.6335C51.6648 20.3835 51.2241 23.5826 51.1139 25.458L50.452 30.863C50.3973 31.249 50.066 33.1244 50.066 33.1244C49.5698 32.2969 49.2939 31.7452 48.9079 30.863C48.9079 30.8083 48.8532 30.8083 48.8532 30.7528L48.3015 29.9253L48.2468 29.8706C47.4193 28.9329 46.6472 28.4367 45.7096 27.885C44.4406 27.113 42.787 26.1198 40.4154 23.3622C39.0917 21.8181 37.5476 18.7292 37.0514 16.6335C36.059 12.442 36.1692 7.36821 37.2718 2.84541C37.382 2.56957 37.4367 1.96317 37.3265 1.79753C37.2156 1.6326 37.05 1.57715 36.8296 1.57715C36.4983 1.57715 36.1685 1.90844 33.9618 5.38264V5.43737C32.5279 7.75351 31.48 10.4009 30.9838 13.1038C30.8736 13.6555 30.8189 14.3173 30.7634 14.869C30.2118 13.6 29.8257 12.2763 29.4944 10.8979C28.7771 8.03006 28.5568 5.05135 28.8326 2.4601C28.8326 2.29518 28.8873 1.8537 28.7779 1.74279C28.6677 1.6326 28.502 1.57787 28.3364 1.57787C27.8402 1.57787 27.0674 2.18427 25.524 6.37578C24.0901 10.3469 23.5939 13.9868 24.0901 17.9579C22.4351 15.752 21.6638 12.7185 21.0012 9.90616C20.8363 9.2443 20.6699 8.52699 20.4496 7.92059C20.3394 7.5893 20.1183 6.81798 19.8432 6.9829C19.8432 6.9829 19.7884 6.9829 19.7884 7.03764H19.7337C19.7337 7.03764 19.679 7.03764 19.679 7.09237C19.6242 7.14711 19.4031 7.86442 19.4031 7.91987C19.2929 8.0848 19.2382 8.36135 19.2382 8.74737V9.62961C19.0733 11.7254 18.8522 17.0749 21.6098 22.7004L21.6645 22.8653C21.7193 22.9755 21.7747 23.0302 21.7747 23.0857C22.0505 23.6921 22.3811 24.2992 22.7124 24.8508C22.8226 25.0158 22.8773 25.2369 23.0437 25.4025C23.4297 26.0644 23.761 26.5051 24.0916 26.8912C22.492 26.5599 20.2313 26.1191 19.128 25.9535C18.9076 25.8987 18.5763 26.0637 18.5763 26.2847C18.4662 26.5051 18.5763 26.8364 18.7413 26.9466C19.6235 27.553 21.3887 29.0978 23.1539 30.6966H23.0991L26.2428 33.6192L26.5186 33.895C27.5665 34.8327 28.6144 35.8806 29.6075 36.8175L27.4563 36.5972C27.2359 36.5424 26.9601 36.7074 26.9046 36.9285C26.8492 37.1496 26.8499 37.4247 27.0696 37.5349L32.0886 41.6162L34.2945 43.3814L34.3493 43.4361L38.0993 46.4695C38.2095 46.5797 38.2642 46.5797 38.4306 46.6345L39.3683 46.6892C37.328 47.5714 35.4526 47.5714 33.2466 46.8541C31.5916 46.3025 29.9374 45.4202 28.5589 44.2614C28.394 44.0965 27.8416 43.82 27.6767 43.9856C27.5118 44.1513 27.6219 44.7029 27.7314 44.9233C28.1729 45.9712 28.9449 46.9089 29.717 47.7356C27.0696 47.4044 24.7534 46.6878 21.9958 45.4195C21.7754 45.3093 21.3894 45.0335 21.1683 45.2546C21.0034 45.4195 21.1136 46.0266 21.2785 46.1923C22.5475 48.1224 23.4844 49.3914 24.4776 50.3838C25.47 51.4317 26.8492 52.535 27.511 52.9765C27.676 53.0867 28.0073 53.2523 29.6068 53.2523C30.2132 53.2523 30.8758 53.1976 31.4822 53.1421H31.6471C30.0476 53.6938 28.5582 53.9142 27.2345 53.7485C26.9587 53.6938 26.3523 53.7485 26.2968 53.9689C26.2421 54.2447 26.793 54.6862 27.0141 54.7964C28.9442 55.4583 30.8196 55.9545 32.6395 56.1756C33.1912 56.3405 34.9557 56.782 36.7763 56.9476H37.1076C37.2725 56.9476 37.3834 57.0023 37.5491 57.0023C38.2664 57.0571 38.9282 57.1673 39.5894 57.1673C40.141 57.1673 40.7474 57.1125 41.3546 57.0023C41.3546 57.0571 41.4093 57.1673 41.4093 57.1673L41.7406 57.7737C41.6304 57.7737 41.5202 57.8839 41.4093 57.9386C41.2444 58.1035 41.2444 58.3801 41.2991 58.545L41.961 59.814C41.961 59.8687 42.0157 59.8687 42.0157 59.9242C42.0157 59.9242 42.0157 59.9789 42.0704 59.9789C42.0157 59.9789 42.0157 60.0336 41.9602 60.0336C41.7953 60.1986 41.6844 60.4197 41.7399 60.5853C42.0711 62.0192 42.7877 62.5154 43.284 62.9014C43.6152 63.1218 43.8356 63.2875 43.9458 63.7289C44.056 63.9493 44.1107 64.2806 44.2771 64.6112C44.4975 65.273 44.939 66.2107 44.7186 66.5967C44.3873 67.1484 44.1669 67.2586 43.7809 67.479C43.5605 67.6439 43.2292 67.8103 42.8986 68.1408C42.0164 68.9129 42.0164 69.9607 42.7337 71.1743L42.7885 71.2845C42.8986 71.4494 43.1197 71.5603 43.3401 71.5603C43.5605 71.5056 43.7262 71.3954 43.7816 71.1188C43.9465 70.2366 45.3811 69.5193 45.7117 69.5193C46.2079 69.4645 46.6494 69.4645 46.9807 69.1332C47.5324 68.5816 50.4002 68.5816 50.4002 68.5816C50.4002 68.5816 50.7314 68.5816 51.2824 68.6918C51.3926 68.7465 51.4473 68.802 51.5582 68.8567C51.6691 68.9114 51.7232 68.9669 51.8341 68.9669C51.8888 68.9669 52.8265 69.3529 52.9367 69.4631C53.1016 69.628 54.7019 70.511 54.9222 70.6212C55.0324 70.6759 55.9701 71.9449 56.1358 71.9449C56.3561 72.2762 56.4116 72.1653 56.4116 71.8347C57.018 71.4487 57.5697 70.6212 57.7908 69.7944C57.9557 68.9121 57.901 68.1394 57.4047 67.4782C57.35 67.4235 57.35 67.3681 57.2946 67.3681C57.1844 67.2579 56.9633 67.0922 56.6882 66.8164C56.3021 66.4851 55.6403 65.9342 55.4746 65.824C55.0886 65.3278 54.8682 64.8863 54.6471 64.2799C54.8121 64.2799 54.923 64.1697 55.0332 64.115C55.1433 63.95 55.1981 63.8391 55.1433 63.6187L55.0332 63.2875C54.923 62.7912 54.8128 62.2396 54.7019 61.6879V61.6332H54.7566C55.0324 61.6332 55.3083 61.4128 55.3083 61.0815C55.3083 60.9713 55.2535 60.9166 55.1981 60.8057L54.5917 59.2061C54.6464 59.2609 54.7019 59.3163 54.7019 59.3711C54.8668 59.536 55.2535 59.8125 55.4192 59.7023C55.5848 59.5921 55.5841 59.2061 55.6396 59.0405C55.7497 57.9379 56.5218 56.8345 57.4595 56.1727C57.5142 56.3376 57.5697 56.3931 57.5697 56.4485C57.6799 56.6134 57.6799 57.0002 57.8455 57.0002C58.0104 57.0002 58.2315 56.7243 58.5074 56.3938C58.8934 56.0078 59.2247 55.6765 59.61 55.5115L61.5401 56.2836C61.6503 56.6149 61.8714 57.1658 62.3121 57.5526C62.6434 57.8284 63.0294 58.1042 63.6358 58.4348C63.6906 58.4895 63.8008 58.545 63.8008 58.5997C63.746 58.6545 63.6358 58.6545 63.6358 58.7099C63.4155 58.8201 62.7536 58.9857 62.7536 59.2616C62.7536 59.5374 63.36 59.7031 63.5811 59.8133C64.0226 59.9782 64.4633 60.0336 64.9048 60.0336C65.8425 60.0336 66.67 59.7023 67.1662 59.1514C67.5522 58.6552 67.7179 58.0488 67.6077 57.3862C67.4975 56.89 67.3319 55.6765 67.2764 55.235L67.8281 53.58C67.8281 53.5253 67.8828 53.4698 67.8828 53.4151C67.8828 52.5876 67.6624 51.7601 67.221 50.7676V50.7129C67.221 50.6582 67.1662 50.548 67.1108 50.548C67.0553 50.548 67.056 50.4378 67.056 50.3831C66.9458 50.1627 66.7802 49.8314 66.6146 49.5556C65.2908 47.2942 63.3053 45.4742 63.1951 45.4188C63.0302 45.2539 62.6989 44.9773 62.5332 45.0875C62.3676 45.1977 62.3128 45.6392 62.3128 45.8595V45.9697C62.1479 45.6384 61.7064 45.0875 61.5408 44.9773C61.3204 44.5913 61.0993 44.2053 61.0446 43.9849C62.6441 36.4294 67.6624 31.4104 67.7179 31.3556C67.8281 31.2454 67.8828 31.1907 67.8828 31.0243C68.9854 20.215 81.2848 15.4711 81.4498 15.4163C81.5045 15.4163 81.8358 15.3062 81.8358 15.2514C82.6078 14.645 82.6633 14.3692 82.6078 14.259M54.5355 61.3588C54.56 61.3833 54.56 61.3833 54.5355 61.3588V61.3588Z" fill="white"/>
<path d="M48.1358 91.7495H47.9709L47.9161 93.0185H48.0811C48.5773 93.0185 48.7984 92.8536 48.8531 92.4121C48.8531 91.9706 48.6327 91.8057 48.1358 91.7502V91.7495Z" fill="#0055A5"/>
<path d="M51.9968 93.4599L52.9345 93.2943L52.2727 91.8604L51.9968 93.4599Z" fill="#0055A5"/>
<path d="M39.1464 91.1432L39.477 89.6545L38.3744 90.8126L39.1464 91.1432Z" fill="#0055A5"/>
<path d="M23.4837 83.3665H23.2078L23.0977 84.6354H23.3735C23.8697 84.6902 24.0908 84.4705 24.1455 84.029C24.2003 83.643 23.9806 83.4226 23.4837 83.3672V83.3665Z" fill="#0055A5"/>
<path d="M60.5455 91.0883L61.3175 90.7023L60.2697 89.4888L60.5455 91.0883Z" fill="#0055A5"/>
<path d="M65.6192 83.1467C60.2141 86.5662 55.8022 88.6619 50.2323 88.7167C42.7315 88.7714 36.9404 83.8079 28.9989 81.1057C21.0573 78.4028 12.0117 82.8709 12.0117 82.8709C12.0117 82.8709 14.9343 85.6832 15.1006 90.8679C15.1006 90.8679 20.34 87.4484 28.2823 90.0958C36.1691 92.7987 40.2504 98.0374 50.4534 97.431C59.2779 96.8793 64.3516 92.798 70.0318 90.6468C71.797 89.9849 78.3046 86.9515 83.93 91.1985C84.4817 86.1794 87.1291 83.0905 87.1291 83.0905C80.566 78.2372 69.591 80.6088 65.6199 83.1453L65.6192 83.1467ZM19.6774 87.3937C18.2435 87.6695 17.1957 86.8975 16.9198 85.4081C16.644 83.9742 17.3613 82.8154 18.8499 82.5403C19.3461 82.4301 19.7322 82.4856 20.1189 82.595L20.1736 83.864C19.8978 83.6991 19.5672 83.6437 19.236 83.6991C18.5741 83.864 18.2983 84.361 18.4085 85.1877C18.5734 86.0152 19.1258 86.4013 19.7322 86.2904C20.0635 86.2356 20.3386 86.07 20.6144 85.7941L21.0004 86.8967C20.6144 87.1171 20.2284 87.2828 19.6767 87.393L19.6774 87.3937ZM24.09 87.2288L23.318 85.6292H23.1531L23.0429 87.1179L21.6637 87.0077L21.9396 82.2097L23.7595 82.3199C25.0285 82.4301 25.6896 82.9818 25.6349 83.9749C25.5801 84.5813 25.3036 85.0775 24.7526 85.2986L25.6903 87.0084L24.0908 87.2288H24.09ZM28.0057 87.9461L26.6266 87.56L27.068 85.9605L26.2405 82.6512L27.7846 82.8716L28.1707 84.8572L29.4944 83.3685L30.9283 83.7546L28.5019 86.2918L28.0057 87.9468V87.9461ZM32.3074 86.4013C33.1897 87.1733 33.41 87.6702 33.1349 88.3868C32.6935 89.4347 31.7558 89.4894 30.8735 89.1041C30.2671 88.8283 29.7709 88.4977 29.3294 88.0563L29.9913 87.0638C30.4328 87.56 30.8735 87.9461 31.315 88.1117C31.5354 88.2219 31.8112 88.2219 31.8667 88.0015C31.9769 87.8366 31.8667 87.6702 31.3705 87.2295C30.5984 86.5122 30.3226 86.0714 30.6532 85.2439C31.0392 84.3617 31.9221 84.196 32.8044 84.5821C33.4108 84.8579 33.7421 85.1337 34.1281 85.5197L33.5217 86.4574C33.1904 86.016 32.7496 85.6854 32.4191 85.5752C32.1987 85.465 31.9776 85.465 31.9228 85.6854C31.8127 85.8503 31.8681 86.0167 32.3089 86.4027L32.3074 86.4013ZM33.7413 90.4271L35.3963 87.228L34.2383 86.6764L34.7899 85.6285L38.2094 87.3937L37.8234 88.5518L36.6099 87.9453L34.9549 91.1444L33.7413 90.4271ZM40.1942 93.6262L38.8151 93.1847L38.98 92.3025L37.6563 91.6406L37.1046 92.2471L35.8356 91.5852L39.4755 88.0555L40.9094 88.7728L40.1921 93.6262H40.1935H40.1942ZM43.7794 95.0061L40.967 94.1239L42.4556 89.6011L43.7794 90.0425L42.6767 93.462L43.9457 93.9035L43.7808 95.0061H43.7794ZM48.1358 94.0677H47.9154L47.8607 95.5016L46.4268 95.4469L46.5917 90.649L48.2467 90.7037C49.5157 90.7584 50.2323 91.3101 50.1768 92.4134C50.1768 93.5715 49.3493 94.1232 48.1365 94.0684L48.1358 94.0677ZM53.7612 95.1703L53.3752 94.3428L51.8866 94.5077L51.7216 95.3352L50.3425 95.5002L51.3349 90.5366L52.9344 90.3162L55.1404 94.7288L53.7612 95.1703ZM56.1328 94.6186L54.6989 90.0411L56.0226 89.5996L57.0705 93.0191L58.3395 92.6331L58.8911 93.7357L56.1335 94.6179L56.1328 94.6186ZM62.6404 92.2471L62.034 91.5852L60.6549 92.1916L60.7651 93.0191L59.4961 93.5708L58.9999 88.497L60.4338 87.8352L63.7978 91.4203L62.6397 92.2478L62.6404 92.2471ZM66.2803 90.4271C64.9566 91.0335 63.7431 90.5921 63.1367 89.2136C62.4748 87.8899 62.9163 86.5662 64.2393 85.9043C64.6807 85.7394 65.0668 85.6285 65.4528 85.6285L65.8388 86.842C65.5075 86.7873 65.177 86.7318 64.8464 86.9522C64.2947 87.228 64.0743 87.8344 64.4604 88.6072C64.8464 89.3792 65.4528 89.5449 66.0599 89.2691C66.3357 89.1041 66.6116 88.883 66.7772 88.5518L67.4391 89.4894C67.0531 89.9309 66.7772 90.2067 66.281 90.4271H66.2803ZM67.99 89.5442L66.1701 85.0768L69.0926 83.8633L69.5341 84.9112L67.9346 85.573L68.155 86.1794L69.4239 85.6278L69.9756 86.5655L68.5964 87.1171L68.8723 87.8344L70.5273 87.1726L70.9687 88.2205L67.9907 89.5442H67.99ZM74.1671 87.3922L72.7879 87.6681L71.7955 82.9803L74.7735 82.374L74.9939 83.532L73.3943 83.8633L73.5593 84.6354L74.7173 84.415L75.1588 85.5176L73.8351 85.7934L74.1664 87.393L74.1671 87.3922ZM76.0972 87.0617C75.7112 87.1164 75.3799 86.8413 75.3799 86.4553C75.3252 86.0692 75.6003 85.738 75.9863 85.738C76.3723 85.6832 76.7036 85.9583 76.7036 86.3444C76.7584 86.7304 76.4832 87.0617 76.0972 87.0617ZM80.5646 83.9728C80.3442 83.7524 80.0129 83.5313 79.6823 83.5313C79.0205 83.4766 78.5243 83.9173 78.4134 84.7448C78.3024 85.5723 78.7446 86.0685 79.4058 86.1787C79.7371 86.2335 80.0122 86.124 80.3982 86.0138L80.4529 87.1719C80.0115 87.3368 79.6254 87.3922 79.0738 87.3368C77.6399 87.1719 76.8678 86.1233 77.0335 84.6339C77.1984 83.1453 78.247 82.3178 79.7364 82.428C80.2326 82.4827 80.6186 82.5929 80.9499 82.814L80.5639 83.9721L80.5646 83.9728ZM81.6124 87.7783C81.2264 87.833 80.8951 87.5579 80.8951 87.1719C80.8404 86.7858 81.1155 86.4545 81.5015 86.4545C81.8876 86.3998 82.2188 86.6749 82.2188 87.061C82.2736 87.3922 81.9985 87.7228 81.6124 87.7783Z" fill="#0055A5"/>
<path d="M80.6208 94.232L80.0691 93.9007C79.6276 93.6249 78.7454 93.5147 77.9179 93.6803C77.753 93.6803 77.6421 93.7351 77.4764 93.7905C76.9248 93.9555 76.2629 94.0109 75.8769 93.6803C75.6565 93.5154 75.4909 93.1841 75.4909 92.7981C75.4909 92.4121 75.6558 92.0808 75.9871 91.8604C77.2561 90.868 81.0061 91.7502 81.4476 91.9152C81.8336 92.0253 82.9917 92.2464 83.4331 91.8604C83.5981 91.7502 83.598 91.64 83.6535 91.4189C84.0395 87.1172 85.9696 84.194 86.687 83.2563C80.1793 78.8999 69.8662 81.0503 65.7848 83.5321C61.1518 86.3445 56.1328 89.1021 50.2316 89.1021H50.1769C45.3235 89.1021 41.2422 87.1165 36.8303 84.9653C34.3485 83.6963 31.7565 82.4835 28.8887 81.5458C22.2154 79.2844 14.549 82.2631 12.6189 83.1454C13.4464 84.0831 15.3218 86.7852 15.4867 90.9767C15.4867 91.1417 15.5969 91.308 15.6516 91.4182C16.1478 91.8042 17.2511 91.5831 17.6372 91.5831C18.0786 91.473 21.8287 90.7556 23.0977 91.8035C23.3735 92.0239 23.5391 92.3552 23.5391 92.7959C23.5391 93.2367 23.3742 93.5133 23.1531 93.6782C22.7116 94.0095 22.1052 93.8431 21.5536 93.6782C21.3886 93.6234 21.2777 93.568 21.1121 93.568C20.2846 93.4031 19.4024 93.4578 18.9061 93.7329L18.3545 94.0642L18.2997 92.2443C18.1348 92.299 17.9685 92.299 17.8035 92.3545C17.6386 92.4092 16.0383 92.7405 15.2108 92.1341C14.935 91.9137 14.7146 91.5824 14.7146 91.1417C14.5497 86.2328 11.7366 83.4205 11.6812 83.4205L11.2952 83.0345L11.7914 82.8141C12.1774 82.6492 21.1121 78.3467 29.1091 80.9942C32.0316 81.9319 34.6243 83.2556 37.1608 84.4691C41.4625 86.5648 45.4884 88.5504 50.1769 88.5504H50.2316C55.4155 88.5504 59.8836 86.4547 65.3988 83.0352C69.6451 80.3878 80.6755 78.1818 87.405 82.9805L87.7363 83.2008L87.4604 83.4767C87.4057 83.5314 84.7576 86.6203 84.3715 91.5284C84.3168 91.9699 84.1512 92.3005 83.8199 92.4661C82.9376 93.0725 81.3935 92.631 81.1724 92.631C81.0075 92.5763 80.8966 92.5208 80.6762 92.5208L80.6215 94.2306L80.6186 94.2327L80.6208 94.232ZM77.9179 92.0808C77.3115 92.0808 76.7044 92.191 76.4293 92.3566C76.2643 92.4668 76.2643 92.5216 76.2643 92.7427C76.2643 92.9076 76.3191 93.0185 76.3745 93.0739C76.5395 93.1841 76.9809 93.0739 77.367 93.0192C77.5319 92.9645 77.6982 92.909 77.8632 92.909C78.4696 92.7988 79.3518 92.7988 80.0144 93.0192L80.0691 92.2472C79.3518 92.1924 78.5805 92.0822 77.9179 92.0822M20.1737 92.5784C20.5597 92.5784 20.9457 92.6332 21.2763 92.6886C21.4412 92.7434 21.6076 92.7988 21.7725 92.8536C22.1038 92.9638 22.6 93.0739 22.7649 92.9637C22.8197 92.909 22.8751 92.7988 22.8751 92.6325C22.8751 92.4661 22.8204 92.3566 22.7102 92.2464C22.1585 91.7502 20.5043 91.805 19.1251 91.9706V92.7427C19.4564 92.5777 19.8424 92.5777 20.173 92.5777" fill="#EE2E24"/>
<path d="M48.9633 97.9273C43.0621 97.9273 39.3113 95.9417 35.2855 93.7905C33.1342 92.6324 30.8728 91.4743 28.2816 90.5367C20.6152 87.944 15.486 91.254 15.4312 91.3087L14.9897 90.7023C15.2101 90.5374 20.5597 87.2274 28.502 89.8748C31.2049 90.757 33.4655 91.9706 35.6722 93.1841C39.9184 95.5002 43.945 97.6514 50.5081 97.2107C56.6852 96.8246 60.8767 94.7843 65.0128 92.7433C66.7225 91.8611 68.3221 91.1438 70.0318 90.4272C70.142 90.3724 70.2522 90.317 70.4178 90.2623C72.734 89.38 78.8556 86.8983 84.2614 91.0898L83.8199 91.6414C78.6907 87.7812 72.8996 90.0419 70.6937 90.9241C70.5287 90.9789 70.4178 91.0343 70.2522 91.089C68.5972 91.6954 66.9984 92.5229 65.2886 93.3504C61.3175 95.336 56.8509 97.4872 50.5081 97.8732C50.0119 97.8732 49.5157 97.928 48.9641 97.928" fill="#EE2E24"/>
<path d="M22.8766 92.302C21.1114 90.8133 20.3948 89.4342 20.3394 89.324L21.0012 88.9927C21.0012 88.9927 21.6631 90.3164 23.3173 91.6955L22.8759 92.302H22.8766Z" fill="#EE2E24"/>
<path d="M76.3739 92.4669L75.9324 91.8605C77.8625 90.4814 78.0836 88.9927 78.0836 88.938L78.8009 89.0482C78.8556 89.1029 78.5251 90.8681 76.3746 92.4676" fill="#EE2E24"/>
<path d="M54.1481 23.968C54.0379 23.4163 53.9277 22.699 53.8168 21.9824C53.8168 22.5888 53.927 23.2514 54.1481 23.968Z" fill="white"/>
<path d="M67.0531 50.7166C67.0531 50.6618 66.9984 50.6064 66.9984 50.6064C66.9984 50.6064 67.0164 50.6431 67.0531 50.7166C66.9984 50.5516 66.9429 50.4962 66.8882 50.3853C66.7233 50.1094 66.6124 49.8336 66.4467 49.6132C65.123 47.4073 63.1374 45.5866 63.1374 45.5866L63.1922 46.1383L63.2469 47.0205C63.2469 47.0205 56.9596 43.3807 54.3122 40.0167C52.2719 37.3693 49.8449 34.5562 48.411 31.082L47.8593 30.2545C46.0941 27.9931 44.164 28.4346 40.0827 23.6367C38.6488 22.0371 37.1047 18.7833 36.6077 16.6328C35.5599 12.1654 35.7255 7.03625 36.8281 2.51345C36.8281 2.51345 37.3798 0.969355 34.512 5.54689C33.0781 7.86303 32.0857 10.4003 31.5895 13.0477C31.3691 14.3714 31.2582 15.7506 31.3136 17.129C30.3759 15.1989 29.5484 13.1024 28.9975 10.8965C28.2802 8.02867 28.0598 5.04996 28.3356 2.23761C28.3356 2.23761 27.8394 1.7414 26.0742 6.37439C24.3645 11.0074 24.0887 14.9785 24.8607 19.4451C21.6616 16.7423 20.945 11.7787 19.8971 7.86303C19.8971 7.86303 19.8971 7.91776 19.8424 7.91776C19.7877 8.02795 19.7322 8.13814 19.6775 8.52416C19.6775 8.79999 19.6228 9.07583 19.6228 9.4064C19.4578 11.392 19.2367 16.7415 21.9389 22.2568C21.9936 22.4217 22.0491 22.5326 22.1038 22.6428C22.4898 23.4703 22.986 24.2423 23.3728 24.9589C24.0346 26.2279 24.6418 26.503 25.3584 27.5516C25.2482 27.5516 20.5604 26.5592 18.8507 26.2826C19.8986 26.9445 21.7732 28.6542 23.9799 30.75C23.9799 30.75 30.4328 31.3017 35.562 35.0517C35.562 35.0517 31.1494 32.9005 25.8553 32.5145C26.1866 32.7903 26.4617 33.0661 26.793 33.3967C28.3371 34.8306 29.8264 36.209 31.1494 37.4233L27.3439 37.0373L32.8591 41.5046L33.8516 41.5593C33.8516 41.5593 35.727 41.5046 37.5469 41.8906C39.5324 42.3321 40.5249 42.9385 40.5249 42.9385C39.4223 42.5525 37.6023 42.497 36.5537 42.6072C35.8364 42.6072 35.2848 42.8276 34.7338 42.883L35.0651 43.1034L38.4846 45.861L41.5735 45.9712C38.9808 47.5708 36.3895 48.2326 33.1357 47.1293C31.426 46.5776 29.7162 45.6407 28.2823 44.4819C28.834 45.9158 30.2124 47.1293 31.2603 48.2319C27.8409 47.9561 25.0278 47.184 21.8849 45.7501C23.0984 47.6255 24.0361 48.8938 24.9738 49.8869C25.9115 50.8793 27.2899 51.9272 27.8963 52.3687C28.3378 52.5891 30.2124 52.5891 31.5362 52.4789C31.7565 52.4789 32.0324 52.4241 32.1426 52.3687C32.4184 52.314 32.8044 52.2038 33.1904 52.1483C34.4594 51.8725 36.0582 51.3763 36.0028 51.4865C35.4511 51.8725 34.7893 52.2038 34.1274 52.5343C33.7414 52.6993 33.3554 52.9203 32.9139 53.086C31.094 53.858 29.1084 54.355 27.2885 54.1339C29.3288 54.8512 31.4252 55.4029 33.5757 55.6225C34.3478 55.6772 34.5682 55.6772 35.2307 55.4021C36.1684 54.9607 36.9959 54.5746 37.768 54.1886C38.154 54.0237 38.54 53.8026 38.926 53.6369C39.4777 53.3611 40.0287 53.0853 40.6358 52.7547C40.3045 53.086 39.9185 53.4166 39.5332 53.6924C39.3682 53.8573 39.0917 54.0237 38.9268 54.2441C38.1547 54.8505 37.3827 55.513 36.5004 56.2844C38.9268 56.4493 40.3607 56.836 43.5598 55.8429C43.5598 55.8429 42.8979 56.3391 41.9602 56.8908L42.8979 58.7661L41.85 58.2699L42.5119 59.5389C42.5119 59.5389 43.0081 60.1453 43.7254 60.6415L43.9458 61.4136C43.3941 61.2486 42.6768 60.6963 42.3462 60.4759C42.8979 62.6818 44.1662 62.2411 44.5522 63.5093C44.7726 64.3916 45.7657 65.9911 45.214 66.8733C44.6076 67.8658 44.1662 67.7556 43.2839 68.5831C42.2915 69.4653 43.0635 70.6234 43.2839 71.0094C43.4488 69.9615 44.2763 69.2442 44.7726 69.0793C45.4899 68.9144 46.3721 69.0246 46.6479 68.6933C47.806 67.5352 50.1776 67.3141 51.8319 68.3072C51.0598 67.0383 50.6183 67.0937 49.129 66.6522C51.8319 66.8172 52.0515 67.4243 53.3752 68.9684C53.4854 68.0861 52.7688 66.9828 52.1063 66.4311C51.9413 66.2662 49.7901 65.9349 47.6389 65.7693C46.8669 65.7146 46.591 64.7769 46.4808 64.2252C46.6458 64.3354 47.1982 64.6112 47.7498 64.6112C47.5849 63.8392 47.4185 63.0117 47.2536 62.5155C47.4185 62.6256 47.6951 62.7358 48.1358 62.7358L47.86 61.4669C47.6951 60.4744 47.3638 59.7571 48.3562 58.213C48.9079 58.5991 49.1283 58.7647 49.3486 59.0405C49.3486 59.0405 49.5136 59.9782 49.7901 60.5292C49.8449 60.6394 50.7825 61.4114 50.7825 61.5216L49.183 61.0254C49.183 61.0254 49.7347 62.2944 50.7825 63.011C51.389 63.2313 51.9961 63.5072 52.1617 63.7283C52.3274 63.9494 52.7134 64.666 52.5477 65.052C52.3828 65.3278 51.5553 64.1143 49.7901 65.6036C51.0591 65.6036 52.493 65.9349 52.8236 66.321C53.265 66.8172 53.5409 67.2586 53.816 67.4236C55.085 68.1956 55.1952 68.6371 55.085 70.1264C55.9125 69.52 55.6366 67.865 55.5812 67.4236C56.6838 68.6925 56.4634 70.457 56.1329 71.1736C56.9604 70.7321 57.898 68.9122 57.0151 67.5338C56.7947 67.3134 55.4155 66.2648 55.1397 65.9897C54.4778 65.2176 54.2575 64.3347 53.9262 63.4524C54.1466 63.4524 54.4779 63.5626 54.6982 63.5626C54.5333 63.011 54.4224 62.3491 54.2568 61.5771C54.2568 61.5223 54.202 61.4121 54.202 61.4121V61.3019C54.202 61.1917 54.1473 61.0816 54.1473 60.9707V60.8605C54.1473 60.7503 54.0925 60.6401 54.0925 60.5292C54.534 60.805 54.8646 60.9152 54.8646 60.9152L54.0925 58.8749C54.0925 58.71 54.1473 58.5436 54.1473 58.3787V58.3239C54.1473 58.159 54.202 58.0481 54.2575 57.8825V57.8277C54.3122 57.6628 54.3122 57.6074 54.3677 57.4417C54.3677 57.405 54.3857 57.3683 54.4224 57.3315C54.4771 57.1666 54.5326 57.0557 54.5873 56.89C54.256 57.6074 55.2492 58.71 55.2492 58.71C55.4141 57.1104 56.8487 55.5663 58.0615 54.9599C58.0068 55.4561 58.2264 55.8422 58.2264 55.8422C58.6125 55.0701 59.3291 54.7943 59.826 54.6286L60.8184 55.0147L61.8663 55.4561L62.1421 55.5663C62.1421 55.5663 62.3071 56.3938 62.804 56.7799C63.2455 57.1659 63.6862 57.3863 64.7896 58.1036C64.6794 58.3794 64.4583 58.6552 63.9073 58.8209C65.5069 59.3725 67.4924 58.7107 67.2166 57.001C67.1064 56.3946 66.8306 54.7396 66.8306 54.7396L67.2166 53.4706L67.3268 53.0846V53.0298L67.3815 52.8649C67.6574 52.3132 67.3815 51.4865 67.0502 50.7137M61.3701 53.1955L60.4879 51.6514L58.3366 50.5488L60.1018 52.5891C59.2196 52.0374 57.62 51.2099 55.9103 50.9341C55.9103 50.9341 57.3442 52.2578 58.0615 52.9744C58.2264 53.0846 58.2264 53.1393 58.2264 53.1393L58.0615 52.9744C57.8966 52.8094 57.3997 52.6985 56.3518 52.5883C55.3594 52.4782 54.2006 52.2571 53.1527 51.6507C53.1527 51.6507 53.3176 51.9265 53.7591 52.3125C54.2006 52.6438 54.7515 53.0846 55.579 53.3049C55.6338 53.3049 56.4613 53.6362 56.5167 53.691C55.965 53.9113 55.4688 54.2426 55.0281 54.5185C54.256 55.1249 53.7591 55.8422 53.4285 56.5588C52.8769 57.8277 52.4908 60.1439 52.8221 61.4676C51.7195 59.9789 50.7264 58.0481 51.278 55.8976C49.623 56.8353 48.5204 56.504 47.3069 56.3938C46.7552 57.1111 46.0379 58.8756 45.9832 60.4204C45.873 60.2555 45.8183 60.0891 45.7074 59.8688C45.2659 58.9311 45.0455 57.8832 44.9901 56.8353C44.9353 56.3938 44.9901 56.0078 44.9901 55.6772L48.8503 52.9196L43.2249 52.4234C43.3351 52.3687 43.3898 52.2585 43.5007 52.2585C45.6519 50.7144 48.3541 49.6658 51.0562 49.8322C51.2211 49.8322 51.4977 49.8322 51.6626 49.8869C49.9529 48.9492 46.8647 49.0047 45.0448 49.5009C42.6185 50.2729 41.6253 50.3284 39.0333 49.8322C41.7362 49.2805 41.6808 49.2258 43.3351 48.453C44.6588 47.681 47.1953 46.3018 50.3944 46.9089C49.6223 46.5776 48.9605 46.2471 48.0228 46.0267C47.0851 45.8618 45.5965 45.5852 43.9415 45.9165C43.9415 45.9165 45.0441 44.703 47.0851 44.4279C44.2727 41.8906 35.8897 37.8648 35.8897 37.8648C47.7477 40.6771 52.7667 46.2478 53.538 47.13C53.5927 47.1847 53.6482 47.2402 53.7029 47.2402C53.2615 46.2478 50.6695 40.1262 43.4445 35.6034C42.4521 34.997 41.3488 34.5555 40.3556 33.9484C38.7561 33.0107 37.2667 31.9628 35.8883 30.8047C22.5395 20.1603 27.5031 5.54473 27.5031 5.54473C27.0616 8.9642 27.668 12.2735 28.6612 15.2515C29.2676 17.1268 30.0951 18.8366 30.8671 20.3807C31.7493 22.0357 32.687 23.4696 33.4043 24.5174C35.0593 26.5578 37.0442 28.2675 39.3056 29.5365C39.3056 29.5365 29.2128 22.6421 34.9491 7.97178C34.7288 8.57818 30.7576 20.3259 45.7038 30.5843C45.9796 30.7493 46.2 30.7493 46.2554 30.9704C48.241 35.7683 55.9074 43.3245 57.2859 47.0198C57.2311 46.2478 57.121 45.5312 57.121 44.7584C58.0032 45.6407 58.665 46.7987 58.9963 48.0122C59.0511 47.2949 59.1613 46.1369 59.1613 45.4196C60.4302 46.0814 62.1947 47.5153 63.7388 49.1696L63.6841 49.1149L63.5191 48.9499C63.5191 49.0047 63.5739 49.0047 63.5739 49.0047C63.5739 49.0047 63.5739 49.0594 63.6286 49.0594L63.6833 49.1141L63.7381 49.1689L63.6833 48.0663L63.6286 47.5146C63.6286 47.5146 65.9447 50.3269 66.662 52.4782C66.7168 52.6431 66.7722 52.6985 66.7722 52.8642C66.7722 53.4706 66.662 53.8566 66.6073 54.1332C66.4971 54.3535 66.1658 54.7396 66.0556 54.795C66.0009 54.8497 65.9455 54.8497 65.9455 54.8497C66.0556 54.7396 66.1104 54.5739 66.1104 54.3535C66.1104 54.1332 66.0556 53.8573 65.9455 53.5815C65.8353 53.3611 65.7805 53.0298 65.7251 52.9196C65.6149 52.7547 65.5602 52.5883 65.5602 52.5883C65.6149 53.14 65.5602 53.4706 65.5054 53.7464V53.8011C65.3952 54.3528 65.1741 54.4075 65.0639 54.463C65.0639 54.3528 65.0092 54.2981 65.0092 54.2426C64.9545 54.0777 64.8443 53.8566 64.8443 53.691C64.6239 53.0291 63.6308 51.2646 63.3002 50.6575C63.0244 51.0435 63.4104 51.9265 63.4104 51.9265C63.5753 52.1469 63.7964 52.754 63.7964 52.754C63.576 53.3057 63.9613 54.023 64.4583 54.2981C64.2933 54.3528 63.8519 54.2981 63.4658 54.1332C63.6308 54.3535 64.0175 55.0154 64.2933 55.181C63.7417 55.0708 62.253 53.9121 61.3708 53.1955M64.8457 57.6628L64.1839 57.1111L63.6877 56.7251L63.5775 56.3391L63.5227 56.2289L63.3578 55.7327C63.9095 56.064 64.2955 56.6149 64.6268 57.0564C64.6815 57.1666 64.9581 57.7183 64.9581 57.7183L64.8479 57.6635L64.8457 57.6628ZM66.886 58.1036C66.7211 58.3239 66.3344 58.5998 66.0038 58.71C65.6178 58.8749 65.2318 58.9303 64.9012 58.8749C64.9559 58.8749 64.9559 58.8202 65.0114 58.8202C65.0114 58.8202 65.0661 58.8202 65.0661 58.7654C65.8381 58.2692 65.3974 57.3863 64.6246 56.4493L62.8047 54.8497L62.6945 54.7396L62.6398 54.6848H62.75L63.0258 54.8497L63.908 55.4014L63.9628 55.4561L64.4043 55.6765L64.8457 55.8969C65.2872 55.7867 65.728 55.6765 65.7834 55.6765C66.1147 55.5663 66.2796 55.5116 66.3351 55.4561C66.5555 55.5109 67.3275 57.4964 66.8867 58.1036" fill="#0055A5"/>
<path d="M76.4293 14.0955H76.5395C74.0022 14.2605 71.4657 14.9778 69.3692 16.3569C71.079 12.9375 74.9392 10.7315 78.3039 9.35309C78.3039 9.35309 78.7454 8.69123 74.6086 9.29836C74.057 9.35309 73.5608 9.46328 73.0091 9.51873C70.7477 10.0149 68.5965 11.0074 66.832 12.4413C65.8396 13.2688 64.9019 14.151 64.1291 15.1989C60.7097 19.7764 59.5516 23.803 59.5516 23.803C59.5516 23.803 59.0554 17.9018 66.6109 10.0697C67.4384 8.69051 68.3761 7.3668 69.4233 6.154C69.4233 6.154 69.5882 5.27177 65.2865 8.47014C62.1976 10.6213 59.4954 13.4891 57.5653 16.6328C56.848 17.9018 55.3594 20.7141 54.9179 22.534V22.699C54.9179 22.699 54.9726 23.8016 55.1383 25.2916C55.3586 27.1116 56.1307 29.5379 56.1307 29.5379C55.6345 28.5455 54.7515 26.2286 54.4757 25.2362C54.3108 24.6845 54.2553 24.2438 54.0897 23.8023C54.0349 23.5265 53.9795 23.2506 53.9247 22.9748C53.87 22.8099 53.87 22.699 53.87 22.5333C53.8153 22.3129 53.7598 22.0371 53.7598 21.816C53.6496 20.9338 53.5949 20.161 53.5949 19.2788C53.5949 18.1762 53.6496 17.2385 53.7051 16.5212C51.7195 20.9885 51.5539 24.5182 51.5539 25.8966C51.4437 26.7788 51.3889 27.4407 51.3889 27.9924C51.9406 29.4263 52.8228 31.4118 54.4224 33.8389C54.4224 33.8389 52.9885 33.0114 51.2788 30.0334C51.224 30.6952 51.1138 31.4673 50.8373 32.6261C52.8228 35.9353 54.6975 38.4726 56.4627 40.4027V36.487C57.0691 37.0934 57.5106 37.5896 57.8419 37.9756C58.1177 36.7067 58.5037 35.1633 59.1108 33.5083C62.5303 23.3054 66.6116 20.2165 66.6116 20.2165C62.8616 26.063 59.4414 37.8647 59.6078 43.38C60.3251 43.9864 60.9869 44.4826 61.5379 44.8686C61.2621 44.4271 60.9862 43.9309 60.9862 43.5449C62.6412 35.6581 67.8252 30.5289 67.8252 30.5289C68.9832 19.278 81.7234 14.4794 81.7234 14.4794C82.6056 13.8176 76.4293 14.0934 76.4293 14.0934" fill="#0055A5"/>
<path d="M78.3602 79.1202V72.7227C77.6983 73.2744 77.0912 73.6604 76.43 74.1019V76.032H75.4924V74.763C71.3556 77.4659 69.2598 77.7965 69.2598 77.7965C72.0722 76.3626 74.0577 74.9841 75.4924 73.7699V71.2881C70.3632 75.7007 65.7856 77.9059 64.1306 78.6787V79.6711H72.8997C74.6649 79.3953 76.5395 79.2296 78.4149 79.3398" fill="#E4E4E4"/>
<path d="M70.4733 80.2781C69.0942 80.6094 67.8259 81.1056 66.8335 81.5471V80.2781H70.4733Z" fill="#B7B7B7"/>
<path d="M59.4976 85.6277C59.1663 85.7926 58.5599 86.0692 58.2841 86.1794V82.2083H59.4976V85.6277Z" fill="#B7B7B7"/>
<path d="M59.4976 78.6787H58.2841V81.7122H59.4976V78.6787Z" fill="#B7B7B7"/>
<path d="M63.6344 83.1467V82.209H62.5865V84.0289C62.9178 83.864 63.3039 83.5874 63.6892 83.4225L63.6344 83.1467Z" fill="#B7B7B7"/>
<path d="M63.6337 78.6787H62.5858V81.7122H63.6337V78.6787Z" fill="#B7B7B7"/>
<path d="M60.7659 84.1938V82.2083H59.9384V85.4073C60.2142 85.2424 60.49 85.1315 60.7659 84.9659V84.1938Z" fill="#B7B7B7"/>
<path d="M60.7666 78.6787H59.9391V81.7122H60.7666V78.6787Z" fill="#B7B7B7"/>
<path d="M62.0903 78.6787H61.2628V81.7122H62.0903V78.6787Z" fill="#B7B7B7"/>
<path d="M62.0342 83.9734V82.2083H61.2067V84.8009C61.4825 84.636 61.7583 84.5251 62.0342 84.3595V83.9734Z" fill="#B7B7B7"/>
<path d="M63.6344 76.1421H58.2841V78.2378H63.6344V76.1421Z" fill="#B7B7B7"/>
<path d="M36.9405 83.4765C36.5544 83.3116 36.1684 83.0905 35.7269 82.9248V82.2075H36.9405V83.4765Z" fill="#B7B7B7"/>
<path d="M36.9405 78.6787H35.7269V81.7122H36.9405V78.6787Z" fill="#B7B7B7"/>
<path d="M39.9733 84.9666C40.3593 85.1315 40.6906 85.2979 41.0759 85.4628V82.209H39.9733V84.9666Z" fill="#B7B7B7"/>
<path d="M41.0773 78.6787H40.0294V81.7122H41.0773V78.6787Z" fill="#B7B7B7"/>
<path d="M38.154 78.6787H37.3265V81.7122H38.154V78.6787Z" fill="#B7B7B7"/>
<path d="M39.5332 78.6787H38.7057V81.7122H39.5332V78.6787Z" fill="#B7B7B7"/>
<path d="M41.0772 76.1421H35.7269V78.2378H41.0772V76.1421Z" fill="#B7B7B7"/>
<path d="M38.7057 84.3595C38.9261 84.5244 39.2574 84.6353 39.5332 84.8009V82.2083H38.7057V84.3595Z" fill="#B7B7B7"/>
<path d="M34.4587 82.2637C34.7346 82.4286 35.0104 82.4841 35.2862 82.6497V80.2234H34.4587V82.2637Z" fill="#B7B7B7"/>
<path d="M37.3265 83.6976C37.3813 83.6976 37.4367 83.7523 37.4914 83.7523C37.7118 83.8625 37.9877 83.9727 38.1533 84.0836V82.2083H37.3258V83.6969L37.3265 83.6976Z" fill="#B7B7B7"/>
<path d="M21.2223 76.8587V72.722C21.8841 73.2736 22.4913 73.6596 23.1524 74.1011V75.9765H24.0901V74.7075C28.2816 77.5199 30.3226 77.7964 30.3226 77.7964C27.5103 76.3625 25.5247 74.9841 24.0901 73.7698V71.3435C28.9435 75.535 33.3554 77.7964 35.2307 78.6239V79.7265C35.2307 79.7265 27.7854 79.7813 27.6197 79.7265C25.4685 79.2303 23.2633 79.2303 21.2223 79.4507" fill="#E4E4E4"/>
<path d="M32.6388 81.4916C31.5909 81.0502 30.2125 80.4992 29.4397 80.2227H32.6388V81.4916Z" fill="#B7B7B7"/>
<path d="M33.0796 81.4361V80.2781H33.9071V82.0433C33.7969 81.9885 33.5211 81.8783 33.0796 81.712V81.4361Z" fill="#B7B7B7"/>
<path d="M65.0128 82.2089V80.2788H64.1306V83.0912C64.4064 82.9262 64.737 82.7051 65.0128 82.5395V82.2082V82.2089Z" fill="#B7B7B7"/>
<path d="M66.3365 81.4916V80.2227H65.509V82.1528C65.7294 81.9878 66.0607 81.8769 66.3365 81.7113V81.4909V81.4916Z" fill="#B7B7B7"/>
<path d="M57.7878 78.2379V76.7493C57.7878 72.2819 54.148 68.6414 49.6799 68.6414C45.2119 68.6414 41.572 72.2812 41.572 76.7493V78.2379H42.9512C42.841 77.7964 42.7863 77.3557 42.7863 76.9142C42.7863 73.1642 45.8197 70.0753 49.6252 70.0753C53.4307 70.0753 56.4641 73.1087 56.4641 76.9142C56.4641 77.4104 56.4094 77.7964 56.2992 78.2379H57.7878Z" fill="#B7B7B7"/>
<path d="M23.097 72.281V70.4611L21.1669 68.531V70.6822C21.3872 71.0682 21.9944 71.8957 23.097 72.8882V72.2818V72.281Z" fill="#E4E4E4"/>
<path d="M78.3602 70.7372C78.1398 71.1232 77.5327 71.9507 76.4301 72.9431V70.5168L78.3602 68.5867V70.7379V70.7372Z" fill="#E4E4E4"/>
<path d="M48.3016 84.6907C48.0812 84.6907 47.9155 84.8556 47.9155 85.0767C47.9155 85.2978 48.0257 85.4627 48.3016 85.4627C48.4665 85.4627 48.5774 85.408 48.743 85.2978C48.743 84.9118 48.5781 84.6914 48.3016 84.6914V84.6907Z" fill="#B7B7B7"/>
<path d="M50.3426 84.6907C50.0668 84.6907 49.9011 84.9665 49.9011 85.4627C49.9011 85.9589 50.066 86.2348 50.3426 86.2348C50.6192 86.2348 50.7841 85.9589 50.7841 85.4627C50.8388 84.9665 50.6192 84.6907 50.3426 84.6907Z" fill="#B7B7B7"/>
<path d="M19.4023 67.7036C19.6782 67.7583 19.954 67.8685 20.2298 67.8685V71.5084C20.0095 71.3982 19.6782 71.3435 19.4023 71.3435V67.7036Z" fill="#B7B7B7"/>
<path d="M18.9055 71.2332C18.6297 71.1784 18.3538 71.1784 18.078 71.1784V67.5386H18.464C18.6289 67.5386 18.7399 67.5933 18.9055 67.5933V71.2332Z" fill="#B7B7B7"/>
<path d="M16.8097 71.2332C17.0855 71.1784 17.3614 71.1784 17.6372 71.1784V67.5386C17.3614 67.5386 17.0855 67.5933 16.8097 67.5933V71.2332Z" fill="#B7B7B7"/>
<path d="M15.486 71.5091C15.7063 71.3989 16.0376 71.3442 16.3135 71.3442V67.7043C16.0376 67.7591 15.7618 67.8693 15.486 67.8693V71.5091Z" fill="#B7B7B7"/>
<path d="M14.7694 64.7255C14.9343 64.6153 15.1554 64.5606 15.3211 64.5051V64.9466L14.7694 64.7262V64.7255Z" fill="#B7B7B7"/>
<path d="M17.6372 65.9938C17.3614 65.9938 17.0855 66.0486 16.8097 66.0486V64.1185C17.0855 64.0637 17.3614 64.0637 17.6372 64.0637V65.9938Z" fill="#B7B7B7"/>
<path d="M18.9055 64.1739C18.6297 64.1191 18.3538 64.1191 18.078 64.1191V66.0493C18.3538 66.0493 18.6297 66.104 18.9055 66.104V64.1739Z" fill="#B7B7B7"/>
<path d="M19.4023 64.2295C19.6782 64.2842 19.954 64.3944 20.2298 64.3944V66.3245C20.0095 66.2143 19.6782 66.1596 19.4023 66.1596V64.2295Z" fill="#B7B7B7"/>
<path d="M16.3135 66.1039C16.0376 66.1587 15.7618 66.2689 15.486 66.2689V64.3388C15.7063 64.2286 16.0376 64.1738 16.3135 64.1738V66.1039Z" fill="#B7B7B7"/>
<path d="M20.3948 64.5046C20.5597 64.5594 20.7808 64.6695 20.9464 64.725L20.3948 64.9454V64.5039V64.5046Z" fill="#B7B7B7"/>
<path d="M14.7694 68.1999C14.9343 68.0897 15.1554 68.0349 15.3211 67.9795V68.421L14.7694 68.2006V68.1999Z" fill="#B7B7B7"/>
<path d="M20.3948 67.9248C20.5597 67.9795 20.7808 68.0897 20.9464 68.1452L20.3948 68.3655V67.9241V67.9248Z" fill="#B7B7B7"/>
<path d="M20.9465 63.5122C20.0643 63.1261 19.0164 62.9058 17.9131 62.9058C16.755 62.9058 15.6517 63.1261 14.8796 63.5122V64.3397C15.7619 63.9536 16.8098 63.7333 17.9131 63.7333C19.0712 63.7333 20.1745 63.9536 20.9465 64.3397V63.5122Z" fill="#B7B7B7"/>
<path d="M20.9465 66.987C20.0643 66.601 19.0164 66.3806 17.9131 66.3806C16.755 66.3806 15.6517 66.601 14.8796 66.987V67.8145C15.7619 67.4285 16.8098 67.2081 17.9131 67.2081C19.0712 67.2081 20.1745 67.4285 20.9465 67.8145V66.987Z" fill="#B7B7B7"/>
<path d="M20.9465 63.1809C20.0643 62.7949 19.0164 62.5745 17.9131 62.5745C16.755 62.5745 15.6517 62.7949 14.8796 63.1809L17.306 60.8647H18.5195L20.9458 63.1809H20.9465Z" fill="#B7B7B7"/>
<path d="M17.2512 60.1481V60.5341H18.4647V60.1481C18.4647 59.9832 18.1335 59.9832 18.0787 59.9832H17.6372C17.5271 59.9832 17.2512 59.9832 17.2512 60.1481Z" fill="#B7B7B7"/>
<path d="M20.1744 75.4802C19.954 75.37 19.6228 75.3153 19.3469 75.3153V71.7856C19.6228 71.8404 19.8986 71.9506 20.1744 71.9506V75.4802Z" fill="#B7B7B7"/>
<path d="M18.9055 75.2045C18.6297 75.1498 18.3538 75.1498 18.078 75.1498V71.6201C18.3538 71.6201 18.6297 71.6748 18.9055 71.6748V75.2045Z" fill="#B7B7B7"/>
<path d="M17.6372 75.149C17.3614 75.149 17.0855 75.2038 16.8097 75.2038V71.6741C17.0855 71.6194 17.3614 71.6194 17.6372 71.6194V75.149Z" fill="#B7B7B7"/>
<path d="M16.3135 75.3146C16.0376 75.3693 15.7618 75.4795 15.486 75.4795V71.9498C15.7063 71.8396 16.0376 71.7849 16.3135 71.7849V75.3146Z" fill="#B7B7B7"/>
<path d="M83.2682 67.7036C83.544 67.7583 83.8199 67.8685 84.0957 67.8685V71.5084C83.8753 71.3982 83.544 71.3435 83.2682 71.3435V67.7036Z" fill="#B7B7B7"/>
<path d="M82.7713 71.2332C82.4955 71.1784 82.2197 71.1784 81.9438 71.1784V67.5386H82.3299C82.4948 67.5386 82.6057 67.5933 82.7713 67.5933V71.2332Z" fill="#B7B7B7"/>
<path d="M80.6763 71.2332C80.9521 71.1784 81.2279 71.1784 81.5038 71.1784V67.5386C81.2279 67.5386 80.9521 67.5933 80.6763 67.5933V71.2332Z" fill="#B7B7B7"/>
<path d="M79.4073 71.5091C79.6277 71.3989 79.959 71.3442 80.2348 71.3442V67.7043C79.959 67.7591 79.6832 67.8693 79.4073 67.8693V71.5091Z" fill="#B7B7B7"/>
<path d="M78.6353 64.7255C78.8002 64.6153 79.0213 64.5606 79.1869 64.5051V64.9466L78.6353 64.7262V64.7255Z" fill="#B7B7B7"/>
<path d="M81.503 65.9938C81.2272 65.9938 80.9514 66.0486 80.6755 66.0486V64.1185C80.9514 64.0637 81.2272 64.0637 81.503 64.0637V65.9938Z" fill="#B7B7B7"/>
<path d="M82.7713 64.1739C82.4955 64.1191 82.2197 64.1191 81.9438 64.1191V66.0493C82.2197 66.0493 82.4955 66.104 82.7713 66.104V64.1739Z" fill="#B7B7B7"/>
<path d="M83.2682 64.2295C83.544 64.2842 83.8199 64.3944 84.0957 64.3944V66.3245C83.8753 66.2143 83.544 66.1596 83.2682 66.1596V64.2295Z" fill="#B7B7B7"/>
<path d="M80.2348 66.1039C79.959 66.1587 79.6832 66.2689 79.4073 66.2689V64.3388C79.6277 64.2286 79.959 64.1738 80.2348 64.1738V66.1039Z" fill="#B7B7B7"/>
<path d="M84.2052 64.5046C84.3701 64.5594 84.5912 64.6695 84.7569 64.725L84.2052 64.9454V64.5039V64.5046Z" fill="#B7B7B7"/>
<path d="M78.6353 68.1999C78.8002 68.0897 79.0213 68.0349 79.1869 67.9795V68.421L78.6353 68.2006V68.1999Z" fill="#B7B7B7"/>
<path d="M84.2052 67.9248C84.3701 67.9795 84.5912 68.0897 84.7569 68.1452L84.2052 68.3655V67.9241V67.9248Z" fill="#B7B7B7"/>
<path d="M84.8124 63.5122C83.9301 63.1261 82.8823 62.9058 81.7789 62.9058C80.6209 62.9058 79.5175 63.1261 78.7455 63.5122V64.3397C79.6277 63.9536 80.6756 63.7333 81.7789 63.7333C82.937 63.7333 84.0403 63.9536 84.8124 64.3397V63.5122Z" fill="#B7B7B7"/>
<path d="M84.8124 66.987C83.9301 66.601 82.8823 66.3806 81.7789 66.3806C80.6209 66.3806 79.5175 66.601 78.7455 66.987V67.8145C79.6277 67.4285 80.6756 67.2081 81.7789 67.2081C82.937 67.2081 84.0403 67.4285 84.8124 67.8145V66.987Z" fill="#B7B7B7"/>
<path d="M84.8124 63.1809C83.9301 62.7949 82.8823 62.5745 81.7789 62.5745C80.6209 62.5745 79.5175 62.7949 78.7455 63.1809L81.1718 60.8647H82.3853L84.8117 63.1809H84.8124Z" fill="#B7B7B7"/>
<path d="M81.0615 60.1481V60.5341H82.275V60.1481C82.275 59.9832 81.9438 59.9832 81.889 59.9832H81.4475C81.3928 59.9832 81.0615 59.9832 81.0615 60.1481Z" fill="#B7B7B7"/>
<path d="M84.0951 75.4802C83.8747 75.37 83.5434 75.3153 83.2676 75.3153V71.7856C83.5434 71.8404 83.8192 71.9506 84.0951 71.9506V75.4802Z" fill="#B7B7B7"/>
<path d="M82.7713 75.2045C82.4955 75.1498 82.2197 75.1498 81.9438 75.1498V71.6201C82.2197 71.6201 82.4955 71.6748 82.7713 71.6748V75.2045Z" fill="#B7B7B7"/>
<path d="M81.503 75.149C81.2272 75.149 80.9514 75.2038 80.6755 75.2038V71.6741C80.9514 71.6194 81.2272 71.6194 81.503 71.6194V75.149Z" fill="#B7B7B7"/>
<path d="M80.2348 75.3146C79.959 75.3693 79.6832 75.4795 79.4073 75.4795V71.9498C79.6277 71.8396 79.959 71.7849 80.2348 71.7849V75.3146Z" fill="#B7B7B7"/>
<path d="M84.0951 80.4437C83.8192 80.3335 83.5434 80.2788 83.2676 80.1679V75.7005C83.2676 75.7005 83.8192 75.8654 84.0951 75.8654V80.443V80.4437ZM82.7714 80.0577C82.4955 79.9475 82.2197 79.8927 81.9439 79.8927V75.591C81.9439 75.591 82.4955 75.6458 82.7714 75.6458V80.0584V80.0577ZM81.5024 78.6238V75.5903C81.2266 75.5903 80.6749 75.6451 80.6749 75.6451V79.6716C80.9507 79.7264 81.2265 79.7818 81.5571 79.8366M80.2334 78.734V75.7005C79.9576 75.7552 79.4059 75.8654 79.4059 75.8654V79.4505C79.6817 79.4505 79.9576 79.5053 80.2334 79.5607M20.1731 78.237V75.9209C19.9527 75.8107 19.3456 75.756 19.3456 75.756V79.6716C19.3456 79.6716 19.8972 79.5615 20.1731 79.5067V78.2377V78.237ZM18.9041 75.6443C18.6282 75.5896 18.0766 75.5896 18.0766 75.5896V79.946C18.3524 79.8913 18.6282 79.8359 18.9041 79.7811V75.6443ZM17.6351 80.0569C17.3593 80.1117 17.0834 80.2219 16.8076 80.2219V75.6443C16.8076 75.6443 17.3593 75.5896 17.6351 75.5896V80.0569ZM16.3114 80.3882C16.0356 80.4984 15.7597 80.5532 15.4839 80.6086V75.9756C15.4839 75.9756 16.0356 75.8107 16.3114 75.8107V80.3882Z" fill="#B7B7B7"/>
<path d="M56.2438 78.6786C55.4163 81.5464 52.8244 83.6421 49.626 83.6421C46.4276 83.6421 43.8349 81.5464 43.0082 78.6786H41.5195V85.5729C44.3319 86.8419 47.1449 87.6687 50.2338 87.6687H50.2886C52.9915 87.6687 55.3623 87.117 57.7339 86.2348V78.5684L56.2453 78.6786H56.2438Z" fill="#B7B7B7"/>
<path d="M46.9785 79.2303C48.0811 79.8367 49.1297 80.1125 49.7908 80.2227H49.8456C49.9003 80.2227 49.9558 80.2227 50.0105 80.168C50.0652 80.1132 50.1207 80.0578 50.1207 80.003C50.1754 78.845 49.9558 77.7971 49.7894 77.4104C49.7894 77.3556 49.7347 77.3002 49.6792 77.2454C48.3 76.5836 47.142 75.8115 46.3152 75.0395C45.7088 74.4878 45.2673 73.8814 45.0462 73.2743C44.9915 73.2196 44.936 73.1094 44.8813 73.1094C44.7711 73.1094 44.7164 73.1641 44.7164 73.2196C44.2202 73.8814 43.8889 74.6535 43.7787 75.481V75.6459C44.3304 77.19 45.4884 78.3488 46.9778 79.231" fill="#EE2E24"/>
<path d="M46.5925 74.7075C46.6472 74.7622 46.7027 74.7622 46.7574 74.7622C46.8121 74.7622 46.8676 74.7075 46.9223 74.652C48.5219 72.4461 50.3418 71.6186 51.5553 71.3427C51.6655 71.3427 51.7202 71.2326 51.7202 71.1778C51.7202 71.1231 51.6655 71.0129 51.5553 71.0129C50.9489 70.848 50.2863 70.7371 49.6252 70.7371C48.7977 70.7371 48.0256 70.902 47.2536 71.2333C46.5363 71.5646 45.8744 72.0053 45.268 72.557C45.2133 72.6117 45.1578 72.7219 45.2133 72.7219C45.3235 73.0532 45.5993 73.7698 46.5917 74.7075" fill="#EE2E24"/>
<path d="M47.2536 75.0389C47.1989 75.1491 47.1989 75.2592 47.3083 75.3147C47.9702 75.8664 48.797 76.3626 49.7347 76.8033H49.8449C49.8996 76.8033 50.0098 76.7486 50.0098 76.6931C50.5614 76.0313 52.2157 74.4317 54.8631 74.0457C54.9179 74.0457 55.0281 73.991 55.0281 73.9355C55.0828 73.8808 55.0828 73.7706 55.0281 73.7706C54.5319 72.8884 53.87 72.1711 53.0425 71.6748C52.9878 71.6748 52.9323 71.6201 52.9323 71.6201C52.7119 71.6201 51.7742 71.6201 50.6162 72.1718C49.3472 72.7234 48.1899 73.6604 47.2522 75.0396" fill="#EE2E24"/>
<path d="M55.4163 74.6527C55.3615 74.5425 55.2513 74.4878 55.1959 74.4878C54.6997 74.5425 54.2582 74.6527 53.8167 74.7636C53.762 74.7636 53.7065 74.8184 53.6518 74.8738C53.597 74.9285 53.597 74.984 53.6518 75.0387C53.8167 75.535 54.0933 76.5274 54.148 77.7416C54.2027 78.5137 54.0933 79.1755 53.9831 79.8374C53.8729 80.2789 53.7627 80.7196 53.5416 81.1064C53.4869 81.2165 53.5416 81.2713 53.5963 81.3822C53.6511 81.4369 53.7065 81.4369 53.7613 81.4369C53.816 81.4369 53.8714 81.4369 53.9262 81.3822C54.588 80.7758 55.1397 80.003 55.4703 79.1762C55.9117 77.6876 55.9665 76.0873 55.4155 74.6534" fill="#EE2E24"/>
<path d="M49.9565 80.775C49.9017 80.7203 49.8463 80.6648 49.7916 80.6648C49.1297 80.4999 48.0818 80.2788 46.9792 79.7271C45.7102 79.0653 44.6631 78.1276 43.8903 77.0243C43.8356 76.9141 43.7254 76.9141 43.6699 76.9141C43.5597 76.9688 43.505 77.0243 43.505 77.079C43.5597 77.7963 43.6699 78.5676 44.0012 79.2302C44.4427 80.2226 45.1593 81.1603 45.9868 81.7674C46.869 82.3738 47.8622 82.7599 48.9093 82.9255H48.9641C49.0188 82.9255 49.129 82.8708 49.129 82.8153C49.6252 82.2636 49.901 81.6018 50.0112 80.8297C50.0112 80.8297 50.0112 80.775 49.9565 80.775Z" fill="#EE2E24"/>
<path d="M53.265 75.2599C53.265 75.2052 53.2103 75.1497 53.1548 75.095C53.0993 75.0403 52.9899 75.0403 52.9899 75.095C51.5012 75.7569 50.6183 76.6946 50.287 77.0806C50.2323 77.1353 50.2323 77.2455 50.2323 77.2455C50.3972 77.687 50.5636 78.5145 50.5636 79.5069C50.5636 80.1133 50.5088 80.7204 50.3986 81.2166C50.2337 81.7683 50.0673 82.1543 49.847 82.5958C49.7922 82.6505 49.7922 82.7607 49.847 82.8162C49.9017 82.8709 49.9572 82.9264 50.0119 82.9264C50.6183 82.8716 51.2809 82.7614 51.8873 82.5403C51.942 82.5403 51.942 82.4856 51.9975 82.4856C52.6039 81.8792 53.1001 81.1619 53.4314 80.3344C53.6517 79.6725 53.8174 78.9005 53.8174 78.073C53.7072 76.8595 53.4314 75.7569 53.2657 75.2607" fill="#EE2E24"/>
<path d="M47.1989 86.6207V84.8008L46.7027 84.9657L46.6479 84.6344L47.1996 84.4141H47.5856V86.6755L47.1996 86.6207H47.1989Z" fill="white"/>
<path d="M48.0811 84.911C48.0811 84.525 48.4124 84.3594 48.8531 84.3594C49.3493 84.3594 49.6252 84.5798 49.6252 84.911C49.6252 85.1314 49.4603 85.3525 49.2392 85.4627C49.515 85.6276 49.6806 85.7385 49.6806 86.0144C49.6806 86.4004 49.3493 86.6208 48.8531 86.6208C48.3015 86.6208 48.0256 86.3449 48.0256 86.0144C48.0256 85.794 48.1906 85.5182 48.4671 85.4627C48.2467 85.3525 48.0811 85.1314 48.0811 84.911ZM48.4124 86.0137C48.4124 86.1786 48.5773 86.3449 48.8539 86.3449C49.1304 86.3449 49.2953 86.18 49.2953 86.0137C49.2953 85.8473 49.1304 85.7378 48.7437 85.5722C48.5787 85.6824 48.4124 85.7926 48.4124 86.0137ZM49.1844 84.911C49.1844 84.7461 49.0195 84.6352 48.7984 84.6352C48.5773 84.6352 48.4671 84.8001 48.4671 84.911C48.4671 85.076 48.5773 85.1314 48.9086 85.2971C49.129 85.1869 49.1844 85.0767 49.1844 84.911Z" fill="white"/>
<path d="M50.8935 85.1869C51.2796 85.1869 51.5554 85.4073 51.5554 85.8488C51.5554 86.2902 51.2241 86.6208 50.7279 86.6208C50.2317 86.6208 49.9004 86.2895 49.9004 85.6831C49.9004 84.8556 50.4521 84.4141 51.1694 84.304L51.2241 84.6353C50.7826 84.7454 50.3966 84.9111 50.3419 85.3526C50.5622 85.2978 50.7279 85.1876 50.8935 85.1876V85.1869ZM50.8388 86.345C51.0592 86.345 51.2248 86.1801 51.2248 85.959C51.2248 85.7379 51.0599 85.5729 50.8388 85.5729C50.6739 85.5729 50.563 85.6277 50.3973 85.7379C50.3426 86.1239 50.5622 86.3443 50.8388 86.3443V86.345Z" fill="white"/>
<path d="M52.2172 86.6207V84.8008L51.721 84.9657L51.6663 84.6344L52.2179 84.4141H52.604V86.6755L52.2179 86.6207H52.2172Z" fill="white"/>
</g>
<defs>
<clipPath id="clip0_326_75">
<rect width="81.1936" height="100" fill="white" transform="translate(9)"/>
</clipPath>
</defs>
</svg>
