<svg width="100" height="103" viewBox="0 0 100 103" fill="none" xmlns="http://www.w3.org/2000/svg">
<g clip-path="url(#clip0_326_77)">
<path d="M97.2377 64.2917C97.2167 64.2461 97.1793 64.2094 97.1322 64.1907L91.2448 61.9252C91.3548 61.522 91.5673 60.9459 91.9713 60.3593L95.0074 61.7C95.1061 61.7434 95.2101 61.7651 95.3164 61.7651C95.5924 61.7651 95.8483 61.617 95.9837 61.3791C96.0683 61.2504 96.3002 60.8733 96.4955 60.3743C96.803 59.5872 96.8688 58.8854 96.6923 58.2876C96.5097 57.6688 96.066 57.19 95.4091 56.902L87.3071 53.1873C87.2929 53.1798 87.2735 53.1715 87.2548 53.1626L87.242 53.1573C86.9375 53.0242 86.3502 52.8521 85.6364 53.0915C85.6409 52.8431 85.6432 52.594 85.6417 52.3411C85.6394 51.6999 85.6192 51.0415 85.5818 50.3853C85.5429 49.7045 85.4838 49.0072 85.4068 48.3121C84.9511 44.1949 83.989 41.1947 83.5969 40.0964L83.466 39.7298C81.8798 35.2923 80.6274 31.7871 80.6573 27.5936C80.6805 24.4378 84.6331 19.9966 86.1534 18.5511L87.5772 17.2021L72.5807 3.54114L71.3986 4.3185C68.6528 6.12236 65.0997 7.11594 61.3947 7.11594C57.5079 7.11594 53.8314 6.03856 51.0414 4.08282L49.9947 3.34961L48.9488 4.08282C46.1581 6.03856 42.4808 7.11594 38.5955 7.11594C34.7102 7.11594 31.3367 6.12311 28.5916 4.3185L27.4095 3.54114L13.863 15.8823L12.416 17.2021L13.836 18.5518C15.3571 19.9966 19.3104 24.4385 19.3336 27.5951C19.3643 31.7879 18.1119 35.2931 16.525 39.732L16.394 40.0979C16.002 41.1962 15.0398 44.1956 14.5842 48.3129C14.5071 49.0094 14.448 49.7075 14.4091 50.3868C14.3717 51.0437 14.3515 51.7014 14.3493 52.3418C14.3493 52.5925 14.3508 52.8416 14.3545 53.09C13.643 52.8543 13.0594 53.0257 12.7557 53.1588L12.7437 53.1641C12.7242 53.1723 12.7063 53.1813 12.6913 53.1888L4.58929 56.9035C3.93239 57.1908 3.48872 57.6703 3.30617 58.2891C3.1296 58.8869 3.19544 59.5887 3.50294 60.3757C3.69746 60.8748 3.93015 61.2519 4.01469 61.3806C4.15011 61.6185 4.40524 61.7666 4.68207 61.7666C4.78831 61.7666 4.8923 61.7449 4.99106 61.7015L8.02717 60.3608C8.43119 60.9466 8.64292 61.5227 8.75365 61.9267L2.86474 64.1915C2.81761 64.2102 2.7787 64.2461 2.75925 64.2925C2.73905 64.3389 2.7383 64.3912 2.75626 64.4384L3.11164 65.3257C6.79043 74.5275 13.0422 82.3946 21.1899 88.0748C28.7584 93.3554 37.6251 96.4432 46.8337 97.0051L49.8638 100.008C49.9005 100.046 49.9498 100.064 49.9992 100.064C50.0486 100.064 50.0972 100.045 50.1346 100.008L53.1648 97.0051C62.3733 96.4417 71.2393 93.3547 78.8078 88.0748C86.9555 82.3946 93.2073 74.5275 96.886 65.3257L97.2414 64.4384C97.2601 64.3912 97.2594 64.3389 97.2384 64.2925H97.2369L97.2377 64.2917ZM27.7888 78.7645C22.6383 75.174 18.4672 70.4537 15.5568 64.9651L17.0068 64.4443C17.0524 64.5311 17.0973 64.6209 17.1445 64.7062C17.4677 65.2958 17.8238 65.8726 18.2054 66.4203C18.245 66.4771 18.2967 66.5557 18.3618 66.6515L18.3894 66.6926C24.9053 76.4676 34.5 82.5637 45.4151 83.8678L47.1599 85.6126C40.1779 85.1038 33.5311 82.7627 27.7895 78.7645H27.7888ZM72.2089 78.7645C66.4644 82.7657 59.8153 85.1068 52.8296 85.6141L54.5766 83.8678C65.4917 82.5637 75.0871 76.4676 81.6023 66.6926L81.6292 66.6515C81.6935 66.555 81.7459 66.4764 81.7863 66.418C82.1671 65.8711 82.5233 65.295 82.8457 64.7055C82.8936 64.6179 82.94 64.5289 82.9864 64.4414L84.4401 64.9636C81.5304 70.453 77.3586 75.1732 72.2081 78.763L72.2089 78.7645Z" fill="#014593"/>
<path d="M49.9963 3.34961L51.043 4.08282C53.8329 6.03856 57.5102 7.11594 61.3963 7.11594C65.2823 7.11594 68.6544 6.12236 71.4002 4.3185L72.5823 3.54114L87.5788 17.2021L86.155 18.5511C84.6347 19.9958 80.6821 24.437 80.6589 27.5936C80.6289 31.7864 81.8807 35.2916 83.4675 39.7298L83.5985 40.0964C83.9905 41.1947 84.9527 44.1949 85.4083 48.3121C85.4854 49.0072 85.5437 49.7045 85.5834 50.3853C85.6208 51.0415 85.641 51.6999 85.6432 52.3411C85.6447 52.5932 85.6432 52.8431 85.638 53.0915C85.8969 53.0047 86.1393 52.9718 86.3577 52.9718C86.7408 52.9718 87.0498 53.072 87.2436 53.1573L87.2563 53.1626C87.275 53.1715 87.2937 53.1798 87.3087 53.1873L95.4107 56.902C96.0676 57.19 96.5113 57.6688 96.6938 58.2876C96.8704 58.8854 96.8046 59.5872 96.4971 60.3743C96.3025 60.8725 96.0699 61.2504 95.9853 61.3791C95.8499 61.617 95.5948 61.7651 95.3179 61.7651C95.2117 61.7651 95.1077 61.7434 95.0089 61.7L91.9728 60.3593C91.5688 60.9459 91.3563 61.522 91.2463 61.9252L97.1338 64.1907C97.1809 64.2094 97.2191 64.2453 97.2393 64.2917H97.2407C97.2617 64.3381 97.2617 64.3905 97.2437 64.4376L96.8884 65.325C93.2096 74.5268 86.9578 82.3939 78.8101 88.0741C71.2416 93.354 62.3764 96.4409 53.1671 97.0043L50.1369 100.008C50.0995 100.044 50.0509 100.063 50.0015 100.063C49.9521 100.063 49.9035 100.044 49.8661 100.008L46.836 97.0043C37.6274 96.4417 28.76 93.3547 21.1922 88.0741C13.0445 82.3939 6.79274 74.5268 3.11395 65.325L2.75856 64.4376C2.73986 64.3905 2.7406 64.3381 2.76155 64.2917C2.78175 64.2461 2.81991 64.2094 2.86705 64.1907L8.75596 61.926C8.64523 61.522 8.43349 60.9459 8.02948 60.36L4.99337 61.7008C4.89461 61.7442 4.79061 61.7659 4.68437 61.7659C4.40755 61.7659 4.15242 61.6177 4.017 61.3798C3.93245 61.2519 3.70052 60.874 3.50524 60.375C3.19774 59.5879 3.1319 58.8861 3.30847 58.2883C3.49103 57.6696 3.9347 57.19 4.5916 56.9027L12.6936 53.188C12.7078 53.1805 12.7265 53.1715 12.746 53.1633L12.758 53.1581C12.9525 53.0728 13.2607 52.9725 13.6438 52.9725C13.86 52.9725 14.1002 53.0047 14.3568 53.09C14.3523 52.8416 14.3508 52.5925 14.3516 52.3418C14.3538 51.7014 14.3733 51.0437 14.4114 50.3868C14.4496 49.7075 14.5094 49.0094 14.5865 48.3129C15.0422 44.1957 16.0043 41.1962 16.3964 40.0979L16.5273 39.732C18.1134 35.2938 19.3666 31.7886 19.3359 27.5951C19.3128 24.4393 15.3594 19.9973 13.8383 18.5518L12.4183 17.2021L13.8653 15.8823L27.4103 3.54189L28.5924 4.31925C31.3375 6.12385 34.7103 7.11669 38.5963 7.11669C42.4823 7.11669 46.1596 6.03931 48.9496 4.08357L49.9955 3.35036M52.8296 85.6155C59.8154 85.1083 66.4644 82.7665 72.209 78.766C77.3594 75.1755 81.5312 70.4552 84.4409 64.9666L82.9872 64.4443C82.9408 64.5319 82.8944 64.6209 82.8465 64.7085C82.5241 65.298 82.168 65.8741 81.7871 66.421C81.7467 66.4794 81.6944 66.5572 81.63 66.6545L81.6031 66.6956C75.0879 76.4706 65.4926 82.5667 54.5774 83.8708L52.8304 85.617M27.7896 78.7675C33.5311 82.7657 40.1779 85.106 47.1599 85.6155L45.4152 83.8708C34.5 82.5667 24.9046 76.4706 18.3895 66.6956L18.3618 66.6545C18.2967 66.5587 18.2451 66.4801 18.2054 66.4233C17.8239 65.8764 17.4677 65.2995 17.1445 64.7092C17.0974 64.6232 17.0525 64.5341 17.0069 64.4473L15.5569 64.9681C18.4673 70.4575 22.6384 75.1777 27.7889 78.7675M49.9955 1.57563e-05L48.4214 1.10358L47.3754 1.83679C45.0419 3.47231 41.9242 4.37312 38.5963 4.37312C35.2684 4.37312 32.468 3.58379 30.0992 2.02683L28.9171 1.24947L27.1372 0.0800708L25.563 1.51433L12.0165 13.8555L10.5688 15.1761L8.39159 17.1617L10.5276 19.1915L11.9477 20.5412C12.6719 21.2296 13.8802 22.5501 14.9015 24.0068C16.4614 26.2334 16.5901 27.3317 16.5916 27.616C16.6186 31.3225 15.497 34.4619 13.9438 38.8065L13.8121 39.1746C13.3864 40.3665 12.3457 43.6106 11.8587 48.0121C11.7749 48.7738 11.712 49.5204 11.6716 50.2327C11.6634 50.3719 11.6566 50.5103 11.6499 50.6502L11.6439 50.6532H11.6417C11.5975 50.6734 11.5534 50.6936 11.51 50.7153L3.46559 54.4038C2.07697 55.0195 1.08713 56.1231 0.677129 57.5147C0.324737 58.7103 0.416763 60.0084 0.949466 61.3746C1.037 61.5983 1.12903 61.8055 1.21956 61.9918C0.795341 62.2986 0.45492 62.7168 0.244682 63.2001C-0.0665605 63.9161 -0.081524 64.7107 0.203532 65.4387L0.207273 65.4484L0.211014 65.4581L0.566398 66.3455C4.44421 76.0449 11.0334 84.3377 19.6225 90.3253C27.3175 95.6943 36.2882 98.9144 45.6262 99.6693L47.9321 101.955C48.485 102.504 49.2189 102.807 50 102.807C50.7811 102.807 51.5136 102.505 52.0665 101.957L54.3746 99.6693C63.7134 98.9129 72.6833 95.6928 80.3776 90.3246C88.9659 84.3369 95.5559 76.0449 99.4337 66.344L99.7883 65.4574L99.792 65.4477L99.7958 65.4379C100.083 64.7047 100.066 63.9042 99.7479 63.1844L99.0259 61.5496H98.9788C99.0027 61.4928 99.0259 61.4344 99.0498 61.3746C99.5833 60.0077 99.6753 58.7088 99.3229 57.514C98.9129 56.1231 97.9231 55.0195 96.5352 54.403L88.4818 50.7108C88.4609 50.7003 88.4429 50.6921 88.4302 50.6861L88.4063 50.6741L88.3674 50.6569L88.3546 50.6517L88.3472 50.6487L88.3419 50.6464C88.3352 50.5088 88.3285 50.3711 88.321 50.2327C88.2791 49.504 88.2162 48.758 88.1339 48.0129C87.6469 43.6098 86.6061 40.3665 86.1812 39.1761L86.0502 38.8095C84.497 34.4641 83.3748 31.3247 83.4017 27.616C83.4039 27.3325 83.5319 26.2334 85.0918 24.0076C86.1116 22.5524 87.3177 21.2333 88.0426 20.5442L89.4657 19.196L91.6092 17.1655L89.4268 15.1768L74.4295 1.51358L72.8554 0.0793226L71.0755 1.24873L69.8933 2.02608C67.5897 3.5389 64.5715 4.37237 61.3963 4.37237C58.221 4.37237 54.9507 3.47156 52.6172 1.83605L51.5697 1.10208L49.9955 -0.000732422V1.57563e-05Z" fill="white"/>
<path d="M85.6275 53.5015C85.8946 53.3915 86.1407 53.3496 86.357 53.3496C86.6712 53.3496 86.9278 53.4334 87.0879 53.5037C87.1104 53.5142 87.1253 53.5209 87.141 53.5284L95.2513 57.2476C95.805 57.49 96.1753 57.8851 96.3249 58.3938C96.515 59.0365 96.3287 59.7518 96.1386 60.2381C95.9531 60.7169 95.7227 61.0828 95.6576 61.1838C95.5551 61.3626 95.3411 61.4322 95.1623 61.3544L91.8426 59.8887L91.7521 60.0129C91.271 60.6668 91.0189 61.3222 90.8879 61.7883L90.3477 61.5803C90.4839 61.1075 90.7301 60.4835 91.173 59.8386L91.3024 59.6508L87.4515 57.9554C87.2667 57.8746 87.1747 57.6606 87.2458 57.4766L87.3094 57.3247C87.6296 56.6049 87.7433 55.85 87.6281 55.2036C87.5301 54.6484 87.2645 54.2265 86.9001 54.0454L86.8515 54.023C86.6944 53.9549 86.5335 53.922 86.3704 53.922C86.1153 53.922 85.8579 54.0028 85.6021 54.1561C85.6133 53.9392 85.6215 53.7207 85.6275 53.5015Z" fill="white"/>
<path d="M14.9838 50.4189C15.022 49.7493 15.0796 49.0624 15.1559 48.3756C15.6048 44.3182 16.5505 41.3704 16.9358 40.2908L17.0667 39.9249C18.6723 35.4336 19.9405 31.8858 19.9083 27.5905C19.8836 24.2341 15.8023 19.6261 14.2319 18.135L13.26 17.2117L14.2506 16.3087L27.4672 4.26751L28.2759 4.79872C31.1145 6.66318 34.7791 7.69042 38.5956 7.69042C42.5991 7.69042 46.3931 6.57639 49.2796 4.55256L49.9956 4.05054L50.7116 4.55256C53.5973 6.57564 57.392 7.69042 61.3955 7.69042C65.3991 7.69042 68.8766 6.66392 71.7152 4.79872L72.524 4.26751L86.7319 17.211L85.7577 18.1342C84.1873 19.6261 80.1067 24.2334 80.0821 27.5897C80.0506 31.8843 81.3188 35.4321 82.9236 39.9242L83.0546 40.29C83.4399 41.3697 84.3856 44.3175 84.8345 48.3749C84.9108 49.0594 84.9684 49.7463 85.0066 50.4181C85.044 51.0638 85.0634 51.7125 85.0657 52.3432C85.0829 57.0298 84.1656 61.0969 82.3401 64.4308C82.0273 65.0024 81.6809 65.5613 81.3128 66.0902C81.2709 66.1508 81.217 66.2324 81.149 66.3326L81.1213 66.3738C74.681 76.035 65.1941 82.0496 54.4083 83.3088L54.3088 83.3208L49.9926 87.6348L45.6786 83.3208L45.5798 83.3088C34.7933 82.0496 25.3064 76.0358 18.8661 66.3738L18.8384 66.3326C18.7711 66.2316 18.7172 66.1508 18.6761 66.091C18.3072 65.5605 17.9608 65.0016 17.6481 64.43C15.8225 61.0961 14.9053 57.0298 14.9232 52.3424C14.9255 51.7125 14.9449 51.0646 14.9823 50.4181L14.9838 50.4189Z" fill="white"/>
<path d="M8.24712 60.0129L8.15584 59.8887L4.83618 61.3544C4.65811 61.4322 4.44338 61.3626 4.34088 61.1838C4.27504 61.0828 4.04535 60.7177 3.85906 60.2381C3.66902 59.7518 3.48272 59.0365 3.67276 58.3938C3.82239 57.8866 4.19274 57.49 4.74639 57.2476L12.8566 53.5284C12.8716 53.5209 12.8866 53.5142 12.9098 53.5037C13.0699 53.4342 13.3273 53.3496 13.6407 53.3496C13.8555 53.3496 14.0994 53.3908 14.3635 53.4985C14.3695 53.7177 14.3777 53.9362 14.3889 54.1524C14.1353 54.0005 13.8794 53.9212 13.6273 53.9212C13.4634 53.9212 13.3026 53.9549 13.1454 54.0222L13.0976 54.0447C12.7332 54.2265 12.4683 54.6484 12.3696 55.2028C12.2551 55.8493 12.3696 56.6034 12.6883 57.3239L12.7519 57.4758C12.823 57.6599 12.7317 57.8738 12.5462 57.9546L8.69528 59.65L8.82397 59.8378C9.26689 60.4827 9.51229 61.1075 9.64995 61.5796L9.10902 61.7876C8.97884 61.3215 8.7267 60.666 8.24562 60.0121H8.24787L8.24712 60.0129Z" fill="white"/>
<path d="M96.5307 65.1857C92.8788 74.3194 86.6742 82.1267 78.5871 87.7642C71.0567 93.0179 62.232 96.0847 53.0675 96.6309C53.0211 96.6338 52.977 96.6533 52.9441 96.6855L49.9985 99.6056L47.0529 96.6855C47.02 96.6525 46.9759 96.6331 46.9295 96.6309C37.765 96.0839 28.941 93.0179 21.4099 87.7642C13.3228 82.1259 7.11816 74.3194 3.4663 65.1857L3.18274 64.4756L14.3471 60.1841C14.6426 60.0704 14.9471 60.1699 15.1184 60.425L15.1304 60.4445C15.1992 60.5589 15.3556 60.7759 15.5591 60.9704C15.6526 61.2645 15.7514 61.554 15.8546 61.8406C15.2748 61.6221 14.8551 61.0684 14.692 60.8215L14.6531 60.7632C14.6344 60.7355 14.6029 60.7175 14.567 60.7175C14.5528 60.7175 14.5393 60.7205 14.5274 60.725L13.7365 61.031L13.3804 61.1687L13.4462 61.3326C13.4709 61.3939 13.4971 61.4545 13.5218 61.5166C13.8518 62.3269 14.2086 63.1222 14.588 63.904C14.6433 64.0185 14.6987 64.133 14.7563 64.2467L15.1184 64.1165L16.5789 63.5913C16.6597 63.7649 16.7435 63.9362 16.8295 64.106L15.378 64.6283L15.0159 64.7585C15.0743 64.8722 15.1349 64.9844 15.194 65.0974C18.1336 70.6593 22.3541 75.4417 27.5689 79.0771C33.4869 83.1981 40.3552 85.575 47.5662 86.0217L48.1804 86.6359C40.6253 86.2888 33.4181 83.8595 27.2329 79.5514C20.7821 75.0556 15.8277 68.8293 12.9046 61.5488L12.8387 61.3849L3.94513 64.8071L4.01172 64.9739C7.62093 74.0015 13.7545 81.7197 21.748 87.2928C29.2755 92.5443 38.0965 95.5797 47.2594 96.072L49.8728 98.6644L50.0007 98.7893L52.7421 96.072C61.905 95.5797 70.726 92.545 78.2534 87.2928C86.247 81.7197 92.3798 74.0029 95.9898 64.9739L96.0563 64.8071L87.1628 61.3849L87.0969 61.5488C84.173 68.8308 79.2186 75.0556 72.7678 79.5514C66.5796 83.8609 59.3687 86.2918 51.8106 86.6367L52.4248 86.0224C59.638 85.5765 66.51 83.2003 72.4296 79.0771C77.6444 75.4424 81.8649 70.6593 84.8045 65.0974C84.8643 64.9844 84.9242 64.8714 84.9833 64.7585L84.6204 64.6283L83.163 64.1053C83.249 63.9355 83.3313 63.7641 83.4129 63.5906L84.8801 64.1173L85.2422 64.2475C85.2983 64.1337 85.3544 64.0193 85.4105 63.9048C85.7906 63.1229 86.1467 62.3276 86.4767 61.5174C86.5014 61.456 86.5275 61.3954 86.5522 61.3333L86.6181 61.1695L86.2619 61.0318L85.4719 60.7258C85.4591 60.7213 85.4464 60.7183 85.4322 60.7183C85.3963 60.7183 85.3649 60.7363 85.3462 60.7639L85.3073 60.8223C85.1427 61.0699 84.7207 61.6266 84.1371 61.8443C84.2396 61.56 84.3384 61.2727 84.4312 60.9809C84.6391 60.7841 84.7992 60.5619 84.8696 60.446L84.8823 60.4265C85.0536 60.1706 85.3581 60.0711 85.6537 60.1856L96.818 64.4771L96.5344 65.1872H96.5314L96.5307 65.1857Z" fill="white"/>
<path d="M50.2267 93.0815C50.3344 93.0837 50.3875 93.1645 50.386 93.258L50.3808 93.6127C50.3793 93.6927 50.3247 93.7653 50.2304 93.7645L48.4984 93.7391C48.3966 93.7376 48.3308 93.6628 48.3315 93.5895L48.3368 93.2288C48.339 93.1091 48.4064 93.056 48.5081 93.0575L48.8179 93.062L48.8672 89.7865L48.5096 89.7812C48.4011 89.7797 48.3495 89.6989 48.3503 89.6047L48.3555 89.25C48.357 89.17 48.4116 89.0974 48.5066 89.0982L50.3127 89.1251C50.4137 89.1273 50.4803 89.2014 50.4788 89.2747L50.4736 89.6353C50.4713 89.7551 50.404 89.8082 50.3023 89.8067L49.9379 89.8014L49.8885 93.077L50.2252 93.0815H50.2267Z" fill="white"/>
<path d="M46.8629 89.2547L46.3392 93.449C46.3175 93.6211 46.2397 93.6458 46.1192 93.6308L45.5506 93.5612C45.4302 93.547 45.3359 93.4879 45.2746 93.3794L43.6099 90.4997L43.5964 90.4982L43.2739 93.0794C43.2552 93.2253 43.1819 93.2702 43.048 93.2537L42.4262 93.1767C42.2729 93.158 42.2093 93.1161 42.2295 92.9574L42.7547 88.7504C42.7756 88.5784 42.8609 88.5552 43.0016 88.5724L43.5642 88.642C43.6981 88.6584 43.7595 88.7063 43.8208 88.8148L45.4833 91.714L45.4968 91.7162L45.8215 89.1148C45.8402 88.9697 45.9195 88.9315 46.0527 88.948L46.7021 89.028C46.8764 89.049 46.8779 89.144 46.8637 89.2562V89.2547H46.8629Z" fill="white"/>
<path d="M37.3648 88.9171L38.006 89.4715C38.4459 89.8539 38.6703 90.2983 38.4938 90.8818C38.214 91.8044 37.3079 92.1201 36.4236 91.856C36.0038 91.7303 35.519 91.4954 35.1442 91.2223C35.0499 91.1594 35.032 91.1048 35.0499 91.0472C35.0596 91.0158 35.0843 90.9806 35.109 90.9462L35.4412 90.4793C35.4801 90.421 35.5295 90.3731 35.614 90.3985C35.6462 90.4083 35.6761 90.424 35.7165 90.4569C35.9956 90.6731 36.3345 90.8579 36.6637 90.9559C36.9346 91.0367 37.3191 90.9986 37.4149 90.6843C37.489 90.4412 37.3319 90.2616 37.159 90.1127L36.4146 89.4581C36.0031 89.0975 35.8071 88.6066 35.9702 88.068C36.2193 87.2487 37.1852 87.034 37.9409 87.2592C38.4055 87.3983 38.7811 87.6003 39.135 87.8959C39.2247 87.9714 39.2494 88.0283 39.2322 88.0852C39.2247 88.1106 39.2023 88.139 39.1776 88.1734L38.826 88.6134C38.7684 88.6867 38.7205 88.7076 38.6621 88.6904C38.6299 88.6807 38.5948 88.656 38.5551 88.6239C38.3254 88.4301 38.0045 88.2355 37.7396 88.157C37.4807 88.0799 37.1613 88.0889 37.07 88.3904C37.0086 88.5954 37.2271 88.8004 37.3678 88.9194L37.3648 88.9171Z" fill="white"/>
<path d="M33.5671 90.0768C33.6673 90.1164 33.6868 90.2115 33.6516 90.2983L33.5177 90.6267C33.4878 90.7008 33.4092 90.7494 33.3224 90.7142L31.7153 90.0708C31.6211 90.0334 31.5874 89.9399 31.6143 89.8718L31.7505 89.5366C31.7954 89.4251 31.8784 89.4012 31.9727 89.4379L32.26 89.5531L33.496 86.514L33.1646 86.3815C33.0643 86.3419 33.0448 86.2469 33.08 86.1601L33.2139 85.8316C33.2439 85.7576 33.3224 85.7089 33.4092 85.7441L35.0851 86.4145C35.1794 86.4519 35.2138 86.5454 35.1861 86.6135L35.05 86.9487C35.0051 87.0601 34.922 87.0848 34.8285 87.0474L34.4911 86.912L33.2551 89.9511L33.5678 90.076H33.5663L33.5671 90.0768Z" fill="white"/>
<path d="M28.5624 84.3317C28.4435 84.2704 28.427 84.1858 28.4891 84.0669L28.7203 83.6277C28.7734 83.5267 28.852 83.508 28.9597 83.5633L31.8694 85.0724L32.1739 85.2303C32.2816 85.2856 32.2981 85.3552 32.2577 85.4315C32.254 85.4368 32.2517 85.4435 32.2457 85.4547L31.9509 85.8984C31.8769 86.0106 31.7834 86.0009 31.6584 85.9358L30.6065 85.3904L28.9231 88.5844C28.8542 88.7145 28.8236 88.7288 28.7046 88.6674L28.0297 88.3173C27.904 88.2522 27.9018 88.229 27.9676 88.104L29.6578 84.8981L28.5639 84.3317H28.5624Z" fill="white"/>
<path d="M27.3355 82.5427L26.7534 82.1671C26.6464 82.0975 26.5589 82.1207 26.4698 82.1828L22.7671 84.9062C22.7409 84.9211 22.7267 84.9436 22.7117 84.966C22.6788 85.0169 22.6811 85.0738 22.7432 85.1142L23.3873 85.5294C23.4891 85.5953 23.5744 85.5631 23.6455 85.5047L24.3128 84.978L24.5104 85.1052L25.5047 85.7471L25.7082 85.8788L25.5069 86.6749C25.4785 86.7923 25.4882 86.8859 25.6244 86.9741L26.2573 87.3826C26.3359 87.4343 26.4055 87.4141 26.4496 87.3467C26.4638 87.325 26.4773 87.2929 26.4878 87.2525L27.4582 82.7963C27.4776 82.705 27.4484 82.6145 27.3355 82.5419V82.5427ZM26.2753 83.7173L25.9065 85.0513L24.9802 84.4528L26.0568 83.5849C26.1735 83.4929 26.2813 83.4023 26.3756 83.32L26.3875 83.3275C26.3531 83.4405 26.3172 83.5699 26.2761 83.7181L26.2753 83.7173Z" fill="white"/>
<path d="M21.8184 82.1163L21.3785 81.2305C21.1353 80.7427 21.1413 80.2144 21.4975 79.7775C22.0399 79.1116 23.0163 79.2755 23.6298 79.7678C24.0076 80.07 24.2769 80.3985 24.4932 80.8048C24.547 80.908 24.5493 80.9701 24.5111 81.0165C24.4939 81.0374 24.4625 81.0547 24.4266 81.0778L23.9335 81.3532C23.852 81.3996 23.7989 81.4003 23.7525 81.3629C23.7263 81.3419 23.7031 81.306 23.6799 81.2604C23.5415 80.994 23.3178 80.6948 23.1023 80.5227C22.8928 80.3544 22.5928 80.2429 22.3938 80.4875C22.2584 80.6544 22.3826 80.9267 22.4671 81.0883L22.8494 81.8425C23.1105 82.3617 23.1494 82.857 22.7634 83.3299C22.1521 84.078 21.1937 84.0316 20.4755 83.4555C20.1343 83.1817 19.7759 82.7822 19.5327 82.3894C19.4707 82.2959 19.4736 82.2383 19.5118 82.1919C19.5327 82.1657 19.5687 82.1432 19.6053 82.1208L20.0901 81.8133C20.1485 81.7736 20.2128 81.7482 20.2809 81.8028C20.3071 81.8238 20.3288 81.85 20.3528 81.8956C20.5293 82.2001 20.7717 82.4986 21.0396 82.7126C21.2595 82.8892 21.6306 82.9977 21.8386 82.7425C21.9995 82.545 21.9232 82.3198 21.8199 82.1171H21.8184V82.1163Z" fill="white"/>
<path d="M17.2014 79.2036C17.2874 79.2978 17.2747 79.3914 17.1856 79.4729L16.8093 79.8171C16.7001 79.9166 16.6066 79.8844 16.528 79.8006L14.7922 77.9317C14.6965 77.8284 14.671 77.7521 14.8042 77.6294L17.948 74.7571C18.0371 74.6756 18.1283 74.6741 18.2151 74.7684L18.6768 75.2652C18.7778 75.3736 18.7793 75.444 18.6648 75.5487L16.0364 77.9496L17.2014 79.2043V79.2036Z" fill="white"/>
<path d="M13.8585 75.7583C13.9244 75.8436 13.8929 75.9349 13.8181 75.9917L13.5346 76.2079C13.4702 76.2566 13.3789 76.2588 13.3213 76.1847L12.2664 74.8223C12.205 74.743 12.2222 74.645 12.2814 74.6001L12.5701 74.3809C12.6659 74.3076 12.7505 74.3278 12.8126 74.4078L13.0011 74.6517L15.6212 72.6571L15.4035 72.3758C15.3377 72.2905 15.3691 72.1992 15.4439 72.1423L15.7275 71.9261C15.7918 71.8775 15.8831 71.8752 15.9407 71.9493L17.0405 73.3708C17.1019 73.4502 17.0847 73.5474 17.0256 73.5931L16.7368 73.813C16.641 73.8863 16.5572 73.8661 16.4951 73.7861L16.2736 73.4995L13.6535 75.4942L13.8585 75.7598V75.7583Z" fill="white"/>
<path d="M11.8878 69.1758L9.6545 70.5382C9.52806 70.6153 9.44651 70.5861 9.37618 70.4723L9.04773 69.9426C8.96618 69.8117 8.96019 69.7369 9.09786 69.6531L12.7385 67.4318C12.8881 67.3405 12.9585 67.3914 13.0325 67.5111L13.3296 67.9899C13.3999 68.1036 13.4006 68.1822 13.3535 68.2974L12.1093 71.3956L12.116 71.4076L14.3665 70.0339C14.4937 69.9569 14.5723 69.995 14.6426 70.1087L14.9853 70.6616C15.0773 70.8098 15.004 70.8704 14.9067 70.9295L11.2773 73.1441C11.1277 73.2354 11.0603 73.1897 10.9967 73.0872L10.6967 72.6032C10.6331 72.5007 10.6204 72.3907 10.6683 72.2755L11.8953 69.187L11.8886 69.175L11.8878 69.1758Z" fill="white"/>
<path d="M52.9718 90.2451C52.989 90.4584 53.2688 90.5706 53.4424 90.6304L54.243 90.9162C54.7929 91.1145 55.1647 91.4467 55.2134 92.0535C55.2904 93.0134 54.5624 93.6344 53.6422 93.7069C53.2052 93.7414 52.6673 93.6965 52.2184 93.5783C52.1084 93.5536 52.071 93.5094 52.0665 93.4496C52.0635 93.4159 52.074 93.3755 52.0845 93.3344L52.2221 92.78C52.2371 92.7111 52.2663 92.649 52.3531 92.6423C52.3867 92.6393 52.4212 92.6438 52.469 92.6602C52.8087 92.7612 53.191 92.8114 53.5344 92.7844C53.8173 92.762 54.1614 92.5877 54.1345 92.2607C54.1143 92.0078 53.9025 91.8964 53.6863 91.82L52.7526 91.4781C52.2371 91.2911 51.875 90.9035 51.8301 90.3439C51.7613 89.491 52.5828 88.9433 53.3691 88.8812C53.8524 88.8438 54.2766 88.8969 54.7143 89.0436C54.8251 89.081 54.8692 89.1251 54.8744 89.185C54.8767 89.2119 54.8662 89.2463 54.855 89.2875L54.6881 89.8239C54.6612 89.9129 54.6245 89.9496 54.5632 89.9541C54.5295 89.9571 54.4884 89.9466 54.4397 89.9301C54.1554 89.8321 53.7843 89.7678 53.509 89.7887C53.2404 89.8097 52.9456 89.9331 52.9703 90.2466L52.9718 90.2451Z" fill="white"/>
<path d="M58.4141 92.3056L58.747 92.2488C58.8533 92.2301 58.9206 92.3004 58.9363 92.3924L58.9977 92.7418C59.0111 92.8204 58.9707 92.9019 58.8779 92.9184L57.1713 93.2124C57.0718 93.2296 56.9933 93.1683 56.9798 93.0957L56.9177 92.7403C56.8975 92.6214 56.9544 92.557 57.0539 92.5398L57.3599 92.4867L56.7943 89.2583L56.4426 89.3196C56.3364 89.3383 56.269 89.268 56.2533 89.176L56.192 88.8266C56.1785 88.748 56.2189 88.6657 56.3109 88.65L58.0916 88.3425C58.1911 88.3253 58.2697 88.3867 58.2831 88.4592L58.3452 88.8146C58.3662 88.9336 58.3086 88.9979 58.2098 89.0151L57.8514 89.0765L58.4171 92.3049H58.4156L58.4141 92.3056Z" fill="white"/>
<path d="M66.21 88.4242C65.7731 87.1374 64.769 86.3802 63.4335 86.8261C62.1624 87.2503 61.712 88.4594 62.1721 89.8158C62.6352 91.1783 63.6647 91.8434 64.9486 91.414C66.1494 91.0129 66.6941 89.8503 66.2093 88.4242H66.21ZM64.6905 90.5476C64.0837 90.7503 63.5906 90.4286 63.2502 89.4275C62.9322 88.4893 63.1425 87.8758 63.6984 87.6895C64.3051 87.4875 64.784 87.7853 65.1304 88.8051C65.4641 89.7874 65.2531 90.359 64.6905 90.5468V90.5476Z" fill="white"/>
<path d="M74.3368 86.7767C74.4131 86.9031 74.4086 86.9368 74.2934 87.0049L73.6395 87.3924C73.5182 87.4643 73.4958 87.4538 73.4232 87.3333L71.5528 84.2284L70.4941 84.8561C70.3781 84.925 70.2973 84.8943 70.2285 84.7798L69.9726 84.3556C69.9135 84.2583 69.9382 84.1813 70.0422 84.1199L72.8606 82.4507L73.1554 82.2757C73.2594 82.2143 73.3275 82.236 73.3731 82.3108C73.3768 82.3161 73.3798 82.3228 73.3866 82.3333L73.6125 82.8143C73.6701 82.9356 73.6125 83.0089 73.4906 83.0814L72.4715 83.6852L74.3345 86.7797V86.7774L74.3368 86.7767Z" fill="white"/>
<path d="M77.7732 83.8341L78.044 83.635C78.1308 83.5714 78.2221 83.6044 78.2782 83.6799L78.4907 83.9642C78.5385 84.0286 78.5393 84.1199 78.463 84.1752L77.0691 85.1965C76.9876 85.2563 76.8896 85.2369 76.8454 85.177L76.6292 84.8867C76.5574 84.7895 76.5791 84.7072 76.6606 84.6473L76.9105 84.464L74.948 81.8282L74.6607 82.0384C74.5747 82.102 74.4827 82.0691 74.4266 81.9935L74.2141 81.7085C74.1662 81.6441 74.1654 81.5536 74.2418 81.4975L75.6947 80.4321C75.7755 80.3722 75.8743 80.3924 75.9184 80.4515L76.1346 80.7418C76.2065 80.8384 76.1848 80.9214 76.1032 80.9813L75.8107 81.196L77.7732 83.8318V83.8333V83.8341Z" fill="white"/>
<path d="M79.7671 77.1679C79.7289 77.0482 79.7379 76.9494 79.8464 76.8499L80.1928 76.5327C80.2915 76.4422 80.3589 76.4444 80.4457 76.5282L83.5267 79.5135C83.5312 79.5179 83.5364 79.5239 83.5409 79.5284C83.6269 79.6219 83.6247 79.7065 83.5357 79.788L83.0404 80.2422C82.9117 80.3604 82.8226 80.323 82.6895 80.1898L81.0659 78.5543L81.0562 78.5633L81.9645 81.027C82.0161 81.1617 81.9607 81.2305 81.8964 81.2896L81.7131 81.458C81.6188 81.544 81.5507 81.5792 81.4101 81.5268L78.9022 80.537L78.8925 80.5459L80.4763 82.3079C80.6043 82.4456 80.5542 82.5189 80.4494 82.6146L80.0432 82.9872C79.9287 83.0912 79.8381 83.1025 79.7424 82.9992C79.7379 82.9947 79.7334 82.9895 79.7289 82.9843L76.9809 79.7656C76.8761 79.6436 76.8941 79.5546 76.9883 79.4678L77.3452 79.1416C77.4589 79.0376 77.5405 79.0361 77.6714 79.0885L80.834 80.3073L80.8437 80.2975L79.7671 77.1694V77.1679Z" fill="white"/>
<path d="M85.0252 74.7908L83.2311 73.3124C83.1278 73.2263 83.1481 73.1395 83.2259 73.0468L83.6523 72.538C83.7339 72.44 83.8035 72.4108 83.9119 72.4998L85.7584 74.0209C86.9249 74.9823 86.9473 76.0006 86.1206 76.9882C85.2332 78.0476 84.2516 78.0468 83.1525 77.1408L81.3016 75.6152C81.1983 75.5292 81.223 75.4372 81.3001 75.3452L81.7265 74.8364C81.8081 74.7384 81.8777 74.7092 81.9861 74.799L83.775 76.2729C84.589 76.9433 85.0544 76.8587 85.4562 76.3806C85.8355 75.928 85.8295 75.4536 85.026 74.7915L85.0252 74.7908Z" fill="white"/>
<path d="M86.7416 68.2361C86.6728 68.1306 86.6556 68.0326 86.7341 67.9077L86.9847 67.5112C87.0558 67.3974 87.1209 67.3832 87.2272 67.4416L90.992 69.5178C90.9972 69.5215 91.004 69.5245 91.0092 69.5282C91.1177 69.5956 91.1364 69.6786 91.0728 69.7804L90.7152 70.3475C90.6216 70.4949 90.5266 70.4829 90.3628 70.3894L88.3629 69.235L88.3554 69.2469L89.8847 71.3867C89.9707 71.5034 89.9356 71.5835 89.8892 71.6576L89.7568 71.867C89.6887 71.9748 89.6326 72.0264 89.4822 72.0114L86.7999 71.7114L86.7932 71.7234L88.7894 73.0095C88.9495 73.109 88.9195 73.1936 88.8447 73.3118L88.5514 73.7764C88.4691 73.9066 88.3838 73.9403 88.2641 73.8662C88.2589 73.8624 88.2522 73.8594 88.2469 73.855L84.7425 71.4675C84.6085 71.377 84.6025 71.2857 84.6706 71.178L84.928 70.7702C85.0103 70.64 85.0881 70.6176 85.2288 70.6341L88.6023 70.9842L88.609 70.9722L86.7408 68.2354L86.7416 68.2361Z" fill="white"/>
<path d="M69.9577 85.8549C69.8073 85.5332 69.5417 85.2504 69.2073 85.1097C68.7367 84.9137 68.1905 85.0177 67.4812 85.3439L66.5273 85.7838C66.3867 85.8481 66.3612 85.9043 66.4323 86.0561L68.2264 89.8891C68.2953 90.0342 68.3813 90.0462 68.492 89.9953L69.104 89.7132C69.2447 89.6481 69.2589 89.5681 69.211 89.4648L68.626 88.2154C68.6955 88.1907 68.8916 88.1151 68.9709 88.0792C69.9128 87.646 70.4156 86.8313 69.9585 85.8549H69.9577ZM68.614 87.3363C68.5653 87.3587 68.3633 87.4515 68.281 87.4822L67.6653 86.1661L67.9646 86.0285C68.4232 85.8175 68.7831 85.8871 68.9985 86.3479C69.2028 86.7849 69.0726 87.1253 68.614 87.3363Z" fill="white"/>
<path d="M12.0771 57.3442C11.7823 56.5788 11.6865 55.7843 11.8062 55.1057C11.8152 55.0563 11.8257 55.0069 11.8354 54.959L11.9192 54.5857L4.98359 57.7662C4.57658 57.9443 4.32818 58.2024 4.22419 58.5533C4.00722 59.2872 4.46286 60.2397 4.66935 60.6145L4.7539 60.7679L12.1429 57.5111L12.0786 57.3427H12.0771V57.3442Z" fill="#014593"/>
<path d="M87.9214 57.3442C88.2162 56.5788 88.312 55.7843 88.1923 55.1057C88.1833 55.0563 88.1728 55.0069 88.1631 54.959L88.08 54.5857L95.0156 57.7662C95.4226 57.9443 95.671 58.2024 95.775 58.5533C95.992 59.2872 95.5356 60.2397 95.3299 60.6145L95.2453 60.7679L87.8563 57.5111L87.9207 57.3427L87.9214 57.3442Z" fill="#014593"/>
<path d="M84.9011 17.2305L72.4005 5.84252C69.4669 7.76983 65.6145 8.93923 61.3963 8.93923C57.1781 8.93923 52.9763 7.66434 49.9963 5.57617C47.017 7.66434 43.0098 8.93923 38.5971 8.93923C34.1843 8.93923 30.5257 7.76983 27.5928 5.84252L15.0923 17.2305C15.0923 17.2305 21.1233 22.9466 21.157 27.5823C21.1907 32.2181 19.8036 35.9739 18.1112 40.7114C17.4745 42.4928 16.7532 45.2902 16.3964 48.5134C16.3253 49.1576 16.2677 49.8174 16.2295 50.4908C16.1944 51.1013 16.1749 51.7216 16.1727 52.3485C16.1584 56.1987 16.8079 60.2964 18.7441 63.8323C19.0337 64.3613 19.3524 64.8775 19.7011 65.3781C20.7133 66.8295 28.885 80.3633 46.2517 82.1283L46.313 82.1896L49.9948 85.8714L53.6788 82.1874V82.1896L53.7402 82.1283C71.1076 80.3641 79.2792 66.831 80.2915 65.3781C80.6409 64.8775 80.9589 64.3613 81.2484 63.8323C83.1847 60.2972 83.8342 56.1987 83.8199 52.3485C83.8177 51.7208 83.7982 51.1013 83.7631 50.4908C83.7249 49.8182 83.6681 49.1576 83.5962 48.5134C83.2393 45.2902 82.5174 42.492 81.8814 40.7114C80.1898 35.9739 78.8027 32.2188 78.8363 27.5823C78.87 22.9466 84.9011 17.2305 84.9011 17.2305Z" fill="#014593"/>
<path d="M41.6436 28.3501L49.1419 12.4229C48.8643 11.8273 49.3267 11.0657 49.9117 11.0657C50.4968 11.0657 51.0437 11.8228 50.7677 12.4109L58.322 28.2648C59.5977 28.888 60.1588 29.6751 60.0989 30.1929C60.0376 30.7525 59.6291 31.1168 59.1607 31.2964C59.1892 34.1687 59.062 44.3619 59.1121 50.1782C59.7473 50.3203 59.7428 50.99 59.7002 53.2031C59.659 55.3099 59.8311 56.0117 58.4477 56.0117C58.2599 56.0117 57.8948 55.9953 57.8948 55.9953V55.271C57.8798 54.9186 57.8694 54.8064 57.6733 54.7294C57.086 54.4982 56.4695 54.2842 55.7887 54.0246C55.3173 53.845 41.0017 48.7409 41.0017 48.7409C41.0017 48.7409 40.3508 48.5412 40.3508 47.909C40.3508 47.8499 40.3463 47.297 40.3463 47.1077C40.3448 46.3333 40.3418 45.8649 40.3418 45.0674C40.3418 44.5452 40.6852 44.3446 40.9897 44.391C41.0099 44.394 41.0024 44.3349 41.0017 44.308C40.9912 42.4121 40.98 32.5511 40.9733 31.5179C40.3074 31.3196 40.1301 30.8423 40.1301 30.8423C39.8218 30.1667 40.148 29.1514 41.6421 28.3501H41.6436Z" fill="white"/>
<path d="M47.1989 46.4703C43.9982 45.3593 42.5512 44.7765 42.5183 43.8487C42.4981 43.2741 42.4203 40.8859 42.4802 40.2792L42.4203 31.3751C42.4173 31.111 42.8498 30.9561 43.2426 30.8603C43.6204 30.7676 45.9779 30.2461 49.92 30.2461C53.8622 30.2461 56.6207 30.7189 57.33 31.0047C57.4849 31.0668 57.6734 31.1402 57.7864 31.2374L57.7961 32.0051C57.1257 31.9115 54.5797 31.5629 53.4911 31.4903C52.9891 31.4559 52.3352 31.432 51.697 31.417C51.694 31.3489 51.6693 31.2838 51.6236 31.2329C51.5713 31.1753 51.4987 31.1409 51.4216 31.1387C50.03 31.0796 49.54 31.0796 48.1244 31.1387C48.0466 31.1417 47.974 31.1753 47.9224 31.2329C47.8708 31.2906 47.8438 31.3661 47.8468 31.4432L48.0324 34.8399C47.9755 34.8436 47.9254 34.8466 47.882 34.8504C47.1877 34.9065 44.4105 35.297 44.2242 35.3449C43.9705 35.4108 43.9077 35.4811 43.9316 35.5746C43.9683 35.725 44.1673 35.6734 44.3708 35.6509C45.7519 35.4946 46.9939 35.4093 48.0616 35.3681L48.0907 35.9091C48.0997 36.0632 48.2269 36.1829 48.3803 36.1829H48.3923C49.5706 36.1335 49.9754 36.1335 51.153 36.1829C51.3079 36.1881 51.4448 36.0677 51.4538 35.9091L51.483 35.3711C51.9259 35.3928 52.1646 35.416 52.1646 35.416C54.1472 35.5888 56.7359 35.9659 57.8522 36.64L57.8605 37.4413C57.2088 37.3014 55.5404 36.955 54.9261 36.9079C54.1577 36.8495 53.7934 36.8892 53.6647 36.9079C53.536 36.9258 53.4275 37.0014 53.4447 37.0994C53.4627 37.1937 53.5719 37.252 53.7365 37.2685C53.8951 37.2872 56.3596 37.3785 57.8702 38.4065L57.8799 39.2182C57.0098 39.0439 54.127 38.491 52.1272 38.3945C49.5093 38.2703 46.2517 38.5853 45.9966 38.6249C45.7415 38.6616 45.6135 38.7357 45.6307 38.8703C45.6494 39.0058 45.6921 39.0701 46.052 39.0439C46.3101 39.0245 51.0655 38.8531 53.5539 39.2145C55.5838 39.51 56.9821 39.846 57.8926 40.2799L57.9046 41.3019C57.0973 41.1373 55.3309 40.7954 54.4323 40.7198C52.5664 40.5627 51.3775 40.5919 51.1755 40.5919C50.9907 40.5919 50.9136 40.6772 50.9226 40.7917C50.9308 40.9323 51.0648 40.9316 51.1919 40.9353C51.4366 40.9435 52.8162 40.981 54.3403 41.2174C55.3376 41.37 56.8863 41.6139 57.9151 42.1444L57.927 43.1791C57.3906 43.1178 56.3372 43.0018 55.8927 42.9868C55.2897 42.9689 54.7862 42.9831 54.5947 43.025C54.4697 43.0534 54.4024 43.138 54.4196 43.2135C54.4398 43.2906 54.5056 43.3504 54.6306 43.3504C54.7555 43.3504 55.6556 43.4073 56.3334 43.5203C56.8676 43.6108 57.5043 43.7986 57.936 44.0126C57.936 44.0126 57.9398 45.0249 57.9405 45.3615C57.9405 45.3997 56.7898 45.0024 55.6511 44.9298C54.6201 44.864 53.6392 44.879 52.8634 44.9426C52.7923 44.9485 52.5753 44.9867 52.5806 45.1737C52.5851 45.378 52.8207 45.3421 52.933 45.3466C53.521 45.3683 54.0058 45.3466 55.0376 45.4476C56.5392 45.5965 57.954 46.0768 57.954 46.1075C57.9555 46.5205 57.957 46.8931 57.957 47.3869C57.957 47.4048 57.3113 47.2028 56.305 47.0704C55.8898 47.0158 55.17 46.9379 54.8962 46.9626C54.7114 46.9791 54.5385 47.0113 54.5311 47.1789C54.5206 47.4183 54.9448 47.4228 55.0944 47.4415C55.2538 47.4617 55.6975 47.4901 56.4733 47.618C57.1048 47.7213 57.9577 47.963 57.9577 47.9839C57.9577 49.0471 57.9547 49.9045 57.9547 49.9045C54.766 49.0201 50.5455 47.7131 47.1959 46.4726H47.1944L47.1989 46.4703Z" fill="#014593"/>
<path d="M50.0203 14.1685C50.2724 14.7072 50.5545 15.3072 50.8522 15.9424C50.5904 15.9589 50.0734 15.9993 49.7449 16.0748C49.5519 16.1175 49.5167 16.1871 49.5167 16.2544C49.5167 16.3158 49.5938 16.4115 49.7943 16.4153C50.2088 16.4235 50.7969 16.4519 51.0984 16.4684C51.1897 16.6577 51.2765 16.8507 51.3677 17.0437C51.1508 17.1081 50.841 17.2024 50.7542 17.2368C50.6181 17.2914 50.4759 17.3415 50.4871 17.4433C50.4961 17.5338 50.6442 17.545 50.7625 17.5615C51.0206 17.5936 51.4074 17.6183 51.6341 17.6124C51.7845 17.9348 51.8937 18.1675 52.0486 18.4974C52.1436 18.7024 51.8563 18.7428 51.6116 18.7586C51.3236 18.7788 50.5866 18.778 50.2342 18.8229C50.0966 18.8401 50.0435 18.9142 50.0435 18.9927C50.0435 19.0668 50.1467 19.1312 50.2784 19.1401C50.7819 19.1678 51.4014 19.2187 51.7306 19.283C52.0037 19.3354 52.3097 19.4035 52.5072 19.4776C52.6037 19.6803 52.6943 19.8823 52.79 20.0836C52.8439 20.1988 52.6875 20.2557 52.5723 20.2654C52.383 20.2811 51.5421 20.2287 51.0932 20.2721C50.8956 20.2931 50.8522 20.341 50.8522 20.4405C50.8522 20.5123 50.8889 20.5579 51.0819 20.5894C51.4396 20.6477 52.1608 20.6761 52.3883 20.7143C52.6292 20.7517 52.9434 20.8348 53.1948 20.944C53.3489 21.2762 53.4469 21.4834 53.5973 21.8089C53.6587 21.9428 53.5734 21.9877 53.4896 21.9937C53.3571 22.0042 51.8353 22.0221 51.7059 22.0303C51.551 22.0423 51.3767 22.0857 51.352 22.2107C51.3318 22.3087 51.465 22.4493 51.8174 22.4725C52.1705 22.4942 53.4993 22.572 54.1869 23.0636C54.3732 23.4624 54.5535 23.8492 54.7263 24.218C54.2071 24.1701 52.401 24.0168 51.5757 24.0414C50.8665 24.0616 50.5724 24.0414 50.5455 24.1851C50.52 24.3287 50.6682 24.3931 51.1163 24.438C51.5428 24.4799 53.8943 24.6198 55.1415 25.1031C55.3847 25.6231 55.6032 26.0885 55.7887 26.4835C55.1341 26.3526 53.6138 26.1259 52.692 26.1049C52.3366 26.0967 52.1982 26.1723 52.1982 26.3204C52.1982 26.4685 52.5177 26.4887 52.7369 26.5112C53.8891 26.6249 55.5141 27.0192 56.1516 27.2609C56.2189 27.4045 56.2713 27.5167 56.3139 27.6073C54.222 27.1718 51.2398 26.9616 49.92 26.9616C48.6002 26.9616 45.8073 27.1479 43.7079 27.6469C44.3042 26.3788 48.0107 18.4555 50.0203 14.167V14.1685Z" fill="#014593"/>
<path d="M55.152 49.8253C54.5064 49.6322 54.1824 49.535 53.536 49.3374C53.4724 49.3172 53.42 49.3554 53.42 49.4212C53.4163 50.5525 53.4148 51.1308 53.4103 52.2082C53.4103 52.2711 53.4619 52.3399 53.5255 52.3616C54.1727 52.5853 54.4959 52.6975 55.1431 52.9212C55.2067 52.9429 55.259 52.9107 55.259 52.8479C55.262 51.7653 55.2635 51.166 55.2673 49.9846C55.2673 49.915 55.2156 49.844 55.152 49.8245V49.8253Z" fill="#014593"/>
<path d="M52.4489 49.0029C51.8009 48.8016 51.477 48.6999 50.8283 48.4911C50.7647 48.4709 50.7123 48.5031 50.7116 48.5667C50.7086 49.6403 50.7071 50.197 50.7034 51.2654C50.7034 51.3275 50.755 51.3955 50.8186 51.4187C51.4665 51.6462 51.7905 51.7599 52.4384 51.9851C52.502 52.0068 52.5544 51.9746 52.5551 51.9125C52.5589 50.8381 52.5596 50.2658 52.5641 49.1562C52.5641 49.0912 52.5125 49.0231 52.4489 49.0029Z" fill="#014593"/>
<path d="M47.0238 47.2139C46.3736 46.9873 46.0481 46.8713 45.398 46.6356C45.3344 46.6132 45.282 46.6431 45.282 46.7044C45.282 47.7481 45.282 48.2823 45.2805 49.3478C45.2805 49.4099 45.3329 49.4779 45.3965 49.5004C46.0452 49.7293 46.3714 49.8453 47.02 50.0757C47.0836 50.0982 47.1367 50.066 47.1367 50.0047C47.1382 48.9422 47.139 48.4051 47.1405 47.3651C47.1405 47.3037 47.0881 47.2379 47.0245 47.2147L47.0238 47.2139Z" fill="#014593"/>
<path d="M44.3079 46.2391C43.6577 45.9997 43.333 45.88 42.6843 45.6361C42.6207 45.6121 42.5684 45.6428 42.5684 45.7056V48.4036C42.5684 48.4657 42.6207 48.5345 42.6843 48.5562C43.333 48.7777 43.6577 48.8906 44.3071 49.1181C44.3707 49.1398 44.4223 49.1076 44.4223 49.0455C44.4223 47.9779 44.4223 47.4429 44.4223 46.3925C44.4223 46.3311 44.37 46.2623 44.3064 46.2391H44.3079Z" fill="#014593"/>
<path d="M49.7389 48.1358C49.0902 47.9218 48.7648 47.8133 48.1146 47.5911C48.051 47.5694 47.9979 47.6008 47.9979 47.6614C47.9957 48.7051 47.9942 49.2446 47.9934 50.3077C47.9934 50.3691 48.045 50.4379 48.1086 50.4611C48.7573 50.6908 49.0828 50.8053 49.7314 51.0342C49.795 51.0567 49.8466 51.0245 49.8474 50.9631C49.8504 49.897 49.8519 49.3463 49.8549 48.2854C49.8549 48.2241 49.8025 48.156 49.7389 48.1343V48.1358Z" fill="#014593"/>
<path d="M54.1546 33.1903C54.3005 33.1701 54.9634 33.1701 55.8238 33.2838C56.4628 33.3698 57.386 33.5681 57.817 33.6676L57.8072 32.9254C56.9311 32.5641 54.926 32.2049 53.8486 32.0635C53.179 31.9752 52.4106 31.9042 51.6767 31.8525L51.5188 34.7338C51.9079 34.739 52.1585 34.7465 52.1585 34.7465C52.6471 34.7667 53.1461 34.7974 53.6474 34.8475C55.5335 35.0323 57.1451 35.3892 57.8387 35.5568L57.8259 34.5258C56.7396 33.6182 54.2601 33.5509 54.1232 33.5509C53.9751 33.5509 53.8329 33.5135 53.8314 33.3803C53.8277 33.2202 54.0072 33.2082 54.1554 33.191L54.1546 33.1903Z" fill="#014593"/>
<path d="M42.4659 30.2086C42.8003 30.1278 45.3142 29.2292 49.9207 29.2292C54.5273 29.2292 57.2746 30.2213 57.6023 30.3702C57.9577 30.531 58.2966 30.6373 58.45 30.3702C58.6048 30.1008 58.4223 29.7544 58.1664 29.5936C57.1661 28.9516 53.6272 28.1496 49.92 28.1855C46.2165 28.2222 42.4936 29.0317 41.9788 29.2472C41.4671 29.4596 41.2463 29.7597 41.4154 30.0739C41.6713 30.555 42.1337 30.2894 42.4651 30.2078L42.4659 30.2086Z" fill="#014593"/>
<path d="M57.8499 50.6279C57.2042 50.4349 56.8818 50.3399 56.2361 50.1483C56.1725 50.1289 56.1209 50.1708 56.1209 50.2418C56.1179 51.4509 56.1171 52.0584 56.1149 53.1433C56.1149 53.2069 56.1665 53.2757 56.2301 53.2974C56.878 53.5211 57.202 53.6333 57.8499 53.86C57.9135 53.8817 57.9659 53.8496 57.9659 53.7867V50.797C57.9659 50.7229 57.9135 50.6466 57.8506 50.6286L57.8499 50.6279Z" fill="#014593"/>
<path d="M48.9855 35.5904C49.8287 35.5724 50.8881 35.5904 50.8881 35.5904L51.0856 31.8749C50.2058 31.8218 48.77 31.8929 48.77 31.8929L48.9862 35.5904H48.9855Z" fill="#014593"/>
<path d="M38.0007 23.0208C37.6416 22.9377 37.147 23.047 36.6772 23.3492C36.2066 23.6508 35.8759 24.072 35.7599 24.4595C36.1198 24.5426 36.6136 24.4326 37.0834 24.1318C37.5533 23.8303 37.8855 23.4083 38.0007 23.0208Z" fill="white"/>
<path d="M36.0651 16.2715C36.11 15.866 35.9724 15.328 35.6634 14.832C35.3551 14.3359 34.9504 14.003 34.5935 13.9065C34.5478 14.312 34.6863 14.8492 34.9945 15.346C35.3035 15.842 35.7075 16.175 36.0651 16.2715Z" fill="white"/>
<path d="M36.0891 18.0334C36.0315 18.3948 36.1325 18.8849 36.3876 19.3458C36.6435 19.8059 36.9921 20.1261 37.3079 20.2316C37.3662 19.871 37.2652 19.3802 37.0093 18.92C36.7527 18.4592 36.4048 18.1397 36.0883 18.0334H36.0891Z" fill="white"/>
<path d="M36.7976 16.8835C37.0258 16.5632 37.1605 16.0238 37.1283 15.4223C37.0969 14.8192 36.9076 14.3015 36.6473 14.0127C36.4191 14.3329 36.2859 14.8724 36.3173 15.4746C36.3487 16.0762 36.538 16.5947 36.7984 16.8835H36.7976Z" fill="white"/>
<path d="M37.4912 19.7123C37.8361 19.5724 38.2042 19.1901 38.46 18.6589C38.7167 18.1277 38.799 17.5755 38.7122 17.1782C38.3665 17.3189 37.9992 17.7005 37.7425 18.2324C37.4859 18.7644 37.4044 19.315 37.4904 19.7131L37.4912 19.7123Z" fill="white"/>
<path d="M35.7068 17.3997C36.0869 17.7401 36.5111 17.9129 36.8403 17.895C36.7864 17.5336 36.5448 17.1094 36.1662 16.7682C35.7869 16.4278 35.3626 16.255 35.0334 16.2722C35.0866 16.6335 35.3282 17.0585 35.7068 17.3989V17.3997Z" fill="white"/>
<path d="M37.2369 18.5946C37.5249 18.3409 37.7658 17.8501 37.8586 17.2553C37.9514 16.6613 37.8728 16.1084 37.679 15.762C37.391 16.0156 37.1501 16.5071 37.0573 17.1012C36.9645 17.696 37.0424 18.2482 37.2369 18.5938V18.5946Z" fill="white"/>
<path d="M38.93 21.2902C38.5709 21.2072 38.0763 21.3172 37.6065 21.6187C37.1366 21.9202 36.8044 22.3407 36.6899 22.729C37.0491 22.812 37.5436 22.7021 38.0127 22.4005C38.4826 22.099 38.8148 21.6778 38.93 21.2902Z" fill="white"/>
<path d="M38.2176 20.8062C38.5655 20.3424 38.7458 19.8194 38.7324 19.4116C38.368 19.4722 37.9386 19.764 37.5929 20.2286C37.245 20.6925 37.0654 21.2147 37.0781 21.6232C37.4418 21.5619 37.8712 21.2693 38.2176 20.8062Z" fill="white"/>
<path d="M36.0996 23.0409C36.3862 22.7843 36.6241 22.2913 36.7124 21.6965C36.8022 21.1017 36.7199 20.5488 36.5238 20.2039C36.2373 20.4597 36.0001 20.9535 35.9103 21.5476C35.8221 22.1431 35.9029 22.6953 36.0996 23.0402V23.0409Z" fill="white"/>
<path d="M36.0307 24.7476C35.4965 24.8546 35.0551 25.1255 34.8276 25.4472C35.1419 25.6611 35.6387 25.7434 36.1729 25.6372C36.7071 25.5295 37.1477 25.2594 37.3744 24.9377C37.0609 24.7244 36.5627 24.6406 36.0292 24.7476H36.0307Z" fill="white"/>
<path d="M26.2618 22.729C26.1466 22.3407 25.8151 21.9202 25.3445 21.6187C24.8747 21.3172 24.3809 21.2072 24.021 21.2902C24.1362 21.6778 24.4684 22.099 24.9383 22.4005C25.4081 22.7021 25.9019 22.812 26.261 22.729H26.2618Z" fill="white"/>
<path d="M27.191 24.4587C27.0758 24.0712 26.7436 23.6499 26.2737 23.3484C25.8039 23.0469 25.3101 22.9369 24.9509 23.02C25.0647 23.4075 25.3968 23.8288 25.8667 24.131C26.3366 24.4318 26.8304 24.5418 27.191 24.4587Z" fill="white"/>
<path d="M28.1232 25.4471C27.8965 25.1261 27.4559 24.8545 26.9209 24.7475C26.3875 24.6405 25.8892 24.7236 25.5757 24.9376C25.8016 25.2593 26.2423 25.5301 26.7765 25.6371C27.3107 25.7433 27.809 25.661 28.1217 25.4471H28.1232Z" fill="white"/>
<path d="M35.552 24.1192C35.7996 23.5835 35.8744 23.0291 35.7817 22.634C35.4383 22.7807 35.0761 23.1705 34.8285 23.7077C34.5816 24.2449 34.5075 24.7978 34.601 25.1921C34.943 25.0462 35.3051 24.6564 35.5527 24.1192H35.552Z" fill="white"/>
<path d="M26.9448 26.4474C27.2448 26.6823 27.7379 26.8013 28.2766 26.7325C28.816 26.6629 29.2717 26.4242 29.5156 26.119C29.2155 25.884 28.7217 25.7658 28.1831 25.8346C27.6444 25.9042 27.1887 26.1429 26.9448 26.4474Z" fill="white"/>
<path d="M29.5389 25.8848C29.9908 26.2185 30.4786 26.3621 30.8414 26.3038C30.7487 25.9087 30.4412 25.4658 29.9893 25.1314C29.5366 24.7984 29.0495 24.6555 28.6852 24.7139C28.7787 25.1082 29.0855 25.5526 29.5381 25.8848H29.5389Z" fill="white"/>
<path d="M27.1709 22.634C27.0781 23.0298 27.1522 23.5842 27.3998 24.1192C27.6475 24.6564 28.0103 25.0454 28.3522 25.1921C28.445 24.797 28.3717 24.2434 28.1226 23.7077C27.8757 23.1712 27.5135 22.7814 27.1709 22.634Z" fill="white"/>
<path d="M27.9564 15.3467C28.2654 14.8507 28.4038 14.3127 28.3581 13.9072C28.0005 14.003 27.5965 14.3367 27.2867 14.8327C26.9785 15.328 26.8401 15.8667 26.8857 16.2722C27.2433 16.1765 27.6474 15.8428 27.9564 15.3467Z" fill="white"/>
<path d="M27.2449 17.3997C27.6235 17.0592 27.8659 16.6343 27.9183 16.2729C27.5891 16.2557 27.1649 16.4285 26.7863 16.7689C26.4062 17.1101 26.1646 17.5343 26.1115 17.8957C26.4406 17.9137 26.8641 17.7408 27.2442 17.4004L27.2449 17.3997Z" fill="white"/>
<path d="M34.675 26.7325C35.2145 26.8013 35.7068 26.6816 36.0068 26.4474C35.7621 26.1421 35.3065 25.9035 34.7678 25.8346C34.2291 25.7658 33.7361 25.884 33.436 26.119C33.6807 26.425 34.1363 26.6629 34.6743 26.7325H34.675Z" fill="white"/>
<path d="M29.8337 26.5291C29.3039 26.6615 28.8752 26.9533 28.6613 27.2855C28.9822 27.4838 29.4828 27.5436 30.0132 27.4104C30.5235 27.2825 30.9417 27.0057 31.1624 26.6877C31.2283 26.7476 31.2926 26.8082 31.3554 26.8717C30.7651 27.2129 30.2526 27.6686 29.8082 28.2499C29.9833 28.5267 30.0708 28.6651 30.2459 28.942C30.5841 28.1781 30.9978 27.5414 31.4939 27.0169C31.969 27.5369 32.3288 28.1639 32.6692 28.9322C32.8443 28.6562 32.9311 28.517 33.1062 28.2402C32.6603 27.6566 32.1986 27.2122 31.633 26.8755C31.6959 26.8141 31.7602 26.7528 31.8261 26.6937C32.0483 27.0094 32.4635 27.2825 32.9715 27.4097C33.5012 27.5429 34.0025 27.483 34.3227 27.2847C34.1095 26.9525 33.6793 26.6608 33.1496 26.5283C32.7082 26.4176 32.2877 26.4423 31.9727 26.568C31.6727 26.6877 31.4916 26.7939 31.4916 26.7939C31.3569 26.7206 31.2155 26.6525 31.0681 26.5897C31.0599 26.5859 31.0509 26.5822 31.0427 26.5785C31.039 26.5762 31.036 26.5747 31.0315 26.574L31.033 26.5755C30.7165 26.4423 30.2863 26.4154 29.8344 26.5283L29.8337 26.5291Z" fill="white"/>
<path d="M25.4605 19.7123C25.5465 19.3143 25.465 18.7629 25.2083 18.2317C24.9517 17.7005 24.5843 17.3181 24.2394 17.1775C24.1534 17.5748 24.2357 18.1269 24.4916 18.6581C24.7482 19.1901 25.1148 19.5717 25.4605 19.7116V19.7123Z" fill="white"/>
<path d="M33.4129 25.8848C33.8648 25.5526 34.1738 25.1081 34.2659 24.7139C33.903 24.6555 33.4152 24.7991 32.9625 25.1313C32.5106 25.465 32.2024 25.9087 32.1104 26.3037C32.474 26.3621 32.961 26.2184 33.4129 25.8848Z" fill="white"/>
<path d="M26.8522 23.0409C27.0482 22.6953 27.1297 22.1431 27.0414 21.5483C26.9532 20.9543 26.7145 20.4605 26.4287 20.2046C26.2327 20.5495 26.1504 21.1024 26.2394 21.6972C26.3284 22.2928 26.5671 22.7858 26.8529 23.0417L26.8522 23.0409Z" fill="white"/>
<path d="M24.2185 19.4116C24.2058 19.8186 24.3861 20.3424 24.7325 20.8062C25.0804 21.2701 25.5091 21.5626 25.8727 21.6232C25.8855 21.2147 25.7052 20.6918 25.358 20.2286C25.0108 19.7648 24.5814 19.4722 24.2185 19.4116Z" fill="white"/>
<path d="M26.564 19.3458C26.8184 18.8841 26.9202 18.3956 26.8626 18.0334C26.5461 18.1389 26.1982 18.4584 25.9423 18.92C25.6872 19.3809 25.5862 19.871 25.6438 20.2316C25.9603 20.1269 26.3082 19.8059 26.564 19.3458Z" fill="white"/>
<path d="M26.6351 15.4746C26.6665 14.8716 26.5326 14.3329 26.3044 14.0127C26.044 14.3015 25.854 14.8192 25.8233 15.4223C25.7912 16.0238 25.9258 16.5632 26.154 16.8835C26.4151 16.5947 26.6044 16.0762 26.6351 15.4746Z" fill="white"/>
<path d="M25.7149 18.5946C25.9095 18.2481 25.988 17.696 25.8945 17.1019C25.8017 16.5079 25.5608 16.0156 25.2728 15.7627C25.079 16.1098 25.0004 16.6628 25.0932 17.2561C25.186 17.8509 25.4261 18.3417 25.7149 18.5953V18.5946Z" fill="white"/>
<path d="M37.0841 24.1318C36.6143 24.4325 36.1205 24.5425 35.7606 24.4595C35.8758 24.0719 36.2073 23.6507 36.6779 23.3492C37.1477 23.0476 37.6423 22.9377 38.0014 23.0207C37.8869 23.4083 37.5548 23.8295 37.0841 24.1318Z" fill="white"/>
<path d="M37.376 24.9376C37.1493 25.2593 36.7086 25.5301 36.1744 25.6371C35.6402 25.7433 35.1427 25.661 34.8292 25.4471C35.0559 25.1261 35.4973 24.8545 36.0323 24.7475C36.565 24.6405 37.064 24.7236 37.3775 24.9376H37.376Z" fill="white"/>
<path d="M37.3079 20.2316C36.9914 20.1269 36.6435 19.8059 36.3876 19.3458C36.1325 18.8841 36.0315 18.3956 36.0891 18.0334C36.4056 18.1389 36.7535 18.4584 37.0101 18.92C37.2652 19.3809 37.3662 19.871 37.3086 20.2316H37.3079Z" fill="white"/>
<path d="M37.5929 20.2279C37.9394 19.764 38.3688 19.4715 38.7324 19.4109C38.7444 19.8179 38.5641 20.3416 38.2177 20.8055C37.8713 21.2694 37.4418 21.5619 37.0782 21.6225C37.0662 21.214 37.2458 20.691 37.5929 20.2279Z" fill="white"/>
<path d="M36.5238 20.2046C36.7199 20.5495 36.8022 21.1024 36.7124 21.6972C36.6241 22.2928 36.3862 22.7858 36.0996 23.0417C35.9029 22.696 35.8221 22.1439 35.9103 21.5491C36.0001 20.955 36.2365 20.4612 36.5238 20.2053V20.2046Z" fill="white"/>
<path d="M36.6899 22.729C36.8037 22.3407 37.1366 21.9202 37.6065 21.6187C38.0756 21.3172 38.5709 21.2072 38.93 21.2902C38.8148 21.6778 38.4833 22.099 38.0127 22.4005C37.5436 22.7021 37.0491 22.812 36.6899 22.729Z" fill="white"/>
<path d="M38.7122 17.1782C38.7982 17.5755 38.7159 18.1277 38.46 18.6589C38.2042 19.1908 37.8361 19.5724 37.4911 19.7123C37.4051 19.3143 37.4874 18.7629 37.7433 18.2317C37.9992 17.7005 38.3673 17.3181 38.7129 17.1775L38.7122 17.1782Z" fill="white"/>
<path d="M37.679 15.7612C37.8736 16.1084 37.9521 16.6613 37.8586 17.2546C37.7651 17.8494 37.5249 18.3402 37.2369 18.5938C37.0424 18.2474 36.9645 17.6953 37.0573 17.1012C37.1501 16.5072 37.391 16.0149 37.679 15.762V15.7612Z" fill="white"/>
<path d="M36.6465 14.0127C36.9069 14.3015 37.0969 14.8192 37.1276 15.4223C37.1598 16.0238 37.0251 16.5632 36.7969 16.8835C36.5373 16.5947 36.3473 16.0762 36.3158 15.4746C36.2844 14.8716 36.4176 14.3329 36.6458 14.0127H36.6465Z" fill="white"/>
<path d="M36.8403 17.8949C36.5111 17.9129 36.0869 17.7401 35.7068 17.3997C35.3282 17.0592 35.0866 16.6343 35.0334 16.2729C35.3626 16.2557 35.7869 16.4285 36.1662 16.7689C36.5448 17.1101 36.7864 17.5343 36.8403 17.8957V17.8949Z" fill="white"/>
<path d="M34.5934 13.908C34.9503 14.0037 35.3543 14.3374 35.6633 14.8335C35.9723 15.3287 36.1108 15.8674 36.0651 16.273C35.7075 16.1772 35.3042 15.8435 34.9945 15.3475C34.6862 14.8514 34.5471 14.3135 34.5934 13.908Z" fill="white"/>
<path d="M34.8277 23.7069C35.0761 23.1705 35.4375 22.7807 35.7809 22.6333C35.8736 23.0291 35.7988 23.5835 35.5512 24.1184C35.3035 24.6556 34.9414 25.0447 34.5995 25.1913C34.5067 24.7963 34.58 24.2426 34.8269 23.7069H34.8277Z" fill="white"/>
<path d="M34.7678 25.8346C35.3065 25.9042 35.7629 26.1429 36.0068 26.4474C35.706 26.6823 35.2137 26.8013 34.675 26.7325C34.1363 26.6629 33.6807 26.4242 33.4368 26.119C33.7368 25.884 34.2298 25.7658 34.7685 25.8346H34.7678Z" fill="white"/>
<path d="M32.9633 25.1314C33.4152 24.7984 33.903 24.6555 34.2666 24.7139C34.1738 25.1082 33.8656 25.5526 33.4137 25.8848C32.9618 26.2185 32.4747 26.3621 32.1111 26.3038C32.2039 25.9087 32.5114 25.4658 32.9633 25.1314Z" fill="white"/>
<path d="M31.0419 26.5798C31.0501 26.5836 31.0583 26.5873 31.0673 26.591C31.2147 26.6539 31.3568 26.7212 31.4908 26.7953C31.4908 26.7953 31.6703 26.6891 31.9718 26.5693C32.2868 26.4437 32.7073 26.419 33.1487 26.5297C33.6792 26.6621 34.1086 26.9539 34.3219 27.2861C34.0009 27.4844 33.5004 27.5442 32.9707 27.411C32.4634 27.2839 32.0482 27.01 31.8252 26.695C31.7594 26.7541 31.695 26.814 31.6322 26.8768C32.1985 27.2128 32.6594 27.6572 33.1053 28.2415C32.9303 28.5183 32.8435 28.6568 32.6684 28.9336C32.328 28.1645 31.9688 27.539 31.493 27.0183C30.9955 27.542 30.5832 28.1794 30.245 28.9433C30.07 28.6672 29.9824 28.5281 29.8074 28.2513C30.2518 27.6699 30.765 27.2143 31.3546 26.8731C31.2925 26.811 31.2274 26.7489 31.1616 26.6891C30.9408 27.007 30.5226 27.2839 30.0124 27.4118C29.4819 27.545 28.9814 27.4851 28.6604 27.2868C28.8744 26.9547 29.3038 26.6629 29.8328 26.5304C30.2847 26.4175 30.7149 26.4451 31.0314 26.5776L31.0299 26.5761C31.0336 26.5776 31.0374 26.5791 31.0411 26.5806L31.0419 26.5798Z" fill="white"/>
<path d="M29.9885 25.1313C30.4397 25.465 30.7487 25.9087 30.8407 26.3037C30.4778 26.3621 29.99 26.2184 29.5381 25.8848C29.0855 25.5526 28.778 25.1081 28.6852 24.7139C29.0495 24.6555 29.5359 24.7991 29.9893 25.1313H29.9885Z" fill="white"/>
<path d="M29.5156 26.119C29.2709 26.425 28.8153 26.6629 28.2766 26.7325C27.7379 26.8013 27.2448 26.6816 26.9448 26.4474C27.1895 26.1421 27.6444 25.9035 28.1831 25.8346C28.7217 25.7658 29.2155 25.884 29.5156 26.119Z" fill="white"/>
<path d="M28.3529 25.1921C28.011 25.0462 27.6481 24.6564 27.4005 24.1192C27.1528 23.5835 27.0795 23.0291 27.1715 22.634C27.5142 22.7807 27.8763 23.1705 28.1232 23.7077C28.3716 24.2449 28.4457 24.7978 28.3529 25.1921Z" fill="white"/>
<path d="M27.2875 14.8327C27.5965 14.3367 28.0005 14.0037 28.3589 13.9072C28.4038 14.3127 28.2661 14.8499 27.9571 15.3467C27.6489 15.8428 27.2441 16.1757 26.8865 16.2722C26.8416 15.8667 26.9793 15.3288 27.2875 14.8327Z" fill="white"/>
<path d="M26.7863 16.7682C27.1641 16.4278 27.5891 16.255 27.9183 16.2722C27.8652 16.6335 27.6235 17.0585 27.2449 17.3989C26.8648 17.7393 26.4414 17.9122 26.1122 17.8942C26.1646 17.5328 26.407 17.1086 26.787 16.7675L26.7863 16.7682Z" fill="white"/>
<path d="M25.6437 20.2316C25.5854 19.871 25.6864 19.3802 25.9423 18.92C26.1981 18.4592 26.5468 18.1397 26.8625 18.0334C26.9209 18.3948 26.8191 18.8849 26.564 19.3458C26.3081 19.8059 25.9595 20.1261 25.6437 20.2316Z" fill="white"/>
<path d="M25.8727 21.6232C25.5084 21.5619 25.0789 21.2693 24.7325 20.8062C24.3861 20.3424 24.2058 19.8194 24.2185 19.4116C24.5821 19.4722 25.0116 19.764 25.358 20.2286C25.7059 20.6925 25.8862 21.2147 25.8727 21.6232Z" fill="white"/>
<path d="M26.4279 20.2046C26.7137 20.4605 26.9524 20.9543 27.0406 21.5483C27.1289 22.1439 27.0474 22.696 26.8514 23.0409C26.5656 22.7843 26.3269 22.2913 26.2379 21.6965C26.1496 21.1017 26.2311 20.5488 26.4271 20.2039L26.4279 20.2046Z" fill="white"/>
<path d="M25.8233 15.4223C25.8547 14.8192 26.044 14.3015 26.3044 14.0127C26.5326 14.3329 26.6665 14.8724 26.6351 15.4746C26.6037 16.0762 26.4151 16.5947 26.154 16.8835C25.9266 16.5632 25.7911 16.0238 25.8233 15.4223Z" fill="white"/>
<path d="M25.2719 15.7612C25.5607 16.0149 25.8016 16.5064 25.8936 17.1005C25.9864 17.6953 25.9079 18.2474 25.7141 18.5931C25.4253 18.3395 25.1851 17.8487 25.0923 17.2539C24.9996 16.6598 25.0781 16.1069 25.2719 15.7605V15.7612Z" fill="white"/>
<path d="M24.2394 17.1782C24.5843 17.3189 24.9524 17.7005 25.2083 18.2324C25.4649 18.7636 25.5472 19.315 25.4605 19.7131C25.1148 19.5731 24.7474 19.1908 24.4916 18.6596C24.2349 18.1284 24.1534 17.5763 24.2394 17.179V17.1782Z" fill="white"/>
<path d="M24.0217 21.2902C24.3816 21.2072 24.8754 21.3172 25.3453 21.6187C25.8151 21.9202 26.1473 22.3407 26.2625 22.729C25.9034 22.812 25.4096 22.7021 24.9397 22.4005C24.4699 22.099 24.1377 21.6778 24.0225 21.2902H24.0217Z" fill="white"/>
<path d="M24.9509 23.0208C25.3093 22.9377 25.8031 23.047 26.2737 23.3492C26.7436 23.6508 27.0758 24.072 27.191 24.4595C26.8304 24.5426 26.3373 24.4326 25.8667 24.1318C25.3968 23.8303 25.0647 23.4083 24.9509 23.0208Z" fill="white"/>
<path d="M25.5757 24.9377C25.8892 24.7244 26.3867 24.6406 26.9209 24.7476C27.4551 24.8546 27.8958 25.1255 28.1232 25.4472C27.8097 25.6611 27.3122 25.7434 26.778 25.6372C26.2438 25.5295 25.8031 25.2594 25.5772 24.9377H25.5757Z" fill="white"/>
<path d="M61.9857 22.4005C62.4556 22.7021 62.9502 22.812 63.3093 22.729C63.1948 22.3407 62.8626 21.9202 62.392 21.6187C61.9222 21.3172 61.4284 21.2072 61.0685 21.2902C61.1837 21.6778 61.5151 22.099 61.9857 22.4005Z" fill="white"/>
<path d="M64.219 22.634C64.1255 23.0298 64.2003 23.5842 64.448 24.1192C64.6964 24.6564 65.0578 25.0454 65.3997 25.1921C65.4924 24.797 65.4191 24.2434 65.1722 23.7077C64.9238 23.1712 64.5625 22.7814 64.219 22.634Z" fill="white"/>
<path d="M62.5079 19.7123C62.594 19.3143 62.5124 18.7629 62.2558 18.2317C61.9999 17.7005 61.6318 17.3181 61.2869 17.1775C61.2009 17.5748 61.2832 18.1269 61.5391 18.6581C61.7949 19.1901 62.163 19.5717 62.5079 19.7116V19.7123Z" fill="white"/>
<path d="M65.0039 15.3467C65.3122 14.8507 65.4514 14.3127 65.4057 13.9072C65.0481 14.003 64.6448 14.3367 64.3351 14.8327C64.0261 15.328 63.8877 15.8667 63.9341 16.2722C64.2909 16.1765 64.695 15.8428 65.0039 15.3467Z" fill="white"/>
<path d="M64.2924 17.3997C64.671 17.0592 64.9134 16.6343 64.9665 16.2729C64.6373 16.2557 64.2124 16.4285 63.833 16.7689C63.4545 17.1101 63.2128 17.5343 63.1589 17.8957C63.4889 17.9137 63.9124 17.7408 64.2924 17.4004V17.3997Z" fill="white"/>
<path d="M62.7617 18.5946C62.9562 18.2481 63.034 17.696 62.9412 17.1019C62.8484 16.5079 62.6075 16.0156 62.3195 15.7627C62.125 16.1098 62.0464 16.6628 62.1399 17.2561C62.2327 17.8509 62.4736 18.3417 62.7617 18.5953V18.5946Z" fill="white"/>
<path d="M63.6826 15.4746C63.7141 14.8716 63.5801 14.3329 63.3527 14.0127C63.0916 14.3015 62.9023 14.8192 62.8709 15.4223C62.8395 16.0238 62.9734 16.5632 63.2016 16.8835C63.4619 16.5947 63.652 16.0762 63.6826 15.4746Z" fill="white"/>
<path d="M72.7543 17.3997C73.1336 17.7401 73.5571 17.9129 73.8863 17.895C73.8339 17.5336 73.5915 17.1094 73.2122 16.7682C72.8344 16.4278 72.4094 16.255 72.0802 16.2722C72.1333 16.6335 72.375 17.0585 72.7543 17.3989V17.3997Z" fill="white"/>
<path d="M71.7218 26.7325C72.2604 26.8013 72.7535 26.6816 73.0535 26.4474C72.8089 26.1421 72.3532 25.9035 71.8153 25.8346C71.2766 25.7658 70.7828 25.884 70.4835 26.119C70.7282 26.425 71.1838 26.6629 71.7225 26.7325H71.7218Z" fill="white"/>
<path d="M73.1119 16.2715C73.1568 15.866 73.0192 15.328 72.7109 14.832C72.4019 14.3359 71.9979 14.003 71.6395 13.9065C71.5946 14.312 71.7323 14.8492 72.0413 15.346C72.3495 15.842 72.7543 16.175 73.1119 16.2715Z" fill="white"/>
<path d="M72.5986 24.1192C72.8463 23.5835 72.9196 23.0291 72.8276 22.634C72.4849 22.7807 72.1235 23.1705 71.8759 23.7077C71.6275 24.2449 71.5542 24.7978 71.6469 25.1921C71.9889 25.0462 72.351 24.6564 72.5986 24.1192Z" fill="white"/>
<path d="M73.8452 16.8835C74.0726 16.5632 74.208 16.0238 74.1759 15.4223C74.1444 14.8192 73.9544 14.3015 73.6948 14.0127C73.4666 14.3329 73.3319 14.8724 73.3641 15.4746C73.3948 16.0762 73.5841 16.5947 73.8452 16.8835Z" fill="white"/>
<path d="M74.2843 18.5946C74.5731 18.3409 74.8133 17.8501 74.9061 17.2553C74.9988 16.6613 74.921 16.1084 74.7265 15.762C74.4377 16.0156 74.1968 16.5071 74.1048 17.1012C74.0112 17.696 74.0905 18.2482 74.2843 18.5938V18.5946Z" fill="white"/>
<path d="M74.3547 20.2316C74.4131 19.871 74.312 19.3802 74.0562 18.92C73.801 18.4592 73.4516 18.1397 73.1367 18.0334C73.0783 18.3948 73.1793 18.8849 73.4352 19.3458C73.6903 19.8059 74.039 20.1261 74.3547 20.2316Z" fill="white"/>
<path d="M74.5386 19.7123C74.8843 19.5724 75.2516 19.1901 75.5075 18.6589C75.7641 18.1277 75.8457 17.5755 75.7597 17.1782C75.4148 17.3189 75.0466 17.7005 74.79 18.2324C74.5334 18.7644 74.4518 19.315 74.5379 19.7131L74.5386 19.7123Z" fill="white"/>
<path d="M72.9578 21.5483C72.8695 22.1439 72.9511 22.696 73.1471 23.0409C73.4329 22.7843 73.6716 22.2913 73.7606 21.6965C73.8489 21.1017 73.7674 20.5488 73.5713 20.2039C73.2848 20.4597 73.0469 20.9535 72.9578 21.5476V21.5483Z" fill="white"/>
<path d="M61.266 19.4116C61.2533 19.8186 61.4336 20.3424 61.7808 20.8062C62.1272 21.2701 62.5566 21.5626 62.9202 21.6232C62.9322 21.2147 62.7519 20.6918 62.4055 20.2286C62.0591 19.7648 61.6289 19.4722 61.266 19.4116Z" fill="white"/>
<path d="M63.824 25.6371C64.3582 25.7433 64.8565 25.661 65.1693 25.4471C64.9433 25.1261 64.5011 24.8545 63.9662 24.7475C63.4335 24.6405 62.9345 24.7236 62.621 24.9376C62.8477 25.2593 63.2891 25.5301 63.8225 25.6371H63.824Z" fill="white"/>
<path d="M70.4604 25.8848C70.9123 25.5526 71.2213 25.1081 71.3133 24.7139C70.9497 24.6555 70.4627 24.7991 70.01 25.1313C69.5581 25.465 69.2499 25.9087 69.1578 26.3037C69.5215 26.3621 70.0085 26.2184 70.4604 25.8848Z" fill="white"/>
<path d="M61.9984 23.0207C62.1129 23.4083 62.4451 23.8295 62.9157 24.1318C63.3855 24.4325 63.8786 24.5425 64.2392 24.4595C64.124 24.0719 63.7925 23.6507 63.3219 23.3492C62.8521 23.0476 62.3583 22.9377 61.9992 23.0207H61.9984Z" fill="white"/>
<path d="M63.6108 19.3458C63.8652 18.8841 63.9662 18.3956 63.9093 18.0334C63.5929 18.1389 63.2457 18.4584 62.9891 18.92C62.734 19.3809 62.6322 19.871 62.6906 20.2316C63.007 20.1269 63.3557 19.8059 63.6116 19.3458H63.6108Z" fill="white"/>
<path d="M63.8988 23.0409C64.0956 22.6953 64.1764 22.1431 64.0881 21.5483C63.999 20.9543 63.7619 20.4605 63.4753 20.2046C63.2785 20.5495 63.197 21.1024 63.286 21.6972C63.3743 22.2928 63.6122 22.7858 63.8988 23.0417V23.0409Z" fill="white"/>
<path d="M63.9916 26.4474C64.2916 26.6823 64.7846 26.8013 65.3241 26.7325C65.8628 26.6629 66.3184 26.4242 66.5623 26.119C66.2623 25.884 65.77 25.7658 65.2313 25.8346C64.6919 25.9042 64.2362 26.1429 63.9923 26.4474H63.9916Z" fill="white"/>
<path d="M66.8504 26.5291C66.3199 26.6615 65.8912 26.9533 65.6772 27.2855C65.9982 27.4837 66.4987 27.5436 67.0292 27.4104C67.5357 27.2832 67.9517 27.0094 68.1739 26.6944C68.2398 26.7535 68.3041 26.8134 68.3669 26.8762C67.8006 27.2121 67.3397 27.6566 66.8938 28.2409C67.0696 28.5177 67.1564 28.6561 67.3315 28.933C67.6719 28.1638 68.031 27.5384 68.5061 27.0176C69.0036 27.5413 69.4159 28.1788 69.7541 28.9427C69.9291 28.6666 70.0167 28.5274 70.1918 28.2506C69.7473 27.6693 69.2348 27.2136 68.6445 26.8725C68.7066 26.8104 68.7717 26.7483 68.8376 26.6884C69.0575 27.0064 69.4757 27.2832 69.9868 27.4112C70.5165 27.5443 71.0177 27.4845 71.338 27.2862C71.1247 26.954 70.6945 26.6622 70.1656 26.5298C69.7144 26.4168 69.2835 26.4445 68.967 26.5769C68.967 26.5769 68.967 26.5769 68.9685 26.5754C68.9647 26.5769 68.9617 26.5784 68.958 26.5799C68.9498 26.5837 68.9408 26.5874 68.9326 26.5912C68.7844 26.654 68.643 26.7213 68.5083 26.7954C68.5083 26.7954 68.3288 26.6892 68.028 26.5695C67.7123 26.4438 67.2918 26.4191 66.8504 26.5298V26.5291Z" fill="white"/>
<path d="M66.5856 25.8848C67.0375 26.2185 67.5253 26.3621 67.8882 26.3038C67.7954 25.9087 67.4879 25.4658 67.036 25.1314C66.5841 24.7984 66.0955 24.6555 65.7319 24.7139C65.8247 25.1082 66.1322 25.5526 66.5849 25.8848H66.5856Z" fill="white"/>
<path d="M75.2659 20.8062C75.6123 20.3424 75.7934 19.8194 75.7799 19.4116C75.4163 19.4722 74.9861 19.764 74.6404 20.2286C74.2925 20.6925 74.113 21.2147 74.1264 21.6232C74.4901 21.5619 74.9195 21.2693 75.2659 20.8062Z" fill="white"/>
<path d="M73.7246 23.3492C73.2548 23.6508 72.9226 24.072 72.8074 24.4595C73.1672 24.5426 73.661 24.4326 74.1309 24.1318C74.6015 23.8303 74.9329 23.4083 75.0474 23.0208C74.6883 22.9377 74.1945 23.047 73.7246 23.3492Z" fill="white"/>
<path d="M74.654 21.6187C74.1841 21.9202 73.8519 22.3407 73.7367 22.729C74.0966 22.812 74.5904 22.7021 75.0602 22.4005C75.5301 22.099 75.8623 21.6778 75.9775 21.2902C75.6184 21.2072 75.1238 21.3172 74.6547 21.6187H74.654Z" fill="white"/>
<path d="M73.0783 24.7476C72.5441 24.8546 72.1034 25.1255 71.876 25.4472C72.1895 25.6611 72.687 25.7434 73.2212 25.6372C73.7554 25.5295 74.1961 25.2594 74.4228 24.9377C74.1093 24.7244 73.6117 24.6406 73.0776 24.7476H73.0783Z" fill="white"/>
<path d="M75.7598 17.1782C75.8458 17.5755 75.7635 18.1277 75.5076 18.6589C75.251 19.1908 74.8844 19.5724 74.5387 19.7123C74.4527 19.3143 74.5343 18.7629 74.7909 18.2317C75.0475 17.7005 75.4156 17.3181 75.7605 17.1775L75.7598 17.1782Z" fill="white"/>
<path d="M73.4351 19.3458C73.18 18.8841 73.079 18.3956 73.1366 18.0334C73.4523 18.1389 73.801 18.4584 74.0561 18.92C74.312 19.3809 74.4122 19.871 74.3546 20.2316C74.0381 20.1269 73.6902 19.8059 73.4351 19.3458Z" fill="white"/>
<path d="M73.7606 21.6972C73.6716 22.2927 73.4329 22.7858 73.1471 23.0417C72.9511 22.696 72.8695 22.1439 72.9578 21.549C73.0469 20.955 73.2848 20.4612 73.5713 20.2053C73.7666 20.5502 73.8489 21.1031 73.7606 21.6979V21.6972Z" fill="white"/>
<path d="M74.6405 20.2279C74.9876 19.764 75.4171 19.4715 75.78 19.4109C75.7927 19.8179 75.6116 20.3416 75.266 20.8055C74.9181 21.2694 74.4894 21.5619 74.1265 21.6225C74.1138 21.214 74.2933 20.691 74.6405 20.2279Z" fill="white"/>
<path d="M74.7265 15.7612C74.921 16.1084 74.9988 16.6613 74.9061 17.2546C74.8133 17.8494 74.5731 18.3402 74.2843 18.5938C74.0905 18.2474 74.0112 17.6953 74.1048 17.1012C74.1975 16.5072 74.4377 16.0149 74.7265 15.762V15.7612Z" fill="white"/>
<path d="M73.6948 14.0127C73.9544 14.3015 74.1444 14.8192 74.1759 15.4223C74.2073 16.0238 74.0734 16.5632 73.8452 16.8835C73.5848 16.5947 73.3948 16.0762 73.3641 15.4746C73.3319 14.8716 73.4666 14.3329 73.6948 14.0127Z" fill="white"/>
<path d="M73.887 17.8949C73.5578 17.9129 73.1344 17.7401 72.755 17.3997C72.3757 17.0592 72.1341 16.6343 72.0809 16.2729C72.4101 16.2557 72.8351 16.4285 73.2129 16.7689C73.5923 17.1101 73.8347 17.5343 73.887 17.8957V17.8949Z" fill="white"/>
<path d="M71.6395 13.908C71.9971 14.0037 72.4011 14.3374 72.7109 14.8335C73.0191 15.3287 73.1575 15.8674 73.1119 16.273C72.7543 16.1772 72.3503 15.8435 72.0413 15.3475C71.7323 14.8514 71.5939 14.3135 71.6395 13.908Z" fill="white"/>
<path d="M71.8759 23.7069C72.1235 23.1705 72.4849 22.7807 72.8276 22.6333C72.9203 23.0291 72.8463 23.5835 72.5986 24.1184C72.351 24.6556 71.9889 25.0447 71.6469 25.1913C71.5542 24.7963 71.6275 24.2426 71.8759 23.7069Z" fill="white"/>
<path d="M71.8153 25.8346C72.354 25.9042 72.8096 26.1429 73.0535 26.4474C72.7535 26.6823 72.2605 26.8013 71.7218 26.7325C71.1831 26.6629 70.7267 26.4242 70.4828 26.119C70.7828 25.884 71.2759 25.7658 71.8145 25.8346H71.8153Z" fill="white"/>
<path d="M70.01 25.1314C70.4627 24.7984 70.9497 24.6555 71.3133 24.7139C71.2206 25.1082 70.9123 25.5526 70.4604 25.8848C70.0085 26.2185 69.5215 26.3621 69.1578 26.3038C69.2506 25.9087 69.5581 25.4658 70.01 25.1314Z" fill="white"/>
<path d="M68.5076 26.7953C68.643 26.722 68.7837 26.6539 68.9318 26.5911C68.9401 26.5873 68.9483 26.5836 68.9573 26.5798C68.961 26.5776 68.964 26.5761 68.9677 26.5753C68.9677 26.5753 68.9677 26.5753 68.9663 26.5768C69.2827 26.4437 69.7137 26.4167 70.1648 26.5297C70.6945 26.6621 71.124 26.9539 71.3372 27.2861C71.0163 27.4844 70.5157 27.5442 69.986 27.4111C69.475 27.2831 69.0575 27.0063 68.8368 26.6883C68.7702 26.7482 68.7066 26.8088 68.6438 26.8724C69.2341 27.2135 69.7473 27.6692 70.191 28.2505C70.0159 28.5273 69.9284 28.6658 69.7533 28.9426C69.4152 28.1787 69.0022 27.542 68.5054 27.0175C68.0303 27.5375 67.6704 28.1645 67.3307 28.9329C67.1557 28.6568 67.0689 28.5176 66.8931 28.2408C67.3397 27.6572 67.8006 27.2128 68.3662 26.8761C68.3034 26.8148 68.239 26.7534 68.1732 26.6943C67.951 27.01 67.5357 27.2831 67.0285 27.4103C66.498 27.5435 65.9967 27.4836 65.6765 27.2854C65.8905 26.9532 66.3199 26.6614 66.8497 26.529C67.2911 26.4182 67.7116 26.4429 68.0273 26.5686C68.3273 26.6883 68.5076 26.7946 68.5076 26.7946V26.7953Z" fill="white"/>
<path d="M67.036 25.1313C67.4871 25.465 67.7961 25.9087 67.8882 26.3037C67.5253 26.3621 67.0375 26.2184 66.5856 25.8848C66.1329 25.5526 65.8247 25.1081 65.7327 24.7139C66.0955 24.6555 66.5841 24.7991 67.0367 25.1313H67.036Z" fill="white"/>
<path d="M66.563 26.119C66.3191 26.425 65.8635 26.6629 65.3248 26.7325C64.7854 26.8013 64.2931 26.6816 63.9923 26.4474C64.237 26.1421 64.6919 25.9035 65.2313 25.8346C65.77 25.7658 66.263 25.884 66.5623 26.119H66.563Z" fill="white"/>
<path d="M62.6906 20.2316C62.6322 19.871 62.734 19.3802 62.9891 18.92C63.245 18.4592 63.5936 18.1397 63.9093 18.0334C63.9669 18.3948 63.8659 18.8849 63.6108 19.3458C63.3549 19.8059 63.0063 20.1261 62.6898 20.2316H62.6906Z" fill="white"/>
<path d="M62.9202 21.6232C62.5558 21.5619 62.1264 21.2693 61.7807 20.8062C61.4328 20.3424 61.2525 19.8194 61.266 19.4116C61.6296 19.4722 62.0598 19.764 62.4054 20.2286C62.7526 20.6925 62.9329 21.2147 62.9202 21.6232Z" fill="white"/>
<path d="M63.4753 20.2046C63.7619 20.4605 63.999 20.9543 64.0881 21.5483C64.1764 22.1439 64.0956 22.696 63.8988 23.0409C63.6122 22.7843 63.3743 22.2913 63.286 21.6965C63.197 21.1017 63.2785 20.5488 63.4753 20.2039V20.2046Z" fill="white"/>
<path d="M64.2385 24.4588C63.8778 24.5419 63.3848 24.4319 62.9149 24.1311C62.4451 23.8296 62.1129 23.4076 61.9977 23.0201C62.3568 22.937 62.8506 23.0462 63.3205 23.3485C63.7911 23.65 64.1225 24.0712 64.2377 24.4588H64.2385Z" fill="white"/>
<path d="M63.9676 24.7476C64.5018 24.8546 64.9433 25.1255 65.1707 25.4472C64.8572 25.6611 64.3597 25.7434 63.8255 25.6372C63.292 25.5295 62.8506 25.2594 62.6239 24.9377C62.9374 24.7244 63.4357 24.6406 63.9691 24.7476H63.9676Z" fill="white"/>
<path d="M65.3989 25.1921C65.057 25.0462 64.6957 24.6564 64.4473 24.1192C64.1996 23.5835 64.1248 23.0291 64.2183 22.634C64.5617 22.7807 64.9231 23.1705 65.1715 23.7077C65.4184 24.2449 65.4925 24.7978 65.3989 25.1921Z" fill="white"/>
<path d="M64.3351 14.8327C64.6441 14.3367 65.0481 14.0037 65.4057 13.9072C65.4506 14.3127 65.3122 14.8499 65.0039 15.3467C64.6957 15.8428 64.2909 16.1757 63.9341 16.2722C63.8884 15.8667 64.0268 15.3288 64.3351 14.8327Z" fill="white"/>
<path d="M63.8323 16.7682C64.2116 16.4278 64.6366 16.255 64.9658 16.2722C64.9127 16.6335 64.6703 17.0585 64.2917 17.3989C63.9116 17.7393 63.4881 17.9122 63.1582 17.8942C63.2121 17.5328 63.4537 17.1086 63.8323 16.7675V16.7682Z" fill="white"/>
<path d="M62.8701 15.4223C62.9016 14.8192 63.0909 14.3015 63.352 14.0127C63.5794 14.3329 63.7133 14.8724 63.6819 15.4746C63.6505 16.0762 63.4612 16.5947 63.2008 16.8835C62.9726 16.5632 62.8387 16.0238 62.8701 15.4223Z" fill="white"/>
<path d="M62.3194 15.7612C62.6067 16.0149 62.8484 16.5064 62.9411 17.1005C63.0339 17.6953 62.9553 18.2474 62.7616 18.5931C62.4743 18.3395 62.2326 17.8487 62.1398 17.2539C62.047 16.6598 62.1256 16.1069 62.3194 15.7605V15.7612Z" fill="white"/>
<path d="M61.2863 17.1782C61.6312 17.3189 61.9993 17.7005 62.2551 18.2324C62.5118 18.7636 62.5941 19.315 62.5073 19.7131C62.1624 19.5731 61.7943 19.1908 61.5384 18.6596C61.2818 18.1284 61.1995 17.5763 61.2863 17.179V17.1782Z" fill="white"/>
<path d="M62.3927 21.6187C62.8626 21.9202 63.1948 22.3407 63.31 22.729C62.9509 22.812 62.4563 22.7021 61.9865 22.4005C61.5166 22.099 61.1844 21.6778 61.0692 21.2902C61.4291 21.2072 61.9229 21.3172 62.3927 21.6187Z" fill="white"/>
<path d="M73.2212 25.6371C72.687 25.7433 72.1887 25.661 71.876 25.4471C72.1034 25.1261 72.5441 24.8545 73.0783 24.7475C73.6125 24.6405 74.11 24.7236 74.4235 24.9376C74.1976 25.2593 73.7561 25.5301 73.2219 25.6371H73.2212Z" fill="white"/>
<path d="M74.1309 24.1318C73.661 24.4325 73.1672 24.5425 72.8074 24.4595C72.9226 24.0719 73.254 23.6507 73.7246 23.3492C74.1945 23.0476 74.6883 22.9377 75.0474 23.0207C74.9329 23.4083 74.6015 23.8295 74.1309 24.1318Z" fill="white"/>
<path d="M75.061 22.4005C74.5911 22.7021 74.0973 22.812 73.7374 22.729C73.8526 22.3407 74.1848 21.9202 74.6547 21.6187C75.1238 21.3172 75.6183 21.2072 75.9775 21.2902C75.8623 21.6778 75.5301 22.099 75.0602 22.4005H75.061Z" fill="white"/>
<path d="M44.7358 77.1822C44.6475 77.177 44.4709 77.1673 44.2839 77.1673C44.1462 77.1673 43.9906 77.1717 43.8073 77.1822L43.7489 77.186L43.7579 77.1283C43.826 76.6892 43.8581 76.2298 43.8581 75.7233V73.1076C43.8581 72.3849 43.7968 72.3063 43.5581 72.3063C43.49 72.3063 43.3928 72.3213 43.2678 72.3512L42.8586 72.444C42.7366 72.4724 42.6558 72.5016 42.572 72.5345L42.5466 72.5443L42.4329 72.4582L42.4516 72.4231C42.5077 72.3168 42.5862 72.1275 42.6251 71.9629L42.6326 71.9308L42.6663 71.927C42.878 71.9046 43.0172 71.8896 43.2633 71.8357L44.1275 71.6502C44.2853 71.6188 44.4604 71.5716 44.6108 71.5275L44.637 71.5208L44.735 71.618L44.7313 71.6412C44.6624 72.1215 44.6318 72.6662 44.6318 72.9939V75.8108C44.6318 76.3817 44.6841 76.8351 44.7829 77.1224L44.8061 77.1897L44.7358 77.1852V77.1822Z" fill="white"/>
<path d="M50.8439 77.2353L50.8402 77.2779H50.7975C50.7908 77.2779 50.1451 77.2862 49.7658 77.3161L49.7343 77.3191L49.6625 77.1754L52.4884 72.3699H50.7189C50.4436 72.3699 50.0882 72.3983 49.7897 72.6153L49.7695 72.631L49.6259 72.5734L49.6416 72.5307C49.7358 72.2726 49.8114 71.8409 49.8406 71.6673L49.8473 71.6247L49.89 71.6277C50.0965 71.6419 50.3134 71.6419 50.5424 71.6419H52.5714C52.8355 71.6419 52.9553 71.6419 53.1924 71.6202L53.2388 71.6157L53.2433 71.6621C53.25 71.7399 53.3047 72.0953 53.3331 72.1754L53.3421 72.2015L53.3241 72.2217C52.8909 72.7111 52.3702 73.6156 51.9183 74.4356C51.191 75.7621 50.9105 76.4938 50.8439 77.2338V77.236V77.2353Z" fill="white"/>
<path d="M47.9521 74.0832C48.4766 73.7869 48.9681 73.4263 48.9681 72.7095C48.9681 71.9359 48.3247 71.3733 47.4381 71.3733C46.5515 71.3733 45.8093 72.0272 45.8093 72.8637C45.8093 73.5542 46.2747 73.947 46.7513 74.2366C45.9964 74.6795 45.531 75.1127 45.531 75.8504C45.531 76.7235 46.2328 77.3333 47.2376 77.3333C48.3464 77.3333 49.1522 76.6315 49.1522 75.6663C49.1522 74.8808 48.5843 74.4371 47.9514 74.0839L47.9521 74.0832ZM46.5276 72.705C46.5276 72.1843 46.9234 71.796 47.4523 71.796C47.9813 71.796 48.3861 72.1918 48.3861 72.7282C48.3861 73.3268 47.9514 73.6305 47.5077 73.8797C47.0102 73.5924 46.5283 73.2811 46.5283 72.7058L46.5276 72.705ZM47.3132 76.927C46.6675 76.927 46.2006 76.4616 46.2006 75.8309C46.2006 75.1538 46.7221 74.7416 47.266 74.4775C48.0045 74.8822 48.4706 75.2159 48.4706 75.8384C48.4706 76.4609 47.9648 76.927 47.3132 76.927Z" fill="white"/>
<path d="M55.725 74.1977C56.2488 73.9021 56.7403 73.5415 56.7403 72.8255C56.7403 72.0512 56.0976 71.4885 55.2118 71.4885C54.3259 71.4885 53.583 72.1432 53.583 72.9796C53.583 73.6702 54.0476 74.063 54.5242 74.3518C53.77 74.7947 53.3054 75.2272 53.3054 75.9656C53.3054 76.8387 54.0072 77.4485 55.0113 77.4485C56.1208 77.4485 56.9259 76.7467 56.9259 75.7816C56.9259 74.996 56.3587 74.5523 55.7258 74.1984L55.725 74.1977ZM54.3581 72.821C54.3581 72.2996 54.7546 71.912 55.2829 71.912C55.8111 71.912 56.2158 72.3078 56.2158 72.845C56.2158 73.4435 55.7804 73.7465 55.3375 73.9957C54.8399 73.7076 54.3581 73.3971 54.3581 72.8218V72.821ZM55.143 77.0423C54.4973 77.0423 54.0319 76.5754 54.0319 75.9462C54.0319 75.2698 54.5526 74.8576 55.0966 74.5927C55.8358 74.9967 56.3019 75.3304 56.3019 75.9537C56.3019 76.5769 55.7961 77.0423 55.143 77.0423Z" fill="white"/>
<path d="M33.0276 65.563C32.9258 65.9273 32.6056 67.0848 32.5794 67.179C30.8967 67.1229 29.7782 67.1094 28.7899 67.1094C27.5449 67.1094 26.7346 67.1094 26.0598 67.1237C26.1795 66.3306 26.2693 65.4171 26.2693 64.2791V59.5783C26.2693 58.8159 26.2401 57.3614 25.9692 56.6881C26.4795 56.7173 26.8237 56.7173 27.1992 56.7173H30.0184C31.0232 56.7173 31.4287 56.6881 32.5233 56.6724C32.3243 57.3914 32.114 58.1493 32.034 58.4381C31.9547 58.7276 31.802 58.5106 31.7744 58.4695C31.309 57.7961 30.4097 57.7206 29.5553 57.7206C29.2844 57.7206 28.9694 57.7355 28.5946 57.7512C28.5804 58.0049 28.5347 58.7239 28.5347 59.3673V60.8943H29.7797C30.6932 60.8943 31.612 60.8262 31.9696 60.7739C32.12 60.7514 32.0886 60.8786 32.0886 60.8786C31.9771 61.2811 31.826 61.8266 31.7295 62.1767C30.7688 62.0869 30.2443 62.0615 29.5844 62.0615H28.519V64.1878C28.519 65.566 28.6694 66.0149 30.3027 66.0149C31.2342 66.0149 31.7295 66.0201 32.732 65.2555C32.9116 65.1193 33.1271 65.1971 33.0261 65.5607H33.0283L33.0276 65.563Z" fill="white"/>
<path d="M37.5346 65.5787C37.3086 66.1181 37.2031 66.5094 37.0692 67.1087C36.9188 67.0945 36.5724 67.0945 36.226 67.0945C35.926 67.0945 35.5496 67.1087 35.2631 67.1237C35.1583 66.463 35.0371 66.0426 34.8119 65.3834L33.8206 62.3511C33.5206 61.4502 33.1585 60.4597 32.4971 59.6935C33.4899 59.7227 34.271 59.6793 35.2189 59.6045C35.2795 60.34 35.4449 61.0455 35.6544 61.7495L36.211 63.6566C36.3464 64.1055 36.633 65.1118 36.633 65.1118C36.737 64.7826 36.8589 64.4662 36.9629 64.1811L37.8361 61.9298C37.9857 61.54 38.1817 60.9392 38.2416 60.3242C38.2416 60.114 38.2565 59.918 38.2416 59.6629C38.4526 59.6786 38.8439 59.6786 39.1588 59.6786C39.4738 59.6786 39.9489 59.6412 40.1786 59.6105C40.3844 59.585 40.3552 59.7115 40.2871 59.7983C39.7701 60.4544 39.3549 61.344 38.9643 62.2598L37.5361 65.5772V65.5787H37.5346Z" fill="white"/>
<path d="M49.5967 67.1222C49.3543 67.1072 48.8665 67.0922 48.3959 67.0922C47.9253 67.0922 47.4539 67.1072 47.1651 67.1222C47.3013 66.2416 47.3477 65.5143 47.3477 64.4212V62.6002C47.3477 61.8722 47.2863 60.5674 47.0282 59.7631C47.6065 59.7631 48.5036 59.7332 49.1104 59.7025L49.0812 61.4323L49.6281 60.7193C50.312 59.8229 50.7833 59.5356 51.4978 59.5356C51.7559 59.5356 51.8779 59.5573 52.151 59.6793C51.937 60.4492 51.7125 61.2594 51.5824 61.7301C51.5539 61.8318 51.4612 61.9687 51.3242 61.8161C51.0339 61.4929 50.9831 61.3724 50.6322 61.3724C50.2072 61.3724 49.8571 61.5999 49.5989 62.0248C49.3865 62.3735 49.2952 62.6623 49.2952 63.3895V64.6195C49.2952 65.9236 49.3865 66.4698 49.5989 67.1229H49.5974L49.5967 67.1222Z" fill="white"/>
<path d="M57.9943 59.8214C57.9352 60.0339 57.7631 60.6594 57.6913 60.9175C57.1002 60.8479 56.7403 60.8449 56.343 60.8449H55.6697C55.6383 61.3484 55.6233 61.9597 55.6233 62.3869V64.1115C55.6233 65.2726 55.7452 66.127 56.7553 66.127C57.077 66.127 57.3351 66.0537 57.7339 65.8517C57.7975 65.8188 57.9539 65.827 57.8985 66.029C57.8042 66.3642 57.7197 66.6732 57.6142 67.0563C56.7059 67.2964 56.3266 67.3638 55.8388 67.3638C54.5369 67.3638 53.696 66.7982 53.696 64.9352V62.6143C53.696 61.8669 53.696 61.332 53.6668 60.8284C53.268 60.8284 52.8423 60.8763 52.6351 60.9137C52.5894 60.9212 52.4892 60.9018 52.5333 60.7387C52.5453 60.6923 52.7361 60.0069 52.8042 59.7623C52.9972 59.7817 53.36 59.7907 53.7282 59.7907C53.7282 59.1952 53.6967 58.875 53.6668 58.4163C54.201 58.2644 55.1721 57.8238 55.5911 57.5597C55.7452 57.4624 55.8246 57.6023 55.8111 57.7662C55.7969 57.9435 55.6921 58.447 55.6704 59.7907H56.7261C57.0927 59.7907 57.5035 59.7765 57.8888 59.6837C57.9441 59.6703 58.0294 59.7002 57.9958 59.8214H57.9943Z" fill="white"/>
<path d="M72.7999 67.0946C72.3084 67.0946 71.8168 67.1103 71.5549 67.1245C71.6926 66.2962 71.7397 65.3303 71.7397 64.2253V62.892C71.7397 62.0017 71.6784 60.9745 70.4192 60.9745C69.9725 60.9745 69.5266 61.1585 69.1892 61.4802C68.8054 61.864 68.6976 62.1865 68.6976 63.1367V64.2253C68.6976 65.6214 68.7897 66.4653 69.0044 67.1245C68.7755 67.1103 68.2682 67.0946 67.7909 67.0946C67.2843 67.0946 66.8077 67.1103 66.5459 67.1245C66.6835 66.2962 66.7307 65.3303 66.7307 64.2253V62.3548C66.7307 61.6186 66.6693 60.4994 66.4075 59.6861C67.0838 59.6861 68.0213 59.6861 68.6655 59.6247L68.6198 60.9445L69.2341 60.423C69.9868 59.7938 70.6018 59.5327 71.3694 59.5327C73.1209 59.5327 73.7194 60.5143 73.7194 62.2471V64.2253C73.7194 65.6214 73.8122 66.4653 74.0277 67.1245C73.7815 67.1103 73.2742 67.0946 72.7984 67.0946H72.7999Z" fill="white"/>
<path d="M46.1611 63.2512C46.42 63.2512 46.42 62.6078 46.42 62.4581C46.42 60.661 45.2656 59.5537 43.4198 59.5537C41.2763 59.5537 39.7911 61.1698 39.7911 63.5063C39.7911 65.8429 41.2598 67.3841 43.5709 67.3841C44.3655 67.3841 45.2274 67.1619 45.9165 66.9375C46.0392 66.4938 46.0766 66.3614 46.2225 65.8377C46.2898 65.5952 46.1529 65.5182 46.0302 65.6027C45.4982 65.9723 45.1152 66.0965 44.471 66.0965C42.8669 66.0965 41.907 65.0783 41.8756 63.2968C42.3716 63.2669 43.4662 63.252 44.2458 63.252H46.1626L46.1611 63.2512ZM41.8598 62.3684C41.9354 61.1406 42.3409 60.4216 43.3001 60.4216C43.9749 60.4216 44.486 60.9311 44.486 61.6351C44.486 62.114 44.2308 62.3085 43.5851 62.3235L41.8606 62.3684H41.8598Z" fill="white"/>
<path d="M62.2589 59.5349C59.5804 59.5349 58.1499 61.2483 58.1499 63.6073C58.1499 65.9663 59.5355 67.3639 61.8983 67.3639C64.3822 67.3639 65.9766 65.7553 65.9766 63.2302C65.9766 60.8869 64.6374 59.5334 62.2582 59.5334L62.2589 59.5349ZM62.0636 66.5229C60.9204 66.5229 60.2882 65.4111 60.2882 63.3073C60.2882 61.5184 60.7693 60.3916 62.0187 60.3916C63.1926 60.3916 63.8406 61.5191 63.8406 63.608C63.8406 65.5301 63.2226 66.5229 62.0629 66.5229H62.0636Z" fill="white"/>
</g>
<defs>
<clipPath id="clip0_326_77">
<rect width="100" height="102.807" fill="white"/>
</clipPath>
</defs>
</svg>
