<svg width="100" height="100" viewBox="0 0 100 100" fill="none" xmlns="http://www.w3.org/2000/svg">
<g clip-path="url(#clip0_326_79)">
<path d="M50.08 97.4249C49.9283 97.4203 49.6944 97.3917 49.4311 97.2823C48.9686 97.1072 42.3918 94.5586 34.844 88.722C27.761 83.246 18.5096 73.7313 14.6565 59.5048C14.6384 59.4414 14.5757 59.1842 14.5757 58.7707V8.7677C14.5659 8.13998 14.9756 7.33042 15.8991 7.06636C16.053 7.0226 31.6692 2.58476 50.083 2.57495H50.1245C68.5669 2.58023 84.1959 7.02184 84.3514 7.06711C85.2726 7.33042 85.6823 8.13998 85.6724 8.78053V58.7707C85.6724 59.1842 85.6106 59.4407 85.591 59.5101C81.7386 73.7313 72.4879 83.246 65.4042 88.722C57.8564 94.5586 51.2796 97.1072 50.8171 97.2823C50.5538 97.3909 50.3199 97.4203 50.1682 97.4249H50.0083H50.08Z" fill="#F9FBF2"/>
<path d="M50.1244 2.57503C68.5669 2.58031 84.1959 7.02192 84.3513 7.06719C85.2725 7.33051 85.6822 8.14006 85.6724 8.78061V58.7708C85.6724 59.1843 85.6105 59.4408 85.5909 59.5102C81.7386 73.7313 72.4879 83.2461 65.4041 88.7221C57.8563 94.5587 51.2795 97.1073 50.817 97.2824C50.5537 97.391 50.3198 97.4204 50.1682 97.425H50.0618C49.9094 97.4189 49.6838 97.388 49.4311 97.2831C48.9686 97.1081 42.3918 94.5595 34.844 88.7228C27.761 83.2468 18.5095 73.7321 14.6564 59.5057C14.6383 59.4423 14.5757 59.185 14.5757 58.7716V8.76779C14.5659 8.14006 14.9756 7.33051 15.8991 7.06644C16.053 7.02268 31.6691 2.58484 50.0829 2.57503H50.1244ZM50.0618 97.4242C50.0678 97.4242 50.0739 97.4242 50.0799 97.4242H50.0082H50.0618ZM50.1252 0H50.0829C45.7922 0.00226343 41.3001 0.242187 36.7309 0.712982C33.0762 1.08947 29.3612 1.61458 25.6892 2.27324C19.3976 3.40119 15.3634 4.54196 15.1944 4.58949H15.1929L15.1914 4.59024C14.1879 4.87694 13.3504 5.47449 12.7687 6.31724C12.264 7.04682 11.9924 7.92126 11.9999 8.78212V58.7716C11.9999 59.4536 12.1048 59.9418 12.1719 60.1862C16.2144 75.1007 25.8748 85.044 33.2686 90.7599C40.9439 96.6946 47.6067 99.3428 48.488 99.6794C48.9618 99.8702 49.456 99.9774 49.9562 99.9977L49.9856 99.9992L50.0573 100.001H50.0626H50.2451C50.7537 99.9849 51.2765 99.874 51.7601 99.6801C52.6383 99.3451 59.3034 96.6961 66.9802 90.7599C74.3726 85.0455 84.0314 75.1052 88.0732 60.1975C88.1426 59.9501 88.2482 59.4581 88.2482 58.7716V8.7957C88.2565 7.93107 87.9856 7.05512 87.4847 6.32554C86.9037 5.47826 86.0647 4.87845 85.059 4.591C84.6259 4.46726 68.8204 0.00528134 50.1252 0Z" fill="white"/>
<path d="M84.1047 7.92277C84.1047 7.92277 68.6537 3.47059 50.1396 3.46606H50.1079C31.5945 3.47059 16.1436 7.92277 16.1436 7.92277C15.4563 8.11893 15.4661 8.76703 15.4661 8.76703V58.7708C15.4661 59.0945 15.5159 59.2718 15.5159 59.2718C22.8501 86.35 49.7616 96.4555 49.7616 96.4555C49.9163 96.5219 50.0498 96.5332 50.1087 96.5347H50.1404C50.2 96.5332 50.3328 96.5219 50.4874 96.4555C50.4874 96.4555 77.3997 86.3507 84.7332 59.2718C84.7332 59.2718 84.7822 59.0945 84.7822 58.7708V8.76778C84.7822 8.76778 84.792 8.11968 84.1047 7.92352" fill="#0D0802"/>
<path d="M50.1397 5.35158C57.8119 5.35385 64.984 6.14228 70.7082 7.04916V80.1799C68.3543 82.6803 65.9724 84.7694 63.8048 86.4519C57.3517 91.4609 51.4932 94.0103 50.1246 94.5708C48.7537 94.0095 42.8967 91.4601 36.4444 86.4519C34.2768 84.7687 31.8949 82.6803 29.5409 80.1799V7.04765C35.2629 6.14077 42.4372 5.35385 50.1238 5.35083H50.1389" fill="white"/>
<path d="M67.0489 26.1487L54.9532 14.0536C54.5631 13.6515 54.0599 13.438 53.4978 13.438C52.9357 13.438 52.4128 13.6598 52.0258 14.0589L33.7659 32.3135C33.6565 32.4486 33.5094 32.6666 33.5094 32.9903C33.5094 33.369 33.6474 33.5788 33.901 33.833L36.2602 36.2179C36.5054 36.4631 36.7235 36.605 37.109 36.605C37.4327 36.605 37.65 36.4594 37.8129 36.3251L38.2128 35.932L38.2105 35.9275C39.125 35.0055 43.381 30.754 45.9183 28.222L49.5119 31.811L33.1721 48.1462C33.0635 48.282 32.9171 48.4993 32.9171 48.8222C32.9171 49.2025 33.0552 49.413 33.3079 49.6665L35.6672 52.0514C35.9124 52.2959 36.1304 52.4385 36.516 52.4385C36.8389 52.4385 37.0562 52.2921 37.2199 52.157L37.6183 51.7632L37.6168 51.7587C38.5312 50.8375 42.788 46.5875 45.3253 44.0555C47.769 46.4992 48.9988 47.7283 49.6318 48.3492C46.5792 48.943 43.5824 50.596 41.1198 53.0586C38.2098 55.9687 36.4609 59.5577 36.1976 63.1664C35.9154 67.0331 37.3097 70.6206 40.2288 73.5404C42.7231 76.034 45.7244 77.3521 48.9083 77.3521C51.8937 77.3521 54.7857 76.1834 57.2717 73.9728L57.5802 73.6989L53.6411 69.7628L53.368 69.9876C51.6787 71.3811 49.8559 72.1175 48.0987 72.1175C46.3415 72.1175 44.9224 71.4558 43.6186 70.1521C41.7287 68.2621 41.0044 66.0319 41.4646 63.5225C41.8622 61.3519 43.1697 59.0681 45.1502 57.0891C47.5759 54.6627 50.4353 53.2722 52.996 53.2722C54.9411 53.2722 56.6968 54.0417 58.214 55.5582C60.6887 58.0329 61.0063 60.8713 59.1563 63.9933L59.0024 64.2536L62.9989 68.2493L63.2705 67.9181C67.1048 63.2584 66.4499 57.077 61.6031 52.1684C60.2684 50.8337 58.7768 49.8083 57.1698 49.1203L48.7151 40.6671L53.371 36.0112L63.6161 46.2563L63.8907 45.9816C64.6965 45.1759 65.8765 43.9981 66.2296 43.6526L66.3488 43.5386C66.5947 43.2942 66.7373 43.0754 66.7373 42.6891C66.7373 42.3624 66.591 42.1466 66.4552 41.9829L49.3074 24.8351L53.9633 20.1785L64.2076 30.4235L64.4822 30.1489C65.288 29.3431 66.4687 28.1654 66.8226 27.8191L66.9418 27.7052C67.1863 27.4607 67.3289 27.2434 67.3289 26.8571C67.3289 26.5342 67.184 26.3169 67.0474 26.1509" fill="#0D0802"/>
<path d="M66.471 26.6671L54.3986 14.5993C53.9082 14.0922 53.0647 14.1036 52.5788 14.6045L34.3416 32.8335C34.2993 32.8886 34.2865 32.9331 34.2865 32.9897C34.2865 33.0938 34.2865 33.1187 34.4517 33.2854L36.811 35.6696C36.9686 35.8272 36.9988 35.8272 37.1082 35.8272C37.1656 35.8272 37.2093 35.8144 37.2946 35.7458L37.4764 35.5647C37.4764 35.5647 38.8322 34.1998 41.5566 31.4777L45.9175 27.1228L50.6111 31.8096L33.7493 48.6647C33.707 48.7198 33.6942 48.7643 33.6942 48.8209C33.6942 48.9265 33.6942 48.9514 33.8587 49.1166L36.2179 51.5008C36.3764 51.6585 36.4058 51.6585 36.5152 51.6585C36.571 51.6585 36.6163 51.6456 36.7016 51.577L36.8826 51.3951C36.8826 51.3951 38.2377 50.0318 40.9644 47.3074L45.326 42.954L45.6006 43.2287C45.6006 43.2287 50.6141 48.2422 50.7032 48.3297L50.9733 48.5983L51.2381 48.8533L50.4851 48.9929C47.3442 49.4229 44.2139 51.0617 41.6706 53.6058C38.8926 56.383 37.2244 59.7985 36.9747 63.2201C36.7091 66.8559 38.0257 70.2329 40.7803 72.9883C43.1252 75.3332 45.9364 76.5721 48.9098 76.5721C51.5784 76.5721 54.1753 75.5656 56.4447 73.659L53.589 70.8048C51.8356 72.1712 49.9442 72.8917 48.101 72.8917C46.2578 72.8917 44.5051 72.1335 43.0709 70.6992C41.0194 68.647 40.2001 66.1165 40.7018 63.3793C41.1266 61.0547 42.5125 58.6245 44.6017 56.5354C47.1722 53.9649 50.2316 52.4899 52.9968 52.4899C55.1561 52.4899 57.0966 53.3357 58.7648 55.0038C61.4137 57.6528 61.831 60.8005 59.9772 64.1217L62.9385 67.083C66.2001 62.7923 65.4826 57.1963 61.0531 52.7109C59.7727 51.4298 58.34 50.4505 56.7993 49.8017L56.6741 49.7187L47.6166 40.6619L53.3725 34.9068L63.6176 45.1518C65.0269 43.7417 65.8025 42.9827 65.8025 42.9827C65.9617 42.8235 65.9617 42.7964 65.9617 42.6839C65.9617 42.6274 65.9496 42.5828 65.8802 42.4991L48.2089 24.8307L53.9648 19.0756L64.2091 29.3199C65.6184 27.9105 66.394 27.1507 66.394 27.1507C66.5525 26.9916 66.5525 26.9651 66.5525 26.8527C66.5525 26.7954 66.5396 26.7509 66.471 26.6649" fill="#E4221B"/>
</g>
<defs>
<clipPath id="clip0_326_79">
<rect width="76.2483" height="100" fill="white" transform="translate(12)"/>
</clipPath>
</defs>
</svg>
