<svg width="100" height="100" viewBox="0 0 100 100" fill="none" xmlns="http://www.w3.org/2000/svg">
<g clip-path="url(#clip0_326_87)">
<path d="M100 49.9948C100 22.3838 77.6146 0 49.9972 0C22.3798 0 0 22.383 0 49.9948C0 77.6066 22.3886 99.9944 49.9972 99.9944C77.6058 99.9944 100 77.6138 100 49.9948Z" fill="white"/>
<path d="M49.9996 3.05273C24.1173 3.05273 3.05762 24.1101 3.05762 49.9947C3.05762 75.8793 24.1173 96.9398 49.9996 96.9398C75.8818 96.9398 96.9447 75.8777 96.9447 49.9947C96.9447 24.1117 75.8874 3.05273 49.9996 3.05273Z" fill="#002A5A"/>
<path d="M92.0598 49.9948C92.0598 26.7687 73.229 7.93945 49.9972 7.93945C26.7655 7.93945 7.94031 26.7679 7.94031 49.9948C7.94031 73.2217 26.7735 92.0541 49.998 92.0541C73.2225 92.0541 92.0606 73.2273 92.0606 49.9948" fill="white"/>
<path d="M76.7755 49.9947C76.7755 35.2106 64.7854 23.2236 49.9973 23.2236C35.2091 23.2236 23.2278 35.2106 23.2278 49.9947C23.2278 64.7788 35.2131 76.769 49.9973 76.769C64.7814 76.769 76.7755 64.786 76.7755 49.9947Z" fill="#7AB2E1"/>
<path d="M49.998 78.893C34.0669 78.893 21.1038 65.9275 21.1038 49.9956C21.1038 34.0638 34.0677 21.103 49.998 21.103C65.9282 21.103 78.897 34.0638 78.897 49.9956C78.897 65.9275 65.933 78.893 49.998 78.893ZM49.998 22.7188C34.9566 22.7188 22.7203 34.9534 22.7203 49.9948C22.7203 65.0362 34.9574 77.2764 49.998 77.2764C65.0386 77.2764 77.2836 65.037 77.2836 49.9948C77.2836 34.9526 65.0426 22.7188 49.998 22.7188Z" fill="#002A5A"/>
<path d="M49.9981 95.0212C25.177 95.0212 4.98206 74.8207 4.98206 49.9956C4.98206 25.1705 25.1762 4.97241 49.9981 4.97241C74.8199 4.97241 95.0205 25.1721 95.0205 49.9948C95.0205 74.8175 74.8263 95.0204 49.9981 95.0204M49.9981 5.95262C25.7164 5.95262 5.96066 25.7107 5.96066 49.9948C5.96066 74.2789 25.7164 94.0394 49.9989 94.0394C74.2813 94.0394 94.0458 74.2813 94.0458 49.9948C94.0458 25.7083 74.2861 5.95262 49.9981 5.95262Z" fill="#7AB2E1"/>
<path d="M12.4253 48.9712L11.6639 49.1571L11.4644 48.3732L12.7179 47.9998H13.3711V52.3919H12.4253V48.9703V48.9712Z" fill="#7AB2E1"/>
<path d="M14.4739 51.1961V51.1817C14.4739 50.6543 14.7176 50.3426 15.1784 50.131C14.8418 49.925 14.6246 49.6445 14.6246 49.178V49.166C14.6246 48.4968 15.2354 47.9678 16.1563 47.9678C17.0772 47.9678 17.6895 48.4919 17.6895 49.166V49.178C17.6895 49.6437 17.4723 49.9242 17.1357 50.131C17.5789 50.361 17.8394 50.6415 17.8394 51.1593V51.1713C17.8394 51.9808 17.1236 52.4545 16.1563 52.4545C15.1889 52.4545 14.4731 51.9567 14.4731 51.1961H14.4739ZM16.9121 51.12V51.1096C16.9121 50.7722 16.5947 50.5726 16.1571 50.5726C15.7194 50.5726 15.4037 50.773 15.4037 51.1096V51.12C15.4037 51.4206 15.6842 51.6634 16.1571 51.6634C16.6299 51.6634 16.9121 51.4254 16.9121 51.12ZM16.7822 49.2838V49.2718C16.7822 49.0025 16.5506 48.7604 16.1571 48.7604C15.7635 48.7604 15.5335 48.9977 15.5335 49.2638V49.2774C15.5335 49.5828 15.7772 49.8128 16.1571 49.8128C16.537 49.8128 16.7822 49.5876 16.7822 49.2846V49.2838Z" fill="#7AB2E1"/>
<path d="M83.6819 50.603C83.4574 50.7881 83.1705 50.9011 82.7978 50.9011C81.8505 50.9011 81.2397 50.3786 81.2397 49.4937V49.4817C81.2397 48.6025 81.917 47.9541 82.9036 47.9541C83.4895 47.9541 83.8317 48.0968 84.1635 48.4286C84.4737 48.7404 84.6781 49.2132 84.6781 50.0732V50.086C84.6781 51.5023 84.0129 52.4672 82.7738 52.4672C82.1366 52.4672 81.7086 52.2556 81.3391 51.9495L81.8433 51.2209C82.1607 51.4774 82.43 51.5952 82.7978 51.5952C83.4583 51.5952 83.6458 50.9773 83.6819 50.6046V50.603ZM83.7011 49.4553V49.4433C83.7011 49.0561 83.4142 48.7764 82.9349 48.7764C82.4556 48.7764 82.1919 49.0505 82.1919 49.4368V49.4481C82.1919 49.8352 82.4804 50.1029 82.9541 50.1029C83.4278 50.1029 83.7019 49.8288 83.7019 49.4553H83.7011Z" fill="#7AB2E1"/>
<path d="M87.7446 51.4501H85.6126L85.4572 50.772L87.8504 47.9973H88.6599V50.6711H89.2458V51.4501H88.6599V52.3902H87.7446V51.4501ZM87.7446 50.6711V49.3134L86.5856 50.6711H87.7446Z" fill="#7AB2E1"/>
<path d="M49.9996 77.2828C34.9574 77.2828 22.7156 65.041 22.7156 49.9932C22.7156 34.9454 34.9574 22.71 49.9996 22.71C65.0418 22.71 77.286 34.951 77.286 49.9932C77.286 65.0354 65.0474 77.2828 49.9996 77.2828ZM49.9996 23.7214C35.516 23.7214 23.7246 35.508 23.7246 49.9932C23.7246 64.4784 35.5168 76.2705 49.9996 76.2705C64.4824 76.2705 76.2786 64.4816 76.2786 49.9932C76.2786 35.5048 64.4904 23.7214 49.9996 23.7214Z" fill="white"/>
<path fill-rule="evenodd" clip-rule="evenodd" d="M49.4987 26.5129C36.0322 26.5129 28.2627 28.2786 28.2627 28.2786C28.2627 28.2786 25.1569 40.0764 26.9234 55.1996C27.664 61.5425 32.8247 75.1981 49.9235 79.8587C67.0223 75.1981 72.1758 61.5425 72.9188 55.1996C74.6853 40.0764 71.5795 28.2786 71.5795 28.2786C71.5795 28.2786 63.81 26.5129 50.3443 26.5129H49.4987Z" fill="#002A5A"/>
<path fill-rule="evenodd" clip-rule="evenodd" d="M70.5728 51.6748C70.4157 56.2609 69.7128 69.9758 49.9234 77.5146C30.2911 70.185 29.2668 55.9988 29.2668 51.6748H70.5736H70.5728Z" fill="#A6C8EA"/>
<path fill-rule="evenodd" clip-rule="evenodd" d="M69.9813 50.9125C70.5143 39.5531 68.5851 30.3369 68.5851 30.3369C68.5851 30.3369 61.2035 28.9263 49.9427 28.9263C38.6819 28.9263 31.1688 30.4884 31.1688 30.4884C31.1688 30.4884 29.121 39.7503 29.6772 50.9125H69.9813Z" fill="white"/>
<path d="M50.5374 77.1064L29.6588 51.8669C28.895 57.0662 33.122 72.4001 50.5374 77.1064Z" fill="#7AB2E1"/>
<path d="M35.8839 51.6995L55.2028 75.0106C57.16 74.0809 58.5851 73.164 59.9636 72.0539L43.0916 51.6987H35.8847L35.8839 51.6995Z" fill="#7AB2E1"/>
<path d="M49.2999 51.718L63.571 68.9322C64.9728 67.3405 66.1582 65.9171 66.999 64.3934L56.5068 51.718H49.2999Z" fill="#7AB2E1"/>
<path d="M70.2321 51.7227L63.0981 51.7083L69.0908 58.9352C70.1071 56.6911 70.2313 52.9554 70.2313 51.7219L70.2321 51.7227Z" fill="#7AB2E1"/>
<path d="M58.3615 61.1729C58.3615 61.1729 58.3591 61.1705 58.3591 61.1697C58.3038 61.0054 58.1756 60.8756 58.0097 60.8163L56.8227 60.4019C56.7185 60.3659 56.6103 60.3699 56.5053 60.3963C56.4115 59.9819 56.1759 59.6068 55.8296 59.3584C55.7871 59.3263 55.7439 59.2975 55.6974 59.271C55.6188 59.2157 55.5331 59.1716 55.4385 59.1332C55.283 59.0675 55.1291 59.0194 54.9785 58.9729C54.6242 58.8591 54.2884 58.7501 53.8476 58.4359C53.442 58.1409 53.2537 57.8716 53.0725 57.6144C53.0276 57.5494 52.9876 57.4893 52.9435 57.4316C52.8241 57.2473 52.6774 57.0902 52.4979 56.9588C52.1949 56.7416 51.8406 56.6285 51.468 56.6285C51.387 56.6285 51.3085 56.6446 51.2243 56.659C51.2267 56.6534 51.2283 56.651 51.2299 56.6446C51.2532 56.4979 51.2179 56.3448 51.1273 56.2222L50.3892 55.2324C50.281 55.0905 50.1175 55.0063 49.9387 55.0063H49.9371C49.7608 55.0063 49.5941 55.0849 49.4907 55.2211L48.7213 56.2158C48.6259 56.3408 48.589 56.4995 48.6171 56.6542C48.5538 56.6502 48.4937 56.6326 48.4303 56.6326C48.0593 56.6326 47.7034 56.7448 47.4012 56.9612C47.3596 56.9932 47.3187 57.0269 47.2802 57.0613C47.2017 57.1191 47.1336 57.1848 47.0662 57.2625C46.9548 57.39 46.8602 57.5182 46.7697 57.6464C46.5493 57.9446 46.3465 58.2275 45.9025 58.5441C45.4961 58.839 45.1803 58.932 44.8774 59.0234C44.8036 59.0442 44.7339 59.0634 44.6634 59.0891C44.4494 59.142 44.2498 59.2318 44.0719 59.364C43.716 59.6181 43.4756 60.006 43.3882 60.4316C43.2656 60.3875 43.135 60.3747 43.0083 60.4163L41.8301 60.8083C41.6642 60.8628 41.532 60.9926 41.4743 61.1593C41.4358 61.2707 41.435 61.2715 41.4719 61.1625C41.419 61.3284 41.4454 61.5096 41.544 61.653L42.2589 62.6805C42.3407 62.7943 42.4617 62.8705 42.5988 62.8993C42.4072 63.2993 42.3719 63.7601 42.5114 64.1793C42.5274 64.2274 42.5467 64.2771 42.5667 64.326C42.5988 64.4165 42.6396 64.5015 42.6958 64.5913C42.7823 64.7323 42.8761 64.8622 42.9699 64.9856C43.1911 65.2845 43.3962 65.5675 43.5662 66.082C43.7208 66.5581 43.7144 66.8819 43.704 67.1961C43.704 67.2706 43.7024 67.3468 43.7024 67.4173C43.6872 67.6369 43.7136 67.8525 43.7834 68.0601C43.9212 68.4808 44.2089 68.8159 44.5712 69.0243C44.5255 69.1068 44.4911 69.1982 44.4951 69.2927L44.5015 70.5262C44.5039 70.701 44.588 70.8645 44.7323 70.9686C44.7323 70.9686 44.7347 70.9686 44.7371 70.9727C44.8766 71.0728 45.0593 71.1049 45.2276 71.0552L46.4347 70.701C46.5429 70.6689 46.627 70.5968 46.6967 70.5142C47.0558 70.8524 47.5623 71.0296 48.0488 70.9847C48.145 70.9823 48.2388 70.9686 48.3414 70.947C48.5073 70.9077 48.6588 70.8596 48.8086 70.8092C49.1621 70.6969 49.4987 70.5863 50.0421 70.5863C50.5487 70.5863 50.8556 70.6953 51.1562 70.7987C51.2283 70.8244 51.2964 70.8484 51.3638 70.8701C51.5722 70.9526 51.7886 70.9935 52.0098 70.9935C52.4522 70.9935 52.8826 70.8188 53.2048 70.5134C53.2745 70.5944 53.3538 70.6617 53.4572 70.6945L54.6442 71.0632C54.8117 71.1177 54.9961 71.0897 55.1395 70.9871C55.1395 70.9847 55.1411 70.9839 55.142 70.9839C55.287 70.8821 55.3712 70.7218 55.3752 70.5455L55.4072 69.2992C55.4096 69.2022 55.3776 69.1084 55.3327 69.0251C55.6982 68.8183 55.9875 68.4833 56.1214 68.0601C56.139 68.0104 56.1534 67.9607 56.167 67.9094C56.1919 67.818 56.2095 67.7235 56.2159 67.6217C56.2312 67.455 56.2312 67.2939 56.2312 67.1408C56.2312 66.7697 56.2312 66.4202 56.4003 65.9065C56.5534 65.432 56.7529 65.1739 56.9453 64.9223C56.9926 64.8638 57.0367 64.8037 57.0799 64.7459C57.221 64.5784 57.3284 64.3869 57.3957 64.1793C57.5408 63.7441 57.4975 63.264 57.2899 62.8577C57.3941 62.8192 57.4911 62.7615 57.5552 62.6693L58.2781 61.6626C58.3823 61.5208 58.412 61.3397 58.3599 61.1721V61.1754L58.3615 61.1729Z" fill="#002A5A"/>
<path d="M49.2775 63.8397C49.2775 63.4558 49.5941 63.1448 49.978 63.1448C50.3619 63.1448 50.6809 63.4566 50.6809 63.8397C50.6809 64.2228 50.3675 64.5353 49.978 64.5353C49.5884 64.5353 49.2775 64.2228 49.2775 63.8397Z" fill="#FDCA50"/>
<path d="M49.9596 57.9263C49.8386 57.4999 49.5765 57.1336 49.2359 56.922L49.9596 55.9907L50.6577 56.922C50.3114 57.1617 50.0766 57.5023 49.9596 57.9263ZM44.3492 62.0259C43.9789 61.7838 43.7241 61.4552 43.6038 61.0593L42.4922 61.428L43.1646 62.3962C43.4716 62.1413 43.9028 62.0082 44.35 62.0251M46.5228 68.5123C46.1766 68.784 45.7815 68.925 45.3639 68.9186L45.3735 70.08L46.5124 69.7449C46.3601 69.3779 46.3698 68.9274 46.5228 68.5115M53.4076 68.5219C53.5622 68.9338 53.5735 69.349 53.4396 69.7409L54.5561 70.0904L54.5857 68.9154C54.1866 68.9435 53.7586 68.7992 53.4076 68.5227M55.5283 62.0299C55.9763 62.0082 56.3762 62.1277 56.7073 62.3737L57.3885 61.4304L56.2688 61.0376C56.1751 61.4216 55.9018 61.7822 55.5283 62.0291M48.5458 68.5483C48.0248 68.5483 47.6016 68.1259 47.6016 67.6122C47.6016 67.5401 47.5351 67.512 47.4942 67.5609C47.1608 67.9777 46.8891 68.3383 46.8803 68.7872C46.8683 69.4388 47.4133 69.9653 48.0705 69.9653C48.1106 69.9653 48.153 69.9629 48.1931 69.9589C48.2516 69.9589 48.3166 69.9533 48.3903 69.9341C48.8592 69.8219 49.2583 69.5927 50.0518 69.5927C50.7098 69.5927 51.064 69.769 51.4127 69.8772C51.5521 69.9341 51.7036 69.9661 51.8647 69.9661C52.5211 69.9661 53.0661 69.4388 53.0549 68.788C53.0453 68.3391 52.7736 67.9777 52.4402 67.5617C52.4073 67.5216 52.3544 67.5513 52.3544 67.613C52.3544 68.1259 51.9304 68.5491 51.4079 68.5491C51.0127 68.5491 50.5078 68.2149 50.0125 68.2149C49.5516 68.2149 48.9401 68.5491 48.5458 68.5491V68.5483ZM47.9222 67.2571C47.9222 67.6899 48.2765 68.0426 48.7125 68.0426C48.7582 68.0474 48.8079 68.0426 48.8696 68.0274C48.888 68.0218 48.9096 68.0161 48.9321 68.0097C48.9425 68.0073 48.9529 68.0057 48.9609 68.0017C49.2302 67.9184 49.4899 67.7885 49.9588 67.7885C50.4277 67.7885 50.6793 67.9248 50.9406 67.9905C51.0304 68.0218 51.1217 68.0426 51.2195 68.0426C51.6563 68.0426 52.0098 67.6899 52.0098 67.2571C52.0098 67.1457 51.9849 67.0343 51.9425 66.9406C51.9248 66.9005 51.9024 66.8604 51.8791 66.8283C51.8791 66.8283 50.5471 65.0218 50.503 64.9657C50.4373 64.8816 50.3531 64.9176 50.293 64.9353C50.2313 64.9529 50.067 64.9938 49.9588 64.9938C49.8506 64.9938 49.7143 64.9721 49.6302 64.9353C49.5444 64.9 49.4739 64.8735 49.4178 64.9657C49.3705 65.041 48.4127 66.3306 48.1122 66.7482C47.992 66.8869 47.9206 67.0648 47.9206 67.2587V67.2571H47.9222ZM54.0503 66.6576C53.8909 67.1521 53.3579 67.4182 52.8626 67.2612C52.7928 67.2379 52.7455 67.2852 52.7832 67.3445C53.0774 67.7885 53.3378 68.1548 53.7682 68.3015C54.3886 68.5131 55.065 68.1636 55.2678 67.5449C55.2806 67.5056 55.2902 67.4655 55.2983 67.4271C55.3175 67.3726 55.3303 67.3092 55.3375 67.2331C55.3736 66.7538 55.2758 66.3098 55.5219 65.5588C55.7238 64.9409 56.0028 64.6611 56.216 64.3662C56.3129 64.2516 56.3907 64.1185 56.442 63.9695C56.6415 63.3483 56.3049 62.6727 55.6782 62.4843C55.2446 62.3521 54.811 62.4963 54.3108 62.6847C54.2611 62.7039 54.2732 62.7616 54.3285 62.7793C54.8278 62.9396 55.1003 63.4709 54.9392 63.9614C54.8142 64.3325 54.3381 64.7044 54.1858 65.1733C54.0431 65.6069 54.1754 66.2873 54.052 66.6592L54.0503 66.6576ZM52.6221 66.8468C53.0373 66.9798 53.4837 66.753 53.62 66.3443C53.6376 66.301 53.6504 66.2513 53.6536 66.1896C53.6552 66.1703 53.6552 66.1471 53.6552 66.1263C53.6552 66.1182 53.6576 66.1062 53.6576 66.0982C53.6608 65.8145 53.6175 65.5316 53.7594 65.0899C53.9125 64.6283 54.1145 64.4504 54.2603 64.2243C54.3172 64.1546 54.3605 64.0713 54.3934 63.9799C54.528 63.5663 54.2996 63.1271 53.8868 62.9893C53.7778 62.9572 53.6664 62.9484 53.5598 62.9588C53.5158 62.962 53.4725 62.9692 53.4316 62.9796C53.4316 62.9796 51.286 63.6769 51.2195 63.7002C51.1169 63.7378 51.1281 63.83 51.1249 63.8933C51.1249 63.955 51.1137 64.1233 51.0809 64.2267C51.0472 64.3269 50.9831 64.4487 50.9214 64.5177C50.8597 64.5882 50.8156 64.6467 50.8853 64.7269C50.943 64.7958 51.8815 66.099 52.1925 66.5102C52.2879 66.6632 52.4362 66.7859 52.6237 66.8476H52.6221V66.8468ZM53.9149 60.8493C54.3405 61.1531 54.4343 61.7389 54.1249 62.1589C54.0848 62.2158 54.1193 62.2775 54.185 62.2575C54.7036 62.1196 55.1348 61.9826 55.4073 61.6251C55.8024 61.1074 55.6742 60.362 55.1444 59.9781C55.1099 59.9548 55.0754 59.9324 55.0402 59.9124C54.9929 59.8779 54.9384 59.8475 54.8639 59.8178C54.4198 59.6351 53.9582 59.5886 53.3162 59.1253C52.7832 58.7454 52.6037 58.3944 52.3841 58.1018C52.3071 57.9776 52.2021 57.8622 52.0723 57.7676C51.5417 57.3869 50.7875 57.4959 50.4124 58.0289C50.1527 58.3984 50.156 58.8496 50.1832 59.377C50.1864 59.4307 50.2465 59.4379 50.2794 59.3882C50.5855 58.9698 51.1794 58.8785 51.601 59.1822C51.9216 59.4114 52.1292 59.9757 52.5323 60.2666C52.9034 60.5343 53.5959 60.6201 53.9141 60.8501L53.9149 60.8493ZM53.6552 62.2543C53.9125 61.9048 53.8356 61.4159 53.4805 61.1635C53.4492 61.1322 53.4044 61.1042 53.3466 61.0817C53.3258 61.0729 53.3066 61.0665 53.2857 61.0593C53.2753 61.0553 53.2649 61.0513 53.2577 61.0497C52.9884 60.9575 52.6991 60.911 52.3224 60.6401C51.9264 60.3564 51.819 60.1111 51.6467 59.9003C51.5946 59.8258 51.5321 59.7553 51.4519 59.6992C51.0977 59.4443 50.6048 59.5245 50.3491 59.8715C50.2802 59.9653 50.2369 60.0654 50.2153 60.1696C50.2056 60.2121 50.1976 60.257 50.196 60.2987C50.196 60.2987 50.2048 62.5356 50.2064 62.6045C50.2105 62.7119 50.2994 62.7296 50.3587 62.752C50.418 62.7745 50.5783 62.8362 50.6649 62.8987C50.7547 62.962 50.8484 63.0598 50.8965 63.1391C50.9422 63.2161 50.9879 63.2802 51.0857 63.2385C51.169 63.2024 52.7095 62.7208 53.1984 62.5573C53.3763 62.5156 53.5406 62.4106 53.6544 62.2535L53.6552 62.2543ZM48.3166 59.1999C48.7397 58.8961 49.3304 58.9875 49.639 59.4082C49.6791 59.4651 49.7472 59.4507 49.7512 59.3826C49.7777 58.8528 49.7785 58.4016 49.522 58.0337C49.1453 57.5007 48.3919 57.3909 47.8629 57.7732C47.8276 57.8005 47.794 57.8253 47.7635 57.851C47.7178 57.8854 47.669 57.9279 47.6177 57.988C47.3043 58.3511 47.1223 58.7687 46.478 59.2327C45.9458 59.6166 45.5563 59.6799 45.2084 59.7929C45.0625 59.8298 44.9191 59.8923 44.79 59.9845C44.2619 60.3668 44.132 61.1114 44.528 61.6315C44.8005 61.9906 45.2349 62.1261 45.7502 62.2663C45.8015 62.2791 45.8272 62.2246 45.7927 62.1766C45.4849 61.7582 45.5787 61.1707 46.0011 60.8677C46.3209 60.6361 46.9276 60.6153 47.3259 60.3235C47.7018 60.0566 47.996 59.4291 48.3158 59.1999H48.3166ZM49.5869 59.8787C49.3312 59.5293 48.8351 59.4523 48.4825 59.7056C48.444 59.7296 48.4039 59.7601 48.3646 59.809C48.3518 59.8258 48.339 59.8426 48.3254 59.8579C48.3166 59.8683 48.3109 59.8731 48.3045 59.8827C48.133 60.1087 48.004 60.3644 47.6217 60.6385C47.2289 60.9214 46.9604 60.9463 46.7072 61.0473C46.6174 61.0713 46.5309 61.1106 46.4539 61.1667C46.1005 61.4208 46.0219 61.9113 46.2776 62.2623C46.3457 62.3521 46.4299 62.4258 46.5236 62.4795C46.5613 62.5028 46.6006 62.5196 46.6399 62.5348C46.6399 62.5348 48.7902 63.2225 48.8576 63.2401C48.9625 63.2682 49.009 63.1912 49.0467 63.1407C49.086 63.0918 49.1934 62.9628 49.2807 62.8963C49.3705 62.8346 49.4947 62.7753 49.5845 62.7544C49.6743 62.7312 49.7464 62.7111 49.7376 62.6069C49.7288 62.5172 49.7408 60.915 49.7352 60.4053C49.7504 60.2249 49.7031 60.0382 49.5885 59.8795L49.5869 59.8787ZM45.0112 63.9807C44.8477 63.487 45.1202 62.9572 45.6172 62.7985C45.6861 62.7769 45.6917 62.7071 45.6284 62.6847C45.1291 62.4963 44.6963 62.3521 44.2667 62.4843C43.6367 62.6735 43.2977 63.3483 43.5029 63.9695C43.5141 64.0055 43.5293 64.0448 43.5469 64.0817C43.5646 64.137 43.5918 64.1963 43.6295 64.258C43.8804 64.6692 44.2274 64.9729 44.4726 65.7223C44.6778 66.3402 44.6153 66.7298 44.6193 67.0912C44.6065 67.2379 44.6225 67.3918 44.6722 67.5441C44.8766 68.1628 45.5506 68.5123 46.1734 68.3007C46.5998 68.1524 46.8643 67.7877 47.1568 67.3413C47.1881 67.298 47.1416 67.2603 47.0855 67.2756C46.5902 67.4359 46.0556 67.169 45.8945 66.6745C45.771 66.3026 45.9378 65.7239 45.7863 65.2566C45.6436 64.8222 45.1347 64.3494 45.0112 63.9791H45.0096L45.0112 63.9807ZM46.0532 62.9909C45.6396 63.1287 45.4112 63.5671 45.5466 63.9807C45.5547 64.0248 45.5747 64.0705 45.6059 64.1233C45.618 64.141 45.6308 64.1586 45.6452 64.177C45.6484 64.1843 45.654 64.1931 45.6588 64.2027C45.8239 64.4319 46.0299 64.6363 46.1758 65.0795C46.3265 65.538 46.2664 65.8008 46.2816 66.0701C46.2784 66.1591 46.2888 66.2529 46.3201 66.3443C46.4531 66.7538 46.9027 66.9806 47.3155 66.8476C47.4229 66.8147 47.5215 66.7538 47.6008 66.6825C47.6345 66.6568 47.6665 66.6224 47.6914 66.5895C47.6914 66.5895 49.013 64.779 49.0523 64.7197C49.1132 64.6299 49.0507 64.561 49.0162 64.5097C48.981 64.4584 48.8872 64.3165 48.8535 64.2147C48.8207 64.1121 48.8031 63.9767 48.8095 63.8853C48.8199 63.7939 48.8199 63.7218 48.7157 63.6962C48.6259 63.6737 47.0951 63.1696 46.6022 63.0181C46.4315 62.946 46.2415 62.9356 46.0516 62.9917L46.054 62.9901L46.0532 62.9909Z" fill="#E42313"/>
<path d="M56.5733 39.5971L61.4022 37.9316C61.4022 37.9316 60.9911 39.9434 61.1073 41.5038C61.254 43.5148 62.4137 45.0568 62.4137 45.0568L56.4611 47.1182L56.5733 39.5971Z" fill="#FDCA50"/>
<path d="M62.4162 45.0616C62.4162 45.0616 61.3574 43.5452 61.1747 41.7819C61.0392 40.4635 61.1691 39.315 61.3991 37.9308C61.1859 38.8501 60.4077 41.4485 58.234 43.8441C57.354 44.8155 56.9709 45.6611 56.8042 46.2406L56.7008 34.8435L56.6984 34.8459V34.8435C56.6984 34.8435 55.5531 35.2483 55.4345 35.2811C55.2934 35.3172 55.2373 35.4142 55.2341 35.451C55.2293 35.5216 55.178 35.5584 55.0938 35.5849C54.9993 35.6137 54.3404 35.8486 53.87 36.0057C53.7866 36.0345 53.8187 36.1179 53.878 36.1147C54.4198 36.0914 55.2044 36.0313 55.2862 36.0241C55.3912 36.0113 55.4441 35.9488 55.4577 35.8774C55.4601 35.8694 55.4537 35.8814 55.4577 35.8654C55.4745 35.7772 55.5555 35.7139 55.6429 35.7075C55.7038 35.7027 56.1221 35.6562 56.3874 35.6266L56.2704 47.8852L56.8194 47.8884L56.8114 47.0076L62.4162 45.06V45.0616Z" fill="#DAA500"/>
<path d="M40.9717 47.4325C40.9717 47.4325 40.0708 46.7593 39.8344 45.5154C39.5915 44.2394 40.2215 43.4884 40.2215 43.4884L46.0819 41.4751C46.0819 41.4751 45.7197 42.6364 46.0619 43.9629C46.4947 45.6436 47.3972 46.7681 47.3972 46.7681C47.3972 46.7681 45.2484 46.3665 43.1661 46.6254C41.1857 46.8747 40.9725 47.4325 40.9725 47.4325H40.9717Z" fill="#FDCA50"/>
<path d="M34.224 45.964C34.224 45.964 34.9517 43.9732 37.0997 41.7915C38.7195 40.1485 39.7895 39.6548 39.7895 39.6548C39.7895 39.6548 38.8453 40.9989 38.4534 43.2254C38.2082 44.6015 38.4799 46.3375 38.4799 46.3375C38.4799 46.3375 37.3866 46.1059 36.1195 45.9769C35.0519 45.8671 34.2248 45.964 34.2248 45.964H34.224Z" fill="#FDCA50"/>
<path d="M39.7839 39.6589C39.7839 39.6589 38.8614 41.0046 38.4695 43.2359C38.225 44.6129 38.4967 46.3473 38.4967 46.3473C38.4967 46.3473 38.2106 46.2904 37.5863 46.1501C34.959 45.5498 39.7831 39.6597 39.7831 39.6597L39.7839 39.6589Z" fill="#DAA500"/>
<path d="M43.2198 41.2731L43.171 35.9961V35.9897V35.9873L43.1597 35.9937C43.0355 36.037 42.0152 36.3929 41.9062 36.4217C41.766 36.4618 41.7091 36.5588 41.705 36.5964C41.6994 36.6654 41.6505 36.7022 41.564 36.7279C41.4726 36.7567 40.8122 36.9908 40.3417 37.1495C40.2584 37.1807 40.2888 37.2657 40.3521 37.2601C40.8899 37.232 41.6746 37.1751 41.7555 37.1671C41.8637 37.1543 41.915 37.0925 41.9303 37.022C41.9303 37.0132 41.9271 37.026 41.9303 37.01C41.9479 36.921 42.0248 36.8585 42.1138 36.8513C42.1747 36.8465 42.5747 36.8024 42.8407 36.7728L42.8031 41.2739H43.2198V41.2731Z" fill="#DAA500"/>
<path d="M50.0597 36.5083H50.4653L50.4573 31.4397C50.4573 31.4397 49.3088 31.8412 49.1925 31.8733C49.0507 31.9126 48.9922 32.0071 48.9906 32.0448C48.9866 32.1153 48.9337 32.153 48.8511 32.1803C48.7565 32.2051 48.0993 32.4415 47.6264 32.6002C47.5415 32.6283 47.5751 32.7141 47.6353 32.7108C48.1755 32.6836 48.9593 32.6251 49.0411 32.6187C49.1501 32.6067 49.2006 32.5441 49.215 32.4712C49.2166 32.4624 49.2118 32.4776 49.215 32.4608C49.2326 32.371 49.3104 32.3085 49.3993 32.3029C49.4578 32.2973 49.8433 32.254 50.1086 32.2252L50.0597 36.5099V36.5083Z" fill="#DAA500"/>
<path d="M49.0218 32.6187C49.0322 32.6187 49.0418 32.6187 49.0498 32.6187C49.1564 32.6067 49.2061 32.5441 49.2205 32.4712C49.2229 32.4624 49.2181 32.4776 49.2205 32.4608C49.2318 32.3999 49.2734 32.3494 49.3287 32.3229L49.1829 31.8789C49.053 31.919 48.9969 32.0112 48.9961 32.0464C48.9913 32.1081 48.956 32.1418 48.8895 32.1682L49.0218 32.6203V32.6187Z" fill="#FDCA50"/>
<path d="M41.7291 37.1695C41.7395 37.1663 41.7483 37.1663 41.7563 37.1663C41.8662 37.1535 41.915 37.0918 41.9263 37.0196C41.9319 37.0132 41.9239 37.0261 41.9263 37.0092C41.9399 36.9483 41.98 36.9002 42.0345 36.873L41.8894 36.429C41.7604 36.4666 41.7067 36.5596 41.7043 36.5965C41.6978 36.6542 41.6634 36.6894 41.5977 36.7159L41.7299 37.1703L41.7291 37.1695Z" fill="#FDCA50"/>
<path d="M55.2549 36.0299C55.2662 36.0299 55.2742 36.0275 55.2798 36.0275C55.3872 36.0155 55.4377 35.9522 55.4521 35.8808C55.4545 35.8704 55.4505 35.8864 55.4521 35.8704C55.4657 35.8079 55.5082 35.759 55.5603 35.7326L55.416 35.2861C55.2846 35.3286 55.2301 35.42 55.2277 35.4544C55.2261 35.5154 55.1876 35.5506 55.1219 35.5771L55.2541 36.0291L55.2549 36.0299Z" fill="#FDCA50"/>
<path d="M47.3867 46.764C47.3867 46.764 46.441 45.3919 46.0771 43.93C45.7661 42.6797 46.0795 41.4758 46.0795 41.4758C46.0795 41.4758 45.4504 43.627 43.9604 44.7956C42.9177 45.6139 40.393 46.3729 40.9717 47.4308C41.0526 47.2874 41.3139 47.0085 42.3582 46.772C42.4833 46.744 42.6131 46.7191 42.7438 46.6967L42.7365 48.4359L43.2872 48.4383L43.2824 46.6245C45.2131 46.4226 47.3867 46.7624 47.3867 46.7624V46.764Z" fill="#DAA500"/>
<path d="M40.3602 43.1341C40.3602 43.1341 39.6781 42.7245 39.7526 41.3828C39.8336 40.0067 40.5237 39.4136 40.5373 39.3743L45.0945 37.8098C45.0945 37.8098 44.7611 38.4879 44.9951 39.5218C45.2781 40.7713 46.0795 41.4742 46.0795 41.4742C46.0795 41.4742 43.7921 41.5038 41.7291 42.214C40.72 42.561 40.3602 43.1341 40.3602 43.1341Z" fill="#FDCA50"/>
<path d="M43.0676 40.2552C44.382 39.1708 45.0953 37.8035 45.0953 37.8035C45.0953 37.8035 44.9094 38.6811 45.0552 39.4505C45.3061 40.7778 46.0811 41.4734 46.0811 41.4734C46.0811 41.4734 44.2321 41.5047 42.222 42.0617C40.8996 42.4288 40.4828 42.9594 40.3666 43.1373C39.929 42.1395 41.7275 41.3604 43.0684 40.2552H43.0676Z" fill="#DAA500"/>
<path d="M48.2756 47.79C48.2756 47.79 47.0253 46.8387 46.7159 45.089C46.4723 43.6992 47.4076 42.6926 47.4076 42.6926L54.5368 40.2336C54.5368 40.2336 54.1472 41.8166 54.5047 43.3177C54.9119 45.0193 56.4731 47.1328 56.4731 47.1328C56.4731 47.1328 53.5069 46.2784 50.9453 46.5998C48.5056 46.9084 48.2756 47.7908 48.2756 47.7908V47.79Z" fill="#FDCA50"/>
<path d="M46.8097 36.469C46.7568 35.3886 47.5134 34.5278 47.5542 34.4797L52.6773 32.7004C52.6773 32.7004 52.3439 33.5051 52.4248 34.1936C52.5819 35.5072 53.3249 36.1957 53.3249 36.1957C53.3249 36.1957 51.3108 36.0867 48.9568 36.9074C47.6456 37.3651 47.519 37.9886 47.519 37.9886C47.519 37.9886 46.8754 37.8123 46.8097 36.4674V36.469Z" fill="#FDCA50"/>
<path d="M50.8668 35.0929C51.7821 34.2882 52.6781 32.7004 52.6781 32.7004C52.6781 32.7004 52.3447 33.5051 52.4257 34.1936C52.5828 35.5072 53.3257 36.1957 53.3257 36.1957C53.3257 36.1957 51.1569 36.1717 49.0611 36.9002C48.1634 37.212 47.5968 37.7121 47.519 37.9894C47.2016 36.9771 49.5981 36.2053 50.8668 35.0921V35.0929Z" fill="#DAA500"/>
<path d="M47.5487 42.3783C47.5487 42.3783 46.8089 41.5239 46.6678 40.2111C46.5212 38.8365 47.3395 38.2811 47.402 38.2491L53.3233 36.1973C53.3233 36.1973 53.1598 36.6269 53.3097 37.8227C53.4371 38.8229 54.4238 40.1959 54.4238 40.1959C54.4238 40.1959 51.2715 40.2768 49.3095 41.035C48.0768 41.5127 47.5479 42.3775 47.5479 42.3775L47.5487 42.3783Z" fill="#FDCA50"/>
<path d="M51.4695 38.9481C52.7503 37.846 53.3241 36.199 53.3241 36.199C53.3241 36.199 53.1646 37.1351 53.3321 37.862C53.6327 39.1516 54.5368 40.2288 54.5368 40.2288C54.5368 40.2288 51.7877 40.2681 49.7832 40.9389C48.4816 41.3741 47.6745 42.1468 47.5543 42.3752C47.285 41.2788 50.1887 40.0493 51.4695 38.9481Z" fill="#DAA500"/>
<path d="M56.595 47.2273C56.595 47.2273 54.9824 45.1491 54.5167 43.3057C54.2114 42.0938 54.4374 40.7089 54.5368 40.2344C54.3645 40.8804 53.7048 42.973 52.1347 44.4205C50.632 45.8079 47.6448 46.4883 48.282 47.7996C48.395 47.5832 48.7364 47.0926 49.9475 46.7905L49.9242 48.4712L50.4933 48.4744L50.4965 46.6791C53.135 46.2615 56.5958 47.2273 56.5958 47.2273H56.595Z" fill="#DAA500"/>
<path fill-rule="evenodd" clip-rule="evenodd" d="M59.3425 51.1488C59.7152 51.0783 60.0878 50.9981 60.6377 50.8555C60.6048 50.8362 60.5759 50.8146 60.5511 50.7873C59.9468 50.1189 60.0558 49.4088 60.4221 49.0682C61.7533 47.8195 61.7357 46.9138 61.7357 46.9138C61.7357 46.9138 58.4945 47.5822 54.2378 47.8042C53.9621 47.8195 52.9699 48.2539 52.6846 48.2627C52.0995 48.2843 51.496 48.3028 50.878 48.3076C42.836 48.3645 40.591 47.8147 37.9485 47.3201C35.2772 46.8192 34.1046 46.2782 34.1046 46.2782L34.0028 46.5651C34.0028 46.5651 36.1107 47.3795 37.6319 48.1232C37.9501 48.2779 39.2085 50.1654 39.6252 50.8002H30.0612C29.5282 39.8479 31.6497 30.881 31.6497 30.881C31.6497 30.881 38.964 29.3181 49.9635 29.3181L49.9699 28.1455C38.29 28.1455 30.5204 29.8038 30.5204 29.8038C30.5204 29.8038 27.1221 41.7731 28.9239 56.0218C29.6756 61.9632 34.5911 73.0789 49.9211 78.2261L50.5943 77.2867L49.9211 76.357C35.484 71.5088 31.2706 61.7412 30.5348 56.1493C30.3721 54.911 30.2495 53.6831 30.1613 52.4745H49.9804V50.8002H39.808C40.0276 50.0636 40.7529 49.8849 41.6321 50.0965C42.5562 50.3153 43.4579 50.5485 44.3275 50.5052C46.5035 50.4002 46.1838 49.8095 46.3809 49.8216C48.6195 49.957 49.4658 50.5068 51.4222 50.4716C53.2023 50.4419 53.8227 49.9746 53.991 49.973C56.167 49.9514 56.9869 50.9492 59.1726 51.1344C59.2279 51.1392 59.284 51.144 59.3401 51.1496L59.3417 51.148L59.3425 51.1488Z" fill="#FDCA50"/>
<path fill-rule="evenodd" clip-rule="evenodd" d="M69.3338 29.803C69.3338 29.803 61.5939 28.1448 49.9131 28.1448L49.9195 29.3173C60.919 29.3173 68.2037 30.8802 68.2037 30.8802C68.2037 30.8802 70.3244 39.8472 69.7922 50.7994H60.2049C59.4379 50.0701 59.8811 49.0931 60.1287 48.8711C61.2628 47.862 61.2636 47.1719 61.2636 47.1719C61.2636 47.1719 58.6717 47.8187 54.4142 48.0047C54.1393 48.0151 52.9419 48.5537 52.6581 48.5601C52.0707 48.5753 51.2363 48.6002 50.6192 48.6002C45.0689 48.5946 42.3487 48.492 37.5326 47.4637C37.6216 47.5815 37.6616 47.6272 37.753 47.7506C37.7778 47.7859 39.8649 48.3277 39.8922 48.3637C40.2071 48.7917 40.6247 49.0963 41.1312 49.3632C41.9063 49.7743 43.0476 50.1278 44.007 50.1847C46.1774 50.3137 45.7726 49.5034 45.9706 49.5002C48.2003 49.4602 49.6318 50.264 51.5866 50.2304C53.3683 50.1983 53.4276 49.6461 53.5951 49.6357C55.3511 49.5347 57.1464 50.3089 58.6837 50.7978H49.9235V52.4721H69.6928C69.6047 53.6808 69.4828 54.9086 69.3193 56.1469C68.5828 61.7389 64.3598 71.5065 49.9211 76.3547V78.2237C65.2534 73.0766 70.1785 61.9617 70.9295 56.0195C72.7312 41.77 69.3338 29.8014 69.3338 29.8014V29.803Z" fill="#DAA500"/>
<path d="M14.1068 34.9598L14.9139 33.4338L18.5286 33.1733L16.6964 30.0443L17.4987 28.5159L23.9434 31.9077L23.2036 33.3159L18.9966 31.1031L20.7936 34.3635L20.7751 34.4003L17.1052 34.7634L21.2841 36.9619L20.5515 38.3532L14.1068 34.9598Z" fill="#002A5A"/>
<path d="M21.4749 23.513L22.4871 22.4382L29.9649 25.1953L28.8156 26.4128L27.1718 25.7796L25.0607 28.0197L25.7932 29.6243L24.672 30.8121L21.4757 23.5122L21.4749 23.513ZM25.7508 25.2258L23.3688 24.3105L24.4235 26.634L25.7508 25.2266V25.2258Z" fill="#002A5A"/>
<path d="M27.2502 18.2104L28.515 17.4458L33.7551 19.5104L31.4316 15.6769L32.7853 14.8562L36.5594 21.0821L35.3925 21.7898L29.9777 19.6587L32.3789 23.618L31.0268 24.4371L27.2502 18.2104Z" fill="#002A5A"/>
<path d="M37.0236 16.949L37.0156 16.9297C36.4425 14.9396 37.4708 12.8774 39.6212 12.2563C40.9388 11.8756 41.8581 12.0848 42.6908 12.5384L42.036 13.9514C41.3572 13.618 40.7224 13.4769 40.0203 13.6773C38.8421 14.0179 38.2731 15.2442 38.6193 16.4432L38.6257 16.4625C38.972 17.6615 40.09 18.4221 41.2907 18.0766C42.0897 17.845 42.4873 17.3826 42.892 16.7245L44.1584 17.433C43.6622 18.4092 43.0002 19.121 41.6513 19.5113C39.5907 20.1052 37.6022 18.9575 37.0228 16.9481L37.0236 16.949Z" fill="#002A5A"/>
<path d="M45.7565 11.1061L47.3594 11.0636L47.4324 13.9449L50.3842 13.8704L50.3129 10.989L51.9126 10.949L52.0986 18.2288L50.498 18.2689L50.4219 15.3483L47.4684 15.422L47.5438 18.3442L45.9432 18.3851L45.7565 11.1061Z" fill="#002A5A"/>
<path d="M61.3405 19.2219L62.679 18.5912C63.0453 19.3574 63.5254 19.9561 64.2811 20.3055C64.8775 20.5804 65.3455 20.5107 65.5242 20.1236L65.5307 20.1027C65.703 19.7341 65.5635 19.4415 64.5873 18.6473C63.4139 17.6927 62.7271 16.9257 63.3322 15.6145L63.3386 15.5944C63.8956 14.3954 65.2245 14.0468 66.5758 14.6719C67.5384 15.1175 68.2196 15.7988 68.6436 16.6468L67.3805 17.3937C66.9813 16.7157 66.5197 16.2035 65.9619 15.9463C65.408 15.689 64.9953 15.8084 64.8462 16.1306L64.8382 16.149C64.6386 16.585 64.8542 16.8559 65.8633 17.6775C67.0431 18.6473 67.5752 19.4784 67.0431 20.6301L67.0334 20.6494C66.4275 21.9622 65.0826 22.2363 63.66 21.5783C62.6606 21.1134 61.8094 20.2975 61.3413 19.2211L61.3405 19.2219Z" fill="#002A5A"/>
<path d="M71.9625 19.6411L70.2017 18.2986L71.0977 17.1221L75.8938 20.7816L74.9994 21.9558L73.2369 20.6125L69.7168 25.2315L68.4432 24.2593L71.9625 19.6411Z" fill="#002A5A"/>
<path d="M83.4774 29.981L84.9738 32.9545C85.3881 33.7832 85.4803 34.5414 85.2671 35.1842C85.086 35.7284 84.674 36.1796 84.0601 36.4898L84.0424 36.4986C82.9925 37.0268 82.0451 36.7927 81.323 36.1187L79.797 38.8766L78.9554 37.2031L80.3364 34.7618L79.7689 33.6373L77.6883 34.684L76.9686 33.251L83.4766 29.981H83.4782H83.4774ZM81.7646 34.4532C82.1157 35.1505 82.6895 35.3629 83.2386 35.0856L83.2578 35.0768C83.8701 34.7682 83.9727 34.1831 83.6193 33.4858L82.9051 32.0616L81.0385 33.0017L81.7654 34.4532H81.7646Z" fill="#002A5A"/>
<path d="M56.4795 15.9847L59.1645 16.5658L59.9067 15.2698L56.7825 14.5917L57.0967 13.1475L60.9085 13.9738L61.2099 12.5808L55.8392 11.4163L54.2987 18.5358L59.7175 19.71L60.0205 18.317L56.1581 17.4803L56.4795 15.9847Z" fill="#002A5A"/>
<path d="M78.089 22.9431L72.5051 27.6206L76.0693 31.8716L77.1601 30.9563L74.6218 27.9251L75.7944 26.9425L77.5793 29.072L79.0284 28.5815L76.8876 26.0272L78.0193 25.0783L80.5263 28.0694L81.6172 27.1533L78.089 22.9431Z" fill="#002A5A"/>
<path d="M37.6511 85.0218V85.0026C37.6511 82.8939 39.2381 81.1675 41.5159 81.1675C42.9145 81.1675 43.7504 81.6323 44.4389 82.312L43.401 83.507C42.8295 82.9885 42.2468 82.6703 41.5046 82.6703C40.2551 82.6703 39.3543 83.7082 39.3543 84.9801V85.0026C39.3543 86.2705 40.2343 87.3309 41.5046 87.3309C42.3534 87.3309 42.8704 86.9918 43.4538 86.4613L44.4918 87.5112C43.7296 88.3263 42.8808 88.8353 41.4534 88.8353C39.2693 88.8353 37.6519 87.1521 37.6519 85.0218H37.6511Z" fill="#002A5A"/>
<path d="M46.0763 81.2949H47.7073V88.7086H46.0763V81.2949Z" fill="#002A5A"/>
<path d="M51.4983 82.7984H49.2429V81.2957H55.3839V82.7984H53.1277V88.7086H51.4983V82.7984Z" fill="#002A5A"/>
<path d="M58.9296 85.7848L56.0828 81.2949H57.9863L59.7576 84.27L61.5553 81.2949H63.4107L60.5614 85.7536V88.7086H58.9304V85.7856H58.9288L58.9296 85.7848Z" fill="#002A5A"/>
</g>
<defs>
<clipPath id="clip0_326_87">
<rect width="100" height="99.9944" fill="white"/>
</clipPath>
</defs>
</svg>
