<svg width="100" height="100" viewBox="0 0 100 100" fill="none" xmlns="http://www.w3.org/2000/svg">
<g clip-path="url(#clip0_326_93)">
<path d="M69.9421 44.0316C68.5421 42.5526 64.0316 39.9842 58.3474 43.6053C50.9158 48.3368 45.1368 45.4895 42.1579 43.6053C36.5789 40.0842 32.1579 42.5 30.6631 43.9895" fill="white"/>
<path d="M69.9421 44.0316C68.5421 42.5526 64.0316 39.9842 58.3474 43.6053C50.9158 48.3368 45.1368 45.4895 42.1579 43.6053C36.5789 40.0842 32.1579 42.5 30.6631 43.9895" stroke="white" stroke-width="6" stroke-linejoin="round"/>
<path d="M46.5684 15.6211C46.3 15.6211 46.0368 15.5369 45.8158 15.3842L42.721 13.2264L39.6263 15.3842C39.4 15.5421 39.1368 15.6211 38.8737 15.6211C38.6105 15.6211 38.3263 15.5369 38.0947 15.3632C37.6421 15.0316 37.4474 14.4421 37.621 13.9053L38.7895 10.1948L35.8631 8.07372C35.4 7.73688 35.2105 7.1474 35.3842 6.60003C35.5579 6.05267 36.0631 5.68951 36.6368 5.68951H40.2579L41.4789 2.18951C41.6631 1.66319 42.1631 1.3053 42.721 1.3053C43.2789 1.3053 43.7789 1.65793 43.9631 2.18951L45.1842 5.68951H54.5895L55.8105 2.18951C55.9947 1.66319 56.4947 1.3053 57.0526 1.3053C57.6105 1.3053 58.1105 1.65793 58.2947 2.18951L59.5158 5.68951H63.1368C63.7053 5.68951 64.2105 6.05793 64.3895 6.60003C64.5631 7.14214 64.3737 7.73688 63.9105 8.07372L60.9842 10.1948L62.1526 13.9053C62.321 14.4421 62.1316 15.0264 61.6789 15.3632C61.4474 15.5316 61.1737 15.6211 60.9 15.6211C60.6263 15.6211 60.3737 15.5421 60.1474 15.3842L57.0526 13.2264L53.9579 15.3842C53.7368 15.5369 53.4737 15.6211 53.2053 15.6211H46.5579H46.5684Z" fill="white"/>
<path d="M57.0632 2.63158L58.5947 7.01579H63.1526L59.4579 9.69474L60.9105 14.3053L57.0632 11.6263L53.2158 14.3053H46.5684L42.7211 11.6263L38.8737 14.3053L40.3263 9.69474L36.6316 7.01579H41.1895L42.7211 2.63158L44.2526 7.01579H55.5263L57.0579 2.63158M57.0579 0C55.9369 0 54.9421 0.705263 54.5737 1.76316L53.6579 4.38421H46.1211L45.2053 1.76316C44.8369 0.705263 43.8421 0 42.7211 0C41.6 0 40.6053 0.705263 40.2369 1.76316L39.3211 4.38421H36.6316C35.4895 4.38421 34.479 5.12105 34.1263 6.20526C33.7737 7.28947 34.1632 8.47895 35.0842 9.14737L37.2421 10.7158L36.3579 13.5211C36.0211 14.5947 36.4 15.7632 37.3105 16.4316C37.7737 16.7737 38.3211 16.9421 38.8684 16.9421C39.4158 16.9421 39.9211 16.7842 40.3737 16.4684L42.7158 14.8368L45.0579 16.4684C45.5 16.7737 46.0263 16.9421 46.5632 16.9421H53.2105C53.7474 16.9421 54.2737 16.7789 54.7158 16.4684L57.0579 14.8368L59.4 16.4684C59.8526 16.7842 60.379 16.9421 60.9053 16.9421C61.4316 16.9421 62 16.7737 62.4632 16.4316C63.3684 15.7632 63.7526 14.5947 63.4158 13.5211L62.5316 10.7158L64.6895 9.14737C65.6105 8.47895 66 7.28947 65.6474 6.20526C65.2947 5.12105 64.2842 4.38421 63.1421 4.38421H60.4526L59.5369 1.76316C59.1684 0.705263 58.1737 0 57.0526 0L57.0579 0Z" fill="white"/>
<path d="M30.6632 78.4842C29.9368 78.4842 29.3474 77.8947 29.3474 77.1684V61.5474C29.3474 61.2105 29.479 60.8842 29.7105 60.6369C31.0632 59.2211 33.7211 58.4579 35.5368 58.4579C35.6211 58.4579 35.7 58.4579 35.779 58.4579H35.9474C36.6947 58.4579 38.5474 58.4579 41.8895 59.7895L41.7211 59.5474C41.4053 59.0895 41.4105 58.4895 41.7316 58.0369L42.4474 57.0316C42.3684 57.0316 42.2895 57.0316 42.2105 57.0316C39.7 57.0316 37.4 55.8316 35.9632 53.8369C35.3474 53.9895 34.7211 54.0684 34.0842 54.0684C29.8 54.0684 26.3158 50.6158 26.3158 46.3737C26.3158 44.079 27.3368 41.9316 29.0895 40.479C29.0684 40.279 29.0579 40.0842 29.0579 39.8842C29.0579 38.0842 29.9684 36.4105 31.4895 35.3105C31.2368 34.1158 31.3632 32.9263 31.8737 31.8684C32.4947 30.5737 33.6158 29.6105 35 29.1263C34.6053 26.6105 35.5684 24.0526 37.6211 22.4211C38.879 21.4263 40.379 20.9 41.9684 20.9C42.1053 20.9 42.2421 20.9 42.3842 20.9105C44.1263 18.5842 46.8211 17.2211 49.7474 17.2211C52.6737 17.2211 55.4368 18.6316 57.1684 20.9632C57.4368 20.9316 57.7053 20.9158 57.979 20.9158C58.5684 20.9158 59.1474 20.9895 59.6947 21.1369C63.4105 22.1211 65.3684 25.2474 64.8211 29.0895C65.4895 29.4369 66.1263 29.9053 66.6895 30.479C67.9947 31.8053 68.7211 33.4632 68.7053 34.9632C70.0421 35.8211 71.4632 37.5 71.0632 40.7369C72.8053 42.1684 73.7105 44.0158 73.6947 46.1263C73.6947 46.6369 73.6316 47.1684 73.5211 47.7053C72.9 50.7158 70.1 53.7579 65.9474 53.7579C65.5 53.7579 65.0474 53.7211 64.5947 53.6474C63.0421 55.5526 60.4632 56.7316 57.8421 56.7316L58.8684 58.2316C59.1737 58.679 59.1737 59.2684 58.8684 59.7158C62.1105 58.4474 63.9263 58.4474 64.6684 58.4474H64.8369C64.9263 58.4474 65.0158 58.4421 65.1158 58.4421C66.7053 58.4421 69.5684 59.0421 70.9579 60.6947C71.1579 60.9316 71.2684 61.2316 71.2684 61.5421V77.2053C71.2684 77.5526 71.1316 77.8895 70.8842 78.1369C70.6369 78.3842 70.3053 78.5211 69.9526 78.5211L30.6737 78.4737L30.6632 78.4842Z" fill="white"/>
<path d="M49.7369 18.5527C52.6211 18.5527 55.1579 20.1053 56.5474 22.4263C57 22.3106 57.479 22.2474 57.9684 22.2474C58.4316 22.2474 58.8948 22.3053 59.3474 22.4211C63.0474 23.4053 64.179 26.6053 63.3053 29.9106C64.1316 30.1474 65 30.6579 65.7474 31.4158C67.0737 32.7632 67.6369 34.479 67.279 35.7106C68.8 36.3579 70.3369 37.8579 69.6369 41.3263C71.379 42.5106 72.3948 44.1 72.379 46.1316C72.379 46.5527 72.3263 46.9948 72.2316 47.4527C71.6948 50.0474 69.2842 52.4579 65.9474 52.4579C65.3369 52.4579 64.6895 52.379 64.0211 52.2C63.9 52.4 63.7632 52.5895 63.6211 52.7737C62.3053 54.4263 60.0632 55.4316 57.8369 55.4316C57.6211 55.4316 57.4 55.4211 57.1842 55.4C56.4 55.3263 55.4 54.9316 54.7579 54.5632L57.7737 58.9842L54.7526 63.1684C60.5948 59.8737 63.5158 59.7737 64.6579 59.7737C64.7316 59.7737 64.8 59.7737 64.8579 59.7737C64.9369 59.7737 65.0211 59.7684 65.1053 59.7684C66.6263 59.7684 68.9474 60.3737 69.9369 61.5527V77.2158L30.6579 77.1684V61.5474C31.7211 60.4369 34.0526 59.7737 35.5316 59.7737C35.6053 59.7737 35.6737 59.7737 35.7421 59.7737C35.8 59.7737 35.8684 59.7737 35.9421 59.7737C37.079 59.7737 39.9737 59.8737 45.8158 63.1684L42.7948 58.8053L45.8158 54.5632C44.7895 55.2684 43.5421 55.7263 42.2 55.7263C39.7316 55.7263 37.5895 54.3263 36.5316 52.279C35.7737 52.5895 34.9474 52.7632 34.079 52.7632C30.5158 52.7632 27.6263 49.9053 27.6263 46.3842C27.6263 44.1527 28.7842 42.1895 30.5369 41.0474C30.4263 40.679 30.3632 40.2895 30.3632 39.8895C30.3632 38.179 31.4421 36.6842 33.0369 35.9158C32.5737 34.7948 32.5211 33.5421 33.0474 32.4474C33.7053 31.079 35.0684 30.2632 36.6053 30.1316C35.7211 27.8158 36.3842 25.0842 38.4263 23.4632C39.479 22.6316 40.7211 22.2263 41.9579 22.2263C42.3105 22.2263 42.6632 22.2579 43.0053 22.3263C44.4 20.0579 46.8842 18.5474 49.7316 18.5474M49.7316 15.9158C46.6158 15.9158 43.7316 17.2684 41.7421 19.6C39.9526 19.6474 38.2 20.2842 36.7895 21.4C34.6369 23.1053 33.4948 25.679 33.5842 28.3106C32.3211 28.9737 31.3 30.0053 30.6737 31.3053C30.1526 32.3842 29.9526 33.5684 30.0632 34.7684C28.5895 36.0948 27.7316 37.9263 27.7316 39.8895C27.7316 39.9053 27.7316 39.9158 27.7316 39.9316C25.9948 41.6106 24.9948 43.9211 24.9948 46.3842C24.9948 51.3527 29.0684 55.3948 34.079 55.3948C34.5316 55.3948 34.9842 55.3632 35.4263 55.2948C36.1421 56.1106 36.9948 56.7842 37.9369 57.2895C36.979 57.1421 36.3263 57.1421 35.9421 57.1421H35.8211H35.7948C35.7105 57.1421 35.6211 57.1421 35.5316 57.1421C33.8 57.1421 30.5684 57.8316 28.7579 59.7263C28.2895 60.2158 28.0316 60.8684 28.0316 61.5421V77.1632C28.0316 78.6158 29.2053 79.7948 30.6579 79.7948L69.9369 79.8421C70.6369 79.8421 71.3053 79.5632 71.7948 79.0737C72.2895 78.579 72.5684 77.9106 72.5684 77.2106V61.5474C72.5684 60.9263 72.3474 60.3263 71.9526 59.8527C70.379 57.9842 67.3 57.1316 65.1053 57.1316C65 57.1316 64.9 57.1316 64.8053 57.1369H64.779H64.6579C64 57.1369 62.5579 57.1369 60.1632 57.8737C60.1526 57.8474 60.1369 57.8211 60.1211 57.7895C62.0316 57.3527 63.8053 56.3842 65.1105 55.0369C65.3895 55.0632 65.6684 55.0737 65.9421 55.0737C70.7948 55.0737 74.0737 51.5 74.8 47.9684C74.9263 47.3474 74.9948 46.7263 75 46.1316C75.0158 43.8263 74.1263 41.7948 72.4105 40.1737C72.4948 38.3421 72.1158 35.9 69.9632 34.2316C69.779 32.6 68.9526 30.9106 67.6105 29.5474C67.1684 29.1 66.6948 28.7053 66.1895 28.3737C66.4105 24.2895 64.0684 20.9316 60.0158 19.8579C59.3579 19.6842 58.6684 19.5948 57.9632 19.5948C57.8948 19.5948 57.8211 19.5948 57.7526 19.5948C55.7632 17.279 52.8263 15.9 49.7369 15.9L49.7316 15.9158Z" fill="white"/>
<path d="M52.9421 98.6841C50 98.6841 47.3053 97.1052 46.2211 94.7946C46.1527 94.8052 46.079 94.8104 46.0053 94.8104H43.4369C42.7106 94.8104 42.1211 94.221 42.1211 93.4946V80.442C42.1211 79.7157 42.7106 79.1262 43.4369 79.1262H46.5421C50.1843 79.1262 50.9474 81.1683 50.9474 82.8789V84.3052C50.9474 85.1999 50.7264 85.9525 50.3211 86.5315C50.7421 87.1104 50.9474 87.8999 50.9474 88.8999V91.6578C50.9474 92.1736 51.1843 93.3473 53.3211 93.3789C53.5211 93.3789 53.7948 93.3631 53.9369 93.3525C53.9737 93.3525 54.0106 93.3525 54.0474 93.3525C54.3737 93.3525 54.6948 93.4736 54.9369 93.6999C55.2053 93.9473 55.3632 94.2999 55.3632 94.6683V97.2946C55.3632 97.9525 54.879 98.5052 54.2264 98.5999C53.7895 98.6578 53.3579 98.6894 52.9369 98.6894L52.9421 98.6841Z" fill="white"/>
<path d="M46.5421 80.4421C48.7053 80.4421 49.6316 81.1737 49.6316 82.879V84.3053C49.6316 85.7105 48.9474 86.479 47.579 86.5579V86.6369C49.1316 86.7316 49.6316 87.3474 49.6316 88.9053V91.6632C49.6316 91.6632 49.5369 94.6421 53.3 94.7C53.3158 94.7 53.3316 94.7 53.3474 94.7C53.5579 94.7 53.879 94.6842 54.0527 94.6684V97.2948C53.7053 97.3421 53.3369 97.3737 52.9421 97.3737C50.5421 97.3737 48.0842 96.079 47.279 93.9263C46.9053 92.9263 46.9842 91.6632 46.9842 91.6632V88.7106C46.9842 87.9579 46.6158 87.5684 46.0421 87.5684H46.0053V93.5H43.4369V80.4474H46.5421M46.0106 85.379H46.4211C46.9685 85.379 47.1421 85.1316 47.1421 84.4106V83.6579C47.1421 82.9316 46.9685 82.6842 46.4211 82.6842H46.0106V85.3737M46.5421 77.8158H43.4369C41.9842 77.8158 40.8053 78.9948 40.8053 80.4474V93.5C40.8053 94.9527 41.9842 96.1316 43.4369 96.1316H45.4632C46.9527 98.4632 49.8369 100.005 52.9474 100.005C53.4263 100.005 53.9211 99.9684 54.4158 99.9C55.7158 99.7211 56.6842 98.6053 56.6842 97.2948V94.6684C56.6842 93.9316 56.3737 93.2316 55.8316 92.7316C55.3421 92.2842 54.7053 92.0369 54.0527 92.0369C53.979 92.0369 53.9053 92.0369 53.8316 92.0474C53.7158 92.0579 53.4685 92.0684 53.3474 92.0684C52.3369 92.0527 52.2737 91.7842 52.2632 91.6474V88.9053C52.2632 87.9369 52.1 87.1527 51.8264 86.5263C52.1106 85.879 52.2632 85.1316 52.2632 84.3106V82.8842C52.2632 80.7737 51.3211 79.5842 50.5316 78.9579C49.5579 78.1895 48.2527 77.8105 46.5421 77.8105V77.8158Z" fill="white"/>
<path d="M30.6632 94.7737C29.9369 94.7737 29.3474 94.1842 29.3474 93.4579V80.5052C29.3474 79.7789 29.9369 79.1895 30.6632 79.1895H35.5421C36.2685 79.1895 36.8579 79.7789 36.8579 80.5052V82.7052C36.8579 83.4316 36.2685 84.021 35.5421 84.021H34.5474V84.0526H35.3158C36.0421 84.0526 36.6316 84.6421 36.6316 85.3684V87.5684C36.6316 88.2947 36.0421 88.8842 35.3158 88.8842H34.5474V93.4631C34.5474 94.1895 33.9579 94.7789 33.2316 94.7789H30.6632V94.7737Z" fill="white"/>
<path d="M35.5421 80.5001V82.7001H33.2316V85.3633H35.3158V87.5632H33.2316V93.458H30.6632V80.5054H35.5421M35.5421 77.8738H30.6632C29.2106 77.8738 28.0316 79.0527 28.0316 80.5054V93.458C28.0316 94.9106 29.2106 96.0896 30.6632 96.0896H33.2316C34.6842 96.0896 35.8632 94.9106 35.8632 93.458V90.1422C37.0527 89.8896 37.9474 88.8317 37.9474 87.5685V85.3685C37.9474 84.958 37.8527 84.5738 37.6895 84.2264C37.9948 83.7948 38.1737 83.2738 38.1737 82.7054V80.5054C38.1737 79.0527 36.9948 77.8738 35.5421 77.8738Z" fill="white"/>
<path d="M39.3579 94.9106C37.4263 94.9106 36.3737 94.1001 35.8263 93.4212C34.9789 92.3633 34.8632 90.9791 34.8632 89.6475V84.2685C34.8632 82.9317 34.9789 81.5527 35.8263 80.4948C36.3684 79.8159 37.4263 79.0054 39.3579 79.0054C41.2895 79.0054 42.3474 79.8159 42.8895 80.4948C43.7368 81.5527 43.8526 82.9317 43.8526 84.2685V89.6475C43.8526 90.9843 43.7368 92.3633 42.8895 93.4212C42.3474 94.1001 41.2947 94.9106 39.3579 94.9106Z" fill="white"/>
<path d="M39.3579 80.3159C40.5105 80.3159 41.3474 80.6685 41.8632 81.3106C42.3789 81.9527 42.5368 82.8685 42.5368 84.2633V89.6422C42.5368 91.037 42.3789 91.9527 41.8632 92.5948C41.3474 93.2369 40.5158 93.5896 39.3579 93.5896C38.2 93.5896 37.3684 93.2369 36.8526 92.5948C36.3368 91.9527 36.1789 91.037 36.1789 89.6422V84.2633C36.1789 82.8685 36.3368 81.9527 36.8526 81.3106C37.3684 80.6685 38.2 80.3159 39.3579 80.3159ZM39.3579 91.2791C39.5684 91.2791 39.7263 91.2001 39.821 91.0527C39.9316 90.8791 39.9474 90.7159 39.9474 90.2001V83.6949C39.9474 83.1791 39.9316 83.0212 39.821 82.8422C39.7263 82.7001 39.5632 82.6159 39.3579 82.6159C39.1526 82.6159 38.9895 82.6948 38.8947 82.8422C38.7842 83.0212 38.7684 83.1791 38.7684 83.6949V90.2001C38.7684 90.7159 38.7842 90.8738 38.8947 91.0527C38.9895 91.1948 39.1526 91.2791 39.3579 91.2791ZM39.3579 77.6843C36.9 77.6843 35.521 78.7633 34.8 79.6685C33.7 81.0475 33.5474 82.7633 33.5474 84.2633V89.6422C33.5474 91.1422 33.6947 92.8633 34.8 94.237C35.521 95.1422 36.9 96.2212 39.3579 96.2212C41.8158 96.2212 43.1947 95.1422 43.9158 94.237C45.0158 92.858 45.1684 91.1422 45.1684 89.6422V84.2633C45.1684 82.7633 45.021 81.0422 43.9158 79.6685C43.1947 78.7633 41.8158 77.6843 39.3579 77.6843Z" fill="white"/>
<path d="M65.7632 94.7737C65.0369 94.7737 64.4474 94.1842 64.4474 93.4579V84.021H64.1526C63.4263 84.021 62.8369 83.4316 62.8369 82.7052V80.5052C62.8369 79.7789 63.4263 79.1895 64.1526 79.1895H69.9421C70.6684 79.1895 71.2579 79.7789 71.2579 80.5052V82.7052C71.2579 83.4316 70.6684 84.021 69.9421 84.021H69.6474V93.4579C69.6474 94.1842 69.0579 94.7737 68.3316 94.7737H65.7632Z" fill="white"/>
<path d="M69.9421 80.5V82.7H68.3316V93.4526H65.7632V82.7H64.1526V80.5H69.9421ZM69.9421 77.8684H64.1526C62.7 77.8684 61.5211 79.0474 61.5211 80.5V82.7C61.5211 83.7895 62.1842 84.7263 63.1316 85.1263V93.4526C63.1316 94.9053 64.3105 96.0842 65.7632 96.0842H68.3316C69.7842 96.0842 70.9632 94.9053 70.9632 93.4526V85.1263C71.9105 84.7263 72.5737 83.7895 72.5737 82.7V80.5C72.5737 79.0474 71.3947 77.8684 69.9421 77.8684Z" fill="white"/>
<path d="M53.6316 94.8947C52.2105 94.8947 51.1789 94.5368 50.3895 93.7684C49.3842 92.7947 49.2526 91.4947 49.2526 90.3526V83.5631C49.2526 82.421 49.3895 81.121 50.3895 80.1473C51.1684 79.3894 52.2316 79.021 53.6316 79.021C55.0316 79.021 56.121 79.3999 56.8895 80.1473C57.8895 81.121 58.0263 82.421 58.0263 83.5631V87.5578C58.0263 87.7999 57.9632 88.0263 57.8474 88.221C57.9632 88.4157 58.0263 88.6421 58.0263 88.8842V90.7315C57.9947 91.6842 57.8368 92.842 56.8895 93.7631C56.1105 94.521 55.0421 94.8894 53.6316 94.8894V94.8947Z" fill="white"/>
<path d="M53.6316 80.342C54.6579 80.342 55.4421 80.5841 55.9737 81.0947C56.5526 81.6578 56.7105 82.442 56.7105 83.5631V87.5578H53.1158V90.3841C53.1158 90.7841 53.1316 90.9315 53.2263 91.0736C53.321 91.1999 53.4526 91.2683 53.6421 91.2683C53.8316 91.2683 53.9631 91.2052 54.0579 91.0736C54.1526 90.9315 54.1684 90.7841 54.1684 90.3841V88.8894H56.7052V90.7368C56.6737 91.6683 56.4947 92.3105 55.9684 92.821C55.4368 93.3368 54.7 93.5736 53.6263 93.5736C52.5526 93.5736 51.8316 93.3315 51.3 92.821C50.721 92.2578 50.5631 91.4736 50.5631 90.3526V83.5631C50.5631 82.442 50.721 81.6526 51.3 81.0947C51.8316 80.5789 52.5842 80.342 53.6263 80.342M53.1105 85.3631H54.1684V83.5841C54.1684 83.1841 54.1526 83.021 54.0579 82.8789C53.9631 82.7526 53.8316 82.6841 53.6421 82.6841C53.4526 82.6841 53.321 82.7473 53.2263 82.8789C53.1316 83.021 53.1158 83.1841 53.1158 83.5841V85.3631M53.6316 77.7104C51.8947 77.7104 50.4947 78.2157 49.4737 79.2052C48.1105 80.5315 47.9368 82.2315 47.9368 83.5631V90.3526C47.9368 91.6841 48.1105 93.3894 49.4737 94.7105C50.5158 95.721 51.8737 96.2105 53.6368 96.2105C55.4 96.2105 56.7737 95.721 57.8105 94.7157C59.1105 93.4578 59.3105 91.8947 59.3474 90.8315C59.3474 90.7999 59.3474 90.7683 59.3474 90.742V88.8947C59.3474 88.6631 59.3158 88.442 59.2631 88.2315C59.321 88.021 59.3474 87.7947 59.3474 87.5684V83.5736C59.3474 82.242 59.1737 80.5368 57.8105 79.2157C56.7842 78.221 55.3789 77.7157 53.6316 77.7157V77.7104Z" fill="white"/>
<path d="M60.8159 94.8947C59.1053 94.8947 58.0895 94.2263 57.5474 93.6631C56.4948 92.5631 56.4211 91.4736 56.4211 89.8105V88.8947C56.4211 88.2684 56.858 87.7421 57.4474 87.6105C56.7211 86.8894 56.2948 85.9894 56.2948 84.5105V83.3105C56.2948 80.7263 58.0211 79.0579 60.6895 79.0579C62.4053 79.0579 63.4159 79.7263 63.958 80.2894C65.0106 81.3894 65.0843 82.4789 65.0843 84.1421V84.7737C65.0843 85.4 64.6474 85.9263 64.058 86.0579C64.7843 86.7789 65.2106 87.6789 65.2106 89.1579V90.6421C65.2106 93.2263 63.4843 94.8947 60.8159 94.8947Z" fill="white"/>
<path d="M60.6895 80.3738C61.7 80.3738 62.4843 80.6632 63.0158 81.2053C63.6895 81.9106 63.7685 82.5527 63.7685 84.1422V84.7738H61.2V84.3001C61.2 83.179 61.1843 83.0632 61.1053 82.9053C61.0421 82.779 60.8948 82.679 60.6895 82.679C60.3527 82.679 60.1737 82.9053 60.1737 83.3211V84.2948C60.1737 84.8738 60.3316 85.0948 61.3474 85.7211L61.6843 85.9317C63.2579 86.9106 63.9 87.4211 63.9 89.158V90.6422C63.9 92.4527 62.7948 93.579 60.8211 93.579C59.8106 93.579 59.0264 93.2896 58.4948 92.7474C57.8211 92.0422 57.7421 91.4001 57.7421 89.8106V88.8948H60.3106V89.8106C60.3106 90.9317 60.3106 90.8685 60.3895 91.0475C60.4527 91.1738 60.6 91.2738 60.8053 91.2738C61.0948 91.2738 61.3211 91.079 61.3211 90.6317V89.3738C61.3211 88.7948 61.179 88.5738 60.1685 87.9475L59.8316 87.7369C58.2579 86.758 57.6158 86.2422 57.6158 84.5106V83.3106C57.6158 81.5001 58.7211 80.3738 60.6948 80.3738M60.6948 77.7422C57.3316 77.7422 54.9843 80.0317 54.9843 83.3106V84.5106C54.9843 85.7001 55.2316 86.6106 55.6211 87.3422C55.3053 87.779 55.1158 88.3159 55.1158 88.8948V89.8106C55.1158 91.3106 55.1158 93.0106 56.6 94.5632C57.3369 95.3264 58.6579 96.2106 60.8316 96.2106C64.1948 96.2106 66.5421 93.9211 66.5421 90.6422V89.158C66.5421 87.9685 66.2948 87.058 65.9053 86.3264C66.2211 85.8896 66.4106 85.3527 66.4106 84.7738V84.1422C66.4106 82.6422 66.4106 80.9422 64.9316 79.3896C64.1948 78.6264 62.8737 77.7422 60.7 77.7422H60.6948Z" fill="white"/>
<path d="M55.5737 59.3052H52.9579L51.879 54.721L63.5948 54.3473L65.2632 54.2947C65.0684 56.8631 58.0842 59.3473 55.5737 59.2999V59.3052Z" fill="white"/>
<path d="M42.7264 2.63159L41.1948 7.0158H36.6369L40.3316 9.69475L38.879 14.3053L42.7264 11.6263L46.5685 14.3053L45.1158 9.69475L48.8106 7.0158H44.258L42.7264 2.63159Z" fill="#EB0024"/>
<path d="M57.0632 2.63159L55.5316 7.0158H50.9738L54.6685 9.69475L53.2159 14.3053L57.0632 11.6263L60.9053 14.3053L59.4527 9.69475L63.1474 7.0158H58.5948L57.0632 2.63159Z" fill="#EB0024"/>
<path d="M58.3474 67.1683C50.9158 71.8999 45.1369 69.0472 42.1579 67.1683C36.579 63.6472 32.1579 65.6472 30.6632 67.1157V71.1578C32.0211 69.7683 33.8895 69.0157 36.0737 69.0157C36.0737 69.0157 38.2316 68.8104 41.8843 70.642C44.3369 71.8736 49.879 75.8262 58.6211 70.642C61.6527 68.8472 64.4316 69.0157 64.4316 69.0157C66.6685 69.0157 68.5737 69.8051 69.9422 71.263V67.2104C68.5422 65.7367 64.0369 63.5472 58.3474 67.1683Z" fill="#EB0024"/>
<path d="M58.3474 72.3422C50.9158 77.0738 45.1369 74.2264 42.1579 72.3422C36.579 68.8211 32.1579 71.2369 30.6632 72.7264V77.1633C32.0211 75.7264 33.8895 74.1843 36.0737 74.1843C36.0737 74.1843 38.2316 73.979 41.8843 75.8106C44.3369 77.0422 49.879 80.9948 58.6211 75.8106C61.6474 74.0159 64.4316 74.1843 64.4316 74.1843C66.6685 74.1843 68.5737 75.7475 69.9422 77.2159V72.7685C68.5422 71.2896 64.0369 68.7211 58.3474 72.3422Z" fill="#EB0024"/>
<path d="M69.6316 41.3263C70.3369 37.8579 68.8 36.3579 67.2737 35.7105C67.6369 34.4789 67.0685 32.7632 65.7421 31.4158C64.9948 30.6579 64.1316 30.1526 63.3 29.9105C64.1737 26.6053 63.0474 23.4053 59.3421 22.421C58.4158 22.1737 57.4211 22.2 56.5421 22.421C55.1579 20.1053 52.6158 18.5474 49.7316 18.5474C46.8474 18.5474 44.4 20.0579 43.0053 22.3263C41.4474 22.0316 39.7737 22.3947 38.4211 23.4632C36.379 25.0789 35.7158 27.8105 36.6 30.1316C35.0632 30.2632 33.7 31.0842 33.0421 32.4474C32.5158 33.5421 32.5685 34.7947 33.0316 35.9158C31.4369 36.6895 30.3579 38.1789 30.3579 39.8895C30.3579 40.2895 30.4158 40.6789 30.5316 41.0474C28.779 42.1895 27.6211 44.1526 27.6211 46.3842C27.6211 49.9053 30.5106 52.7632 34.0737 52.7632C34.9421 52.7632 35.7737 52.5895 36.5264 52.2789C37.5843 54.3263 39.7264 55.7263 42.1948 55.7263C43.5369 55.7263 44.7843 55.2632 45.8106 54.5579V63.1632C39.5895 59.6579 36.7106 59.7684 35.7369 59.7684C34.2843 59.7 31.7685 60.3684 30.6527 61.5368V65.5684C31.7895 64.3895 34.579 63.5579 36.7 63.6526C37.8264 63.7 40.2211 64.2053 42.7264 65.6421C46.3895 67.7368 49.2106 68.1421 49.2158 68.1421V49.0158C48.1685 50.3579 46.1737 51.2632 43.8895 51.2632C40.9421 51.2632 38.4843 49.7579 37.9106 47.7579C37.5474 48.1789 37.0579 48.5316 36.4895 48.7421C34.8474 49.3474 33.079 48.6263 32.5421 47.1263C32.0053 45.6316 32.9 43.9263 34.5421 43.3158C34.7369 43.2421 34.9369 43.1895 35.1369 43.1526C34.0579 42.1526 33.5948 40.8263 34.079 39.7737C34.579 38.6895 35.9316 38.2053 37.4264 38.4421C36.9106 37.8474 36.6264 37.1368 36.6264 36.3316C36.6264 34.3737 38.4474 32.7842 40.6948 32.7842C40.8632 32.7842 41.0264 32.7947 41.1843 32.8105C40.4948 32.0684 40.079 31.0684 40.079 29.9684C40.079 27.6842 41.9 25.8263 44.1421 25.8263C44.7527 25.8263 45.3316 25.9632 45.8527 26.2105C46.1369 24.321 47.8579 22.8737 49.9369 22.8737C52.0158 22.8737 53.779 24.3632 54.0316 26.2895C54.6264 25.9316 55.3158 25.7947 56.0474 25.7947C58.2843 25.7947 60.1 27.7053 60.1 30.0684C60.1 31.1421 59.7527 32.0947 59.1316 32.8421C59.2685 32.8316 59.4106 32.821 59.5527 32.821C61.7685 32.821 63.5685 34.3789 63.5685 36.3C63.5685 36.9368 63.3685 37.5316 63.0264 38.0474C64.3053 38.0316 65.4685 38.7526 65.8948 39.9421C66.2369 40.8947 66.0211 41.9316 65.4158 42.7263C65.4579 42.7316 65.5 42.7368 65.5421 42.7474C67.1948 43.0421 68.3053 44.6105 68.0158 46.2526C67.7316 47.8947 66.1579 48.9842 64.5053 48.6895C63.6316 48.5316 62.9 48.0158 62.4579 47.3263C62.0948 49.4526 59.6158 51.1 56.6211 51.1C54.5053 51.1 52.4106 50.2789 51.3737 49.0526V68.1474C51.3737 68.1474 54.2 67.7474 57.8632 65.6474C60.3685 64.2105 62.7685 63.7105 63.8895 63.6579C66.0843 63.5579 68.8895 64.3368 69.9369 65.5842V61.5526C68.8895 60.3053 66.3579 59.7053 64.8527 59.7789C63.879 59.7789 60.9737 59.6632 54.7527 63.1737V54.5684C55.4 54.9368 56.4 55.3316 57.1843 55.4053C59.8579 55.6474 62.6948 54.3684 64.0211 52.2053C68.3316 53.3421 71.5948 50.5316 72.2264 47.4579C72.3211 47 72.3685 46.5579 72.3737 46.1368C72.3895 44.1053 71.3685 42.5158 69.6316 41.3316V41.3263Z" fill="#EB0024"/>
<path d="M47.1422 83.6528V84.4001C47.1422 85.1265 46.9685 85.3738 46.4211 85.3738H46.0106V82.6844H46.4211C46.9685 82.6844 47.1422 82.9317 47.1422 83.6528ZM53.3001 94.7001C49.5369 94.6422 49.6264 91.6633 49.6264 91.6633V88.9054C49.6264 87.3475 49.1316 86.7317 47.5737 86.637V86.5633C48.9422 86.4896 49.6264 85.7212 49.6264 84.3107V82.8843C49.6264 81.1791 48.7001 80.4475 46.5369 80.4475H43.4316V93.5001H46.0001V87.5633H46.0369C46.6106 87.5633 46.979 87.958 46.979 88.7054V91.658C46.979 91.658 46.9001 92.9159 47.2737 93.9212C48.079 96.0791 50.5369 97.3686 52.9369 97.3686C53.3264 97.3686 53.7001 97.337 54.0474 97.2896V94.6633C53.8632 94.6791 53.5001 94.6949 53.2948 94.6949" fill="#EB0024"/>
<path d="M30.6632 93.4581H33.2316V87.5634H35.3158V85.3634H33.2316V82.7002H35.5422V80.5002H30.6632V93.4581Z" fill="#EB0024"/>
<path d="M39.9474 90.2054C39.9474 90.7212 39.9316 90.8791 39.8211 91.058C39.7263 91.2001 39.5632 91.2843 39.3579 91.2843C39.1527 91.2843 38.9895 91.2054 38.8948 91.058C38.7842 90.8791 38.7684 90.7212 38.7684 90.2054V83.7001C38.7684 83.1843 38.7842 83.0264 38.8948 82.8475C38.9895 82.7054 39.1527 82.6212 39.3579 82.6212C39.5632 82.6212 39.7263 82.7001 39.8211 82.8475C39.9316 83.0264 39.9474 83.1843 39.9474 83.7001V90.2054ZM39.3527 80.3159C38.1948 80.3159 37.3632 80.6685 36.8474 81.3107C36.3316 81.9528 36.1737 82.8685 36.1737 84.2633V89.6422C36.1737 91.037 36.3316 91.9528 36.8474 92.5949C37.3632 93.237 38.1948 93.5896 39.3527 93.5896C40.5105 93.5896 41.3421 93.237 41.8579 92.5949C42.3737 91.9528 42.5316 91.037 42.5316 89.6422V84.2633C42.5316 82.8685 42.3737 81.9528 41.8579 81.3107C41.3421 80.6685 40.5105 80.3159 39.3527 80.3159Z" fill="#EB0024"/>
<path d="M64.1527 80.5002V82.7002H65.7632V93.4581H68.3317V82.7002H69.9422V80.5002H64.1527Z" fill="#EB0024"/>
<path d="M54.179 85.3633H53.1211V83.5844C53.1211 83.1844 53.1369 83.0212 53.2316 82.8791C53.3264 82.7528 53.458 82.6844 53.6474 82.6844C53.8369 82.6844 53.9685 82.7476 54.0632 82.8791C54.158 83.0212 54.1737 83.1844 54.1737 83.5844V85.3633H54.179ZM53.6316 80.3423C52.5895 80.3423 51.8369 80.5844 51.3053 81.0949C50.7264 81.6581 50.5685 82.4423 50.5685 83.5633V90.3528C50.5685 91.4739 50.7264 92.2633 51.3053 92.8212C51.8369 93.337 52.558 93.5739 53.6316 93.5739C54.7053 93.5739 55.4422 93.3318 55.9737 92.8212C56.5053 92.3054 56.679 91.6633 56.7106 90.737V88.8897H54.1737V90.3844C54.1737 90.7844 54.158 90.9318 54.0632 91.0739C53.9685 91.2002 53.8369 91.2686 53.6474 91.2686C53.458 91.2686 53.3264 91.2054 53.2316 91.0739C53.1369 90.9318 53.1211 90.7844 53.1211 90.3844V87.5581H56.7158V83.5633C56.7158 82.4423 56.558 81.6528 55.979 81.0949C55.4474 80.5791 54.6632 80.3423 53.6369 80.3423" fill="#EB0024"/>
<path d="M61.6843 85.9369L61.3474 85.7264C60.3369 85.1001 60.1738 84.8738 60.1738 84.3001V83.3264C60.1738 82.9106 60.3527 82.6843 60.6895 82.6843C60.9001 82.6843 61.0422 82.779 61.1053 82.9106C61.1843 83.0685 61.2001 83.1843 61.2001 84.3054V84.779H63.7685V84.1475C63.7685 82.558 63.6895 81.9159 63.0159 81.2106C62.4843 80.6633 61.7001 80.3738 60.6895 80.3738C58.7159 80.3738 57.6106 81.4948 57.6106 83.3106V84.5106C57.6106 86.2422 58.2527 86.758 59.8264 87.7369L60.1632 87.9475C61.1738 88.5738 61.3159 88.8001 61.3159 89.3738V90.6317C61.3159 91.079 61.0895 91.2738 60.8001 91.2738C60.5895 91.2738 60.4474 91.179 60.3843 91.0475C60.3053 90.8685 60.3053 90.9369 60.3053 89.8106V88.8948H57.7369V89.8106C57.7369 91.4001 57.8159 92.0422 58.4895 92.7475C59.0211 93.2948 59.8053 93.5843 60.8159 93.5843C62.7895 93.5843 63.8948 92.4632 63.8948 90.6475V89.1633C63.8948 87.4317 63.2527 86.9159 61.679 85.9369" fill="#EB0024"/>
</g>
<defs>
<clipPath id="clip0_326_93">
<rect width="50.0053" height="100" fill="white" transform="translate(25)"/>
</clipPath>
</defs>
</svg>
