<svg width="101" height="101" viewBox="0 0 101 101" fill="none" xmlns="http://www.w3.org/2000/svg">
<path d="M50.9502 100.957C78.5644 100.957 100.95 78.5713 100.95 50.957C100.95 23.3428 78.5644 0.957031 50.9502 0.957031C23.336 0.957031 0.950195 23.3428 0.950195 50.957C0.950195 78.5713 23.336 100.957 50.9502 100.957Z" fill="white"/>
<path d="M50.9546 97.4158C76.6155 97.4158 97.4179 76.6135 97.4179 50.9525C97.4179 25.2916 76.6155 4.48926 50.9546 4.48926C25.2936 4.48926 4.49133 25.2916 4.49133 50.9525C4.49133 76.6135 25.2936 97.4158 50.9546 97.4158Z" fill="#ED1C24"/>
<path d="M84.1683 50.953C84.1683 69.2958 69.304 84.1747 50.9465 84.1747C32.6183 84.1747 17.7394 69.3105 17.7394 50.953C17.7394 32.6101 32.6037 17.7312 50.9612 17.7312C69.304 17.7458 84.1683 32.6101 84.1683 50.953Z" fill="white"/>
<path d="M81.8007 50.9527C81.8007 67.9801 67.9888 81.7921 50.9613 81.7921C33.9339 81.7921 20.1219 67.9801 20.1219 50.9527C20.1219 33.9252 33.9339 20.1133 50.9613 20.1133C67.9888 20.1133 81.8007 33.9252 81.8007 50.9527Z" fill="black"/>
<path d="M49.5582 37.6525C49.0613 38.3686 47.6874 40.6341 46.7812 41.8472C47.2781 43.7765 48.7689 42.4026 50.8444 42.3149C52.8175 42.2272 53.6945 43.8642 54.9514 41.7887C54.1329 40.4295 52.686 38.2371 52.2037 37.594C51.8236 37.8571 51.3559 38.0325 50.859 38.0325C50.3767 38.0179 49.9382 37.8863 49.5582 37.6525Z" fill="white"/>
<path d="M50.6543 33.2529C50.6543 33.2529 50.5374 29.6428 50.5228 27.8304C48.9735 26.5881 48.4473 28.6928 46.825 30.0082C45.2903 31.2505 43.4487 30.6074 43.6972 33.0044C45.2172 33.6183 47.9796 34.4222 48.652 34.6122C49.0027 33.8668 49.7628 33.3114 50.6543 33.2529Z" fill="white"/>
<path d="M48.5204 35.0216C47.9943 34.8608 45.1003 33.9546 43.4341 33.6331C41.9141 35.5185 43.8141 35.9716 44.4134 37.857C45.0419 39.8448 44.3257 41.9056 46.2988 41.701C47.1612 40.4002 48.8128 38.047 49.2659 37.4039C48.7689 36.9655 48.4474 36.3516 48.4328 35.6354C48.4328 35.4308 48.462 35.2262 48.5204 35.0216Z" fill="white"/>
<path d="M51.0051 33.2529C51.8967 33.3114 52.6421 33.8668 52.9929 34.6268C53.6652 34.4368 56.4276 33.6329 57.9476 33.0191C58.1961 30.6075 56.3399 31.2652 54.8198 30.0228C53.2121 28.7074 52.6713 26.6027 51.122 27.8451C51.122 29.6428 50.9905 33.2529 51.0051 33.2529Z" fill="white"/>
<path d="M53.1244 35.0216C53.1829 35.2262 53.2121 35.4308 53.2121 35.6501C53.1975 36.3663 52.9198 36.9509 52.4229 37.3894C52.8759 38.0325 54.4837 40.2102 55.346 41.511C57.3192 41.701 56.603 39.8448 57.2315 37.8717C57.8161 35.9862 59.7308 35.5185 58.2107 33.6477C56.5445 33.9546 53.6652 34.8608 53.1244 35.0216Z" fill="white"/>
<path d="M42.5133 33.6477C42.4841 33.6623 42.1625 34.6708 42.3525 35.6793C42.4695 36.2493 43.4779 36.644 43.858 37.6817C44.428 39.2456 43.6241 42.1687 45.758 42.081C41.6071 44.9896 38.1578 34.8754 42.5133 33.6477Z" fill="white"/>
<path d="M58.9123 33.4431C63.3701 34.1008 60.3446 42.1834 58.4884 42.578C57.7576 42.8119 56.8076 42.5634 56.2522 42.3149C58.0353 41.7303 57.3484 40.181 57.8599 37.8717C58.1523 36.5417 59.4531 36.2201 59.4823 35.0947C59.5554 34.2908 58.9561 34.1593 58.9123 33.4431Z" fill="white"/>
<path d="M46.3135 42.6365C47.3073 44.5365 48.6374 43.0457 51.2975 43.1334C53.0806 43.1919 54.776 44.0834 55.536 42.7096C56.8369 47.0943 45.3488 47.8105 46.3135 42.6365Z" fill="white"/>
<path d="M50.2743 27.1437C48.3304 26.2375 48.1843 28.2106 46.0065 29.7599C44.5595 30.7976 42.6595 31.1045 42.8933 32.6538C39.1955 29.9645 47.9212 22.452 50.2743 27.1437Z" fill="white"/>
<path d="M51.3267 27.1437C53.2706 26.2375 53.4167 28.2106 55.5945 29.7599C57.0414 30.7976 58.9415 31.1045 58.7077 32.6538C62.4055 29.9645 53.6944 22.452 51.3267 27.1437Z" fill="white"/>
<path d="M51.8237 25.3604C51.8237 25.3604 50.7859 26.0912 50.8152 26.8951C50.7713 26.0474 49.7628 25.3896 49.7628 25.3896C49.7628 25.3896 50.8152 24.6589 50.7713 23.855C50.859 24.9366 51.8237 25.3604 51.8237 25.3604Z" fill="white"/>
<path d="M60.9585 33.5306C60.9585 33.5306 59.9062 32.8875 59.1608 32.946C60.0669 32.6829 60.4908 31.6013 60.4908 31.6013C60.4908 31.6013 61.1631 32.3029 62.2885 32.186C61.587 32.3467 60.9585 33.5306 60.9585 33.5306Z" fill="white"/>
<path d="M56.2376 44.7558C56.2376 44.7558 56.5591 43.6742 56.1499 42.8557C56.6615 43.528 57.9623 43.4257 57.9623 43.4257C57.9623 43.4257 57.5384 44.6681 58.05 45.3258C57.5384 44.6827 56.2376 44.7558 56.2376 44.7558Z" fill="white"/>
<path d="M44.0041 43.2065C44.0041 43.2065 45.0857 43.5865 45.8165 42.7388C45.3342 43.5134 45.7434 44.6096 45.7434 44.6096C45.7434 44.6096 44.6326 44.4634 43.9164 45.0773C44.4865 44.1711 44.0041 43.2065 44.0041 43.2065Z" fill="white"/>
<path d="M41.2272 31.7622C41.2125 32.5368 42.3087 33.1215 42.3087 33.1215C42.3087 33.1215 41.461 32.9315 40.7156 33.823C40.4964 32.8876 39.634 32.4491 39.634 32.4491C39.634 32.4491 40.9056 32.4492 41.2272 31.7622Z" fill="white"/>
<path d="M52.8759 35.6061C52.8905 36.7315 51.9844 37.6523 50.8589 37.6669C49.7335 37.6815 48.7981 36.7754 48.7835 35.6499C48.7689 34.5245 49.6751 33.6037 50.8005 33.5891C51.9259 33.5891 52.8613 34.4807 52.8759 35.6061Z" fill="white"/>
<path d="M50.8298 36.8046C50.7128 36.9653 50.5374 37.0676 50.3474 37.0676C49.8797 37.0676 49.4266 36.6146 49.412 36.1469C49.412 35.9568 49.4997 35.7815 49.6605 35.6645C49.4997 35.5476 49.3974 35.3722 49.3974 35.1822C49.3974 34.7145 49.8505 34.2614 50.3036 34.2468C50.4936 34.2468 50.669 34.3345 50.7859 34.4953C50.9028 34.3345 51.0782 34.2322 51.2682 34.2322C51.7359 34.2322 52.189 34.6853 52.2036 35.153C52.2036 35.343 52.1159 35.5184 51.9552 35.6353C52.1159 35.7522 52.2183 35.9276 52.2183 36.1176C52.2183 36.5853 51.7652 37.0384 51.3121 37.053C51.1221 37.053 50.9467 36.9653 50.8298 36.8046Z" fill="black"/>
<path d="M50.3182 34.6416C50.0843 34.6562 49.8066 34.9339 49.8066 35.1824C49.8066 35.2555 49.8505 35.2993 49.8943 35.3285L50.362 35.6501L49.9089 35.9863C49.8651 36.0155 49.8213 36.0593 49.8213 36.1324C49.8359 36.3663 50.1136 36.644 50.3474 36.644C50.4205 36.644 50.4643 36.6001 50.4936 36.5563L50.8151 36.0886L51.1513 36.5563C51.1951 36.6147 51.239 36.644 51.2974 36.644C51.5459 36.6294 51.809 36.3517 51.809 36.1178C51.809 36.0593 51.7798 36.0155 51.7213 35.9716L51.2536 35.6501L51.7213 35.3139C51.7798 35.2701 51.809 35.2262 51.809 35.1678C51.7944 34.9193 51.5167 34.6562 51.2682 34.6562C51.2098 34.6562 51.1659 34.6855 51.1221 34.7439L50.8005 35.2116L50.4644 34.7585C50.4497 34.6855 50.3913 34.6416 50.3182 34.6416Z" fill="white"/>
<path d="M51.5459 35.08C51.5021 35.0654 51.4436 35.0507 51.3851 35.0507C51.3851 34.9046 51.2974 34.8023 51.2536 34.7584C51.1367 34.6415 50.9613 34.5977 50.7859 34.5977C50.6251 34.5977 50.4497 34.6561 50.3328 34.773C50.289 34.8169 50.2159 34.9192 50.2159 35.0654C50.1574 35.0654 50.0989 35.08 50.0551 35.0946C49.8505 35.1823 49.7482 35.4161 49.7482 35.65C49.7482 35.8985 49.8651 36.1177 50.0697 36.2054C50.1136 36.22 50.1574 36.2346 50.2305 36.2346C50.2305 36.3808 50.3182 36.4831 50.362 36.5269C50.479 36.6439 50.6544 36.6877 50.8297 36.6877C50.9905 36.6877 51.1659 36.6293 51.2828 36.5123C51.3267 36.4539 51.3998 36.3662 51.4144 36.22C51.4728 36.22 51.5313 36.2054 51.5751 36.1908C51.7798 36.1031 51.8821 35.8692 51.8821 35.6354C51.8675 35.3869 51.7505 35.1677 51.5459 35.08Z" fill="black"/>
<path d="M51.4144 35.8253C51.3705 35.8253 51.2974 35.8107 51.2244 35.7522C51.239 35.7084 51.239 35.6792 51.239 35.6353C51.239 35.6061 51.2244 35.5622 51.2244 35.533C51.2974 35.4745 51.3705 35.4453 51.3851 35.4453H51.3998C51.4144 35.4453 51.4728 35.5184 51.4728 35.6353C51.4728 35.7522 51.4144 35.8253 51.4144 35.8253Z" fill="white"/>
<path d="M51.0051 36.2493C50.9905 36.2786 50.9028 36.3078 50.8297 36.3078C50.7566 36.3078 50.6689 36.2786 50.6543 36.2639L50.6397 36.2347C50.6397 36.2055 50.6836 36.1178 50.7274 36.0593C50.7566 36.0739 50.8005 36.0739 50.8297 36.0739C50.859 36.0739 50.8882 36.0739 50.932 36.0593C50.9759 36.1324 51.0343 36.2055 51.0197 36.2347L51.0051 36.2493Z" fill="white"/>
<path d="M50.2451 35.84C50.2159 35.84 50.1574 35.7669 50.1574 35.65C50.1574 35.533 50.2013 35.46 50.2159 35.46H50.2305C50.2597 35.46 50.3182 35.4892 50.4059 35.5477C50.3913 35.5769 50.3913 35.6061 50.3913 35.65C50.3913 35.6938 50.3913 35.723 50.4059 35.7523C50.3328 35.8107 50.2743 35.84 50.2451 35.84Z" fill="white"/>
<path d="M50.6251 35.0362C50.6544 35.007 50.7274 34.9778 50.8005 34.9778C50.8882 34.9778 50.9613 35.007 50.9759 35.0362L50.9905 35.0655C50.9905 35.0947 50.9613 35.1678 50.9028 35.2262C50.8736 35.2262 50.8297 35.2116 50.8005 35.2116C50.7567 35.2116 50.7274 35.2262 50.6836 35.2262C50.6397 35.1678 50.5959 35.0947 50.5959 35.0509L50.6251 35.0362Z" fill="white"/>
<path d="M50.9467 35.65C50.9467 35.7231 50.8882 35.7816 50.8151 35.7816C50.7421 35.7816 50.6836 35.7231 50.6836 35.65C50.6836 35.5769 50.7421 35.5185 50.8151 35.5185C50.8882 35.5039 50.9467 35.5769 50.9467 35.65Z" fill="white"/>
<path d="M44.048 72.2628C44.4572 73.0082 44.3841 73.8121 43.6826 74.1044C42.981 74.3967 41.8264 74.0752 41.3294 73.3298C39.3563 70.3481 40.4525 66.7819 38.7716 63.7856C38.3624 63.0402 38.4355 62.2363 39.137 61.944C39.8386 61.6517 40.9933 61.9733 41.4756 62.7187C43.4633 65.7149 42.3671 69.2812 44.048 72.2628Z" fill="white"/>
<path d="M63.0632 63.7856C63.4578 63.0402 63.3994 62.2363 62.6978 61.944C61.9962 61.6517 60.8416 61.9733 60.3447 62.7187C58.3715 65.7149 59.4677 69.2812 57.7869 72.2628C57.3923 73.0082 57.4507 73.8121 58.1523 74.1044C58.8538 74.3967 60.0085 74.0752 60.5054 73.3298C62.4786 70.3335 61.3824 66.7673 63.0632 63.7856Z" fill="white"/>
<path d="M32.7353 67.6587C33.1445 67.7756 33.3638 68.2141 33.2469 68.6233L32.6038 70.7719C32.4868 71.1811 32.0484 71.4149 31.6537 71.2834C31.2445 71.1665 31.0106 70.728 31.1422 70.3334L31.7853 68.1848C31.9022 67.761 32.3261 67.5271 32.7353 67.6587Z" fill="#FFF200"/>
<path d="M34.7816 67.5857C35.1908 67.7026 35.4247 68.1411 35.2931 68.5357L34.65 70.6842C34.5331 71.0935 34.0946 71.3273 33.7 71.1958C33.2908 71.0789 33.0569 70.6404 33.1884 70.2311L33.8315 68.0826C33.9485 67.7026 34.3723 67.4687 34.7816 67.5857Z" fill="#FFF200"/>
<path d="M36.9301 67.3663C37.3393 67.4832 37.5586 67.9217 37.4416 68.3309L36.7986 70.4795C36.6816 70.8887 36.2432 71.1225 35.8339 70.991C35.4247 70.8741 35.1908 70.4356 35.3224 70.041L35.9655 67.8924C36.0824 67.4832 36.5209 67.2494 36.9301 67.3663Z" fill="#FFF200"/>
<path d="M39.0055 67.2055C39.4147 67.3225 39.6486 67.761 39.5171 68.1702L38.874 70.3187C38.757 70.728 38.3186 70.9618 37.9239 70.8303C37.5147 70.7134 37.2808 70.2749 37.4124 69.8803L38.0555 67.7317C38.1724 67.3079 38.5963 67.0886 39.0055 67.2055Z" fill="#FFF200"/>
<path d="M69.1726 67.6587C68.7634 67.7756 68.5442 68.2141 68.6611 68.6233L69.3042 70.7719C69.4211 71.1811 69.8596 71.4149 70.2542 71.2834C70.6634 71.1665 70.8973 70.728 70.7658 70.3334L70.1227 68.1848C70.0057 67.761 69.5819 67.5271 69.1726 67.6587Z" fill="#FFF200"/>
<path d="M67.1264 67.5857C66.7171 67.7026 66.4979 68.1411 66.6148 68.5357L67.2579 70.6842C67.3748 71.0935 67.8133 71.3273 68.2226 71.1958C68.6318 71.0642 68.851 70.6404 68.7341 70.2311L68.091 68.0826C67.9595 67.7026 67.5356 67.4687 67.1264 67.5857Z" fill="#FFF200"/>
<path d="M64.9779 67.3663C64.5686 67.4832 64.3348 67.9217 64.4663 68.3163L65.1094 70.4648C65.241 70.8741 65.6648 71.1079 66.0741 70.9764C66.4833 70.8595 66.7026 70.421 66.5856 70.0264L65.9425 67.8778C65.811 67.4686 65.3871 67.2494 64.9779 67.3663Z" fill="#FFF200"/>
<path d="M62.9025 67.2056C62.4932 67.3226 62.2594 67.761 62.3909 68.1703L63.034 70.3188C63.1509 70.7281 63.5894 70.9619 63.984 70.8304C64.3933 70.7134 64.6125 70.275 64.4956 69.8803L63.8525 67.7318C63.7356 67.3226 63.3117 67.0887 62.9025 67.2056Z" fill="#FFF200"/>
<path d="M64.3202 40.3562C63.1217 50.6896 57.7723 56.7405 51.4436 61.9292C52.4959 62.6453 53.5483 63.3031 54.6152 63.9169C64.3494 58.3775 72.1981 50.9673 72.7973 36.3076C69.9034 37.5792 67.1849 39.0554 64.3202 40.3562Z" fill="white"/>
<path d="M43.1857 66.5772C43.3757 67.2641 43.3318 67.9803 43.5218 68.4188C45.7727 67.5418 48.462 66.8841 50.4936 65.8025C49.3974 65.3495 48.3012 64.8379 47.2196 64.2971C46.0796 65.1741 44.6911 65.8756 43.1564 66.3433C43.1564 66.4164 43.171 66.5041 43.1857 66.5772Z" fill="white"/>
<path d="M58.5178 67.7024C58.5616 67.3078 58.6055 66.8985 58.6639 66.4893C47.9798 61.3884 39.4733 54.2558 37.5879 40.3562C34.7232 39.0408 32.0193 37.5792 29.1107 36.3076C30.1631 55.5567 43.2004 63.7269 58.4739 68.1409C58.4885 67.9947 58.5031 67.8486 58.5178 67.7024Z" fill="white"/>
<path d="M12.3609 48.7459C13.311 48.8336 13.7494 48.132 13.8225 47.2989C13.881 46.7435 13.7933 45.8958 13.0625 45.8227C12.2878 45.7497 12.0686 46.802 11.6886 47.8251C11.3086 48.8628 10.797 49.8859 9.46699 49.7544C8.0054 49.6229 7.43539 48.1759 7.56693 46.8897C7.71309 45.3989 8.48773 44.0981 10.1247 44.2588L9.97854 45.7789C9.11621 45.7497 8.83851 46.3343 8.76543 47.0797C8.72158 47.5766 8.86774 48.1759 9.46699 48.2343C10.0224 48.2928 10.1247 47.9566 10.7386 46.2174C10.914 45.7058 11.3963 44.1419 13.0186 44.3027C14.3194 44.4196 15.211 45.545 15.021 47.4889C14.8748 49.0675 13.954 50.4706 12.2001 50.2806L12.3609 48.7459Z" fill="white"/>
<path d="M8.40002 41.8618L8.8385 40.3564L11.484 41.1164L12.2878 38.3394L9.64237 37.5794L10.0808 36.074L16.9649 38.0471L16.5264 39.5525L13.5594 38.7048L12.7555 41.4818L15.7226 42.3295L15.2841 43.835L8.40002 41.8618Z" fill="white"/>
<path d="M10.9724 33.8233L13.3694 29.0439L14.5533 29.6432L12.8579 33.0195L14.2317 33.7064L15.781 30.6078L16.8772 31.1486L15.3279 34.2472L16.8918 35.0364L18.6165 31.5871L19.8004 32.1863L17.3741 37.0388L10.9724 33.8233Z" fill="white"/>
<path d="M14.6556 27.0269L17.6373 22.9783L18.7042 23.7675L16.658 26.5445L17.9881 27.5238L19.7712 25.1122L20.7504 25.843L18.9673 28.2546L21.3497 30.0085L20.4143 31.2801L14.6556 27.0269Z" fill="white"/>
<path d="M18.6896 21.8383L22.2558 18.2866L23.1912 19.222L20.7504 21.6629L21.9197 22.8321L24.0244 20.7128L24.8867 21.5752L22.7674 23.6945L24.8575 25.7845L23.7467 26.8953L18.6896 21.8383Z" fill="white"/>
<path d="M23.425 17.3804L24.6528 16.4011L29.096 22.0136L27.8683 22.9929L23.425 17.3804Z" fill="white"/>
<path d="M26.3336 15.1149L30.9084 12.3525L31.5953 13.478L28.3652 15.4365L29.1545 16.7519L32.1215 14.9542L32.75 16.0065L29.7976 17.7896L30.7038 19.2951L34.0069 17.2927L34.6939 18.4181L30.046 21.2243L26.3336 15.1149Z" fill="white"/>
<path d="M33.13 11.3002L34.5916 10.7302L36.6963 16.1673L39.941 14.9104L40.4233 16.1381L35.7024 17.9651L33.13 11.3002Z" fill="white"/>
<path d="M40.131 8.80089L43.1711 8.24548C44.998 7.90932 46.5766 8.80089 47.0004 11.1394C47.3804 13.1856 46.6058 14.8957 44.4573 15.2757L41.4172 15.8311L40.131 8.80089ZM42.7326 14.2526L44.1065 14.0041C44.9981 13.8433 45.7581 13.1272 45.4804 11.5779C45.2173 10.1602 44.5596 9.34167 43.0249 9.61937L41.9141 9.82399L42.7326 14.2526Z" fill="white"/>
<path d="M58.3861 12.5865C58.1669 14.5012 56.9245 15.3197 55.0245 15.1004C53.1098 14.8812 52.1013 13.8289 52.3205 11.8996L52.8175 7.4856L54.3814 7.66099L53.8844 12.075C53.7967 12.8496 53.9137 13.6389 55.1706 13.785C56.2814 13.9166 56.7053 13.4635 56.8222 12.4111L57.3192 7.99715L58.8831 8.17254L58.3861 12.5865Z" fill="white"/>
<path d="M60.9877 8.61084L62.4785 9.07855L63.8963 14.5449H63.9109L65.3433 9.9555L66.7464 10.394L64.6125 17.2196L63.107 16.7519L61.6893 11.3002H61.6747L60.2569 15.8749L58.8538 15.4364L60.9877 8.61084Z" fill="white"/>
<path d="M68.7487 11.344L70.1665 12.0163L67.1118 18.4911L65.694 17.8188L68.7487 11.344Z" fill="white"/>
<path d="M72.4904 14.7789L70.6634 13.6388L71.365 12.5134L76.349 15.612L75.6474 16.7374L73.8205 15.5974L70.7511 20.5667L69.4211 19.7336L72.4904 14.7789Z" fill="white"/>
<path d="M77.4452 16.4741L81.4938 19.9819L80.6314 20.9758L77.7814 18.5057L76.7729 19.6604L79.3891 21.9258L78.5852 22.8466L75.969 20.5812L74.8143 21.9112L77.7229 24.4397L76.8606 25.4336L72.7681 21.882L77.4452 16.4741Z" fill="white"/>
<path d="M83.2769 21.8237L85.1769 24.25C86.317 25.7115 86.2585 27.5239 84.4023 28.9855C82.7653 30.2717 80.8945 30.374 79.5498 28.6639L77.6498 26.2377L83.2769 21.8237ZM79.6521 26.647L80.5145 27.7578C81.0699 28.4739 82.0638 28.8101 83.3061 27.8454C84.4461 26.9539 84.8554 25.9892 83.8907 24.7615L83.2038 23.8846L79.6521 26.647Z" fill="white"/>
<path d="M90.2779 32.3909L92.1926 37.0387L90.9648 37.5356L89.6494 34.3348L88.1147 34.9633L89.2548 37.7403L88.1294 38.208L86.9893 35.431L84.2562 36.5564L83.6569 35.0948L90.2779 32.3909Z" fill="white"/>
<path d="M86.9016 39.231L87.3547 40.7364L85.8785 41.1895L85.4254 39.684L86.9016 39.231Z" fill="white"/>
<path d="M91.6956 45.9397C92.3825 45.7204 92.8064 44.9604 92.6748 44.1858C92.441 42.7973 91.1694 42.4611 89.9417 42.6657C88.7724 42.8557 87.6616 43.5865 87.8955 44.975C88.0562 45.9251 88.787 46.3489 89.7371 46.3197L89.9855 47.8251C88.2024 47.9567 86.8724 46.9336 86.58 45.1943C86.2147 43.0165 87.6324 41.4526 89.6786 41.1165C91.7687 40.7657 93.6249 41.7888 93.9757 43.9665C94.2387 45.5158 93.5372 46.9774 91.9441 47.4305L91.6956 45.9397Z" fill="white"/>
<path d="M88.714 48.936L88.7579 50.5145L87.2086 50.5584L87.1647 48.9799L88.714 48.936Z" fill="white"/>
<path d="M42.9372 93.6019L41.5487 93.3095L42.4987 88.8663L40.774 88.5009L40.9933 87.4486C41.9579 87.6824 42.9226 87.5363 43.288 86.5132L44.3988 86.747L42.9372 93.6019Z" fill="white"/>
<path d="M47.7312 87.0246C49.4705 87.1854 49.9674 88.4277 49.8943 89.1147C49.8359 89.8016 49.4266 90.3278 48.7397 90.5178V90.5324C49.5582 90.7955 49.9674 91.4824 49.8943 92.3594C49.7628 93.821 48.3743 94.4348 47.0881 94.3179C45.7434 94.201 44.4865 93.3971 44.6326 91.8917C44.7057 91.0001 45.2611 90.4155 46.1088 90.2985V90.2839C45.4511 90.0355 45.1442 89.4508 45.2027 88.7493C45.305 87.4631 46.5912 86.9223 47.7312 87.0246ZM47.1904 93.2363C47.8627 93.2948 48.4328 92.8563 48.4912 92.1694C48.5497 91.4971 48.0528 91.0001 47.395 90.9416C46.7081 90.8832 46.1235 91.2193 46.065 91.9355C45.9919 92.6517 46.5035 93.1633 47.1904 93.2363ZM47.4681 89.9916C48.0528 90.0501 48.5497 89.7724 48.5935 89.1731C48.6228 88.8077 48.5058 88.1939 47.6289 88.1062C47.0589 88.0623 46.5327 88.3546 46.4742 88.9831C46.4158 89.5824 46.8981 89.9332 47.4681 89.9916Z" fill="white"/>
<path d="M53.2121 87.0977C54.9514 86.9954 55.6237 88.15 55.6675 88.837C55.7114 89.5239 55.3898 90.1085 54.7321 90.3862V90.4008C55.5798 90.547 56.0914 91.1463 56.1499 92.0378C56.2376 93.514 54.966 94.3179 53.6652 94.4056C52.3205 94.4933 50.9613 93.894 50.8736 92.374C50.8151 91.4824 51.2828 90.8247 52.0867 90.5762V90.5616C51.3997 90.4155 51.0051 89.8747 50.9612 89.1877C50.8882 87.9015 52.0574 87.1708 53.2121 87.0977ZM53.3875 90.0647C53.9721 90.0355 54.4252 89.6847 54.3814 89.0854C54.3521 88.72 54.1475 88.1208 53.2705 88.1792C52.7005 88.2085 52.2182 88.5885 52.2621 89.217C52.2913 89.8162 52.8175 90.0939 53.3875 90.0647ZM53.5921 93.3094C54.279 93.2656 54.7614 92.754 54.7175 92.0524C54.6737 91.3801 54.1037 90.9709 53.4459 91.0001C52.759 91.044 52.2328 91.4678 52.2767 92.184C52.3205 92.9148 52.9198 93.3532 53.5921 93.3094Z" fill="white"/>
<path d="M58.62 91.8333C58.81 92.2718 59.2485 92.5933 59.7308 92.491C60.7393 92.2718 60.7247 90.8979 60.5931 90.1232L60.5639 90.1086C60.3008 90.7225 59.8477 91.0586 59.1754 91.2048C58.5908 91.3363 57.933 91.1902 57.4507 90.8394C56.9976 90.4886 56.7053 89.9625 56.5884 89.4217C56.2815 88.0185 57.0269 86.7031 58.4446 86.3962C60.52 85.9577 61.4701 87.6385 61.8355 89.3778C62.2009 91.0586 61.8647 93.1195 59.9062 93.5433C58.7223 93.7918 57.6846 93.2949 57.2753 92.1256L58.62 91.8333ZM60.1254 88.5739C59.9939 87.9309 59.4385 87.3901 58.7515 87.5362C58.0792 87.6824 57.8453 88.3986 57.9769 89.0124C58.1084 89.6555 58.5908 90.2402 59.3069 90.0794C60.0377 89.9186 60.2716 89.2463 60.1254 88.5739Z" fill="white"/>
</svg>
