<svg width="100" height="100" viewBox="0 0 100 100" fill="none" xmlns="http://www.w3.org/2000/svg">
<g clip-path="url(#clip0_326_97)">
<path d="M46.0567 98.4302C45.1829 98.4302 44.2882 98.3569 43.4039 98.2104C43.2627 98.1895 43.1214 98.1634 42.9749 98.132L42.8702 98.1163C42.7813 98.1006 42.6976 98.0849 42.6086 98.0692C42.5458 98.0587 42.4883 98.0378 42.4307 98.0221C37.3292 96.8867 33.0649 93.3758 30.9615 88.583C30.9353 88.5359 30.9092 88.4836 30.883 88.4312C30.004 86.4325 29.8208 84.9884 29.69 83.9262L29.6639 83.7222C29.622 83.3402 29.6011 82.9949 29.5854 82.6443C29.5174 80.9595 29.7057 79.2852 30.1452 77.6631C30.2342 77.3178 30.3441 76.9672 30.4592 76.6324C31.558 73.4197 33.7084 70.5472 36.4973 68.5641C36.6909 68.4281 36.9211 68.2921 37.1513 68.1665C37.6536 66.0369 39.3907 65.6864 40.5837 65.4457C41.7348 65.2155 43.0377 64.9486 44.5132 63.4731C45.5335 62.4528 47.438 58.6908 47.438 54.2171C47.438 49.7435 44.1469 47.3105 40.3326 44.5269C35.6915 41.1416 30.433 37.3011 30.433 28.9398C30.433 23.8435 32.819 20.8716 34.9223 18.2502C36.5967 16.1625 38.046 14.3626 38.046 11.736C38.046 9.64304 37.303 8.20939 35.7752 7.35652C34.6241 6.71295 33.4259 6.65016 33.4154 6.64493C32.819 6.624 32.28 6.2682 32.0341 5.72404C31.7882 5.17988 31.8719 4.54154 32.2539 4.08109C32.4684 3.82471 34.4724 1.56958 39.5529 1.56958C45.1829 1.56958 48.0398 4.99151 48.0398 11.7412C48.0398 14.2684 47.8043 16.466 47.6002 18.4019C47.0352 23.7075 46.6951 26.9149 51.3152 31.5298C51.6658 31.8804 52.6756 32.8902 53.8005 33.021C53.9889 32.6757 54.2296 31.9222 54.418 31.3467C55.4958 28.0032 57.301 22.3994 65.7721 19.7309C65.929 19.6839 66.086 19.6577 66.243 19.6577C66.7767 19.6577 67.2894 19.935 67.5825 20.4111C67.6609 20.542 68.383 21.7611 69.0894 24.2307C69.1835 24.5604 69.1678 24.9005 69.0527 25.2039C69.2986 25.4237 69.4713 25.7115 69.5446 26.0411C70.1777 28.898 70.4969 32.1158 70.4969 35.6058C70.4969 36.4744 69.7957 37.1755 68.9272 37.1755C60.0008 37.1755 56.0818 44.9612 55.0929 47.3471C53.5546 51.0568 53.7482 53.877 54.2871 54.4212C54.8365 54.9706 54.8993 55.8339 54.4441 56.4618C54.4336 56.4775 53.7639 57.3984 52.9686 58.7012C54.0203 58.5181 55.3598 58.042 55.8516 57.5501C56.1969 57.2048 56.6469 57.0164 57.1178 57.0164C57.7562 57.0164 58.337 57.367 58.6404 57.9268C58.9544 58.5076 58.9125 59.2245 58.5358 59.7948C56.537 62.8191 53.9104 63.3004 52.1681 63.6196C51.0414 63.8254 50.478 64.2649 50.478 64.9381C50.478 66.1311 50.7606 66.2305 51.3832 66.4451L51.5402 66.4974C55.0354 67.7479 58.0387 70.1809 59.9956 73.3465C60.388 73.9953 60.7647 74.7435 61.22 75.7795C61.2252 75.7952 61.2304 75.8109 61.2409 75.8214C61.288 75.9208 61.3298 76.0254 61.3717 76.1248C61.9996 77.7783 62.3554 79.5206 62.4286 81.3048C62.5176 83.3978 62.2089 85.4488 61.5234 87.4109C61.5182 87.4319 61.0787 88.5411 61.0735 88.562C58.9701 93.3601 54.6743 96.8971 49.5781 98.0273C48.8089 98.2 47.6002 98.425 46.0462 98.425L46.0567 98.4302ZM42.4098 10.4017C42.4569 10.836 42.483 11.2808 42.483 11.736C42.483 14.326 41.9075 15.7282 41.447 16.8532C41.1383 17.6119 40.929 18.1142 40.929 18.899C40.929 20.1548 41.9493 20.8821 42.9173 21.2902C42.9801 20.1914 43.0952 19.0821 43.2208 17.931C43.4144 16.105 43.6341 14.033 43.6341 11.736C43.6341 10.5953 43.5504 9.67967 43.3987 8.94714C43.1946 9.58549 42.8336 10.0669 42.4098 10.4017Z" fill="white"/>
<path d="M39.5686 3.13939C44.058 3.13939 46.4858 5.48347 46.4858 11.7413C46.4858 21.0287 43.226 25.654 50.2164 32.6444C50.7396 33.1676 52.1942 34.6118 54.0517 34.6118C56.9033 34.6118 54.5488 24.9215 66.2535 21.2327C66.2535 21.2327 66.9232 22.3263 67.5929 24.6651C66.9075 25.0052 64.9087 26.0465 65.0082 26.5226C65.0448 26.6848 65.3064 26.7476 65.657 26.7476C66.4732 26.7476 67.7918 26.4337 68.022 26.3813C68.5243 28.6469 68.9376 31.6974 68.9376 35.6111C55.2813 35.6111 50.1222 52.4696 53.1884 55.5358C53.1884 55.5358 51.6605 57.613 50.4362 60.0513C50.4362 60.0513 50.928 60.3443 52.2256 60.3443C53.5232 60.3443 55.9772 59.6588 56.9766 58.6595C57.0289 58.6072 57.0864 58.5862 57.1335 58.5862C57.2696 58.5862 57.3585 58.7484 57.2382 58.9263C53.9366 63.918 48.924 60.3547 48.924 64.9383C48.924 67.3922 50.2687 67.7062 51.0274 67.973C54.2139 69.1136 56.9138 71.3164 58.6771 74.1733C59.0799 74.8378 59.4462 75.6069 59.802 76.4127C59.8439 76.5017 59.891 76.5906 59.9224 76.6848C60.477 78.1498 60.8118 79.7248 60.8799 81.3782C60.9583 83.3141 60.6653 85.1768 60.0584 86.9035L59.6503 87.9447C57.7771 92.2195 53.947 95.4688 49.2537 96.51C48.5002 96.6775 47.4224 96.8711 46.0619 96.8711C45.3399 96.8711 44.5341 96.8187 43.6603 96.6722C43.5295 96.6513 43.3987 96.6252 43.2679 96.6042C43.158 96.5833 43.0534 96.5676 42.9383 96.5467L42.9487 96.5362C38.1716 95.5316 34.2108 92.2248 32.3271 87.7878V87.8087C31.4795 85.8884 31.3539 84.5333 31.2231 83.5339C31.1917 83.2252 31.1708 82.9113 31.1551 82.5973C31.0923 81.0381 31.2702 79.5207 31.6626 78.0871C31.7411 77.7784 31.8353 77.4749 31.9452 77.1714C32.9602 74.2047 34.8962 71.6461 37.4129 69.8566C37.6798 69.6683 38.1768 69.4067 38.5954 69.2235C38.7786 65.7807 41.8866 68.3445 45.6329 64.5982C46.873 63.3581 49.0182 59.2664 49.0182 54.2329C49.0182 42.9678 32.0184 43.2346 32.0184 28.9556C32.0184 20.3799 39.6314 18.5119 39.6314 11.7518C39.6314 4.99163 33.4782 5.08058 33.4782 5.08058C33.4782 5.08058 35.0793 3.13939 39.5686 3.13939ZM40.2018 5.73462C40.6203 5.73462 40.6674 5.53056 40.861 5.53056C41.1017 5.53056 41.9964 6.44621 41.9964 7.78568C41.9964 9.41293 40.657 9.48619 40.657 9.48619C40.8192 10.1612 40.9081 10.9094 40.9081 11.7413C40.9081 15.8068 39.3594 16.4138 39.3594 18.9044C39.3594 22.7396 44.4556 23.3361 44.4556 23.3361C44.4033 21.6618 44.5864 19.9456 44.78 18.1038C44.9789 16.2359 45.2038 14.122 45.2038 11.7413C45.2038 5.3108 42.4935 4.42131 39.5686 4.42131C39.4064 4.42131 39.2547 4.42131 39.103 4.43177C39.103 4.43177 39.1762 5.73985 40.2018 5.73985M39.5686 0C33.8916 0 31.4847 2.56907 31.0557 3.08183C30.2813 4.01842 30.0772 5.3108 30.59 6.40959C31.1028 7.50314 32.1492 8.20427 33.3527 8.21473C33.4939 8.2252 34.3677 8.31938 35.1473 8.80075C35.77 9.18271 36.4868 9.86291 36.4868 11.7361C36.4868 13.7139 35.4822 15.0586 33.7085 17.2666C31.558 19.956 28.8738 23.2943 28.8738 28.9399C28.8738 38.0965 34.7183 42.366 39.4169 45.7932C43.54 48.807 45.8788 50.6802 45.8788 54.2172C45.8788 58.5339 43.9533 61.8198 43.4092 62.364C42.2685 63.5046 41.3424 63.693 40.275 63.9075C39.1448 64.1377 36.7641 64.6191 35.8275 67.1254C35.7491 67.1724 35.6758 67.2248 35.6078 67.2719C32.5364 69.4537 30.1871 72.5984 28.9732 76.1302C28.8424 76.4964 28.7273 76.8784 28.6226 77.2656C28.1413 79.0341 27.9372 80.8654 28.0157 82.7124C28.0314 83.0839 28.0576 83.4659 28.0942 83.8426C28.0942 83.8688 28.0994 83.9002 28.1046 83.9263L28.1308 84.1252C28.2668 85.2135 28.4761 86.8564 29.4441 89.0645C29.4755 89.1377 29.5121 89.2162 29.554 89.2842C31.8562 94.4747 36.4816 98.2838 42.0174 99.5396C42.1063 99.5657 42.2005 99.5919 42.2894 99.6128C42.4046 99.639 42.5092 99.6547 42.6191 99.6756L42.6819 99.6861C42.8441 99.7175 43.001 99.7436 43.1632 99.7698C44.126 99.9267 45.1044 100.005 46.0619 100.005C47.7729 100.005 49.0915 99.7593 49.9339 99.5709C55.5167 98.3309 60.2258 94.459 62.528 89.2005C62.5437 89.1639 62.5594 89.1272 62.5751 89.0906L62.9833 88.0494C62.999 88.0128 63.0094 87.9761 63.0251 87.9395C63.7786 85.789 64.1134 83.5391 64.0193 81.2474C63.9408 79.2957 63.5483 77.3807 62.8577 75.5651C62.8054 75.4238 62.7478 75.293 62.6955 75.1831C62.6902 75.1727 62.685 75.157 62.6798 75.1465C62.1932 74.0477 61.7903 73.2472 61.3717 72.546C61.3665 72.5356 61.3612 72.5303 61.356 72.5199C59.284 69.1712 56.1446 66.5707 52.482 65.158C54.3604 64.8127 57.4998 64.2319 59.87 60.653C60.5659 59.6013 60.6339 58.2671 60.0479 57.1787C59.4724 56.1061 58.3579 55.4416 57.144 55.4416C56.8719 55.4416 56.5998 55.473 56.3382 55.541C56.3382 54.798 56.0818 54.0603 55.5743 53.4743C55.2813 52.5638 55.59 48.896 58.091 45.0607C59.9694 42.1829 63.3757 38.7505 68.9481 38.7505C70.68 38.7505 72.0875 37.343 72.0875 35.6111C72.0875 32.0008 71.7526 28.6679 71.0986 25.7064C71.0253 25.382 70.905 25.0733 70.7375 24.7907C70.748 24.4663 70.7114 24.1314 70.6172 23.8018C69.869 21.1856 69.0894 19.8409 68.9376 19.595C68.3568 18.6427 67.3313 18.0933 66.2587 18.0933C65.9447 18.0933 65.6256 18.1404 65.3169 18.2398C56.0714 21.1542 54.036 27.4749 52.9424 30.8707C52.9424 30.8707 52.9424 30.8759 52.9424 30.8811C52.7959 30.7555 52.6285 30.6038 52.4506 30.4259C48.3642 26.3395 48.6362 23.7442 49.1909 18.5747C49.4002 16.5969 49.6409 14.3575 49.6409 11.7465C49.6252 2.03537 44.1574 0 39.5686 0Z" fill="white"/>
<path d="M33.7503 82.2991C33.4207 82.2153 33.1381 82.0113 32.9184 81.7078C31.8091 83.4188 31.3434 84.9466 31.7516 86.3175C33.4573 92.073 38.5379 96.3269 44.6231 96.892C38.81 95.1287 34.5038 89.0697 33.7555 82.2938L33.7503 82.2991ZM32.5573 78.898C32.1911 78.6364 31.8771 78.3905 31.6522 78.1812C31.265 79.6149 31.0818 81.127 31.1446 82.6915C31.1551 83.0054 31.1812 83.3194 31.2126 83.6281C31.4376 82.7072 31.8824 81.7392 32.5155 80.7608C32.3951 80.1852 32.4108 79.5312 32.5521 78.9033L32.5573 78.898ZM32.8451 78.019C32.9969 77.6685 33.1905 77.3493 33.4207 77.0772C33.6038 76.8574 33.8026 76.69 34.0067 76.5592C34.5613 73.9797 35.7177 71.6827 37.4077 69.9456C34.8857 71.7402 32.955 74.2936 31.9347 77.2603C32.0707 77.4435 32.4265 77.726 32.8451 78.0138V78.019ZM54.6639 91.2568C53.4029 91.1155 51.7181 90.7859 50.9856 90.5295C50.1641 90.2469 49.4368 89.5615 49.0339 88.6929C48.8665 88.3371 48.7147 87.861 48.6938 87.2802C48.6781 86.9349 48.7147 86.5529 48.8141 86.1396C44.1992 84.7321 39.307 82.7752 35.906 80.9596C35.7857 81.1793 35.6496 81.3834 35.4979 81.5665C35.2415 81.87 34.9537 82.0898 34.6555 82.2153C34.9747 85.046 35.9583 87.8244 37.528 90.2417C39.6053 93.4491 42.436 95.6467 45.4916 96.3374C46.5747 96.5833 47.9927 96.8868 49.2589 96.6042C53.9575 95.563 57.7876 92.3137 59.6607 88.0389C59.441 88.0755 59.1951 88.1017 58.9282 88.1122C57.8556 91.2463 55.6005 91.3562 54.6691 91.2568H54.6639ZM60.8799 81.4776C60.8118 79.8242 60.477 78.2492 59.9224 76.7842C59.2369 74.9895 56.9452 73.7181 53.9314 73.0326C48.3537 71.7716 41.0285 73.8541 36.3665 77.7783C36.5444 78.4952 36.492 79.348 36.2514 80.1224C39.6105 81.9276 44.4923 83.8844 49.1019 85.2867C50.185 82.7961 52.2622 82.32 53.8843 82.7281C55.0458 83.0159 55.7888 83.1676 56.333 83.2775L56.9347 83.4031C57.7039 83.581 58.3788 84.0937 58.7869 84.8053C59.0747 85.3076 59.3363 86.1082 59.1584 87.2017C59.7235 87.1703 60.0008 87.0762 60.0636 86.9977C60.6653 85.2762 60.9636 83.4083 60.8851 81.4724L60.8799 81.4776ZM58.2375 87.207C58.4259 86.2861 58.2219 85.6477 58.0021 85.2553C57.7195 84.7635 57.2591 84.4077 56.7306 84.2873L56.1551 84.167C55.6319 84.0623 54.847 83.9001 53.6645 83.6071C52.0843 83.2147 50.7292 83.9368 49.981 85.5483C50.7501 85.7733 51.5088 85.9774 52.2465 86.1657C52.3669 85.5902 52.3931 85.1925 52.3931 85.1873C52.4087 84.9361 52.6233 84.7478 52.8692 84.7635C53.1203 84.7792 53.3087 84.9937 53.293 85.2396C53.293 85.271 53.2616 85.7315 53.1256 86.3803C53.2721 86.4169 53.4186 86.4483 53.5599 86.4797C53.7064 86.5111 53.8529 86.5477 53.9994 86.5739C54.1302 85.9355 54.2139 85.3966 54.2139 85.3861C54.2505 85.1402 54.4807 84.9675 54.7267 85.0094C54.9726 85.046 55.1452 85.2762 55.1086 85.5222C55.1034 85.564 55.0197 86.1082 54.8836 86.757C55.1871 86.8145 55.4749 86.8669 55.747 86.914C55.8464 86.3646 55.8725 85.9303 55.8725 85.9198C55.883 85.6687 56.0975 85.4803 56.3487 85.4908C56.5998 85.5012 56.7882 85.7158 56.7777 85.9617C56.7777 85.9983 56.7516 86.4587 56.6469 87.0448C57.2748 87.1285 57.798 87.1756 58.2375 87.1965V87.207ZM49.8554 88.3162C50.2112 89.0801 50.8234 89.5197 51.2838 89.6766C51.8803 89.8807 53.4552 90.2156 54.7633 90.3568C56.1969 90.5138 57.3219 89.7185 57.9602 88.1017C57.4789 88.0755 56.9661 88.018 56.4324 87.9447C56.333 88.2691 56.2074 88.5935 56.04 88.8813C55.9144 89.0958 55.6423 89.1743 55.4226 89.0487C55.208 88.9232 55.1296 88.6511 55.2551 88.4313C55.365 88.2377 55.454 88.0232 55.5272 87.7982C55.2447 87.7511 54.9674 87.6988 54.6848 87.6413C54.5906 88.018 54.4807 88.3738 54.3656 88.6406C54.2662 88.8708 53.9994 88.9755 53.7692 88.8761C53.5389 88.7767 53.4343 88.5098 53.5337 88.2796C53.6279 88.0651 53.7168 87.7773 53.8005 87.4581C53.654 87.4267 53.5075 87.3953 53.3663 87.3639C53.2145 87.3273 53.0576 87.2907 52.9058 87.2541C52.8273 87.5157 52.7279 87.7878 52.6128 88.0651C52.5134 88.2953 52.2518 88.4052 52.0216 88.3058C51.7913 88.2063 51.6815 87.9447 51.7809 87.7145C51.8751 87.4843 51.9588 87.2593 52.0268 87.0395C51.2629 86.8459 50.4833 86.6314 49.6879 86.4012C49.4943 87.2331 49.6618 87.8872 49.8606 88.311L49.8554 88.3162ZM34.9485 77.0406C34.7445 77.004 34.352 77.0092 33.9544 77.4382C33.3265 78.1237 33.0283 79.0446 33.0753 80.1852C33.0858 80.473 33.1277 80.6404 33.2114 80.8706C33.3579 81.284 33.7085 81.5561 33.9701 81.6032C34.2788 81.6607 34.6241 81.4776 34.9433 81.0956C35.6496 80.2585 35.9531 78.7254 35.6078 77.7469C35.4613 77.3388 35.2311 77.0877 34.9537 77.0353L34.9485 77.0406Z" fill="#131F53"/>
<path d="M49.013 54.3114C49.013 59.3449 46.8677 63.4366 45.6277 64.6766C41.7819 68.5224 38.6111 65.7231 38.5797 69.5793C36.8374 71.1595 35.5816 73.5611 34.9642 76.3028C35.0008 76.3028 35.0375 76.3133 35.0793 76.3185C35.4403 76.3866 35.7491 76.5906 35.9897 76.915C40.8715 72.9332 48.3903 70.8455 54.1354 72.1432C55.9615 72.5565 57.5103 73.2315 58.6823 74.2622C56.919 71.4106 54.2191 69.2078 51.0326 68.062C50.274 67.7899 48.9293 67.4812 48.9293 65.022C48.9293 60.4385 53.9418 64.0017 57.2434 59.01C57.4056 58.7641 57.1754 58.5496 56.9766 58.7432C55.9772 59.7426 53.5232 60.428 52.2256 60.428C50.928 60.428 50.4362 60.1298 50.4362 60.1298C51.6658 57.6863 53.1884 55.609 53.1884 55.609C50.1222 52.5429 55.2813 35.6844 68.9376 35.6844C68.9376 31.7706 68.5243 28.7202 68.022 26.4546C67.6976 26.5331 65.1233 27.14 65.0082 26.6011C64.9035 26.1197 66.9023 25.0837 67.5929 24.7436C66.9232 22.4048 66.2534 21.3112 66.2534 21.3112C54.5488 25 56.9033 34.6903 54.0517 34.6903C52.1942 34.6903 50.7396 33.2461 50.2164 32.7229C43.226 25.7325 46.4805 21.1072 46.4805 11.8146C46.4805 5.55672 44.0527 3.21265 39.5634 3.21265C35.0741 3.21265 33.473 5.15384 33.473 5.15384C33.473 5.15384 39.621 5.35266 39.621 11.8146C39.621 18.2765 32.008 20.4531 32.008 29.0341C32.008 43.3131 49.013 43.0463 49.013 54.3167V54.3114ZM40.9081 11.825C40.9081 10.9983 40.8192 10.2449 40.657 9.56991C40.657 9.56991 41.9964 9.50189 41.9964 7.86941C41.9964 6.5247 41.1017 5.60905 40.861 5.60905C40.6674 5.60905 40.6203 5.81311 40.2018 5.81311C39.1815 5.81311 39.103 4.50503 39.103 4.50503C39.2547 4.50503 39.4117 4.49456 39.5686 4.49456C42.4935 4.49456 45.2038 5.37882 45.2038 11.8146C45.2038 14.1953 44.9789 16.3091 44.78 18.1771C44.5812 20.0241 44.4033 21.735 44.4556 23.4094C44.4556 23.4094 39.3594 22.8077 39.3594 18.9724C39.3594 16.4818 40.9134 15.8748 40.9134 11.8093L40.9081 11.825ZM33.7503 82.2991C33.4207 82.2154 33.1381 82.0113 32.9184 81.7078C31.8091 83.4188 31.3434 84.9466 31.7516 86.3175C33.4573 92.073 38.5379 96.3269 44.6231 96.892C38.81 95.1287 34.5038 89.0697 33.7555 82.2938L33.7503 82.2991ZM32.5573 78.8981C32.1911 78.6365 31.8771 78.3905 31.6522 78.1812C31.265 79.6149 31.0818 81.127 31.1446 82.6915C31.1551 83.0054 31.1812 83.3194 31.2126 83.6281C31.4376 82.7072 31.8824 81.7392 32.5155 80.7608C32.3951 80.1852 32.4108 79.5312 32.5521 78.9033L32.5573 78.8981ZM32.8451 78.019C32.9969 77.6685 33.1905 77.3493 33.4207 77.0772C33.6038 76.8575 33.8026 76.69 34.0067 76.5592C34.5613 73.9797 35.7177 71.6827 37.4077 69.9456C34.8857 71.7403 32.955 74.2936 31.9347 77.2604C32.0707 77.4435 32.4265 77.726 32.8451 78.0138V78.019ZM54.6639 91.2568C53.4029 91.1155 51.7181 90.7859 50.9856 90.5295C50.1641 90.247 49.4368 89.5615 49.0339 88.693C48.8665 88.3372 48.7147 87.861 48.6938 87.2802C48.6781 86.9349 48.7147 86.553 48.8141 86.1396C44.1992 84.7321 39.307 82.7752 35.906 80.9596C35.7857 81.1794 35.6496 81.3834 35.4979 81.5666C35.2415 81.87 34.9537 82.0898 34.6555 82.2154C34.9747 85.046 35.9583 87.8244 37.528 90.2417C39.6053 93.4491 42.436 95.6467 45.4916 96.3374C46.5747 96.5833 47.9927 96.8868 49.2589 96.6042C53.9575 95.563 57.7876 92.3137 59.6607 88.0389C59.441 88.0756 59.1951 88.1017 58.9282 88.1122C57.8556 91.2463 55.6005 91.3562 54.6691 91.2568H54.6639ZM59.9223 76.7894C59.2369 74.9948 56.9452 73.7233 53.9313 73.0379C48.3537 71.7769 41.0285 73.8594 36.3665 77.7836C36.5444 78.5004 36.492 79.3533 36.2514 80.1277C39.6105 81.9328 44.4923 83.8897 49.1019 85.292C50.185 82.8014 52.2622 82.3252 53.8843 82.7334C55.0458 83.0211 55.7888 83.1729 56.333 83.2828L56.9347 83.4083C57.7038 83.5862 58.3788 84.099 58.7869 84.8106C59.0747 85.3129 59.3363 86.1134 59.1584 87.207C59.7235 87.1756 60.0008 87.0814 60.0636 87.0029C60.6653 85.2815 60.9636 83.4136 60.8851 81.4776C60.8171 79.8242 60.4822 78.2493 59.9276 76.7842L59.9223 76.7894ZM49.8554 88.3162C50.2112 89.0802 50.8234 89.5197 51.2838 89.6766C51.8803 89.8807 53.4552 90.2156 54.7633 90.3568C56.1969 90.5138 57.3219 89.7185 57.9602 88.1017C57.4789 88.0756 56.9661 88.018 56.4324 87.9447C56.333 88.2692 56.2074 88.5936 56.04 88.8813C55.9144 89.0959 55.6423 89.1743 55.4226 89.0488C55.208 88.9232 55.1295 88.6511 55.2551 88.4313C55.365 88.2378 55.454 88.0232 55.5272 87.7982C55.2447 87.7512 54.9673 87.6988 54.6848 87.6413C54.5906 88.018 54.4807 88.3738 54.3656 88.6406C54.2662 88.8709 53.9994 88.9755 53.7691 88.8761C53.5389 88.7767 53.4343 88.5098 53.5337 88.2796C53.6279 88.0651 53.7168 87.7773 53.8005 87.4581C53.654 87.4267 53.5075 87.3954 53.3663 87.364C53.2145 87.3273 53.0576 87.2907 52.9058 87.2541C52.8273 87.5157 52.7279 87.7878 52.6128 88.0651C52.5134 88.2953 52.2518 88.4052 52.0216 88.3058C51.7913 88.2064 51.6815 87.9447 51.7809 87.7145C51.8751 87.4843 51.9588 87.2593 52.0268 87.0396C51.2629 86.846 50.4833 86.6314 49.6879 86.4012C49.4943 87.2332 49.6618 87.8872 49.8606 88.311L49.8554 88.3162ZM58.2375 87.207C58.4259 86.2861 58.2218 85.6478 58.0021 85.2553C57.7195 84.7635 57.2591 84.4077 56.7306 84.2874L56.1551 84.167C55.6319 84.0624 54.847 83.9002 53.6645 83.6072C52.0843 83.2147 50.7292 83.9368 49.981 85.5483C50.7501 85.7733 51.5088 85.9774 52.2465 86.1658C52.3669 85.5902 52.393 85.1925 52.393 85.1873C52.4087 84.9362 52.6233 84.7478 52.8692 84.7635C53.1203 84.7792 53.3087 84.9937 53.293 85.2396C53.293 85.271 53.2616 85.7315 53.1256 86.3803C53.2721 86.4169 53.4186 86.4483 53.5599 86.4797C53.7064 86.5111 53.8529 86.5477 53.9994 86.5739C54.1302 85.9355 54.2139 85.3966 54.2139 85.3861C54.2505 85.1402 54.4807 84.9676 54.7267 85.0094C54.9726 85.046 55.1452 85.2763 55.1086 85.5222C55.1034 85.564 55.0197 86.1082 54.8836 86.757C55.1871 86.8146 55.4749 86.8669 55.747 86.914C55.8464 86.3646 55.8725 85.9303 55.8725 85.9198C55.883 85.6687 56.0975 85.4803 56.3487 85.4908C56.5998 85.5013 56.7882 85.7158 56.7777 85.9617C56.7777 85.9983 56.7516 86.4588 56.6469 87.0448C57.2748 87.1285 57.798 87.1756 58.2375 87.1965V87.207ZM34.9485 77.0406C34.7445 77.004 34.352 77.0092 33.9544 77.4383C33.3265 78.1237 33.0283 79.0446 33.0753 80.1852C33.0858 80.473 33.1277 80.6404 33.2114 80.8707C33.3579 81.284 33.7085 81.5561 33.9701 81.6032C34.2788 81.6607 34.6241 81.4776 34.9433 81.0957C35.6496 80.2585 35.9531 78.7254 35.6078 77.747C35.4613 77.3388 35.2311 77.0877 34.9537 77.0354L34.9485 77.0406Z" fill="#131F53"/>
</g>
<defs>
<clipPath id="clip0_326_97">
<rect width="44.0823" height="100" fill="white" transform="translate(28)"/>
</clipPath>
</defs>
</svg>
