<svg width="100" height="100" viewBox="0 0 100 100" fill="none" xmlns="http://www.w3.org/2000/svg">
<g clip-path="url(#clip0_326_99)">
<path d="M92.1461 6.47124V6.46562C79.4319 4.53207 65.2523 3.45288 50.2986 3.45288C35.345 3.45288 21.1661 4.53207 8.45276 6.46562V6.53467L8.45436 41.3867C8.46239 70.9022 25.5768 87.5019 49.6193 96.3273L50.3026 96.5466H50.305L50.9876 96.3273C75.0308 87.5027 92.1429 70.903 92.1525 41.3867V6.47124H92.1469H92.1461Z" fill="#2BAEE5"/>
<path d="M50.2994 3.45276C65.2531 3.45276 79.4327 4.53195 92.1469 6.4655V6.47112H92.1525V41.3866C92.1429 70.9029 75.0308 87.5026 50.9876 96.3272L50.305 96.5464H50.3026L49.6193 96.3272C25.576 87.5018 8.4624 70.9021 8.45437 41.3866L8.45276 6.53455V6.4655C21.1662 4.53195 35.3458 3.45276 50.2994 3.45276ZM50.2994 0C42.8736 0 35.4662 0.265782 28.2845 0.79012C21.2874 1.30081 14.4405 2.06202 7.93324 3.05128L5 3.49853V6.53455L5.00161 41.3866C5.00241 45.1918 5.28104 48.8951 5.82786 52.3928C6.36505 55.8255 7.17604 59.1554 8.23837 62.2902C10.29 68.3422 13.3541 73.8955 17.3464 78.796C21.0899 83.3914 25.7366 87.5179 31.1559 91.0598C36.176 94.3407 41.9879 97.2033 48.4285 99.568L48.4952 99.5921L48.5626 99.6138L49.2459 99.833L49.7606 99.9984H50.8438L51.3618 99.8322L52.0443 99.613L52.1109 99.5913L52.1768 99.5672C58.6182 97.2033 64.4293 94.3407 69.4502 91.059C74.8694 87.5171 79.5154 83.3906 83.2597 78.7952C87.2512 73.8947 90.3161 68.3414 92.3677 62.2894C93.43 59.1554 94.241 55.8255 94.7782 52.392C95.3258 48.8935 95.6037 45.191 95.6053 41.3858V3.01836H92.444C86.0034 2.04516 79.232 1.29599 72.3152 0.790923C65.1318 0.265782 57.7253 0 50.2994 0Z" fill="white"/>
<path d="M89.2554 9.3611V9.35548C77.4197 7.55603 64.2189 6.55151 50.2986 6.55151C36.3784 6.55151 23.1784 7.55603 11.3427 9.35548V42.4482C11.3507 69.9257 27.2832 85.3789 49.6651 93.594L50.301 93.7988H50.3035L50.9386 93.594C73.3213 85.3781 89.2514 69.9257 89.2602 42.4482V9.3611H89.2554Z" fill="#7C2C3B"/>
<path d="M69.5297 78.6388C70.1464 79.2571 71.1332 78.6027 72.1458 77.5909C73.1575 76.5792 73.8103 75.5916 73.1936 74.9741L34.5613 37.3133C33.9446 36.695 32.8413 36.7986 32.0978 37.5421C31.3542 38.2857 31.2522 39.3889 31.8681 40.0056L69.5297 78.638V78.6388Z" fill="#D5A83A"/>
<path d="M35.7593 36.739L38.919 33.0229C38.919 33.0229 39.2177 32.6254 38.7536 32.0609C37.5347 30.5778 35.0912 28.4138 35.0912 28.4138C34.7387 28.1488 34.4978 28.2139 34.1076 28.5889C32.1724 30.4437 27.2511 35.2005 26.9548 35.5096C26.5822 35.8927 26.412 36.152 26.5308 36.8089C26.6504 37.4721 27.0029 38.5738 26.3943 39.6425L23.0684 44.8779C22.6517 45.5162 22.5304 46.0815 22.8444 46.3891C23.013 46.5537 23.4354 46.7448 24.2945 46.1482C24.7056 45.8639 29.228 42.8183 30.6693 41.6331C31.514 40.9385 32.158 40.3066 32.158 40.3066L34.8873 37.6295C34.8873 37.6295 35.4614 37.065 35.7609 36.7406V36.739H35.7593Z" fill="#F8D742"/>
<path d="M24.3146 45.811C23.3703 46.451 23.3727 46.545 23.5044 46.5273C23.7132 46.4815 23.9725 46.3699 24.2929 46.1467C24.704 45.8624 29.2263 42.8168 30.6677 41.6316C31.2627 41.1418 31.7581 40.6841 31.9982 40.4561C31.2546 40.6142 30.3063 40.9756 29.7314 41.4566C28.9598 42.1013 25.666 44.8957 24.3146 45.811Z" fill="#D5A83A"/>
<path d="M35.7593 36.739L38.919 33.0229C38.919 33.0229 39.1029 32.7756 38.9551 32.395C38.9551 32.395 38.6949 32.1011 37.7836 33.1634C37.0175 34.0571 36.6554 34.4048 36.0106 35.1772C35.5128 35.7722 35.1442 36.7663 34.9949 37.5211C35.1755 37.342 35.5409 36.9775 35.7593 36.7398V36.739Z" fill="#D5A83A"/>
<path d="M31.1591 78.6386C30.5424 79.2569 29.5548 78.6025 28.543 77.5907C27.5313 76.579 26.8785 75.5914 27.4952 74.9739L66.142 37.2986C66.7587 36.6803 67.862 36.7839 68.6055 37.5275C69.3491 38.271 69.451 39.3743 68.8352 39.991L31.1599 78.6378L31.1591 78.6386Z" fill="#D5A83A"/>
<path d="M30.7833 78.2678L66.8422 41.2382C67.4589 40.6207 67.3569 39.5182 66.6125 38.7746C66.2239 38.3852 65.7373 38.174 65.2724 38.1467L27.4951 74.9748C26.9066 75.5642 27.4743 76.49 28.4065 77.4528C29.3331 78.328 30.2164 78.8379 30.7841 78.2686L30.7833 78.2678Z" fill="#F8D742"/>
<path d="M64.9432 36.7246L61.7835 33.0085C61.7835 33.0085 61.4848 32.611 61.9489 32.0465C63.1678 30.5634 65.6113 28.3994 65.6113 28.3994C65.9646 28.1344 66.2055 28.1995 66.5957 28.5745C68.5308 30.4293 73.4522 35.1861 73.7485 35.4952C74.1211 35.8783 74.2921 36.1376 74.1725 36.7944C74.0529 37.4577 73.7004 38.5594 74.3098 39.6281L77.6357 44.8635C78.0524 45.5018 78.1737 46.0671 77.8597 46.3747C77.6911 46.5393 77.2695 46.7304 76.4096 46.1338C75.9985 45.8495 71.4761 42.8039 70.0348 41.6187C69.1901 40.9241 68.5461 40.2922 68.5461 40.2922L65.8168 37.6151C65.8168 37.6151 65.2427 37.0506 64.9424 36.7262V36.7246H64.9432Z" fill="#F8D742"/>
<path d="M76.3887 45.7964C77.3329 46.4364 77.3305 46.5303 77.1989 46.5126C76.9901 46.4669 76.7307 46.3553 76.4111 46.132C76 45.8478 71.4777 42.8021 70.0364 41.6169C69.4414 41.1271 68.9459 40.6694 68.7067 40.4414C69.4502 40.5996 70.3985 40.9609 70.9734 41.4419C71.7451 42.0867 75.0389 44.881 76.3903 45.7964H76.3887Z" fill="#D5A83A"/>
<path d="M64.9431 36.7246L61.7835 33.0085C61.7835 33.0085 61.5996 32.7612 61.7473 32.3806C61.7473 32.3806 62.0075 32.0867 62.9189 33.149C63.6849 34.0427 64.047 34.3904 64.6918 35.1628C65.1897 35.7578 65.5582 36.7519 65.7076 37.5067C65.5269 37.3276 65.1616 36.9631 64.9423 36.7254L64.9431 36.7246Z" fill="#D5A83A"/>
<path d="M71.0297 37.8006C70.7318 38.0985 70.2492 38.0985 69.9521 37.8006L68.3333 36.181C68.0354 35.8839 68.0354 35.4013 68.3333 35.1034C68.6312 34.8047 69.1138 34.8047 69.4109 35.1034L71.0297 36.7222C71.3284 37.0201 71.3284 37.5027 71.0297 37.8006Z" fill="#D5A83A"/>
<path d="M68.5501 36.1819C68.2522 35.8848 68.2522 35.4022 68.5501 35.1043C68.6705 34.9831 68.8231 34.9116 68.9805 34.8899C68.7508 34.857 68.5099 34.9277 68.3325 35.1043C68.0338 35.4022 68.0338 35.8848 68.3325 36.1819L69.9513 37.8015C70.1279 37.9781 70.3696 38.0496 70.5993 38.0159C70.4419 37.9934 70.2901 37.9227 70.1689 37.8015L68.5501 36.1819Z" fill="#CCA738"/>
<path d="M69.2623 36.776C69.2302 36.8081 69.178 36.8081 69.1459 36.776C69.1138 36.7439 69.1138 36.6917 69.1459 36.6596L69.8879 35.9176C69.92 35.8855 69.9722 35.8855 70.0043 35.9176C70.0364 35.9498 70.0364 36.002 70.0043 36.0341L69.2623 36.7768V36.776Z" fill="#D5A83A"/>
<path d="M69.5073 37.0225C69.4759 37.0546 69.4246 37.0546 69.3924 37.0225C69.3603 36.9911 69.3611 36.9398 69.3924 36.9076C69.4246 36.8755 69.476 36.8755 69.5081 36.9076C69.5402 36.9398 69.5402 36.9911 69.5081 37.0225H69.5073Z" fill="#D5A83A"/>
<path d="M68.9982 36.5134C68.9669 36.5447 68.9155 36.5455 68.8833 36.5134C68.8512 36.4813 68.852 36.4299 68.8833 36.3986C68.9155 36.3665 68.9669 36.3665 68.9982 36.3986C69.0303 36.4299 69.0303 36.4813 68.9982 36.5134Z" fill="#D5A83A"/>
<path d="M69.5956 35.5081L69.3418 35.2536C69.3097 35.2215 69.2567 35.2215 69.2254 35.2536C69.1933 35.2857 69.1933 35.3379 69.2254 35.37L69.2664 35.411C69.2808 35.4262 69.2816 35.4495 69.268 35.4656L68.6103 36.1232C68.5782 36.1553 68.5782 36.2083 68.6103 36.2396C68.6425 36.2717 68.6954 36.2717 68.7276 36.2396L69.3868 35.5796C69.4029 35.5683 69.4245 35.5691 69.4382 35.5828L69.4791 35.6246C69.5113 35.6567 69.5643 35.6567 69.5964 35.6246C69.6285 35.5924 69.6285 35.5402 69.5964 35.5081H69.5956Z" fill="#D5A83A"/>
<path d="M70.955 36.8779C70.9285 36.841 70.8771 36.8329 70.8393 36.8602L70.4089 37.1718C70.3921 37.1854 70.3664 37.1838 70.3495 37.1678C70.3351 37.1541 70.3327 37.1324 70.3415 37.1164L70.4298 36.9397C70.4443 36.9108 70.4395 36.8763 70.421 36.8522C70.421 36.8522 70.4186 36.8482 70.417 36.8474C70.417 36.8474 70.4154 36.845 70.4146 36.845C70.4138 36.845 70.413 36.8434 70.4122 36.8426C70.4106 36.8426 70.4097 36.8402 70.4081 36.8394H70.4065C70.3824 36.8209 70.3487 36.8161 70.319 36.8305L70.1432 36.918C70.1263 36.9269 70.1054 36.9245 70.091 36.91C70.0749 36.8932 70.0741 36.8683 70.087 36.8506L70.3993 36.4194C70.4266 36.3825 70.4178 36.3311 70.3816 36.3038C70.3447 36.2765 70.2933 36.2853 70.2668 36.3222L69.6501 37.1726C69.6269 37.2055 69.6301 37.2489 69.6574 37.2778C69.659 37.2794 69.6598 37.2802 69.6606 37.2818H69.6622C69.6863 37.3043 69.7232 37.3107 69.7537 37.2946L70.0564 37.1445C70.0733 37.1373 70.0934 37.1405 70.107 37.1533C70.1215 37.1678 70.1239 37.1903 70.1143 37.2071L69.9657 37.5066C69.9496 37.5379 69.9569 37.5741 69.9777 37.599L69.9794 37.6006C69.9794 37.6006 69.9818 37.603 69.9826 37.6038C70.0107 37.6311 70.0548 37.6351 70.0886 37.611L70.9389 36.9951C70.9758 36.9686 70.9839 36.9172 70.9566 36.8803L70.955 36.8779Z" fill="#D5A83A"/>
<path d="M35.6493 38.3747C35.1804 38.3642 34.6737 38.5642 34.2762 38.9608C33.5849 39.6522 33.4893 40.6776 34.0626 41.2517L49.4997 57.071L52.1262 54.4444L35.6477 38.3755L35.6493 38.3747Z" fill="#F8D742"/>
<path d="M73.1936 74.9739L53.7185 55.9941C53.4125 56.1298 53.1259 56.3234 52.8753 56.5739C51.862 57.5872 51.7833 59.1811 52.6369 60.286L70.0556 78.1456C70.629 78.7197 71.5468 78.1119 72.4878 77.1716C72.6468 77.0118 72.7962 76.8544 72.9319 76.6979C73.4337 76.0202 73.6256 75.4059 73.1936 74.9731V74.9739Z" fill="#F8D742"/>
<path d="M69.2262 36.7399C69.1941 36.772 69.1419 36.772 69.1098 36.7399C69.0777 36.7078 69.0777 36.6548 69.1098 36.6235L69.8517 35.8815C69.8838 35.8494 69.936 35.8494 69.9682 35.8815C70.0003 35.9136 70.0003 35.9658 69.9682 35.9979L69.2262 36.7407V36.7399Z" fill="#F8D742"/>
<path d="M69.4719 36.9863C69.4406 37.0184 69.3892 37.0184 69.3571 36.9863C69.325 36.9542 69.3258 36.9028 69.3571 36.8714C69.3892 36.8401 69.4398 36.8393 69.4719 36.8714C69.504 36.9036 69.504 36.955 69.4719 36.9863Z" fill="#F8D742"/>
<path d="M68.962 36.478C68.9307 36.5093 68.8793 36.5101 68.8472 36.478C68.8151 36.4459 68.8159 36.3945 68.8472 36.3632C68.8793 36.3311 68.9307 36.3311 68.962 36.3632C68.9942 36.3953 68.9942 36.4459 68.962 36.478Z" fill="#F8D742"/>
<path d="M69.561 35.472L69.3073 35.2174C69.2752 35.1853 69.2222 35.1853 69.1901 35.2174C69.1579 35.2496 69.1579 35.3018 69.1901 35.3339L69.231 35.3748C69.2455 35.3901 69.2463 35.4134 69.2326 35.4294L68.575 36.0871C68.5429 36.1192 68.5429 36.1722 68.575 36.2035C68.6071 36.2356 68.6601 36.2356 68.6922 36.2035L69.3515 35.5443C69.3675 35.533 69.3892 35.5346 69.4029 35.5475L69.4438 35.5884C69.4759 35.6205 69.5289 35.6205 69.5602 35.5884C69.5924 35.5563 69.5924 35.5041 69.5602 35.472H69.561Z" fill="#F8D742"/>
<path d="M70.9188 36.8427C70.8923 36.8058 70.841 36.7978 70.8032 36.8251L70.3728 37.1366C70.356 37.1503 70.3295 37.1487 70.3134 37.1326C70.2989 37.119 70.2965 37.0973 70.3054 37.0812L70.3929 36.9046C70.4073 36.8757 70.4025 36.8419 70.3841 36.817L70.3825 36.8154C70.3825 36.8154 70.38 36.8122 70.3784 36.8114C70.3784 36.8114 70.3768 36.8098 70.376 36.809C70.3744 36.809 70.3744 36.8074 70.3736 36.8066C70.372 36.8066 70.3712 36.8042 70.3696 36.8034C70.3696 36.8034 70.3696 36.8034 70.368 36.8034C70.3439 36.7849 70.3102 36.7801 70.2805 36.7946L70.1046 36.8821C70.0878 36.8909 70.0669 36.8877 70.0532 36.8741C70.0372 36.8572 70.0364 36.8323 70.0484 36.8154L70.3608 36.3842C70.3881 36.3473 70.3792 36.2959 70.3431 36.2686C70.3062 36.2413 70.254 36.2502 70.2283 36.2871L69.6116 37.1374C69.5883 37.1695 69.5923 37.2137 69.6188 37.2418C69.6204 37.2434 69.6212 37.2442 69.6228 37.2458H69.6245C69.6485 37.2691 69.6855 37.2755 69.716 37.2587L70.0187 37.1085C70.0356 37.1013 70.0556 37.1045 70.0693 37.1182C70.0838 37.1326 70.0862 37.1543 70.0765 37.172L69.928 37.4715C69.9119 37.5028 69.9191 37.5389 69.9408 37.5638L69.9424 37.5654C69.9424 37.5654 69.9448 37.567 69.9456 37.5678C69.9737 37.5951 70.0179 37.5991 70.0516 37.575L70.902 36.9592C70.9389 36.9327 70.9469 36.8805 70.9196 36.8435L70.9188 36.8427Z" fill="#F8D742"/>
<path d="M32.37 35.1186C32.6679 35.4165 32.6679 35.899 32.37 36.1961L30.7504 37.8149C30.4533 38.1128 29.9707 38.1128 29.6728 37.8149C29.3741 37.517 29.3741 37.0344 29.6728 36.7373L31.2916 35.1186C31.5895 34.8199 32.0721 34.8199 32.37 35.1186Z" fill="#D5A83A"/>
<path d="M29.8093 36.8732L31.4281 35.2544C31.7027 34.9798 32.1347 34.9589 32.4342 35.1918C32.4149 35.1669 32.3941 35.142 32.3716 35.1187C32.0729 34.8208 31.5911 34.8208 31.2932 35.1187L29.6744 36.7375C29.3765 37.0354 29.3765 37.518 29.6744 37.8151C29.6969 37.8375 29.7218 37.8584 29.7467 37.8777C29.5146 37.579 29.5347 37.147 29.8093 36.8724V36.8732Z" fill="#CCA738"/>
<path d="M31.3101 37.0033C31.3422 37.0355 31.3422 37.0876 31.3101 37.1198C31.278 37.1519 31.2258 37.1519 31.1936 37.1198L30.4517 36.3778C30.4196 36.3457 30.4196 36.2927 30.4517 36.2614C30.4838 36.2293 30.536 36.2293 30.5681 36.2614L31.3101 37.0033Z" fill="#D5A83A"/>
<path d="M31.5566 36.7583C31.5879 36.7896 31.5887 36.841 31.5566 36.8731C31.5245 36.9044 31.4731 36.9044 31.4418 36.8731C31.4104 36.8418 31.4096 36.7896 31.4418 36.7575C31.4739 36.7254 31.5253 36.7254 31.5566 36.7575V36.7583Z" fill="#D5A83A"/>
<path d="M31.0467 37.2675C31.078 37.2988 31.0788 37.3502 31.0467 37.3823C31.0146 37.4144 30.9632 37.4136 30.9319 37.3823C30.9006 37.351 30.8998 37.2988 30.9319 37.2675C30.964 37.2354 31.0154 37.2354 31.0467 37.2675Z" fill="#D5A83A"/>
<path d="M30.0422 36.6701L29.7884 36.9239C29.7563 36.9568 29.7563 37.009 29.7884 37.0411C29.8206 37.0732 29.8727 37.0732 29.9049 37.0411L29.9458 37.0002C29.9611 36.9857 29.9844 36.9849 30.0012 36.9985L30.658 37.6562C30.6902 37.6883 30.7424 37.6883 30.7745 37.6562C30.8066 37.6241 30.8066 37.5719 30.7745 37.5397L30.1152 36.8805C30.104 36.8644 30.1048 36.8428 30.1185 36.8291L30.1602 36.7882C30.1923 36.756 30.1923 36.7031 30.1602 36.6717C30.1281 36.6404 30.0759 36.6396 30.0438 36.6717L30.0422 36.6701Z" fill="#D5A83A"/>
<path d="M31.412 35.3106C31.3751 35.3371 31.3662 35.3893 31.3935 35.4263L31.7059 35.8567C31.7187 35.8743 31.7179 35.9 31.7019 35.9161C31.6882 35.9305 31.6666 35.9329 31.6497 35.9241L31.473 35.8366C31.4433 35.8221 31.4096 35.8262 31.3855 35.8454L31.3839 35.847C31.3839 35.847 31.3815 35.8494 31.3799 35.8502C31.3799 35.8502 31.3775 35.8518 31.3775 35.8527C31.3775 35.8527 31.3751 35.8543 31.3751 35.8551C31.3735 35.8567 31.3727 35.8575 31.3719 35.8591V35.8607C31.3534 35.8848 31.3486 35.9185 31.363 35.9474L31.4506 36.1233C31.4586 36.1401 31.4562 36.1618 31.4425 36.1754C31.4265 36.1923 31.4008 36.1923 31.3831 36.1803L30.9527 35.8679C30.9158 35.8406 30.8644 35.8494 30.8371 35.8856C30.8098 35.9225 30.8186 35.9747 30.8548 36.0012L31.7051 36.6179C31.738 36.6412 31.7822 36.638 31.8111 36.6107C31.8111 36.609 31.8135 36.6082 31.8143 36.6066C31.8143 36.6066 31.8159 36.6066 31.8159 36.605C31.8384 36.5809 31.844 36.544 31.828 36.5135L31.6778 36.2108C31.6706 36.1939 31.6738 36.1738 31.6866 36.1602C31.7011 36.1449 31.7236 36.1433 31.7404 36.153L32.0399 36.3015C32.0713 36.3176 32.1074 36.3111 32.1323 36.2895C32.1323 36.2895 32.1323 36.2879 32.1339 36.2879C32.1355 36.2863 32.1363 36.2854 32.1371 36.2838C32.1644 36.2565 32.1684 36.2116 32.1443 36.1787L31.5276 35.3283C31.5011 35.2914 31.4498 35.2833 31.4128 35.3106H31.412Z" fill="#D5A83A"/>
<path d="M31.3101 36.922C31.3422 36.9542 31.3422 37.0063 31.3101 37.0385C31.278 37.0706 31.2258 37.0706 31.1936 37.0385L30.4517 36.2965C30.4196 36.2644 30.4196 36.2114 30.4517 36.1801C30.4838 36.148 30.536 36.148 30.5681 36.1801L31.3101 36.922Z" fill="#F8D742"/>
<path d="M31.5566 36.6763C31.5879 36.7084 31.5887 36.759 31.5566 36.7911C31.5245 36.8232 31.4731 36.8224 31.4418 36.7911C31.4104 36.7598 31.4096 36.7084 31.4418 36.6755C31.4739 36.6433 31.5253 36.6433 31.5566 36.6755V36.6763Z" fill="#F8D742"/>
<path d="M31.0467 37.1863C31.078 37.2176 31.0788 37.269 31.0467 37.3011C31.0146 37.3332 30.9632 37.3324 30.9319 37.3011C30.9006 37.2698 30.8998 37.2176 30.9319 37.1855C30.964 37.1533 31.0154 37.1533 31.0467 37.1855V37.1863Z" fill="#F8D742"/>
<path d="M30.0422 36.5881L29.7884 36.8418C29.7563 36.8739 29.7563 36.9269 29.7884 36.9582C29.8206 36.9903 29.8727 36.9903 29.9049 36.9582L29.9458 36.9173C29.9611 36.9028 29.9844 36.902 30.0012 36.9157L30.658 37.5733C30.6902 37.6054 30.7424 37.6054 30.7745 37.5733C30.8066 37.5412 30.8066 37.489 30.7745 37.4569L30.1152 36.7976C30.104 36.7816 30.1048 36.7607 30.1185 36.7462L30.1602 36.7053C30.1923 36.6732 30.1923 36.6202 30.1602 36.5881C30.1281 36.5559 30.0759 36.5559 30.0438 36.5881H30.0422Z" fill="#F8D742"/>
<path d="M31.412 35.2293C31.3751 35.2558 31.3662 35.308 31.3935 35.345L31.7059 35.7754C31.7187 35.793 31.7179 35.8187 31.7019 35.8348C31.6882 35.8484 31.6666 35.8516 31.6497 35.8428L31.473 35.7553C31.4433 35.74 31.4096 35.7457 31.3855 35.7641C31.3855 35.7641 31.3839 35.7641 31.3839 35.7657C31.3823 35.7657 31.3815 35.7681 31.3799 35.7689C31.3799 35.7689 31.3775 35.7705 31.3775 35.7714C31.3775 35.7714 31.3751 35.773 31.3751 35.7738C31.3735 35.7754 31.3727 35.7762 31.3719 35.7778V35.7794C31.3534 35.8035 31.3486 35.8364 31.363 35.8661L31.4506 36.042C31.4586 36.0588 31.4562 36.0797 31.4425 36.0941C31.4265 36.111 31.4008 36.111 31.3831 36.099L30.9527 35.7858C30.9158 35.7585 30.8644 35.7673 30.8371 35.8035C30.8098 35.8404 30.8186 35.8926 30.8548 35.9191L31.7051 36.5358C31.738 36.5591 31.7822 36.555 31.8111 36.5286C31.8111 36.5269 31.8135 36.5261 31.8143 36.5245C31.8143 36.5245 31.8159 36.5245 31.8159 36.5229C31.8384 36.4988 31.844 36.4619 31.828 36.4314L31.6778 36.1287C31.6706 36.1118 31.6738 36.0917 31.6866 36.0781C31.7011 36.0636 31.7236 36.0612 31.7404 36.0709L32.0399 36.2194C32.0713 36.2355 32.1074 36.229 32.1323 36.2074C32.1323 36.2074 32.1323 36.2058 32.1339 36.2058C32.1355 36.2042 32.1363 36.2033 32.1371 36.2017C32.1644 36.1736 32.1684 36.1295 32.1443 36.0966L31.5276 35.2462C31.5011 35.2093 31.4498 35.2012 31.4128 35.2277L31.412 35.2293Z" fill="#F8D742"/>
<path d="M35.1113 25.8516C33.6515 25.9897 32.2616 25.0109 32.2206 23.4764C32.1765 22.064 32.1315 20.6508 32.0873 19.2384C32.7506 19.187 33.0814 19.1621 33.7455 19.1147C33.7856 20.5271 33.8266 21.9412 33.8659 23.3536C33.886 24.057 34.3565 24.3991 35.0615 24.3525C35.1595 24.3461 35.2077 24.3428 35.3056 24.3364C36.0098 24.2907 36.4619 23.8892 36.4442 23.185C36.4105 21.7725 36.376 20.3585 36.3423 18.9461C37.0055 18.9068 37.3379 18.8883 38.002 18.8538C38.0317 20.267 38.0622 21.6802 38.0919 23.0934C38.116 24.6351 36.8417 25.7673 35.353 25.8372C35.2559 25.8436 35.2069 25.8468 35.1089 25.8532H35.1105L35.1113 25.8516Z" fill="white"/>
<path d="M39.2715 18.8022C40.0423 18.7653 40.4278 18.7492 41.1986 18.7187C42.065 20.1126 42.9258 21.5106 43.7801 22.9126H43.7986C43.785 21.4865 43.7705 20.0605 43.7569 18.6344C44.4217 18.6159 44.7541 18.6079 45.419 18.5942C45.4375 20.8305 45.4567 23.066 45.476 25.3022C44.7172 25.3183 44.3382 25.3271 43.5794 25.3488C42.725 23.9508 41.8651 22.5577 40.9979 21.1677C40.9906 21.1677 40.9866 21.1677 40.9794 21.1677C41.0003 22.5906 41.0212 24.0135 41.042 25.4363C40.3852 25.4628 40.0568 25.4781 39.4 25.5086C39.3574 23.2723 39.3148 21.0377 39.2723 18.8014L39.2715 18.8022Z" fill="white"/>
<path d="M46.6411 18.5743C47.306 18.5638 47.6392 18.5598 48.3041 18.5542C48.3113 20.7905 48.3201 23.0259 48.3273 25.263C47.6697 25.2686 47.3413 25.2726 46.6837 25.2831C46.6692 23.0468 46.6556 20.8113 46.6411 18.5751V18.5743Z" fill="white"/>
<path d="M51.6485 19.9562C50.7933 19.9514 50.3645 19.9514 49.5094 19.9546C49.5094 19.3917 49.5078 19.1099 49.507 18.547C51.4919 18.5454 53.4744 18.5638 55.4578 18.6008C55.4529 19.1637 55.4505 19.4455 55.4457 20.0084C54.5905 19.9899 54.1626 19.9819 53.3066 19.9714C53.2978 21.7388 53.2889 23.5053 53.2793 25.2718C52.6217 25.2638 52.2933 25.2598 51.6356 25.2566C51.6396 23.4892 51.6437 21.7227 51.6477 19.9562H51.6485Z" fill="white"/>
<path d="M56.6622 18.6272C58.1637 18.6722 59.6629 18.7276 61.1628 18.7918C61.1524 19.3547 61.1468 19.6365 61.1363 20.1994C60.0041 20.1472 59.4372 20.1239 58.3043 20.0854C58.297 20.5728 58.2938 20.8177 58.2874 21.3051C59.21 21.3372 59.6709 21.3549 60.5935 21.3958C60.5839 21.9587 60.5783 22.2406 60.5686 22.8034C59.6492 22.7625 59.1883 22.7448 58.2681 22.7127C58.2609 23.2194 58.2577 23.4723 58.2513 23.979C59.4292 24.0191 60.0186 24.0432 61.1957 24.0994C61.1853 24.6623 61.1797 24.9441 61.1692 25.507C59.6428 25.4404 58.1164 25.3834 56.5891 25.3368C56.6132 23.1005 56.6381 20.8651 56.6622 18.6288V18.6272Z" fill="white"/>
<path d="M62.4259 18.8402C63.4882 18.894 64.0206 18.9245 65.0821 18.9903C67.0108 19.0618 68.5268 20.6396 68.4738 22.5748C68.4224 24.4738 66.7964 25.8782 64.911 25.6967C63.8616 25.6301 63.3356 25.6003 62.2853 25.5465C62.3319 23.3103 62.3785 21.0756 62.4251 18.8394L62.4259 18.8402ZM64.8821 24.2867C66.0191 24.3582 66.733 23.7334 66.7691 22.4495C66.8061 21.1744 66.0962 20.4646 64.9801 20.3955C64.6091 20.3722 64.4236 20.361 64.0527 20.3393C64.0222 21.6369 63.9908 22.9345 63.9611 24.2321C64.3297 24.2538 64.5144 24.2642 64.8821 24.2883V24.2867Z" fill="white"/>
<path d="M18.1815 10.9933C19.0463 10.8841 19.4783 10.8319 20.3431 10.7299C20.7309 12.6345 21.1196 14.5392 21.5066 16.443C21.5162 16.4414 21.5203 16.4414 21.5299 16.4406C21.9739 14.4428 22.418 12.4442 22.8628 10.4464C23.608 10.3661 23.9806 10.3284 24.7257 10.2537C25.1585 12.1608 25.5913 14.0678 26.0249 15.9757C26.0345 15.9757 26.0386 15.9741 26.0482 15.9733C26.4681 13.9859 26.8881 11.9986 27.3081 10.0104C28.1608 9.93415 28.588 9.89882 29.4407 9.83057C28.7285 12.7004 28.0179 15.5702 27.3081 18.44C26.3076 18.5291 25.8073 18.5757 24.8076 18.6745C24.468 17.0621 24.1283 15.4505 23.7878 13.8382C23.7782 13.8382 23.7742 13.8398 23.7646 13.8406C23.4249 15.5228 23.0852 17.205 22.7456 18.8872C21.7371 18.9956 21.2328 19.0527 20.2251 19.1707C19.5442 16.4438 18.8624 13.7169 18.1815 10.9909V10.9933Z" fill="white"/>
<path d="M72.4758 9.95117C73.404 10.0315 73.8681 10.0732 74.7956 10.1615C75.409 11.9706 76.0209 13.7805 76.6328 15.5904C76.6424 15.5904 76.6464 15.592 76.656 15.5928C77.2679 13.909 77.8798 12.226 78.4924 10.5422C79.4094 10.6433 79.8679 10.6971 80.7841 10.8063C81.2892 13.6785 81.7934 16.55 82.2985 19.423C81.4481 19.3154 81.0234 19.2632 80.1722 19.1644C79.9233 17.2887 79.6736 15.4138 79.4255 13.5372C79.4158 13.5356 79.4118 13.5356 79.4022 13.5348C78.7992 15.315 78.1961 17.0944 77.5947 18.8746C76.8496 18.7951 76.477 18.7565 75.7318 18.6826C75.1176 16.7764 74.5025 14.8718 73.8866 12.9663C73.877 12.9663 73.873 12.9647 73.8633 12.9639C73.6449 14.7907 73.4273 16.6182 73.2089 18.445C72.3425 18.3679 71.9089 18.3309 71.0417 18.2619C71.5203 15.4916 71.9996 12.7214 72.4782 9.95117H72.4758Z" fill="white"/>
<path d="M30.2646 9.78333C32.1612 9.6412 34.0586 9.51514 35.9576 9.40674C35.9167 10.1166 35.8958 10.4715 35.8557 11.1805C34.6793 11.2479 33.5038 11.321 32.3282 11.3997V12.9326C33.4797 12.8531 34.0554 12.8169 35.2069 12.7503V14.5184C34.0554 14.5851 33.4789 14.6212 32.3282 14.7007V16.2922C33.5584 16.2071 34.7893 16.1316 36.0211 16.0641V17.8323C34.1004 17.9415 32.1829 18.0675 30.2654 18.2121V9.78253H30.2638L30.2646 9.78333Z" fill="white"/>
<path d="M45.6631 10.844C44.5968 10.8617 44.0636 10.8737 42.998 10.9034V9.13528C45.464 9.07265 47.9299 9.04133 50.3966 9.04053V10.8087C49.3302 10.8063 48.7963 10.8087 47.7307 10.8175V17.4781C46.9045 17.4853 46.4902 17.4902 45.6631 17.5046V10.844Z" fill="white"/>
<path d="M53.8293 9.05737C54.6555 9.06781 55.0699 9.07424 55.8961 9.0911V12.4628C57.0909 12.4901 58.285 12.5238 59.479 12.5623V9.19067C60.3052 9.21957 60.7188 9.23563 61.545 9.27177V17.7013C60.7188 17.6652 60.3052 17.6499 59.479 17.6202V14.3192C58.2841 14.2807 57.0901 14.2478 55.8961 14.2197V17.5207C55.0699 17.5038 54.6555 17.4974 53.8293 17.4869V9.05737Z" fill="white"/>
<path d="M67.7303 16.2712C66.5965 16.1941 66.0296 16.1588 64.895 16.0954C64.6918 16.7915 64.5907 17.1392 64.3875 17.8354C63.538 17.7888 63.1132 17.7679 62.2637 17.7294C63.1164 14.9624 63.97 12.1962 64.8243 9.42993C65.9389 9.49256 66.4953 9.52709 67.609 9.60177C68.5316 12.4788 69.4518 15.3558 70.372 18.2337C69.5233 18.167 69.0993 18.1357 68.2498 18.0755C68.0418 17.3536 67.9382 16.9931 67.7311 16.2712H67.7303ZM66.3074 11.4398C65.9983 12.4507 65.6883 13.4616 65.3792 14.4726C66.1259 14.5159 66.5001 14.5392 67.2469 14.5882C66.9418 13.5387 66.6366 12.49 66.3307 11.4406C66.3211 11.4406 66.3171 11.4406 66.3074 11.439V11.4398Z" fill="white"/>
<path d="M39.8657 9.08801C38.3264 9.14262 36.5823 10.0909 36.5703 11.8213C36.5534 14.4631 40.5193 13.7541 40.7642 15.197C40.8317 15.5969 40.382 15.9317 39.8127 15.9309C38.7512 15.9293 37.9153 15.7229 37.0481 15.2781C37.0063 16.0056 36.9718 16.3894 36.9429 17.0502C37.8382 17.6493 38.7616 17.7785 39.7613 17.805C41.2452 17.8436 43.0294 16.815 43.0446 15.0798C43.0671 12.4589 39.135 13.0515 38.8499 11.6888C38.7769 11.3403 39.2032 10.9959 39.84 10.9597C40.8132 10.9035 41.5118 11.1444 42.0441 11.3644C42.0867 10.5261 42.0995 10.4065 42.1461 9.59067C41.678 9.32168 40.9401 9.05108 39.8657 9.08962V9.08801Z" fill="white"/>
<path d="M38.0983 78.7295L39.102 79.1679L37.6856 82.4103L39.3606 83.1426L38.9848 84.0034L36.3045 82.8327L38.0967 78.7303L38.0983 78.7295Z" fill="white"/>
<path d="M43.0559 80.4993C44.3599 80.8574 45.0488 82.0851 44.7084 83.3225C44.3607 84.5904 43.1338 85.3179 41.8305 84.9605C40.5265 84.6024 39.8448 83.3506 40.1925 82.0827C40.5322 80.8453 41.7519 80.1411 43.0551 80.4993H43.0559ZM42.0955 83.9946C42.7411 84.172 43.4132 83.7593 43.6155 83.023C43.8099 82.3164 43.4357 81.6427 42.7901 81.4652C42.1445 81.2878 41.4789 81.6764 41.2845 82.383C41.0822 83.1201 41.4491 83.8179 42.0947 83.9954L42.0955 83.9946Z" fill="white"/>
<path d="M45.7571 81.238L46.8595 81.3505L47.8817 83.557C48.0263 83.8678 48.178 84.3552 48.178 84.3552L48.1901 84.3568C48.1901 84.3568 48.1901 83.8718 48.2174 83.5915L48.4293 81.511L49.5198 81.6219L49.0661 86.0759L47.9692 85.9643L46.9415 83.7634C46.7969 83.4526 46.6452 82.9652 46.6452 82.9652L46.6331 82.9636C46.6331 82.9636 46.6331 83.4486 46.6058 83.7288L46.3946 85.8029L45.3042 85.6921L45.7579 81.238H45.7571Z" fill="white"/>
<path d="M50.2922 81.6331L51.8804 81.5472C53.2872 81.4709 54.2315 82.2417 54.3078 83.6493C54.3841 85.0561 53.5281 85.9426 52.1213 86.0189L50.5331 86.1048L50.2922 81.6347V81.6331ZM52.0266 85.0826C52.7838 85.0417 53.2222 84.5671 53.1756 83.7096C53.1299 82.8592 52.6248 82.4473 51.8869 82.4874L51.4364 82.5115L51.5761 85.1067L52.0266 85.0826Z" fill="white"/>
<path d="M56.6469 80.8437C57.9678 80.553 59.1497 81.3199 59.4252 82.5725C59.7078 83.8573 58.9619 85.0721 57.641 85.3628C56.3201 85.6535 55.1333 84.8626 54.8507 83.5786C54.5752 82.3244 55.326 81.1344 56.6469 80.8437ZM57.4258 84.3848C58.0802 84.2411 58.4825 83.5626 58.3179 82.8166C58.1605 82.1012 57.5165 81.6788 56.8613 81.8225C56.2069 81.9663 55.799 82.6199 55.9563 83.3353C56.121 84.0813 56.7698 84.5285 57.4242 84.384L57.4258 84.3848Z" fill="white"/>
<path d="M59.3786 80.2416L60.4064 79.8272L62.3383 81.3023C62.6114 81.5094 62.9719 81.87 62.9719 81.87L62.9839 81.8652C62.9839 81.8652 62.7575 81.4372 62.6515 81.1754L61.8694 79.2362L62.8852 78.8259L64.5602 82.9765L63.538 83.3884L61.6028 81.9214C61.3298 81.7142 60.9693 81.3537 60.9693 81.3537L60.9572 81.3585C60.9572 81.3585 61.1837 81.7865 61.2897 82.0482L62.0702 83.9818L61.0544 84.3921L59.3794 80.2416H59.3786Z" fill="white"/>
</g>
<defs>
<clipPath id="clip0_326_99">
<rect width="90.6045" height="100" fill="white" transform="translate(5)"/>
</clipPath>
</defs>
</svg>
