<svg width="100" height="100" viewBox="0 0 100 100" fill="none" xmlns="http://www.w3.org/2000/svg">
<g clip-path="url(#clip0_326_101)">
<path d="M26.4751 91.0798L2.95099 50.3195L26.4751 9.5564H73.5256L97.049 50.3195L73.5256 91.0798H26.4751Z" fill="white"/>
<path d="M73.5256 9.55628L97.049 50.3201L73.5256 91.0804H26.4751L2.951 50.3194L26.4751 9.55628H73.5249M75.0011 7H24.9996L24.2615 8.27814L0.737388 49.042L0 50.3194L0.737388 51.5968L24.2615 92.357L24.9996 93.6352H75.0018L75.7399 92.357L99.2633 51.5968L100.001 50.3194L99.2633 49.042L75.7392 8.27814L75.0011 7Z" fill="white"/>
<path d="M27.1952 89.8318L4.39105 50.3193L27.1952 10.804H72.8048L95.6082 50.3193L72.8048 89.8318H27.1952Z" fill="#1D1D1B"/>
<path d="M31.5812 82.2315L13.1616 50.3192L31.5812 18.4033H68.4195L86.839 50.3192L68.4195 82.2315H31.5812Z" fill="#FAB900"/>
<path d="M31.9643 81.5658H68.0356L86.0713 50.3186L68.0356 19.0678H31.965L13.9294 50.3186L31.9643 81.5658ZM68.8034 82.8952H31.1973L12.3939 50.3186L12.5862 49.9867L31.1973 17.739H68.8041L68.9949 18.0716L87.6068 50.3193L68.8034 82.896V82.8952Z" fill="white"/>
<path d="M44.7153 35.3634H55.2499L60.8822 21.238L76.1266 52.2018L59.6417 61.9448L54.3542 79.2929H45.6472L40.3785 61.9173L23.8769 52.2018L39.0975 21.238L44.7153 35.3634Z" fill="#1D1D1B"/>
<path d="M46.8704 55.1457L39.0975 46.811V55.1457H46.8704ZM60.8822 46.811V55.1457H53.0941L60.8822 46.811Z" fill="white"/>
</g>
<defs>
<clipPath id="clip0_326_101">
<rect width="100" height="86.6359" fill="white" transform="translate(0 7)"/>
</clipPath>
</defs>
</svg>
